*
*
G04 PADS 9.5 Build Number: 522968 generated Gerber (RS-274-X) file*
G04 PC Version=2.1*
*
%IN "Energy harvester.pcb"*%
*
%MOIN*%
*
%FSLAX35Y35*%
*
*
*
*
G04 PC Standard Apertures*
*
*
G04 Thermal Relief Aperture macro.*
%AMTER*
1,1,$1,0,0*
1,0,$1-$2,0,0*
21,0,$3,$4,0,0,45*
21,0,$3,$4,0,0,135*
%
*
*
G04 Annular Aperture macro.*
%AMANN*
1,1,$1,0,0*
1,0,$2,0,0*
%
*
*
G04 Odd Aperture macro.*
%AMODD*
1,1,$1,0,0*
1,0,$1-0.005,0,0*
%
*
*
G04 PC Custom Aperture Macros*
*
*
*
*
*
*
G04 PC Aperture Table*
*
%ADD081C,0.01*%
%ADD097C,0.006*%
%ADD098C,0.00787*%
%ADD100C,0.005*%
%ADD115C,0.001*%
%ADD217C,0.01575*%
%ADD257C,0.00472*%
%ADD258C,0.00394*%
*
*
*
*
G04 PC Circuitry*
G04 Layer Name Energy harvester.pcb - circuitry*
%LPD*%
*
*
G04 PC Custom Flashes*
G04 Layer Name Energy harvester.pcb - flashes*
%LPD*%
*
*
G04 PC Circuitry*
G04 Layer Name Energy harvester.pcb - circuitry*
%LPD*%
*
G54D81*
G01X1095806Y1173526D02*
X1107806D01*
X1095806Y1184526D02*
X1107806D01*
Y1142526*
X1095806*
Y1184526*
X1364524Y1137909D02*
G75*
G03X1364524I-5910J0D01*
G01X1363114D02*
G03X1363114I-4500J0D01*
G01X1367614Y1130909D02*
G03X1367614I-2000J0D01*
G01X1368114Y1144909D02*
G03X1368114I-2000J0D01*
G01X1352614Y1130909D02*
G03X1352614I-2000J0D01*
G01X1353114Y1144909D02*
G03X1353114I-2000J0D01*
G01X1370425Y1126098D02*
Y1149720D01*
X1346803*
Y1126098*
X1370425*
X1222928Y1164961D02*
G03X1222928I-881J0D01*
G01X1330079Y1296496D02*
X1360079D01*
Y1266496*
X1330079*
Y1296496*
X1382579Y1271496D02*
Y1283996D01*
X1375079*
Y1286496*
X1382579*
Y1288996*
X1375079*
Y1291496*
X1382579*
Y1296496*
X1362579*
X1392579Y1256496D02*
Y1306496D01*
X1317579*
Y1256496*
X1392579*
X1202654Y1275512D02*
X1190654D01*
X1202654Y1264512D02*
X1190654D01*
Y1306512*
X1202654*
Y1264512*
X1114567Y1005925D02*
X1114527Y1000492D01*
X1149250Y1000489*
Y1005809*
X1114567Y1015649D02*
Y1020531D01*
X1149212Y1015838D02*
Y1020720D01*
X1200394Y1375893D02*
Y1369331D01*
Y1375893D02*
X1202439D01*
X1203121Y1375581*
X1203348Y1375268*
X1203576Y1374643*
Y1373706*
X1203348Y1373081*
X1203121Y1372768*
X1202439Y1372456*
X1200394*
X1208803Y1375893D02*
X1205621Y1369331D01*
Y1375893D02*
X1208803D01*
X1205621Y1369331D02*
X1208803D01*
X1210848Y1374643D02*
X1211303Y1374956D01*
X1211985Y1375893*
Y1369331*
X1244370Y1390814D02*
Y1384252D01*
Y1390814D02*
X1246416D01*
X1247097Y1390502*
X1247325Y1390189*
X1247552Y1389564*
Y1388627*
X1247325Y1388002*
X1247097Y1387689*
X1246416Y1387377*
X1244370*
X1252779Y1390814D02*
X1249597Y1384252D01*
Y1390814D02*
X1252779D01*
X1249597Y1384252D02*
X1252779D01*
X1255052Y1389252D02*
Y1389564D01*
X1255279Y1390189*
X1255506Y1390502*
X1255961Y1390814*
X1256870*
X1257325Y1390502*
X1257552Y1390189*
X1257779Y1389564*
Y1388939*
X1257552Y1388314*
X1257097Y1387377*
X1254825Y1384252*
X1258006*
X1350156Y1320940D02*
Y1315315D01*
X1348110Y1318127D02*
X1352201D01*
X1348110Y1343561D02*
X1352201D01*
X1351339Y1157822D02*
Y1151260D01*
Y1157822D02*
X1353384D01*
X1354066Y1157510*
X1354293Y1157197*
X1354520Y1156572*
Y1155635*
X1354293Y1155010*
X1354066Y1154697*
X1353384Y1154385*
X1351339*
X1356566Y1157822D02*
X1357702Y1151260D01*
X1358839Y1157822D02*
X1357702Y1151260D01*
X1358839Y1157822D02*
X1359975Y1151260D01*
X1361111Y1157822D02*
X1359975Y1151260D01*
X1363157Y1157822D02*
Y1151260D01*
Y1157822D02*
X1365202D01*
X1365884Y1157510*
X1366111Y1157197*
X1366339Y1156572*
Y1155947*
X1366111Y1155322*
X1365884Y1155010*
X1365202Y1154697*
X1363157*
X1364748D02*
X1366339Y1151260D01*
X1225276Y1063649D02*
Y1057087D01*
Y1063649D02*
X1227321D01*
X1228003Y1063337*
X1228230Y1063024*
X1228457Y1062399*
Y1061774*
X1228230Y1061149*
X1228003Y1060837*
X1227321Y1060524*
X1225276*
X1226866D02*
X1228457Y1057087D01*
X1233685Y1062712D02*
X1233230Y1063337D01*
X1232548Y1063649*
X1231639*
X1230957Y1063337*
X1230503Y1062712*
Y1062087*
X1230730Y1061462*
X1230957Y1061149*
X1231412Y1060837*
X1232776Y1060212*
X1233230Y1059899*
X1233457Y1059587*
X1233685Y1058962*
Y1058024*
X1233230Y1057399*
X1232548Y1057087*
X1231639*
X1230957Y1057399*
X1230503Y1058024*
X1235957Y1062087D02*
Y1062399D01*
X1236185Y1063024*
X1236412Y1063337*
X1236866Y1063649*
X1236866D02*
X1237776D01*
X1238230Y1063337*
X1238457Y1063024*
X1238685Y1062399*
Y1061774*
X1238457Y1061149*
X1238003Y1060212*
X1235730Y1057087*
X1238912*
X1241412Y1063649D02*
X1243912D01*
X1242548Y1061149*
X1243230*
X1243685Y1060837*
X1243912Y1060524*
X1244139Y1059587*
Y1058962*
X1243912Y1058024*
X1243457Y1057399*
X1242776Y1057087*
X1242094*
X1241412Y1057399*
X1241185Y1057712*
X1240957Y1058337*
X1246412Y1062087D02*
Y1062399D01*
X1246639Y1063024*
X1246866Y1063337*
X1246866D02*
X1247321Y1063649D01*
X1248230*
X1248685Y1063337*
X1248912Y1063024*
X1249139Y1062399*
Y1061774*
X1248912Y1061149*
X1248457Y1060212*
X1246185Y1057087*
X1249366*
X1120574Y1037638D02*
X1120347Y1038263D01*
X1119893Y1038888*
X1119438Y1039200*
X1118529*
X1118074Y1038888*
X1117620Y1038263*
X1117393Y1037638*
X1117165Y1036700*
Y1035138*
X1117393Y1034200*
X1117620Y1033575*
X1118074Y1032950*
X1118529Y1032638*
X1119438*
X1119893Y1032950*
X1120347Y1033575*
X1120574Y1034200*
X1122620Y1039200D02*
Y1032638D01*
X1125802Y1039200D02*
Y1032638D01*
X1122620Y1036075D02*
X1125802D01*
X1129665Y1039200D02*
X1127847Y1032638D01*
X1129665Y1039200D02*
X1131484Y1032638D01*
X1128529Y1034825D02*
X1130802D01*
X1133529Y1039200D02*
Y1032638D01*
Y1039200D02*
X1135574D01*
X1136256Y1038888*
X1136484Y1038575*
X1136711Y1037950*
Y1037325*
X1136484Y1036700*
X1136256Y1036388*
X1135574Y1036075*
X1133529*
X1135120D02*
X1136711Y1032638D01*
X1142165Y1037638D02*
X1141938Y1038263D01*
X1141484Y1038888*
X1141029Y1039200*
X1140120*
X1139665Y1038888*
X1139211Y1038263*
X1138984Y1037638*
X1138756Y1036700*
Y1035138*
X1138984Y1034200*
X1139211Y1033575*
X1139665Y1032950*
X1140120Y1032638*
X1141029*
X1141484Y1032950*
X1141938Y1033575*
X1142165Y1034200*
Y1035138*
X1141029D02*
X1142165D01*
X1144211Y1039200D02*
Y1032638D01*
Y1039200D02*
X1147165D01*
X1144211Y1036075D02*
X1146029D01*
X1144211Y1032638D02*
X1147165D01*
X1161951Y1027650D02*
Y1023150D01*
X1160315Y1025400D02*
X1163588D01*
X1167588Y1028400D02*
X1165770D01*
X1165588Y1026150*
X1165770Y1026400*
X1166315Y1026650*
X1166860*
X1167406Y1026400*
X1167770Y1025900*
X1167951Y1025150*
X1167770Y1024650*
X1167588Y1023900*
X1167224Y1023400*
X1166679Y1023150*
X1166133*
X1165588Y1023400*
X1165406Y1023650*
X1165224Y1024150*
X1169588Y1028400D02*
X1171042Y1023150D01*
X1172497Y1028400D02*
X1171042Y1023150D01*
X1182109Y1027138D02*
Y1022638D01*
X1180472Y1024888D02*
X1183745D01*
X1185745Y1027888D02*
X1187745D01*
X1186654Y1025888*
X1187200*
X1187563Y1025638*
X1187745Y1025388*
X1187927Y1024638*
Y1024138*
X1187745Y1023388*
X1187382Y1022888*
X1186836Y1022638*
X1186291*
X1185745Y1022888*
X1185563Y1023138*
X1185382Y1023638*
X1189745Y1023138D02*
X1189563Y1022888D01*
X1189745Y1022638*
X1189927Y1022888*
X1189745Y1023138*
X1191927Y1027888D02*
X1193927D01*
X1192836Y1025888*
X1193382*
X1193745Y1025638*
X1193927Y1025388*
X1194109Y1024638*
Y1024138*
X1193927Y1023388*
X1193563Y1022888*
X1193018Y1022638*
X1192472*
X1191927Y1022888*
X1191745Y1023138*
X1191563Y1023638*
X1195745Y1027888D02*
X1197200Y1022638D01*
X1198654Y1027888D02*
X1197200Y1022638D01*
X1067008Y1028045D02*
Y1022795D01*
Y1028045D02*
X1068644D01*
X1069190Y1027795*
X1069372Y1027545*
X1069553Y1027045*
Y1026545*
X1069372Y1026045*
X1069190Y1025795*
X1068644Y1025545*
X1067008D02*
X1068644D01*
X1069190Y1025295*
X1069372Y1025045*
X1069553Y1024545*
Y1023795*
X1069372Y1023295*
X1069190Y1023045*
X1068644Y1022795*
X1067008*
X1072644Y1028045D02*
X1071190Y1022795D01*
X1072644Y1028045D02*
X1074099Y1022795D01*
X1071735Y1024545D02*
X1073553D01*
X1077008Y1028045D02*
Y1022795D01*
X1075735Y1028045D02*
X1078281D01*
X1092767Y1026598D02*
X1092585Y1027098D01*
X1092221Y1027598*
X1091858Y1027848*
X1091130*
X1090767Y1027598*
X1090403Y1027098*
X1090221Y1026598*
X1090039Y1025848*
Y1024598*
X1090221Y1023848*
X1090403Y1023348*
X1090767Y1022848*
X1091130Y1022598*
X1091858*
X1092221Y1022848*
X1092585Y1023348*
X1092767Y1023848*
Y1024598*
X1091858D02*
X1092767D01*
X1094403Y1027848D02*
Y1022598D01*
Y1027848D02*
X1096948Y1022598D01*
Y1027848D02*
Y1022598D01*
X1098585Y1027848D02*
Y1022598D01*
Y1027848D02*
X1099858D01*
X1100403Y1027598*
X1100767Y1027098*
X1100948Y1026598*
X1101130Y1025848*
Y1024598*
X1100948Y1023848*
X1100767Y1023348*
X1100403Y1022848*
X1099858Y1022598*
X1098585*
X1202913Y1242652D02*
Y1237402D01*
Y1242652D02*
X1204550D01*
X1205095Y1242402*
X1205277Y1242152*
X1205459Y1241652*
Y1241152*
X1205277Y1240652*
X1205095Y1240402*
X1204550Y1240152*
X1202913*
X1204186D02*
X1205459Y1237402D01*
X1207095Y1242652D02*
Y1238902D01*
X1207277Y1238152*
X1207641Y1237652*
X1208186Y1237402*
X1208550*
X1209095Y1237652*
X1209459Y1238152*
X1209641Y1238902*
Y1242652*
X1211277D02*
Y1237402D01*
Y1242652D02*
X1213822Y1237402D01*
Y1242652D02*
Y1237402D01*
X1202441Y1226392D02*
Y1221142D01*
Y1226392D02*
X1204077D01*
X1204623Y1226142*
X1204805Y1225892*
X1204986Y1225392*
Y1224892*
X1204805Y1224392*
X1204623Y1224142*
X1204077Y1223892*
X1202441D02*
X1204077D01*
X1204623Y1223642*
X1204805Y1223392*
X1204986Y1222892*
Y1222142*
X1204805Y1221642*
X1204623Y1221392*
X1204077Y1221142*
X1202441*
X1208077Y1226392D02*
X1206623Y1221142D01*
X1208077Y1226392D02*
X1209532Y1221142D01*
X1207168Y1222892D02*
X1208986D01*
X1212441Y1226392D02*
Y1221142D01*
X1211168Y1226392D02*
X1213714D01*
X1211220Y1332100D02*
Y1326850D01*
Y1332100D02*
X1212857D01*
X1213402Y1331850*
X1213584Y1331600*
X1213766Y1331100*
Y1330600*
X1213584Y1330100*
X1213402Y1329850*
X1212857Y1329600*
X1211220*
X1212493D02*
X1213766Y1326850D01*
X1215402Y1332100D02*
Y1328350D01*
X1215584Y1327600*
X1215948Y1327100*
X1216493Y1326850*
X1216857*
X1217402Y1327100*
X1217766Y1327600*
X1217948Y1328350*
Y1332100*
X1219584D02*
Y1326850D01*
Y1332100D02*
X1222130Y1326850D01*
Y1332100D02*
Y1326850D01*
X1286677Y1374094D02*
X1286450Y1374719D01*
X1285995Y1375344*
X1285540Y1375657*
X1284631*
X1284177Y1375344*
X1283722Y1374719*
X1283495Y1374094*
X1283268Y1373157*
Y1371594*
X1283495Y1370657*
X1283722Y1370032*
X1284177Y1369407*
X1284631Y1369094*
X1285540*
X1285995Y1369407*
X1286450Y1370032*
X1286677Y1370657*
Y1371594*
X1285540D02*
X1286677D01*
X1288722Y1375657D02*
Y1369094D01*
Y1375657D02*
X1291904Y1369094D01*
Y1375657D02*
Y1369094D01*
X1293950Y1375657D02*
Y1369094D01*
Y1375657D02*
X1295540D01*
X1296222Y1375344*
X1296677Y1374719*
X1296904Y1374094*
X1297131Y1373157*
Y1371594*
X1296904Y1370657*
X1296677Y1370032*
X1296222Y1369407*
X1295540Y1369094*
X1293950*
X1299404Y1374094D02*
Y1374407D01*
X1299631Y1375032*
X1299859Y1375344*
X1300313Y1375657*
X1301222*
X1301677Y1375344*
X1301904Y1375032*
X1302131Y1374407*
Y1373782*
X1301904Y1373157*
X1301450Y1372219*
X1299177Y1369094*
X1302359*
X1326324Y1390027D02*
X1325870Y1389715D01*
X1325415Y1389090*
X1325188Y1388465*
X1324961Y1387527*
Y1385965*
X1325188Y1385027*
X1325415Y1384402*
X1325870Y1383777*
X1326324Y1383465*
X1327233*
X1327688Y1383777*
X1328142Y1384402*
X1328370Y1385027*
X1328597Y1385965*
Y1387527*
X1328370Y1388465*
X1328142Y1389090*
X1327688Y1389715*
X1327233Y1390027*
X1326324*
X1330642D02*
Y1385340D01*
X1330870Y1384402*
X1331324Y1383777*
X1332006Y1383465*
X1332461*
X1333142Y1383777*
X1333597Y1384402*
X1333824Y1385340*
Y1390027*
X1337461D02*
Y1383465D01*
X1335870Y1390027D02*
X1339052D01*
X1341097D02*
Y1383465D01*
Y1390027D02*
X1343142D01*
X1343824Y1389715*
X1344052Y1389402*
X1344279Y1388777*
Y1387840*
X1344052Y1387215*
X1343824Y1386902*
X1343142Y1386590*
X1341097*
X1346324Y1390027D02*
Y1385340D01*
X1346552Y1384402*
X1347006Y1383777*
X1347688Y1383465*
X1348142*
X1348824Y1383777*
X1349279Y1384402*
X1349506Y1385340*
Y1390027*
X1353142D02*
Y1383465D01*
X1351552Y1390027D02*
X1354733D01*
X1153740Y1319712D02*
Y1313150D01*
Y1319712D02*
X1155331D01*
X1156013Y1319400*
X1156467Y1318775*
X1156695Y1318150*
X1156922Y1317212*
Y1315650*
X1156695Y1314712*
X1156467Y1314087*
X1156013Y1313462*
X1155331Y1313150*
X1153740*
X1158967Y1318462D02*
X1159422Y1318775D01*
X1160104Y1319712*
Y1313150*
X1174173Y1319358D02*
Y1312795D01*
Y1319358D02*
X1175764D01*
X1176446Y1319045*
X1176901Y1318420*
X1176901D02*
X1177128Y1317795D01*
X1177355Y1316858*
Y1315295*
X1177128Y1314358*
X1176901Y1313733*
X1176901D02*
X1176446Y1313108D01*
X1175764Y1312795*
X1174173*
X1180764Y1319358D02*
X1180082Y1319045D01*
X1179628Y1318108*
X1179401Y1316545*
X1179401D02*
Y1315608D01*
X1179401D02*
X1179628Y1314045D01*
X1180082Y1313108*
X1180764Y1312795*
X1181219*
X1181901Y1313108*
X1181901D02*
X1182355Y1314045D01*
X1182582Y1315608*
Y1316545*
X1182355Y1318108*
X1181901Y1319045*
X1181901D02*
X1181219Y1319358D01*
X1180764*
X1193268Y1347084D02*
X1193722Y1347397D01*
X1194404Y1348334*
Y1341772*
X1204016Y1346769D02*
X1204470Y1347082D01*
X1205152Y1348019*
Y1341457*
X1194316Y1333964D02*
X1193635Y1333652D01*
X1193180Y1332714*
X1192953Y1331152*
Y1330214*
X1193180Y1328652*
X1193635Y1327714*
X1194316Y1327402*
X1194771*
X1195453Y1327714*
X1195907Y1328652*
X1196135Y1330214*
Y1331152*
X1195907Y1332714*
X1195453Y1333652*
X1194771Y1333964*
X1194316*
X1204001Y1333885D02*
X1203320Y1333573D01*
X1202865Y1332635*
X1202638Y1331073*
Y1330135*
X1202865Y1328573*
X1203320Y1327635*
X1204001Y1327323*
X1204456*
X1205138Y1327635*
X1205592Y1328573*
X1205820Y1330135*
Y1331073*
X1205592Y1332635*
X1205138Y1333573*
X1204456Y1333885*
X1204001*
X1157677Y1218816D02*
X1158132Y1219129D01*
X1158814Y1220066*
Y1213504*
X1148332Y1219948D02*
X1147650Y1219636D01*
X1147196Y1218698*
X1146969Y1217136*
Y1216198*
X1147196Y1214636*
X1147650Y1213698*
X1148332Y1213386*
X1148787*
X1149469Y1213698*
X1149923Y1214636*
X1150150Y1216198*
Y1217136*
X1149923Y1218698*
X1149469Y1219636*
X1148787Y1219948*
X1148332*
X1148253Y1231523D02*
X1147572Y1231211D01*
X1147117Y1230273*
X1146890Y1228711*
Y1227773*
X1147117Y1226211*
X1147572Y1225273*
X1148253Y1224961*
X1148708*
X1149390Y1225273*
X1149844Y1226211*
X1150072Y1227773*
Y1228711*
X1149844Y1230273*
X1149390Y1231211*
X1148708Y1231523*
X1148253*
X1158057Y1231602D02*
X1157375Y1231289D01*
X1156920Y1230352*
X1156693Y1228789*
Y1227852*
X1156920Y1226289*
X1157375Y1225352*
X1158057Y1225039*
X1158511*
X1159193Y1225352*
X1159647Y1226289*
X1159875Y1227852*
Y1228789*
X1159647Y1230352*
X1159193Y1231289*
X1158511Y1231602*
X1158057*
X1157978Y1209555D02*
X1157296Y1209242D01*
X1156841Y1208305*
X1156614Y1206742*
Y1205805*
X1156841Y1204242*
X1157296Y1203305*
X1157978Y1202992*
X1158432*
X1159114Y1203305*
X1159569Y1204242*
X1159796Y1205805*
Y1206742*
X1159569Y1208305*
X1159114Y1209242*
X1158432Y1209555*
X1157978*
X1147520Y1208462D02*
X1147974Y1208775D01*
X1148656Y1209712*
Y1203150*
X1147992Y1196927D02*
X1148447Y1197239D01*
X1149128Y1198177*
Y1191614*
X1157283Y1196927D02*
X1157738Y1197239D01*
X1158420Y1198177*
Y1191614*
X1154213Y1240053D02*
Y1234803D01*
Y1240053D02*
X1155485D01*
X1156031Y1239803*
X1156394Y1239303*
X1156576Y1238803*
X1156758Y1238053*
Y1236803*
X1156576Y1236053*
X1156394Y1235553*
X1156031Y1235053*
X1155485Y1234803*
X1154213*
X1159485Y1240053D02*
X1158940Y1239803D01*
X1158576Y1239053*
X1158394Y1237803*
Y1237053*
X1158576Y1235803*
X1158940Y1235053*
X1159485Y1234803*
X1159849*
X1160394Y1235053*
X1160758Y1235803*
X1160940Y1237053*
Y1237803*
X1160758Y1239053*
X1160394Y1239803*
X1159849Y1240053*
X1159485*
X1146063Y1239935D02*
Y1234685D01*
Y1239935D02*
X1147336D01*
X1147881Y1239685*
X1148245Y1239185*
X1148427Y1238685*
X1148608Y1237935*
Y1236685*
X1148427Y1235935*
X1148245Y1235435*
X1147881Y1234935*
X1147336Y1234685*
X1146063*
X1150245Y1238935D02*
X1150608Y1239185D01*
X1151154Y1239935*
Y1234685*
X1164173Y1240053D02*
X1165628Y1234803D01*
X1167082Y1240053D02*
X1165628Y1234803D01*
X1169810Y1240053D02*
X1169446Y1239803D01*
X1169082Y1239303*
X1168901Y1238803*
X1168901D02*
X1168719Y1238053D01*
Y1236803*
X1168901Y1236053*
X1168901D02*
X1169082Y1235553D01*
X1169446Y1235053*
X1169810Y1234803*
X1170537*
X1170901Y1235053*
X1170901D02*
X1171264Y1235553D01*
X1171446Y1236053*
X1171628Y1236803*
Y1238053*
X1171446Y1238803*
X1171264Y1239303*
X1170901Y1239803*
X1170901D02*
X1170537Y1240053D01*
X1169810*
X1173264D02*
Y1236303D01*
X1173446Y1235553*
X1173810Y1235053*
X1174355Y1234803*
X1174719*
X1175264Y1235053*
X1175628Y1235553*
X1175810Y1236303*
Y1240053*
X1178719D02*
Y1234803D01*
X1177446Y1240053D02*
X1179991D01*
X1163937Y1229447D02*
X1164301Y1229697D01*
X1164846Y1230447*
Y1225197*
X1166664Y1225697D02*
X1166482Y1225447D01*
X1166664Y1225197*
X1166846Y1225447*
X1166664Y1225697*
X1169392Y1230447D02*
X1168846Y1230197D01*
X1168664Y1229697*
Y1229197*
X1168846Y1228697*
X1169210Y1228447*
X1169937Y1228197*
X1170482Y1227947*
X1170846Y1227447*
X1171028Y1226947*
Y1226197*
X1170846Y1225697*
X1170664Y1225447*
X1170119Y1225197*
X1169392*
X1168846Y1225447*
X1168664Y1225697*
X1168482Y1226197*
Y1226947*
X1168664Y1227447*
X1169028Y1227947*
X1169573Y1228197*
X1170301Y1228447*
X1170664Y1228697*
X1170846Y1229197*
Y1229697*
X1170664Y1230197*
X1170119Y1230447*
X1169392*
X1172664D02*
X1174119Y1225197D01*
X1175573Y1230447D02*
X1174119Y1225197D01*
X1164473Y1218094D02*
Y1218344D01*
X1164655Y1218844*
X1164837Y1219094*
X1165200Y1219344*
X1165928*
X1166291Y1219094*
X1166473Y1218844*
X1166655Y1218344*
Y1217844*
X1166473Y1217344*
X1166110Y1216594*
X1164291Y1214094*
X1166837*
X1168655Y1214594D02*
X1168473Y1214344D01*
X1168655Y1214094*
X1168837Y1214344*
X1168655Y1214594*
X1172837Y1219344D02*
X1171019D01*
X1170837Y1217094*
X1171019Y1217344*
X1171564Y1217594*
X1172110*
X1172655Y1217344*
X1173019Y1216844*
X1173200Y1216094*
X1173019Y1215594*
X1172837Y1214844*
X1172473Y1214344*
X1171928Y1214094*
X1171382*
X1170837Y1214344*
X1170655Y1214594*
X1170473Y1215094*
X1174837Y1219344D02*
X1176291Y1214094D01*
X1177746Y1219344D02*
X1176291Y1214094D01*
X1165009Y1209030D02*
X1167009D01*
X1165918Y1207030*
X1166464*
X1166827Y1206780*
X1167009Y1206530*
X1167191Y1205780*
Y1205280*
X1167009Y1204530*
X1166646Y1204030*
X1166100Y1203780*
X1165555*
X1165009Y1204030*
X1164827Y1204280*
X1164646Y1204780*
X1169009Y1204280D02*
X1168827Y1204030D01*
X1169009Y1203780*
X1169191Y1204030*
X1169009Y1204280*
X1171191Y1209030D02*
X1173191D01*
X1172100Y1207030*
X1172646*
X1173009Y1206780*
X1173191Y1206530*
X1173373Y1205780*
Y1205280*
X1173191Y1204530*
X1172827Y1204030*
X1172282Y1203780*
X1171737*
X1171191Y1204030*
X1171009Y1204280*
X1170827Y1204780*
X1175009Y1209030D02*
X1176464Y1203780D01*
X1177918Y1209030D02*
X1176464Y1203780D01*
X1164773Y1197809D02*
X1166773D01*
X1165682Y1195809*
X1166228*
X1166591Y1195559*
X1166773Y1195309*
X1166955Y1194559*
Y1194059*
X1166773Y1193309*
X1166409Y1192809*
X1165864Y1192559*
X1165319*
X1164773Y1192809*
X1164591Y1193059*
X1164409Y1193559*
X1168773Y1193059D02*
X1168591Y1192809D01*
X1168773Y1192559*
X1168955Y1192809*
X1168773Y1193059*
X1172773Y1197059D02*
X1172591Y1197559D01*
X1172046Y1197809*
X1171682*
X1171137Y1197559*
X1170773Y1196809*
X1170591Y1195559*
Y1194309*
X1170773Y1193309*
X1171137Y1192809*
X1171682Y1192559*
X1171864*
X1172409Y1192809*
X1172773Y1193309*
X1172955Y1194059*
Y1194309*
X1172773Y1195059*
X1172409Y1195559*
X1171864Y1195809*
X1171682*
X1171137Y1195559*
X1170773Y1195059*
X1170591Y1194309*
X1174591Y1197809D02*
X1176046Y1192559D01*
X1177500Y1197809D02*
X1176046Y1192559D01*
X1170183Y1283255D02*
X1169728Y1282943D01*
X1169273Y1282318*
X1169046Y1281693*
X1168819Y1280755*
Y1279193*
X1169046Y1278255*
X1169273Y1277630*
X1169728Y1277005*
X1170183Y1276693*
X1171092*
X1171546Y1277005*
X1172001Y1277630*
X1172228Y1278255*
X1172455Y1279193*
Y1280755*
X1172228Y1281693*
X1172001Y1282318*
X1171546Y1282943*
X1171092Y1283255*
X1170183*
X1174501D02*
Y1276693D01*
Y1283255D02*
X1177683Y1276693D01*
Y1283255D02*
Y1276693D01*
X1148135Y1254122D02*
X1147681Y1253809D01*
X1147226Y1253184*
X1146999Y1252559*
X1146772Y1251622*
Y1250059*
X1146999Y1249122*
X1147226Y1248497*
X1147681Y1247872*
X1148135Y1247559*
X1149044*
X1149499Y1247872*
X1149953Y1248497*
X1150181Y1249122*
X1150408Y1250059*
Y1251622*
X1150181Y1252559*
X1149953Y1253184*
X1149499Y1253809*
X1149044Y1254122*
X1148135*
X1152453D02*
Y1247559D01*
Y1254122D02*
X1155408D01*
X1152453Y1250997D02*
X1154272D01*
X1157453Y1254122D02*
Y1247559D01*
Y1254122D02*
X1160408D01*
X1157453Y1250997D02*
X1159272D01*
X1000000Y1000000D02*
X1393701D01*
Y1393701*
X1000000*
Y1000000*
G54D97*
X1187586Y1353589D02*
Y1323589D01*
X1167586*
Y1353589*
X1187586*
X1166720D02*
Y1323589D01*
X1146720*
Y1353589*
X1166720*
X1344286Y1327627D02*
X1333263D01*
Y1332352*
X1344286*
Y1327627*
Y1337470D02*
X1333263D01*
Y1342194*
X1344286*
Y1337470*
X1349567Y1334610D02*
Y1338622D01*
X1344843*
Y1334610*
X1349567Y1331610D02*
Y1327598D01*
X1344843*
Y1331610*
X1333263Y1337470D02*
X1344286D01*
Y1332746*
X1333263*
Y1337470*
X1284170Y1237899D02*
X1273147D01*
Y1242623*
X1284170*
Y1237899*
Y1233174D02*
X1273147D01*
Y1237899*
X1284170*
Y1233174*
X1273147Y1232387D02*
X1284170D01*
Y1227662*
X1273147*
Y1232387*
X1273081Y1248003D02*
X1284104D01*
Y1243279*
X1273081*
Y1248003*
X1269302Y1162118D02*
X1280325D01*
Y1157394*
X1269302*
Y1162118*
X1273313Y1166843D02*
X1269302D01*
Y1162118*
X1273313*
X1276313Y1166843D02*
X1280325D01*
Y1162118*
X1276313*
X1330719Y1184934D02*
Y1180923D01*
X1335444*
Y1184934*
X1330719Y1187934D02*
Y1191946D01*
X1335444*
Y1187934*
X1325509Y1180923D02*
Y1191946D01*
X1330233*
Y1180923*
X1325509*
X1324860Y1191946D02*
Y1180923D01*
X1320135*
Y1191946*
X1324860*
X1272802Y1362440D02*
Y1356940D01*
X1279802*
Y1362440*
X1272802Y1365440D02*
Y1370940D01*
X1279802*
Y1365440*
X1242539Y1385039D02*
G03X1242539I-7500J0D01*
G01X1335390Y1354513D02*
X1324366D01*
Y1359238*
X1335390*
Y1354513*
X1331375Y1359854D02*
X1335387D01*
Y1364578*
X1331375*
X1328375Y1359854D02*
X1324364D01*
Y1364578*
X1328375*
X1340534Y1324072D02*
Y1313049D01*
X1335809*
Y1324072*
X1340534*
X1175197Y1366063D02*
Y1385748D01*
X1184646D02*
G03X1175197I-4725J0D01*
G01X1184646D02*
Y1381811D01*
X1186220*
Y1369606*
X1184646*
Y1366063*
X1175197D02*
G03X1184646I4724J-0D01*
G01X1175197Y1390866D02*
Y1360945D01*
X1173228*
Y1390866*
X1175197*
X1185376Y1367086D02*
X1188189D01*
X1186783Y1366063D02*
Y1368108D01*
X1185995Y1382992D02*
Y1385038D01*
X1158110Y1366063D02*
Y1385748D01*
X1167559D02*
G03X1158110I-4724J0D01*
G01X1167559D02*
Y1381811D01*
X1169134*
Y1369606*
X1167559*
Y1366063*
X1158110D02*
G03X1167559I4725J-0D01*
G01X1158110Y1390866D02*
Y1360945D01*
X1156142*
Y1390866*
X1158110*
X1168290Y1367086D02*
X1171102D01*
X1169696Y1366063D02*
Y1368108D01*
X1168909Y1382992D02*
Y1385038D01*
X1140866Y1366063D02*
Y1385748D01*
X1150315D02*
G03X1140866I-4724J0D01*
G01X1150315D02*
Y1381811D01*
X1151890*
Y1369606*
X1150315*
Y1366063*
X1140866D02*
G03X1150315I4725J-0D01*
G01X1140866Y1390866D02*
Y1360945D01*
X1138898*
Y1390866*
X1140866*
X1151046Y1367086D02*
X1153858D01*
X1152452Y1366063D02*
Y1368108D01*
X1151665Y1382992D02*
Y1385038D01*
X1124606Y1366063D02*
Y1385748D01*
X1134055D02*
G03X1124606I-4724J0D01*
G01X1134055D02*
Y1381811D01*
X1135630*
Y1369606*
X1134055*
Y1366063*
X1124606D02*
G03X1134055I4725J-0D01*
G01X1124606Y1390866D02*
Y1360945D01*
X1122638*
Y1390866*
X1124606*
X1134786Y1367086D02*
X1137598D01*
X1136192Y1366063D02*
Y1368108D01*
X1135405Y1382992D02*
Y1385038D01*
X1107874Y1366063D02*
Y1385748D01*
X1117323D02*
G03X1107874I-4725J0D01*
G01X1117323D02*
Y1381811D01*
X1118898*
Y1369606*
X1117323*
Y1366063*
X1107874D02*
G03X1117323I4724J-0D01*
G01X1107874Y1390866D02*
Y1360945D01*
X1105906*
Y1390866*
X1107874*
X1118054Y1367086D02*
X1120866D01*
X1119460Y1366063D02*
Y1368108D01*
X1118672Y1382992D02*
Y1385038D01*
X1091449Y1366060D02*
Y1385745D01*
X1100898D02*
G03X1091449I-4724J-0D01*
G01X1100898D02*
Y1381808D01*
X1102473*
Y1369603*
X1100898*
Y1366060*
X1091449D02*
G03X1100898I4725J-0D01*
G01X1091449Y1390863D02*
Y1360942D01*
X1089481*
Y1390863*
X1091449*
X1101629Y1367082D02*
X1104441D01*
X1103035Y1366060D02*
Y1368105D01*
X1102248Y1382989D02*
Y1385034D01*
X1266490Y1291130D02*
X1262479D01*
Y1286405*
X1266490*
X1269490Y1291130D02*
X1273502D01*
Y1286405*
X1269490*
X1262479Y1296248D02*
X1273502D01*
Y1291523*
X1262479*
Y1296248*
X1217967Y1283888D02*
X1221979D01*
Y1288613*
X1221979D02*
X1217967D01*
X1214967Y1283888D02*
X1210955D01*
Y1288613*
X1210955D02*
X1214967D01*
X1108308Y1193407D02*
X1097285D01*
Y1198131*
X1108308*
Y1193407*
Y1188682D02*
X1097285D01*
Y1193407*
X1108308*
Y1188682*
X1162583Y1244061D02*
Y1274061D01*
X1182583*
Y1244061*
X1162583*
X1199983Y1232513D02*
X1188960D01*
Y1237237*
X1199983*
Y1232513*
Y1242749D02*
X1188960D01*
Y1247474*
X1199983*
Y1242749*
X1195184Y1242493D02*
X1200484D01*
Y1237493*
X1195184*
X1188084Y1242493D02*
X1199384D01*
Y1237493*
X1188084*
Y1242493*
X1200268Y1216096D02*
X1189244D01*
Y1220821*
X1200268*
Y1216096*
X1195468Y1226470D02*
X1200768D01*
Y1221470*
X1195468*
X1188368Y1226470D02*
X1199668D01*
Y1221470*
X1188368*
Y1226470*
X1268639Y1189079D02*
X1279662D01*
Y1184355*
X1268639*
Y1189079*
X1272939Y1174251D02*
X1268928D01*
Y1169526*
X1272939*
X1275939Y1174251D02*
X1279951D01*
Y1169526*
X1275939*
X1156650Y1166513D02*
Y1188482D01*
X1168619*
Y1166513*
X1156650*
X1336006Y1238372D02*
X1340018D01*
Y1243096*
X1336006*
X1333006Y1238372D02*
X1328994D01*
Y1243096*
X1333006*
X1298502Y1248503D02*
X1309525D01*
Y1243779*
X1298502*
Y1248503*
X1329134Y1225984D02*
X1340157D01*
Y1221260*
X1329134*
Y1225984*
X1340157Y1226378D02*
X1329134D01*
Y1231102*
X1340157*
Y1226378*
X1329134Y1235827D02*
X1340157D01*
Y1231102*
X1329134*
Y1235827*
X1389764Y1019685D02*
G03X1389764I-15748J0D01*
G01X1237383Y1158240D02*
X1248406D01*
Y1153515*
X1237383*
Y1158240*
X1203937Y1081496D02*
Y1092520D01*
X1208661*
Y1081496*
X1203937*
X1171260Y1048819D02*
X1160236D01*
Y1053543*
X1171260*
Y1048819*
X1141339Y1052165D02*
X1136417D01*
Y1054242*
X1134646*
Y1052165*
X1129528*
Y1073819*
X1141339*
Y1052165*
X1144588Y1052756D02*
X1144432Y1052983D01*
X1143963Y1053324*
X1147244*
X1165705Y1063705D02*
Y1069205D01*
X1158705*
Y1063705*
X1165705Y1060705D02*
Y1055205D01*
X1158705*
Y1060705*
X1108736Y1070429D02*
X1103236D01*
Y1063429*
X1108736*
X1111736Y1070429D02*
X1117236D01*
Y1063429*
X1111736*
X1116142Y1057874D02*
X1105118D01*
Y1062598*
X1116142*
Y1057874*
X1287008Y1061417D02*
X1275984D01*
Y1066142*
X1287008*
Y1061417*
X1314567Y1062598D02*
X1303543D01*
Y1067323*
X1314567*
Y1062598*
X1368110Y1078740D02*
X1357087D01*
Y1083465*
X1368110*
Y1078740*
X1237008Y1220079D02*
Y1231102D01*
X1241732*
Y1220079*
X1237008*
X1218110Y1092520D02*
Y1081496D01*
X1213386*
Y1092520*
X1218110*
X1213386D02*
Y1081496D01*
X1208661*
Y1092520*
X1213386*
X1218110Y1081496D02*
Y1092520D01*
X1222835*
Y1081496*
X1218110*
X1138976Y1099213D02*
X1127953D01*
Y1103937*
X1138976*
Y1099213*
X1100394Y1077165D02*
Y1088189D01*
X1105118*
Y1077165*
X1100394*
X1222835Y1081496D02*
Y1092520D01*
X1227559*
Y1081496*
X1222835*
X1097638Y1118504D02*
X1108661D01*
Y1113780*
X1097638*
Y1118504*
X1193701Y1175984D02*
X1182677D01*
Y1180709*
X1193701*
Y1175984*
X1221654Y1315748D02*
X1210630D01*
Y1320472*
X1221654*
Y1315748*
X1198425Y1081496D02*
Y1092520D01*
X1203150*
Y1081496*
X1198425*
X1127953Y1108661D02*
X1138976D01*
Y1103937*
X1127953*
Y1108661*
X1118504Y1049606D02*
X1107480D01*
Y1054331*
X1118504*
Y1049606*
X1232677Y1099606D02*
Y1088583D01*
X1227953*
Y1099606*
X1232677*
X1108661Y1118504D02*
X1097638D01*
Y1123228*
X1108661*
Y1118504*
X1192445Y1167366D02*
X1197945D01*
Y1174366*
X1192445*
X1189445Y1167366D02*
X1183945D01*
Y1174366*
X1189445*
X1361098Y1088189D02*
X1357087D01*
Y1083465*
X1361098*
X1364098Y1088189D02*
X1368110D01*
Y1083465*
X1364098*
X1232283Y1224091D02*
Y1220079D01*
X1237008*
Y1224091*
X1232283Y1227091D02*
Y1231102D01*
X1237008*
Y1227091*
X1300469Y1302362D02*
X1296457D01*
Y1297638*
X1300469*
X1303469Y1302362D02*
X1307480D01*
Y1297638*
X1303469*
X1310555Y1105512D02*
X1314567D01*
Y1110236*
X1310555*
X1307555Y1105512D02*
X1303543D01*
Y1110236*
X1307555*
Y1093307D02*
X1303543D01*
Y1088583*
X1307555*
X1310555Y1093307D02*
X1314567D01*
Y1088583*
X1310555*
Y1099213D02*
X1314567D01*
Y1103937*
X1310555*
X1307555Y1099213D02*
X1303543D01*
Y1103937*
X1307555*
X1310555Y1078740D02*
X1314567D01*
Y1083465*
X1310555*
X1307555Y1078740D02*
X1303543D01*
Y1083465*
X1307555*
X1335358Y1111417D02*
X1339370D01*
Y1116142*
X1335358*
X1332358Y1111417D02*
X1328346D01*
Y1116142*
X1332358*
X1140902Y1086539D02*
Y1092039D01*
X1133902*
Y1086539*
X1140902Y1083539D02*
Y1078039D01*
X1133902*
Y1083539*
X1132634Y1086539D02*
Y1092039D01*
X1125634*
Y1086539*
X1132634Y1083539D02*
Y1078039D01*
X1125634*
Y1083539*
X1277996Y1088264D02*
Y1082764D01*
X1284996*
Y1088264*
X1277996Y1091264D02*
Y1096764D01*
X1284996*
Y1091264*
X1173972Y1063705D02*
Y1069205D01*
X1166972*
Y1063705*
X1173972Y1060705D02*
Y1055205D01*
X1166972*
Y1060705*
X1269728Y1088264D02*
Y1082764D01*
X1276728*
Y1088264*
X1269728Y1091264D02*
Y1096764D01*
X1276728*
Y1091264*
X1221610Y1102287D02*
Y1107787D01*
X1214610*
Y1102287*
X1221610Y1099287D02*
Y1093787D01*
X1214610*
Y1099287*
X1213343Y1102287D02*
Y1107787D01*
X1206343*
Y1102287*
X1213343Y1099287D02*
Y1093787D01*
X1206343*
Y1099287*
X1241020Y1151969D02*
X1237008D01*
Y1147244*
X1241020*
X1244020Y1151969D02*
X1248031D01*
Y1147244*
X1244020*
X1228272D02*
X1232283D01*
Y1151969*
X1228272*
X1225272Y1147244D02*
X1221260D01*
Y1151969*
X1225272*
X1190870Y1161417D02*
X1194882D01*
Y1166142*
X1190870*
X1187870Y1161417D02*
X1183858D01*
Y1166142*
X1187870*
X1272516Y1196850D02*
X1268504D01*
Y1192126*
X1272516*
X1275516Y1196850D02*
X1279528D01*
Y1192126*
X1275516*
X1261811Y1157555D02*
Y1153543D01*
X1266535*
Y1157555*
X1261811Y1160555D02*
Y1164567D01*
X1266535*
Y1160555*
X1189689Y1181102D02*
X1193701D01*
Y1185827*
X1189689*
X1186689Y1181102D02*
X1182677D01*
Y1185827*
X1186689*
X1255437Y1148425D02*
X1259449D01*
Y1153150*
X1255437*
X1252437Y1148425D02*
X1248425D01*
Y1153150*
X1252437*
X1220398Y1153937D02*
X1224409D01*
Y1158661*
X1220398*
X1217398Y1153937D02*
X1213386D01*
Y1158661*
X1217398*
X1285827Y1088657D02*
Y1084646D01*
X1290551*
Y1088657*
X1285827Y1091657D02*
Y1095669D01*
X1290551*
Y1091657*
X1101650Y1113386D02*
X1097638D01*
Y1108661*
X1101650*
X1104650Y1113386D02*
X1108661D01*
Y1108661*
X1104650*
X1111492Y1049606D02*
X1107480D01*
Y1044882*
X1111492*
X1114492Y1049606D02*
X1118504D01*
Y1044882*
X1114492*
X1131965Y1099213D02*
X1127953D01*
Y1094488*
X1131965*
X1134965Y1099213D02*
X1138976D01*
Y1094488*
X1134965*
X1095276Y1081177D02*
Y1077165D01*
X1100000*
Y1081177*
X1095276Y1084177D02*
Y1088189D01*
X1100000*
Y1084177*
X1218110Y1224091D02*
Y1220079D01*
X1222835*
Y1224091*
X1218110Y1227091D02*
Y1231102D01*
X1222835*
Y1227091*
X1222441Y1099681D02*
Y1095669D01*
X1227165*
Y1099681*
X1222441Y1102681D02*
Y1106693D01*
X1227165*
Y1102681*
X1146457Y1086539D02*
Y1090551D01*
X1141732*
Y1086539*
X1146457Y1083539D02*
Y1079528D01*
X1141732*
Y1083539*
X1059012Y1308780D02*
X1055000D01*
Y1304055*
X1059012*
X1062012Y1308780D02*
X1066024D01*
Y1304055*
X1062012*
X1239567Y1272108D02*
X1242913D01*
Y1275984*
X1249213*
Y1272108*
X1252559*
Y1261811*
X1239567*
Y1272108*
X1109646Y1120927D02*
X1112992Y1120926D01*
Y1124803*
X1119291*
Y1120926*
X1122638Y1120927*
Y1110630*
X1109646*
Y1120927*
X1204528Y1096850D02*
X1177165D01*
Y1107874*
X1204528*
Y1096850*
X1203150Y1097244D02*
Y1107480D01*
X1127385Y1106277D02*
Y1094324D01*
X1111985*
Y1106276*
X1116085*
Y1111233*
X1123285*
Y1106277*
X1127385*
X1095843Y1096086D02*
Y1108039D01*
X1111243*
Y1096086*
X1107143*
Y1091130*
X1099943*
Y1096086*
X1095843*
X1120692Y1088954D02*
Y1077001D01*
X1105292*
Y1088953*
X1109392*
Y1093910*
X1116592*
Y1088954*
X1120692*
X1217248Y1325728D02*
X1222548D01*
Y1320728*
X1217248*
X1210148Y1325728D02*
X1221448D01*
Y1320728*
X1210148*
Y1325728*
X1232738Y1161218D02*
Y1158518D01*
X1256914Y1176071D02*
X1259414D01*
X1257114Y1186071D02*
X1261014D01*
X1236433Y1204858D02*
Y1209458D01*
X1213852Y1187871D02*
X1209952D01*
X1213852Y1177871D02*
X1211552D01*
X1242338Y1161018D02*
Y1156718D01*
X1248425Y1170079D02*
Y1196063D01*
X1222441*
Y1172441*
X1224803Y1170079*
X1248425*
X1227745Y1173622D02*
G03X1227745I-1761J0D01*
G01X1241142Y1069445D02*
Y1106145D01*
X1268307*
Y1069445*
X1241142*
X1173622Y1081496D02*
X1172047Y1079921D01*
X1162689*
X1161449Y1081161*
X1160191Y1079921*
X1150787*
X1149213Y1081496*
Y1106693*
X1150787Y1108268*
X1160214*
X1161484Y1107003*
X1162749Y1108268*
X1172047*
X1173622Y1106693*
Y1081496*
X1206299Y1005906D02*
Y1055512D01*
X1329134*
Y1005906*
X1206299*
X1230157D02*
Y1055512D01*
X1305276Y1005906D02*
Y1055512D01*
X1235571Y1005906D02*
X1299862D01*
Y981693*
X1235571*
Y1005906*
X1210650D02*
X1226398D01*
Y987008*
X1210650*
Y1005906*
X1309035D02*
X1324783D01*
Y987008*
X1309035*
Y1005906*
X1329108Y1110630D02*
X1333264D01*
Y1107264*
X1334452*
Y1110610*
X1338608*
Y1068898*
X1329108*
Y1110630*
X1332283Y1106299D02*
G03X1332283I-787J0D01*
G01X1325491Y1110236D02*
X1325647Y1110009D01*
X1326116Y1109668*
X1322835*
X1368110Y1088976D02*
X1357087D01*
Y1093701*
X1368110*
Y1088976*
X1262598Y1301969D02*
X1273622D01*
Y1297244*
X1262598*
Y1301969*
X1083740Y1304055D02*
X1072717D01*
Y1308780*
X1083740*
Y1304055*
X1305043Y1215748D02*
X1309055D01*
Y1220472*
X1305043*
X1302043Y1215748D02*
X1298031D01*
Y1220472*
X1302043*
X1149138Y1279921D02*
X1153150D01*
Y1284646*
X1149138*
X1146138Y1279921D02*
X1142126D01*
Y1284646*
X1146138*
X1356496Y1104785D02*
X1359843D01*
Y1108661*
X1366142*
Y1104785*
X1369488*
Y1094488*
X1356496*
Y1104785*
X1206496Y1272108D02*
X1209843D01*
Y1275984*
X1216142*
Y1272108*
X1219488*
Y1261811*
X1206496*
Y1272108*
X1082657Y1355118D02*
X1046476D01*
Y1393701*
X1082657*
Y1355118*
X1077362Y1382165D02*
Y1391220D01*
X1081299Y1387283*
X1073425*
X1077362Y1391220*
X1082651Y1368110D02*
X1046476D01*
X1077972Y1355118D02*
Y1368110D01*
X1066161*
Y1355118*
X1077972*
X1062972D02*
Y1368110D01*
X1051161*
Y1355118*
X1062972*
X1080512Y1382821D02*
Y1386102D01*
X1078921Y1382821D02*
Y1386102D01*
X1080512Y1384384D02*
X1078921D01*
X1311024Y1221457D02*
X1304375D01*
Y1223881*
X1302712*
Y1221457*
X1296063*
Y1243110*
X1311024*
Y1221457*
X1308256Y1225277D02*
G03X1308256I-1083J0D01*
G01X1313832Y1222449D02*
X1313676Y1222676D01*
X1313207Y1223017*
X1316488*
X1307874Y1290945D02*
X1296850D01*
Y1295669*
X1307874*
Y1290945*
X1252756Y1261811D02*
Y1272835D01*
X1257480*
Y1261811*
X1252756*
X1307874Y1279921D02*
X1296850D01*
Y1284646*
X1307874*
Y1279921*
Y1270472D02*
X1296850D01*
Y1275197*
X1307874*
Y1270472*
X1340157Y1215748D02*
X1329134D01*
Y1220472*
X1340157*
Y1215748*
X1307874Y1260236D02*
X1296850D01*
Y1264961*
X1307874*
Y1260236*
X1222047Y1303937D02*
X1211024D01*
Y1308661*
X1222047*
Y1303937*
X1099882Y1304055D02*
X1088858D01*
Y1308780*
X1099882*
Y1304055*
X1266610Y1306693D02*
X1262598D01*
Y1301969*
X1266610*
X1269610Y1306693D02*
X1273622D01*
Y1301969*
X1269610*
X1303862Y1275197D02*
X1307874D01*
Y1279921*
X1303862*
X1300862Y1275197D02*
X1296850D01*
Y1279921*
X1300862*
X1303862Y1265748D02*
X1307874D01*
Y1270472*
X1303862*
X1300862Y1265748D02*
X1296850D01*
Y1270472*
X1300862*
X1303862Y1255512D02*
X1307874D01*
Y1260236*
X1303862*
X1300862Y1255512D02*
X1296850D01*
Y1260236*
X1300862*
X1257480Y1265823D02*
Y1261811D01*
X1262205*
Y1265823*
X1257480Y1268823D02*
Y1272835D01*
X1262205*
Y1268823*
X1303862Y1286220D02*
X1307874D01*
Y1290945*
X1303862*
X1300862Y1286220D02*
X1296850D01*
Y1290945*
X1300862*
X1218035Y1299213D02*
X1222047D01*
Y1303937*
X1218035*
X1215035Y1299213D02*
X1211024D01*
Y1303937*
X1215035*
X1231890Y1329921D02*
X1230315Y1331496D01*
Y1340854*
X1231554Y1342094*
X1230315Y1343352*
Y1352756*
X1231890Y1354331*
X1257087*
X1258661Y1352756*
Y1343329*
X1257396Y1342059*
X1258661Y1340794*
Y1331496*
X1257087Y1329921*
X1231890*
X1355118Y1311043D02*
Y1347224D01*
X1393701*
Y1311043*
X1355118*
X1382165Y1316339D02*
X1391220D01*
X1387283Y1312402*
Y1320276*
X1391220Y1316339*
X1368110Y1311050D02*
Y1347224D01*
X1355118Y1315728D02*
X1368110D01*
Y1327539*
X1355118*
Y1315728*
Y1330728D02*
X1368110D01*
Y1342539*
X1355118*
Y1330728*
X1382821Y1313189D02*
X1386102D01*
X1382821Y1314780D02*
X1386102D01*
X1384384Y1313189D02*
Y1314780D01*
X1315630Y1342402D02*
Y1312402D01*
X1295630*
Y1342402*
X1315630*
X1102776Y1013780D02*
G03X1102776I-7500J0D01*
G01X1106299Y1040945D02*
X1095276D01*
Y1045669*
X1106299*
Y1040945*
X1314567Y1072047D02*
X1303543D01*
Y1076772*
X1314567*
Y1072047*
X1357087Y1075197D02*
X1368110D01*
Y1070472*
X1357087*
Y1075197*
X1142126Y1270472D02*
X1153150D01*
Y1265748*
X1142126*
Y1270472*
X1095276Y1040945D02*
X1106299D01*
Y1036220*
X1095276*
Y1040945*
X1106299Y1050394D02*
X1095276D01*
Y1055118*
X1106299*
Y1050394*
X1237008Y1158268D02*
Y1147244D01*
X1232283*
Y1158268*
X1237008*
X1217642Y1289413D02*
X1223142D01*
Y1296413*
X1217642*
X1214642Y1289413D02*
X1209142D01*
Y1296413*
X1214642*
X1300075Y1310193D02*
X1294575D01*
Y1303193*
X1300075*
X1303075Y1310193D02*
X1308575D01*
Y1303193*
X1303075*
X1279996Y1061417D02*
X1275984D01*
Y1056693*
X1279996*
X1282996Y1061417D02*
X1287008D01*
Y1056693*
X1282996*
X1310555Y1067323D02*
X1314567D01*
Y1072047*
X1310555*
X1307555Y1067323D02*
X1303543D01*
Y1072047*
X1307555*
X1262248Y1344563D02*
Y1339063D01*
X1269248*
Y1344563*
X1262248Y1347563D02*
Y1353063D01*
X1269248*
Y1347563*
X1270516Y1344563D02*
Y1339063D01*
X1277516*
Y1344563*
X1270516Y1347563D02*
Y1353063D01*
X1277516*
Y1347563*
X1186295Y1079134D02*
X1182283D01*
Y1074409*
X1186295*
X1189295Y1079134D02*
X1193307D01*
Y1074409*
X1189295*
X1214610Y1360705D02*
Y1355205D01*
X1221610*
Y1360705*
X1214610Y1363705D02*
Y1369205D01*
X1221610*
Y1363705*
X1198051Y1013780D02*
G03X1198051I-7500J0D01*
G01X1095276Y1050394D02*
X1106299D01*
Y1045669*
X1095276*
Y1050394*
X1142126Y1279921D02*
X1153150D01*
Y1275197*
X1142126*
Y1279921*
X1153150Y1270472D02*
X1142126D01*
Y1275197*
X1153150*
Y1270472*
X1294508Y1385039D02*
G03X1294508I-7500J0D01*
G01X1079154Y1013780D02*
G03X1079154I-7500J0D01*
G01X1174429D02*
G03X1174429I-7500J0D01*
G01X1214193Y1385039D02*
G03X1214193I-7500J0D01*
G01X1324429D02*
G03X1324429I-7500J0D01*
G01X1035433Y1019685D02*
G03X1035433I-15748J0D01*
G01Y1374016D02*
G03X1035433I-15748J0D01*
G01X1389764D02*
G03X1389764I-15748J0D01*
G01X1284516Y1338085D02*
X1284152Y1337835D01*
X1283789Y1337335*
X1283607Y1336835*
X1283425Y1336085*
Y1334835*
X1283607Y1334085*
X1283789Y1333585*
X1284152Y1333085*
X1284516Y1332835*
X1285243*
X1285607Y1333085*
X1285971Y1333585*
X1286152Y1334085*
X1286334Y1334835*
Y1336085*
X1286152Y1336835*
X1285971Y1337335*
X1285607Y1337835*
X1285243Y1338085*
X1284516*
X1287971D02*
Y1334335D01*
X1288152Y1333585*
X1288516Y1333085*
X1289062Y1332835*
X1289425*
X1289971Y1333085*
X1290334Y1333585*
X1290516Y1334335*
Y1338085*
X1293425D02*
Y1332835D01*
X1292152Y1338085D02*
X1294698D01*
X1275485Y1319502D02*
Y1314252D01*
X1274213Y1319502D02*
X1276758D01*
X1278394D02*
Y1314252D01*
Y1319502D02*
X1280031D01*
X1280576Y1319252*
X1280758Y1319002*
X1280940Y1318502*
Y1318002*
X1280758Y1317502*
X1280576Y1317252*
X1280031Y1317002*
X1278394*
X1279667D02*
X1280940Y1314252D01*
X1284031Y1319502D02*
X1282576Y1314252D01*
X1284031Y1319502D02*
X1285485Y1314252D01*
X1283122Y1316002D02*
X1284940D01*
X1287122Y1319502D02*
Y1314252D01*
Y1319502D02*
X1289667Y1314252D01*
Y1319502D02*
Y1314252D01*
X1293849Y1318752D02*
X1293485Y1319252D01*
X1292940Y1319502*
X1292213*
X1291667Y1319252*
X1291304Y1318752*
Y1318252*
X1291485Y1317752*
X1291667Y1317502*
X1292031Y1317252*
X1293122Y1316752*
X1293485Y1316502*
X1293667Y1316252*
X1293849Y1315752*
Y1315002*
X1293485Y1314502*
X1292940Y1314252*
X1292213*
X1291667Y1314502*
X1291304Y1315002*
X1086212Y1180447D02*
X1087462D01*
X1086780Y1179197*
X1087121*
X1087348Y1179040*
X1087462Y1178884*
X1087575Y1178415*
Y1178103*
X1087462Y1177634*
X1087234Y1177322*
X1086893Y1177165*
X1086552*
X1086212Y1177322*
X1086098Y1177478*
X1085984Y1177790*
X1088712Y1177478D02*
X1088598Y1177322D01*
X1088712Y1177165*
X1088825Y1177322*
X1088712Y1177478*
X1090075Y1180447D02*
X1091325D01*
X1090643Y1179197*
X1090984*
X1091212Y1179040*
X1091325Y1178884*
X1091439Y1178415*
Y1178103*
X1091325Y1177634*
X1091098Y1177322*
X1090757Y1177165*
X1090416*
X1090075Y1177322*
X1089962Y1177478*
X1089848Y1177790*
X1092462Y1180447D02*
X1093371Y1177165D01*
X1094280Y1180447D02*
X1093371Y1177165D01*
X1088504Y1170722D02*
Y1167441D01*
Y1170722D02*
X1089299D01*
X1089640Y1170566*
X1089868Y1170253*
X1089981Y1169941*
X1090095Y1169472*
Y1168691*
X1089981Y1168222*
X1089868Y1167910*
X1089640Y1167597*
X1089299Y1167441*
X1088504*
X1091118Y1170722D02*
Y1167441D01*
X1092822Y1170722D02*
X1092595Y1170566D01*
X1092368Y1170253*
X1092254Y1169941*
X1092140Y1169472*
Y1168691*
X1092254Y1168222*
X1092368Y1167910*
X1092595Y1167597*
X1092822Y1167441*
X1093277*
X1093504Y1167597*
X1093731Y1167910*
X1093845Y1168222*
X1093958Y1168691*
Y1169472*
X1093845Y1169941*
X1093731Y1170253*
X1093504Y1170566*
X1093277Y1170722*
X1092822*
X1089382Y1159547D02*
X1089268Y1159860D01*
X1089041Y1160172*
X1088814Y1160328*
X1088359*
X1088132Y1160172*
X1087904Y1159860*
X1087791Y1159547*
X1087677Y1159078*
Y1158297*
X1087791Y1157828*
X1087904Y1157516*
X1088132Y1157203*
X1088359Y1157047*
X1088814*
X1089041Y1157203*
X1089268Y1157516*
X1089382Y1157828*
X1090404Y1160328D02*
Y1157047D01*
X1091768*
X1092791Y1160328D02*
Y1157047D01*
X1094382Y1160328D02*
X1092791Y1158141D01*
X1093359Y1158922D02*
X1094382Y1157047D01*
X1088870Y1149941D02*
X1088756Y1150253D01*
X1088529Y1150566*
X1088302Y1150722*
X1087847*
X1087620Y1150566*
X1087393Y1150253*
X1087279Y1149941*
X1087165Y1149472*
Y1148691*
X1087279Y1148222*
X1087393Y1147910*
X1087620Y1147597*
X1087847Y1147441*
X1088302*
X1088529Y1147597*
X1088756Y1147910*
X1088870Y1148222*
Y1148691*
X1088302D02*
X1088870D01*
X1089893Y1150722D02*
Y1147441D01*
Y1150722D02*
X1091484Y1147441D01*
Y1150722D02*
Y1147441D01*
X1092506Y1150722D02*
Y1147441D01*
Y1150722D02*
X1093302D01*
X1093643Y1150566*
X1093870Y1150253*
X1093984Y1149941*
X1094097Y1149472*
Y1148691*
X1093984Y1148222*
X1093870Y1147910*
X1093643Y1147597*
X1093302Y1147441*
X1092506*
X1051811Y1348006D02*
Y1342756D01*
Y1348006D02*
X1053447D01*
X1053993Y1347756*
X1054175Y1347506*
X1054356Y1347006*
Y1346256*
X1054175Y1345756*
X1053993Y1345506*
X1053447Y1345256*
X1051811*
X1058538Y1348006D02*
X1055993Y1342756D01*
Y1348006D02*
X1058538D01*
X1055993Y1342756D02*
X1058538D01*
X1060356Y1346756D02*
Y1347006D01*
X1060538Y1347506*
X1060720Y1347756*
X1061084Y1348006*
X1061811*
X1062175Y1347756*
X1062356Y1347506*
X1062538Y1347006*
Y1346506*
X1062356Y1346006*
X1061993Y1345256*
X1060175Y1342756*
X1062720*
X1068780Y1347888D02*
Y1342638D01*
Y1347888D02*
X1070416D01*
X1070961Y1347638*
X1071143Y1347388*
X1071325Y1346888*
Y1346138*
X1071143Y1345638*
X1070961Y1345388*
X1070416Y1345138*
X1068780*
X1075507Y1347888D02*
X1072961Y1342638D01*
Y1347888D02*
X1075507D01*
X1072961Y1342638D02*
X1075507D01*
X1077143Y1346888D02*
X1077507Y1347138D01*
X1078052Y1347888*
Y1342638*
G54D98*
X1233366Y1368898D02*
X1238976D01*
X1235630Y1310827D02*
X1250197D01*
Y1285236*
X1235630*
Y1310827*
X1228445Y1311811D02*
X1234252D01*
X1179405Y1090282D02*
G03X1179405I-713J0D01*
G54D100*
G01X1143963Y1073577D02*
X1146150Y1072441D01*
Y1074145*
X1143963Y1073577D02*
X1147244D01*
X1123490Y1073918D02*
Y1072782D01*
X1124897Y1072668*
X1124740Y1072782*
X1124584Y1073123*
Y1073464*
X1124740Y1073805*
X1125053Y1074032*
X1125522Y1074145*
X1125834Y1074032*
X1126303Y1073918*
X1126615Y1073691*
X1126772Y1073350*
Y1073009*
X1126615Y1072668*
X1126459Y1072555*
X1126147Y1072441*
X1123490Y1052537D02*
X1123647Y1052196D01*
X1123959Y1052082*
X1124272*
X1124584Y1052196*
X1124740Y1052423*
X1124897Y1052878*
X1125053Y1053219*
X1125365Y1053446*
X1125678Y1053559*
X1126147*
X1126459Y1053446*
X1126615Y1053332*
X1126772Y1052991*
Y1052537*
X1126615Y1052196*
X1126459Y1052082*
X1126147Y1051969*
X1125678*
X1125365Y1052082*
X1125053Y1052309*
X1124897Y1052650*
X1124740Y1053105*
X1124584Y1053332*
X1124272Y1053446*
X1123959*
X1123647Y1053332*
X1123490Y1052991*
Y1052537*
X1225197Y1158899D02*
X1225015Y1158774D01*
X1224742Y1158399*
Y1161024*
X1247638Y1159293D02*
X1247456Y1159168D01*
X1247184Y1158793*
Y1161418*
X1246274Y1159418D02*
Y1159293D01*
X1246184Y1159043*
X1246093Y1158918*
X1245911Y1158793*
X1245547*
X1245365Y1158918*
X1245274Y1159043*
X1245184Y1159293*
Y1159543*
X1245274Y1159793*
X1245456Y1160168*
X1246365Y1161418*
X1245093*
X1259139Y1173271D02*
X1259264Y1173089D01*
X1259639Y1172816*
X1257014*
X1259639Y1171816D02*
Y1170816D01*
X1258639Y1171362*
Y1171089*
X1258514Y1170907*
X1258389Y1170816*
X1258014Y1170725*
X1257764*
X1257389Y1170816*
X1257139Y1170998*
X1257014Y1171271*
Y1171544*
X1257139Y1171816*
X1257264Y1171907*
X1257514Y1171998*
X1258914Y1195380D02*
X1259039D01*
X1259289Y1195289*
X1259414Y1195198*
X1259539Y1195016*
Y1194653*
X1259414Y1194471*
X1259289Y1194380*
X1259039Y1194289*
X1258789*
X1258539Y1194380*
X1258164Y1194562*
X1256914Y1195471*
Y1194198*
X1259539Y1192471D02*
X1257789Y1193380D01*
Y1192016*
X1259539Y1192471D02*
X1256914D01*
X1244824Y1206758D02*
Y1206883D01*
X1244915Y1207133*
X1245006Y1207258*
X1245188Y1207383*
X1245551*
X1245733Y1207258*
X1245824Y1207133*
X1245915Y1206883*
Y1206633*
X1245824Y1206383*
X1245642Y1206008*
X1244733Y1204758*
X1246006*
X1248006Y1207383D02*
X1247097D01*
X1247006Y1206258*
X1247097Y1206383*
X1247369Y1206508*
X1247642*
X1247915Y1206383*
X1248097Y1206133*
X1248188Y1205758*
X1248097Y1205508*
X1248006Y1205133*
X1247824Y1204883*
X1247551Y1204758*
X1247279*
X1247006Y1204883*
X1246915Y1205008*
X1246824Y1205258*
X1223315Y1207483D02*
X1224315D01*
X1223769Y1206483*
X1224042*
X1224224Y1206358*
X1224315Y1206233*
X1224406Y1205858*
Y1205608*
X1224315Y1205233*
X1224133Y1204983*
X1223860Y1204858*
X1223588*
X1223315Y1204983*
X1223224Y1205108*
X1223133Y1205358*
X1226315Y1207108D02*
X1226224Y1207358D01*
X1225951Y1207483*
X1225769*
X1225497Y1207358*
X1225315Y1206983*
X1225224Y1206358*
Y1205733*
X1225315Y1205233*
X1225497Y1204983*
X1225769Y1204858*
X1225860*
X1226133Y1204983*
X1226315Y1205233*
X1226406Y1205608*
Y1205733*
X1226315Y1206108*
X1226133Y1206358*
X1225860Y1206483*
X1225769*
X1225497Y1206358*
X1225315Y1206108*
X1225224Y1205733*
X1211227Y1192653D02*
Y1193653D01*
X1212227Y1193107*
Y1193380*
X1212352Y1193562*
X1212477Y1193653*
X1212852Y1193744*
X1213102*
X1213477Y1193653*
X1213727Y1193471*
X1213852Y1193198*
Y1192925*
X1213727Y1192653*
X1213602Y1192562*
X1213352Y1192471*
X1211227Y1195835D02*
X1213852Y1194925D01*
X1211227Y1194562D02*
Y1195835D01*
X1211427Y1171680D02*
X1213177Y1170771D01*
Y1172135*
X1211427Y1171680D02*
X1214052D01*
X1211427Y1173407D02*
X1211552Y1173135D01*
X1211552D02*
X1211802Y1173044D01*
X1212052*
X1212302Y1173135*
X1212302D02*
X1212427Y1173316D01*
X1212552Y1173680*
X1212677Y1173953*
X1212927Y1174135*
X1212927D02*
X1213177Y1174225D01*
X1213552*
X1213802Y1174135*
X1213802D02*
X1213927Y1174044D01*
X1214052Y1173771*
Y1173407*
X1213927Y1173135*
X1213927D02*
X1213802Y1173044D01*
X1213552Y1172953*
X1213177*
X1212927Y1173044*
X1212677Y1173225*
X1212552Y1173498*
X1212427Y1173862*
X1212302Y1174044*
X1212052Y1174135*
X1212052D02*
X1211802D01*
X1211802D02*
X1211552Y1174044D01*
X1211427Y1173771*
Y1173407*
X1264386Y1107608D02*
X1264113Y1107420D01*
X1263704Y1106858*
Y1110795*
X1255584Y1107496D02*
Y1107309D01*
X1255448Y1106934*
X1255311Y1106746*
X1255039Y1106559*
X1254493*
X1254220Y1106746*
X1254084Y1106934*
X1253948Y1107309*
Y1107684*
X1254084Y1108059*
X1254357Y1108621*
X1255720Y1110496*
X1253811*
X1246373Y1106401D02*
X1244873D01*
X1245691Y1107901*
X1245282*
X1245009Y1108089*
X1244873Y1108276*
X1244737Y1108839*
Y1109214*
X1244873Y1109776*
X1245146Y1110151*
X1245555Y1110339*
X1245964*
X1246373Y1110151*
X1246509Y1109964*
X1246646Y1109589*
X1254266Y1065228D02*
X1255630Y1067853D01*
X1253584*
X1254266Y1065228D02*
Y1069165D01*
X1335079Y1281309D02*
Y1279996D01*
Y1280934D02*
X1335283Y1281215D01*
X1335420Y1281309*
X1335624*
X1335761Y1281215*
X1335829Y1280934*
Y1279996*
X1336442Y1281965D02*
Y1279996D01*
Y1281965D02*
X1337056D01*
X1337261Y1281871*
X1337329Y1281777*
X1337397Y1281590*
Y1281402*
X1337329Y1281215*
X1337261Y1281121*
X1337056Y1281027*
X1336442*
X1336920D02*
X1337397Y1279996D01*
X1338011Y1281965D02*
Y1279996D01*
Y1281965D02*
X1338897D01*
X1338011Y1281027D02*
X1338556D01*
X1339579Y1281496D02*
Y1281590D01*
X1339647Y1281777*
X1339715Y1281871*
X1339851Y1281965*
X1340124*
X1340261Y1281871*
X1340329Y1281777*
X1340397Y1281590*
Y1281402*
X1340329Y1281215*
X1340192Y1280934*
X1339511Y1279996*
X1340465*
X1341761Y1281965D02*
X1341079Y1280652D01*
X1342101*
X1341761Y1281965D02*
Y1279996D01*
X1342715Y1281965D02*
Y1279996D01*
X1343533*
X1344556Y1281965D02*
X1344351Y1281871D01*
X1344215Y1281590*
X1344147Y1281121*
Y1280840*
X1344215Y1280371*
X1344351Y1280090*
X1344556Y1279996*
X1344692*
X1344897Y1280090*
X1345033Y1280371*
X1345101Y1280840*
Y1281121*
X1345033Y1281590*
X1344897Y1281871*
X1344692Y1281965*
X1344556*
X1345715Y1281590D02*
X1345851Y1281684D01*
X1346056Y1281965*
Y1279996*
X1084646Y1360533D02*
X1084418Y1360376D01*
X1084077Y1359908*
Y1363189*
X1045162Y1361280D02*
Y1361123D01*
X1045048Y1360811*
X1044935Y1360655*
X1044707Y1360498*
X1044253*
X1044026Y1360655*
X1043912Y1360811*
X1043798Y1361123*
Y1361436*
X1043912Y1361748*
X1044139Y1362217*
X1045276Y1363780*
X1043685*
X1143838Y1292451D02*
X1151438D01*
Y1288651*
X1143838*
Y1292451*
X1151438Y1284714D02*
X1143838D01*
Y1288514*
X1151438*
Y1284714*
X1360533Y1309055D02*
X1360376Y1309282D01*
X1359908Y1309623*
X1363189*
X1361280Y1348539D02*
X1361123D01*
X1360811Y1348652*
X1360655Y1348766*
X1360498Y1348993*
Y1349448*
X1360655Y1349675*
X1360811Y1349789*
X1361123Y1349902*
X1361436*
X1361748Y1349789*
X1362217Y1349562*
X1363780Y1348425*
Y1350016*
G54D115*
X1076142Y1325709D02*
G03X1076142I-1457J0D01*
G01X1066142D02*
G03X1066142I-1457J0D01*
G01X1086142D02*
G03X1086142I-1457J0D01*
G01X1139370Y1201693D02*
X1097244D01*
X1139370D02*
Y1333583D01*
X1000000D02*
X1139370D01*
X1000000D02*
Y1201693D01*
X1042126D02*
X1000000D01*
X1042126Y1209567D02*
Y1201693D01*
Y1209567D02*
X1097244D01*
Y1201693D02*
Y1209567D01*
X1015748Y1323740D02*
G03X1015748I-5906J0D01*
G01Y1211535D02*
G03X1015748I-5906J0D01*
G01X1135433D02*
G03X1135433I-5905J0D01*
G01Y1323740D02*
G03X1135433I-5905J0D01*
G01X1001772Y1312913D02*
Y1222362D01*
Y1312913D02*
X1137598D01*
Y1222362D02*
X1001772D01*
X1137598D02*
Y1312913D01*
X1127598Y1246772D02*
Y1304646D01*
X1011771D02*
Y1246772D01*
X1127598D02*
X1011771D01*
Y1304646D02*
X1127598D01*
X1056142Y1325709D02*
G03X1056142I-1457J0D01*
G01X1076142D02*
G03X1076142I-1457J0D01*
G01X1066142D02*
G03X1066142I-1457J0D01*
G01X1086142D02*
G03X1086142I-1457J0D01*
G01X1139370Y1201693D02*
X1097244D01*
X1139370D02*
Y1333583D01*
X1000000D02*
X1139370D01*
X1000000D02*
Y1201693D01*
X1042126D02*
X1000000D01*
X1042126Y1209567D02*
Y1201693D01*
Y1209567D02*
X1097244D01*
Y1201693D02*
Y1209567D01*
X1015748Y1323740D02*
G03X1015748I-5906J0D01*
G01Y1211535D02*
G03X1015748I-5906J0D01*
G01X1135433D02*
G03X1135433I-5905J0D01*
G01Y1323740D02*
G03X1135433I-5905J0D01*
G01X1001772Y1312913D02*
Y1222362D01*
Y1312913D02*
X1137598D01*
Y1222362D02*
X1001772D01*
X1137598D02*
Y1312913D01*
X1127598Y1246772D02*
Y1304646D01*
X1011771D02*
Y1246772D01*
X1127598D02*
X1011771D01*
Y1304646D02*
X1127598D01*
X1056142Y1325709D02*
G03X1056142I-1457J0D01*
G54D217*
G01X1171622Y1172497D02*
G03X1171622I-787J0D01*
G01X1152756Y1055906D02*
G03X1152756I-787J0D01*
G01X1073223Y1353543D02*
G03X1073223I-787J0D01*
G01X1354331Y1321265D02*
G03X1354331I-788J0D01*
G54D257*
G01X1180315Y1092520D02*
Y1080709D01*
X1195276*
Y1092520*
X1180315*
G54D258*
X1212854Y1144587D02*
X1257539D01*
Y1126280*
X1212854*
Y1144587*
G74*
X0Y0D02*
M02*
