*
*
G04 PADS 9.5 Build Number: 522968 generated Gerber (RS-274-X) file*
G04 PC Version=2.1*
*
%IN "Energy harvester.pcb"*%
*
%MOIN*%
*
%FSLAX35Y35*%
*
*
*
*
G04 PC Standard Apertures*
*
*
G04 Thermal Relief Aperture macro.*
%AMTER*
1,1,$1,0,0*
1,0,$1-$2,0,0*
21,0,$3,$4,0,0,45*
21,0,$3,$4,0,0,135*
%
*
*
G04 Annular Aperture macro.*
%AMANN*
1,1,$1,0,0*
1,0,$2,0,0*
%
*
*
G04 Odd Aperture macro.*
%AMODD*
1,1,$1,0,0*
1,0,$1-0.005,0,0*
%
*
*
G04 PC Custom Aperture Macros*
*
*
*
*
*
*
G04 PC Aperture Table*
*
%ADD013R,0.06X0.06*%
%ADD014C,0.06*%
%ADD031C,0.035*%
%ADD039C,0.03*%
%ADD069C,0.05*%
%ADD081C,0.01*%
%ADD088C,0.015*%
%ADD090C,0.02*%
%ADD100C,0.005*%
%ADD115C,0.001*%
%ADD123C,0.05906*%
%ADD141C,0.009*%
%ADD151C,0.06299*%
%ADD229O,0.03937X0.05118*%
%ADD231R,0.07087X0.07087*%
%ADD232C,0.07087*%
%ADD243R,0.05906X0.05906*%
%ADD244O,0.1811X0.09843*%
%ADD245C,0.04547*%
%ADD250O,0.04331X0.07087*%
%ADD251R,0.09055X0.09055*%
%ADD252C,0.09055*%
%ADD255R,0.11811X0.07874*%
%ADD256C,0.12598*%
*
*
*
*
G04 PC Circuitry*
G04 Layer Name Energy harvester.pcb - circuitry*
%LPD*%
*
*
G04 PC Custom Flashes*
G04 Layer Name Energy harvester.pcb - flashes*
%LPD*%
*
*
G04 PC Circuitry*
G04 Layer Name Energy harvester.pcb - circuitry*
%LPD*%
*
G54D13*
G01X1162635Y1172497D03*
G54D14*
X1054685Y1325709D03*
X1064685D03*
X1074685D03*
X1084685D03*
X1162635Y1182497D03*
G54D31*
X1142638Y1020906D03*
G54D39*
X1095512Y1019252D03*
X1103543Y1032205D03*
X1121142Y1021181D03*
X1110354Y1032205D03*
X1094016Y1038307D03*
X1116024Y1043228D03*
X1146024Y1051654D03*
X1172953Y1051142D03*
X1118543Y1066850D03*
X1157520Y1058701D03*
X1151890Y1065472D03*
X1301063Y1069685D03*
X1288465Y1059016D03*
X1144094Y1077677D03*
X1178583Y1087638D03*
X1187638Y1086693D03*
X1195197Y1076732D03*
X1188661Y1093819D03*
X1215787Y1080354D03*
X1224961Y1094252D03*
X1301181Y1081142D03*
X1316260Y1077835D03*
X1330000Y1082244D03*
X1369685Y1085906D03*
X1095394Y1111063D03*
X1232638Y1109646D03*
X1225748Y1114291D03*
X1263622Y1107441D03*
X1282205Y1113740D03*
X1285866Y1110591D03*
X1302087Y1101772D03*
X1337835Y1102244D03*
X1291850Y1116850D03*
X1289134Y1120433D03*
X1320512Y1132283D03*
X1324173Y1127559D03*
Y1119646D03*
X1330787Y1132244D03*
X1330827Y1118110D03*
X1343622Y1117874D03*
X1336654D03*
X1383071Y1117913D03*
X1375157D03*
X1188386Y1149134D03*
X1219488Y1149528D03*
X1256811Y1147008D03*
X1245551Y1145709D03*
X1197087Y1156732D03*
X1186299Y1160000D03*
X1215906D03*
X1238386Y1171181D03*
X1246772D03*
X1260315Y1162087D03*
X1282283Y1165787D03*
X1281614Y1171890D03*
X1288661Y1174055D03*
X1289252Y1167874D03*
X1302913Y1167913D03*
X1285551Y1170512D03*
X1318307Y1174488D03*
X1339134Y1174449D03*
X1144409Y1193386D03*
X1147992Y1189724D03*
X1194921Y1178465D03*
X1223858Y1192638D03*
X1210236Y1176102D03*
X1209685Y1190472D03*
X1235512Y1189016D03*
X1240197Y1188898D03*
X1240354Y1183701D03*
X1235433Y1183622D03*
X1240039Y1178189D03*
X1235354Y1178228D03*
X1230039Y1178386D03*
X1229961Y1183622D03*
X1229921Y1188465D03*
X1245197Y1177677D03*
X1264291Y1192323D03*
X1280906Y1186732D03*
X1280945Y1194528D03*
X1289094Y1178386D03*
X1289016Y1184094D03*
X1301142Y1189961D03*
X1289134D03*
X1285472Y1193661D03*
X1285906Y1180866D03*
X1309055Y1177874D03*
X1314961Y1184094D03*
X1306457Y1183780D03*
X1310669Y1181732D03*
X1333150Y1193543D03*
X1339134Y1183346D03*
X1152480Y1200787D03*
X1155866Y1197441D03*
X1221417Y1198976D03*
X1209685Y1199685D03*
X1227835Y1207205D03*
X1261417Y1203858D03*
X1266417Y1203228D03*
X1273071Y1209843D03*
X1303937Y1205394D03*
X1367205Y1198701D03*
X1377047Y1198819D03*
X1191457Y1230787D03*
X1220354Y1232559D03*
X1234646Y1232520D03*
X1246142Y1228740D03*
X1252283Y1228661D03*
X1271339Y1220512D03*
X1274488Y1216850D03*
X1288228Y1220906D03*
X1297283Y1232283D03*
X1296220Y1218346D03*
X1327992Y1228819D03*
X1275669Y1249921D03*
X1341417Y1240709D03*
X1351457Y1244134D03*
Y1251378D03*
X1356181Y1250787D03*
Y1243110D03*
X1140866Y1268150D03*
X1263661Y1270433D03*
X1293583Y1260354D03*
X1140433Y1282283D03*
X1208268Y1292756D03*
X1237402Y1294213D03*
X1274921Y1288819D03*
X1295433Y1288583D03*
Y1277598D03*
X1312913Y1294016D03*
X1209016Y1301457D03*
X1271102Y1308307D03*
X1293110Y1306614D03*
X1310630Y1307362D03*
X1342244Y1306850D03*
X1371496Y1307402D03*
X1278386Y1332992D03*
X1281575Y1329291D03*
X1333976Y1315512D03*
X1342205Y1315472D03*
X1338150Y1325236D03*
X1342244Y1321654D03*
X1347283Y1325512D03*
X1273898Y1335472D03*
X1282835Y1343386D03*
X1284331Y1338740D03*
X1278701Y1349567D03*
X1287677Y1335157D03*
X1247165Y1371969D03*
X1282244Y1367598D03*
X1312756Y1362559D03*
X1307244Y1357480D03*
X1326890Y1366024D03*
X1245354Y1381614D03*
X1245433Y1376811D03*
X1249488D03*
X1249567Y1381614D03*
G54D69*
X1235039Y1385039D03*
X1095276Y1013780D03*
X1190551D03*
X1287008Y1385039D03*
X1071654Y1013780D03*
X1166929D03*
X1206693Y1385039D03*
X1316929D03*
G54D81*
X1178583Y1087638D02*
X1181535Y1088898D01*
X1186457Y1093819*
X1188661*
X1246772Y1171181D02*
Y1176260D01*
X1245669Y1177362*
X1245197Y1177677*
X1285551Y1170512D02*
X1287677D01*
X1287992Y1170827*
X1315197*
X1318701Y1174331*
X1318425Y1174606*
X1318307Y1174488*
X1339134Y1174449D02*
Y1183346D01*
X1144409Y1193386D02*
X1145079D01*
X1152480Y1200787*
X1147992Y1189724D02*
X1151850Y1193583D01*
X1152008*
X1155866Y1197441*
X1285472Y1193661D02*
X1297205Y1205394D01*
X1303937*
X1261417Y1203858D02*
Y1210591D01*
X1271339Y1220512*
X1367205Y1198701D02*
X1372067D01*
X1372185Y1198819*
X1377047*
X1274488Y1216850D02*
X1284134D01*
X1288189Y1220906*
X1288228*
X1351457Y1244134D02*
Y1251378D01*
X1356181Y1243110D02*
Y1250787D01*
X1342244Y1306850D02*
Y1309827D01*
X1342205Y1309866*
Y1315472*
X1284281Y1338789D02*
X1278435Y1332943D01*
X1278386Y1332992*
X1287618Y1335217D02*
X1281634Y1329232D01*
X1281575Y1329291*
X1273898Y1335472D02*
X1277854Y1339429D01*
X1278878*
X1282835Y1343386*
X1284331Y1338740D02*
X1284281Y1338789D01*
X1287677Y1335157D02*
X1287618Y1335217D01*
X1312648Y1362667D02*
X1307352Y1357372D01*
X1307244Y1357480*
X1312756Y1362559D02*
X1312648Y1362667D01*
X1377458Y1129049D02*
G75*
G03X1377458I-6044J0D01*
G01Y1146769D02*
G03X1377458I-6044J0D01*
G01X1351858Y1129049D02*
G03X1351858I-6044J0D01*
G01Y1146769D02*
G03X1351858I-6044J0D01*
G01X1249577Y1135433D02*
G03X1249577I-4774J0D01*
G01X1230364D02*
G03X1230364I-4773J0D01*
G01X1195551Y1013780D02*
G03X1195551I-5000J0D01*
G01X1171929D02*
G03X1171929I-5000J0D01*
G01X1100276D02*
G03X1100276I-5000J0D01*
G01X1076654D02*
G03X1076654I-5000J0D01*
G01X1050478Y1087421D02*
G03X1050478I-8549J0D01*
G01Y1306378D02*
G03X1050478I-8549J0D01*
G01X1389201Y1314819D02*
Y1354252D01*
G03X1388403Y1354654I-500J0*
G01X1354654Y1388403D02*
G03X1388403Y1354654I19362J-14387D01*
G01X1354654Y1388403D02*
G03X1354252Y1389201I-402J298D01*
G01X1321033*
G03X1320660Y1388368I0J-500*
G01X1313198D02*
G03X1320660I3731J-3329D01*
G01X1313198D02*
G03X1312825Y1389201I-373J333D01*
G01X1291112*
G03X1290739Y1388368I0J-500*
G01X1283277D02*
G03X1290739I3731J-3329D01*
G01X1283277D02*
G03X1282904Y1389201I-373J333D01*
G01X1239144*
G03X1238770Y1388368I-0J-500*
G01X1231308D02*
G03X1238770I3731J-3329D01*
G01X1231308D02*
G03X1230935Y1389201I-373J333D01*
G01X1210797*
G03X1210424Y1388368I0J-500*
G01X1202962D02*
G03X1210424I3731J-3329D01*
G01X1202962D02*
G03X1202589Y1389201I-373J333D01*
G01X1039449*
G03X1039047Y1388403I-0J-500*
G01X1043607Y1370918D02*
G03X1039047Y1388403I-23922J3098D01*
G01X1043607Y1370918D02*
G03X1044103Y1370354I496J-64D01*
G01X1051928*
X1053528Y1368754D02*
G03X1051928Y1370354I-1600J-0D01*
G01X1053528Y1368754D02*
Y1368304D01*
G03X1054230Y1367847I500J0*
G01X1064043Y1362267D02*
G03X1054230Y1367847I-6976J-850D01*
G01X1064043Y1362267D02*
G03X1065039Y1362327I496J60D01*
G01Y1365945*
X1067539Y1368445D02*
G03X1065039Y1365945I0J-2500D01*
G01X1067539Y1368445D02*
X1076594D01*
X1079095Y1365945D02*
G03X1076594Y1368445I-2501J-0D01*
G01X1079095Y1365945D02*
Y1356890D01*
X1077683Y1354639D02*
G03X1079095Y1356890I-1089J2251D01*
G01X1077683Y1354639D02*
G03X1077901Y1353689I218J-450D01*
G01X1132902*
Y1266787*
G03X1133402Y1266287I500J0*
G01X1161869*
G03X1162334Y1266972I0J500*
G01X1172177Y1272350D02*
G03X1162334Y1266972I-4594J-3289D01*
G01X1172177Y1272350D02*
G03X1172990I406J291D01*
G01X1179970Y1274181D02*
G03X1172990Y1272350I-2387J-5120D01*
G01X1179970Y1274181D02*
G03X1180681Y1274634I211J453D01*
G01Y1308435*
X1184163Y1311917*
X1187770*
G03X1187837Y1311922I-0J500*
G01X1188239Y1311949D02*
G03X1187837Y1311922I-0J-3000D01*
G01X1188239Y1311949D02*
X1191192D01*
G03X1191546Y1312095I0J500*
G01X1201125Y1321675*
G03X1201272Y1322028I-353J353*
G01Y1328672*
X1202746Y1330146*
X1223396*
X1230139Y1323402*
G03X1230493Y1323256I354J354*
G01X1305677*
G03X1306080Y1324052I0J500*
G01X1307341Y1331995D02*
G03X1306080Y1324052I3289J-4593D01*
G01X1307341Y1331995D02*
G03Y1332808I-291J407D01*
G01X1306036Y1334112D02*
G03X1307341Y1332808I4594J3290D01*
G01X1306036Y1334112D02*
G03X1305223I-406J-291D01*
G01Y1340691D02*
G03Y1334112I-4593J-3289D01*
G01Y1340691D02*
G03X1306036I407J291D01*
G01X1313919Y1332808D02*
G03X1306036Y1340691I-3289J4594D01*
G01X1313919Y1332808D02*
G03Y1331995I291J-406D01*
G01X1315180Y1324052D02*
G03X1313919Y1331995I-4550J3350D01*
G01X1315180Y1324052D02*
G03X1315582Y1323256I402J-296D01*
G01X1330995*
X1333958Y1320292*
G03X1334312Y1320146I354J354*
G01X1353239*
X1353536Y1319848*
G03X1354390Y1320202I354J354*
G01Y1326161*
X1356890Y1328661D02*
G03X1354390Y1326161I-0J-2500D01*
G01X1356890Y1328661D02*
X1360508D01*
G03X1360568Y1329658I-0J500*
G01X1362267D02*
G03X1360568I-850J6976D01*
G01X1362267D02*
G03X1362327Y1328661I60J-497D01*
G01X1365945*
X1368445Y1326161D02*
G03X1365945Y1328661I-2500J0D01*
G01X1368445Y1326161D02*
Y1317106D01*
X1367562Y1315200D02*
G03X1368445Y1317106I-1617J1906D01*
G01X1367562Y1315200D02*
G03X1367886Y1314319I324J-381D01*
G01X1388701*
G03X1389201Y1314819I-0J500*
G01X1179297Y1343182D02*
G03Y1343995I-291J407D01*
G01X1177993Y1345299D02*
G03X1179297Y1343995I4593J3290D01*
G01X1177993Y1345299D02*
G03X1177180I-407J-291D01*
G01X1167595Y1345942D02*
G03X1177180Y1345299I4991J2647D01*
G01X1167595Y1345942D02*
G03X1166712I-442J-234D01*
G01X1165009Y1343995D02*
G03X1166712Y1345942I-3289J4594D01*
G01X1165009Y1343995D02*
G03Y1343182I292J-406D01*
G01Y1333995D02*
G03Y1343182I-3289J4594D01*
G01Y1333995D02*
G03Y1333182I292J-406D01*
G01X1166712Y1331235D02*
G03X1165009Y1333182I-4992J-2646D01*
G01X1166712Y1331235D02*
G03X1167595I441J234D01*
G01X1177180Y1331878D02*
G03X1167595Y1331235I-4594J-3289D01*
G01X1177180Y1331878D02*
G03X1177993I406J291D01*
G01X1179297Y1333182D02*
G03X1177993Y1331878I3289J-4593D01*
G01X1179297Y1333182D02*
G03Y1333995I-291J407D01*
G01Y1343182D02*
G03Y1333995I3289J-4593D01*
G01X1066233Y1353689D02*
G03X1066451Y1354639I0J500D01*
G01X1065039Y1356890D02*
G03X1066451Y1354639I2500J-0D01*
G01X1065039Y1356890D02*
Y1360508D01*
G03X1064043Y1360568I-500J-0*
G01X1059029Y1354669D02*
G03X1064043Y1360568I-1962J6748D01*
G01X1059029Y1354669D02*
G03X1059168Y1353689I139J-480D01*
G01X1066233*
X1389201Y1257496D02*
Y1309630D01*
G03X1388701Y1310130I-500J-0*
G01X1358021*
X1351357Y1316794*
G03X1351003Y1316941I-354J-353*
G01X1332037*
X1330097Y1318881*
G03X1329743Y1319028I-354J-353*
G01X1316676*
G03X1316184Y1318436I-0J-500*
G01X1313570Y1312577D02*
G03X1316184Y1318436I-2940J4825D01*
G01X1313570Y1312577D02*
G03X1313330Y1312150I260J-427D01*
G01Y1309220*
G03X1313398Y1308969I500J-0*
G01X1307862D02*
G03X1313398I2768J-1607D01*
G01X1307862D02*
G03X1307930Y1309220I-432J251D01*
G01Y1312150*
G03X1307690Y1312577I-500J0*
G01X1306036Y1314112D02*
G03X1307690Y1312577I4594J3290D01*
G01X1306036Y1314112D02*
G03X1305223I-406J-291D01*
G01X1295076Y1318436D02*
G03X1305223Y1314112I5554J-1034D01*
G01X1295076Y1318436D02*
G03X1294584Y1319028I-492J92D01*
G01X1228848*
X1220884Y1326991*
G03X1220531Y1327138I-353J-353*
G01X1206438*
G03X1206084Y1326991I-0J-500*
G01X1205410Y1326317*
G03X1205264Y1325964I354J-353*
G01Y1319163*
X1195050Y1308949*
X1191836*
G03X1191769Y1308944I0J-500*
G01X1191368Y1308917D02*
G03X1191769Y1308944I-0J3000D01*
G01X1191368Y1308917D02*
X1188414D01*
G03X1188061Y1308771I0J-500*
G01X1185292Y1306002*
G03X1185146Y1305649I354J-353*
G01Y1268800*
G03X1185292Y1268446I500J0*
G01X1190185Y1263554*
Y1261984*
G03X1190685Y1261484I500J0*
G01X1227451*
X1231793Y1257143*
G03X1232146Y1256996I353J353*
G01X1388701*
G03X1389201Y1257496I-0J500*
G01Y1039449D02*
Y1252898D01*
G03X1388701Y1253398I-500J-0*
G01X1359220*
G03X1358810Y1252612I0J-500*
G01X1358516Y1248599D02*
G03X1358810Y1252612I-2335J2188D01*
G01X1358516Y1248599D02*
G03X1358381Y1248258I365J-341D01*
G01Y1245640*
G03X1358516Y1245298I500J0*
G01X1353625Y1241185D02*
G03X1358516Y1245298I2556J1925D01*
G01X1353625Y1241185D02*
G03X1352987Y1241323I-399J-301D01*
G01X1349122Y1246322D02*
G03X1352987Y1241323I2335J-2188D01*
G01X1349122Y1246322D02*
G03X1349257Y1246664I-365J342D01*
G01Y1248848*
G03X1349122Y1249190I-500J0*
G01X1348539Y1252692D02*
G03X1349122Y1249190I2918J-1314D01*
G01X1348539Y1252692D02*
G03X1348083Y1253398I-456J206D01*
G01X1229872*
X1226042Y1257228*
G03X1225688Y1257374I-354J-354*
G01X1182723*
X1177747Y1261814*
G03X1177414Y1261941I-333J-373*
G01X1173253*
G03X1172792Y1261247I0J-500*
G01X1170872Y1254467D02*
G03X1172792Y1261247I-3289J4594D01*
G01X1170872Y1254467D02*
G03Y1253654I291J-406D01*
G01X1172177Y1252350D02*
G03X1170872Y1253654I-4594J-3289D01*
G01X1172177Y1252350D02*
G03X1172990I406J291D01*
G01Y1245771D02*
G03Y1252350I4593J3290D01*
G01Y1245771D02*
G03X1172177I-407J-291D01*
G01X1164294Y1253654D02*
G03X1172177Y1245771I3289J-4593D01*
G01X1164294Y1253654D02*
G03Y1254467I-291J407D01*
G01X1162374Y1261247D02*
G03X1164294Y1254467I5209J-2186D01*
G01X1162374Y1261247D02*
G03X1161913Y1261941I-461J194D01*
G01X1127335*
Y1337342*
G03X1127188Y1337695I-500J-0*
G01X1115609Y1349275*
G03X1115255Y1349421I-354J-354*
G01X1005000*
G03X1004500Y1348921I0J-500*
G01Y1039449*
G03X1005298Y1039047I500J-0*
G01X1034088Y1039036D02*
G03X1005298Y1039047I-14403J-19351D01*
G01X1034088Y1039036D02*
G03X1034386Y1038937I298J401D01*
G01X1050511*
X1052111Y1037337D02*
G03X1050511Y1038937I-1600J-0D01*
G01X1052111Y1037337D02*
Y1026994D01*
X1050511Y1025394D02*
G03X1052111Y1026994I-0J1600D01*
G01X1050511Y1025394D02*
X1043750D01*
G03X1043261Y1024788I-0J-500*
G01X1039047Y1005298D02*
G03X1043261Y1024788I-19362J14387D01*
G01X1039047Y1005298D02*
G03X1039449Y1004500I402J-298D01*
G01X1112096*
G03X1112366Y1005421I0J500*
G01X1110216Y1009350D02*
G03X1112366Y1005421I4666J-0D01*
G01X1110216Y1009350D02*
Y1012106D01*
X1119547D02*
G03X1110216I-4665J-0D01*
G01X1119547D02*
Y1009350D01*
X1117398Y1005421D02*
G03X1119547Y1009350I-2516J3929D01*
G01X1117398Y1005421D02*
G03X1117667Y1004500I269J-421D01*
G01X1146114*
G03X1146383Y1005421I-0J500*
G01X1144232Y1009351D02*
G03X1146383Y1005421I4666J-0D01*
G01X1144232Y1009351D02*
Y1012107D01*
X1153563D02*
G03X1144232I-4665J-0D01*
G01X1153563D02*
Y1009351D01*
X1151412Y1005421D02*
G03X1153563Y1009351I-2514J3930D01*
G01X1151412Y1005421D02*
G03X1151682Y1004500I270J-421D01*
G01X1354252*
G03X1354654Y1005298I0J500*
G01X1388403Y1039047D02*
G03X1354654Y1005298I-14387J-19362D01*
G01X1388403Y1039047D02*
G03X1389201Y1039449I298J402D01*
G01X1272875Y1213037D02*
G03X1273066Y1213984I-31J499D01*
G01X1271338Y1216288D02*
G03X1273066Y1213984I3150J562D01*
G01X1271338Y1216288D02*
G03X1270492Y1216554I-492J-87D01*
G01X1263764Y1209826*
G03X1263617Y1209472I353J-354*
G01Y1206388*
G03X1263752Y1206046I500J0*
G01X1263872Y1205911D02*
G03X1263752Y1206046I-2455J-2053D01*
G01X1263872Y1205911D02*
G03X1264548Y1205826I384J320D01*
G01X1266376Y1206428D02*
G03X1264548Y1205826I41J-3200D01*
G01X1266376Y1206428D02*
G03X1266723Y1206575I-7J500D01*
G01X1266723D02*
X1268204Y1208056D01*
X1268440Y1208260D02*
G03X1268204Y1208056I1284J-1725D01*
G01X1268440Y1208260D02*
G03X1268495Y1208307I-299J400D01*
G01X1269725Y1209537*
G03X1269871Y1209884I-354J354*
G01X1272875Y1213037D02*
G03X1269871Y1209884I196J-3194D01*
G01X1312672Y1359360D02*
G03X1309570Y1362863I84J3199D01*
G01X1312672Y1359360D02*
G03X1312305Y1359214I-13J-500D01*
G01X1310574Y1357482*
G03X1310430Y1357176I353J-353*
G01X1307328Y1360679D02*
G03X1310430Y1357176I-84J-3199D01*
G01X1307328Y1360679D02*
G03X1307695Y1360826I13J500D01*
G01X1309426Y1362557*
G03X1309570Y1362863I-353J354*
G01X1287677Y1331957D02*
G03X1287982Y1338343I0J3200D01*
G01X1287677Y1331957D02*
G03X1287324Y1331811I0J-500D01*
G01X1284913Y1329400*
G03X1284768Y1329080I354J-353*
G01X1278375Y1329323D02*
G03X1284768Y1329080I3200J-32D01*
G01X1278375Y1329323D02*
G03X1277944Y1329823I-500J5D01*
G01X1275329Y1332045D02*
G03X1277944Y1329823I3057J947D01*
G01X1275329Y1332045D02*
G03X1274723Y1332381I-478J-148D01*
G01X1273794Y1338671D02*
G03X1274723Y1332381I104J-3199D01*
G01X1273794Y1338671D02*
G03X1274131Y1338817I-17J500D01*
G01X1276299Y1340985*
X1277776Y1341628D02*
G03X1276299Y1340985I78J-2199D01*
G01X1277776Y1341628D02*
G03X1278111Y1341774I-18J499D01*
G01X1279490Y1343153*
G03X1279636Y1343490I-353J353*
G01X1285771Y1342114D02*
G03X1279636Y1343490I-2936J1272D01*
G01X1285771Y1342114D02*
G03X1285973Y1341486I459J-198D01*
G01X1287530Y1338827D02*
G03X1285973Y1341486I-3199J-87D01*
G01X1287530Y1338827D02*
G03X1287982Y1338343I499J14D01*
G01X1185876Y1343995D02*
G03X1177993Y1351878I-3290J4594D01*
G01X1185876Y1343995D02*
G03Y1343182I291J-406D01*
G01Y1333995D02*
G03Y1343182I-3290J4594D01*
G01Y1333995D02*
G03Y1333182I291J-406D01*
G01X1177993Y1325299D02*
G03X1185876Y1333182I4593J3290D01*
G01X1177993Y1325299D02*
G03X1177180I-407J-291D01*
G01X1167595Y1325942D02*
G03X1177180Y1325299I4991J2647D01*
G01X1167595Y1325942D02*
G03X1166712I-442J-234D01*
G01X1157127Y1325299D02*
G03X1166712Y1325942I4593J3290D01*
G01X1157127Y1325299D02*
G03X1156314I-407J-291D01*
G01Y1331878D02*
G03Y1325299I-4594J-3289D01*
G01Y1331878D02*
G03X1157127I406J291D01*
G01X1158431Y1333182D02*
G03X1157127Y1331878I3289J-4593D01*
G01X1158431Y1333182D02*
G03Y1333995I-291J407D01*
G01Y1343182D02*
G03Y1333995I3289J-4593D01*
G01Y1343182D02*
G03Y1343995I-291J407D01*
G01X1157127Y1345299D02*
G03X1158431Y1343995I4593J3290D01*
G01X1157127Y1345299D02*
G03X1156314I-407J-291D01*
G01Y1351878D02*
G03Y1345299I-4594J-3289D01*
G01Y1351878D02*
G03X1157127I406J291D01*
G01X1166712Y1351235D02*
G03X1157127Y1351878I-4992J-2646D01*
G01X1166712Y1351235D02*
G03X1167595I441J234D01*
G01X1177180Y1351878D02*
G03X1167595Y1351235I-4594J-3289D01*
G01X1177180Y1351878D02*
G03X1177993I406J291D01*
G01X1187638Y1379843D02*
Y1378661D01*
X1186887Y1376183D02*
G03X1187638Y1378661I-3718J2478D01*
G01X1186887Y1376183D02*
G03Y1375628I416J-277D01*
G01X1187638Y1373150D02*
G03X1186887Y1375628I-4469J-0D01*
G01X1187638Y1373150D02*
Y1371969D01*
X1178701D02*
G03X1187638I4468J-0D01*
G01X1178701D02*
Y1373150D01*
X1179451Y1375628D02*
G03X1178701Y1373150I3718J-2478D01*
G01X1179451Y1375628D02*
G03Y1376183I-416J278D01*
G01X1178701Y1378661D02*
G03X1179451Y1376183I4468J0D01*
G01X1178701Y1378661D02*
Y1379843D01*
X1187638D02*
G03X1178701I-4469J-0D01*
G01X1170551D02*
Y1378661D01*
X1169801Y1376183D02*
G03X1170551Y1378661I-3718J2478D01*
G01X1169801Y1376183D02*
G03Y1375628I416J-277D01*
G01X1170551Y1373150D02*
G03X1169801Y1375628I-4468J-0D01*
G01X1170551Y1373150D02*
Y1371969D01*
X1161614D02*
G03X1170551I4469J-0D01*
G01X1161614D02*
Y1373150D01*
X1162365Y1375628D02*
G03X1161614Y1373150I3718J-2478D01*
G01X1162365Y1375628D02*
G03Y1376183I-416J278D01*
G01X1161614Y1378661D02*
G03X1162365Y1376183I4469J0D01*
G01X1161614Y1378661D02*
Y1379843D01*
X1170551D02*
G03X1161614I-4468J-0D01*
G01X1153307D02*
Y1378661D01*
X1152557Y1376183D02*
G03X1153307Y1378661I-3718J2478D01*
G01X1152557Y1376183D02*
G03Y1375628I416J-277D01*
G01X1153307Y1373150D02*
G03X1152557Y1375628I-4468J-0D01*
G01X1153307Y1373150D02*
Y1371969D01*
X1144370D02*
G03X1153307I4469J-0D01*
G01X1144370D02*
Y1373150D01*
X1145120Y1375628D02*
G03X1144370Y1373150I3719J-2478D01*
G01X1145120Y1375628D02*
G03Y1376183I-416J278D01*
G01X1144370Y1378661D02*
G03X1145120Y1376183I4469J0D01*
G01X1144370Y1378661D02*
Y1379843D01*
X1153307D02*
G03X1144370I-4468J-0D01*
G01X1137047D02*
Y1378661D01*
X1136297Y1376183D02*
G03X1137047Y1378661I-3718J2478D01*
G01X1136297Y1376183D02*
G03Y1375628I416J-277D01*
G01X1137047Y1373150D02*
G03X1136297Y1375628I-4468J-0D01*
G01X1137047Y1373150D02*
Y1371969D01*
X1128110D02*
G03X1137047I4469J-0D01*
G01X1128110D02*
Y1373150D01*
X1128861Y1375628D02*
G03X1128110Y1373150I3718J-2478D01*
G01X1128861Y1375628D02*
G03Y1376183I-416J278D01*
G01X1128110Y1378661D02*
G03X1128861Y1376183I4469J0D01*
G01X1128110Y1378661D02*
Y1379843D01*
X1137047D02*
G03X1128110I-4468J-0D01*
G01X1120315D02*
Y1378661D01*
X1119565Y1376183D02*
G03X1120315Y1378661I-3719J2478D01*
G01X1119565Y1376183D02*
G03Y1375628I416J-277D01*
G01X1120315Y1373150D02*
G03X1119565Y1375628I-4469J-0D01*
G01X1120315Y1373150D02*
Y1371969D01*
X1111378D02*
G03X1120315I4468J-0D01*
G01X1111378D02*
Y1373150D01*
X1112128Y1375628D02*
G03X1111378Y1373150I3718J-2478D01*
G01X1112128Y1375628D02*
G03Y1376183I-416J278D01*
G01X1111378Y1378661D02*
G03X1112128Y1376183I4468J0D01*
G01X1111378Y1378661D02*
Y1379843D01*
X1120315D02*
G03X1111378I-4469J-0D01*
G01X1103890Y1379839D02*
Y1378658D01*
X1103140Y1376180D02*
G03X1103890Y1378658I-3718J2478D01*
G01X1103140Y1376180D02*
G03Y1375625I416J-278D01*
G01X1103890Y1373146D02*
G03X1103140Y1375625I-4468J0D01*
G01X1103890Y1373146D02*
Y1371965D01*
X1094953D02*
G03X1103890I4469J0D01*
G01X1094953D02*
Y1373146D01*
X1095704Y1375625D02*
G03X1094953Y1373146I3718J-2479D01*
G01X1095704Y1375625D02*
G03Y1376180I-416J277D01*
G01X1094953Y1378658D02*
G03X1095704Y1376180I4469J0D01*
G01X1094953Y1378658D02*
Y1379839D01*
X1103890D02*
G03X1094953I-4468J0D01*
G01X1200552Y1295894D02*
G03X1192755I-3898J4618D01*
G01X1200552D02*
G03Y1295130I322J-382D01*
G01Y1285894D02*
G03Y1295130I-3898J4618D01*
G01Y1285894D02*
G03Y1285130I322J-382D01*
G01X1201464Y1276853D02*
G03X1200552Y1285130I-4810J3659D01*
G01X1201464Y1276853D02*
G03X1201584Y1276135I398J-302D01*
G01X1202697Y1274055D02*
G03X1201584Y1276135I-2500J0D01*
G01X1202697Y1274055D02*
Y1266969D01*
X1200197Y1264468D02*
G03X1202697Y1266969I-0J2501D01*
G01X1200197Y1264468D02*
X1193110D01*
X1190610Y1266969D02*
G03X1193110Y1264468I2500J-0D01*
G01X1190610Y1266969D02*
Y1274055D01*
X1191723Y1276135D02*
G03X1190610Y1274055I1387J-2080D01*
G01X1191723Y1276135D02*
G03X1191843Y1276853I-278J416D01*
G01X1192755Y1285130D02*
G03X1191843Y1276853I3899J-4618D01*
G01X1192755Y1285130D02*
G03Y1285894I-322J382D01*
G01Y1295130D02*
G03Y1285894I3899J-4618D01*
G01Y1295130D02*
G03Y1295894I-322J382D01*
G01X1381139Y1115362D02*
G03Y1120465I1932J2551D01*
G01Y1115362D02*
G03X1380838Y1115463I-301J-399D01*
G01X1377391*
G03X1377089Y1115362I-0J-500*
G01Y1120465D02*
G03Y1115362I-1932J-2552D01*
G01Y1120465D02*
G03X1377391Y1120363I302J398D01*
G01X1380838*
G03X1381139Y1120465I-0J500*
G01X1377458Y1129049D02*
G03X1377458I-6044J0D01*
G01Y1146769D02*
G03X1377458I-6044J0D01*
G01X1374859Y1196484D02*
G03Y1201154I2188J2335D01*
G01Y1196484D02*
G03X1374517Y1196619I-342J-365D01*
G01X1372857*
G03X1372711Y1196597I-0J-500*
G01X1372067Y1196501D02*
G03X1372711Y1196597I-0J2200D01*
G01X1372067Y1196501D02*
X1369735D01*
G03X1369393Y1196366I-0J-500*
G01Y1201036D02*
G03Y1196366I-2188J-2335D01*
G01Y1201036D02*
G03X1369735Y1200901I342J365D01*
G01X1371395*
G03X1371541Y1200923I0J500*
G01X1372185Y1201019D02*
G03X1371541Y1200923I0J-2200D01*
G01X1372185Y1201019D02*
X1374517D01*
G03X1374859Y1201154I0J500*
G01X1341691Y1115323D02*
G03Y1120425I1931J2551D01*
G01Y1115323D02*
G03X1341389Y1115424I-302J-399D01*
G01X1338887*
G03X1338585Y1115323I-0J-500*
G01Y1120425D02*
G03Y1115323I-1931J-2551D01*
G01Y1120425D02*
G03X1338887Y1120324I302J399D01*
G01X1341389*
G03X1341691Y1120425I-0J500*
G01X1351858Y1129049D02*
G03X1351858I-6044J0D01*
G01Y1146769D02*
G03X1351858I-6044J0D01*
G01X1341469Y1181158D02*
G03X1336799I-2335J2188D01*
G01X1341469D02*
G03X1341334Y1180817I365J-341D01*
G01Y1176979*
G03X1341469Y1176637I500J-0*
G01X1336799D02*
G03X1341469I2335J-2188D01*
G01X1336799D02*
G03X1336934Y1176979I-365J342D01*
G01Y1180817*
G03X1336799Y1181158I-500J-0*
G01X1321043Y1035886D02*
G03Y1050728I0J7421D01*
G01Y1035886D02*
X1312776D01*
Y1050728D02*
G03Y1035886I-0J-7421D01*
G01Y1050728D02*
X1321043D01*
X1327767Y1079952D02*
G03Y1084536I2233J2292D01*
G01Y1079952D02*
G03X1327418Y1080094I-349J-358D01*
G01X1321767*
G03X1321413Y1079948I-0J-500*
G01X1319606Y1078140*
G03X1319460Y1077793I354J-353*
G01X1316218Y1081034D02*
G03X1319460Y1077793I42J-3199D01*
G01X1316218Y1081034D02*
G03X1316565Y1081181I-6J500D01*
G01X1319149Y1083764*
X1320669Y1084394D02*
G03X1319149Y1083764I0J-2150D01*
G01X1320669Y1084394D02*
X1327418D01*
G03X1327767Y1084536I-0J500*
G01X1328554Y1129952D02*
G03Y1134536I2233J2292D01*
G01Y1129952D02*
G03X1328205Y1130094I-349J-358D01*
G01X1327263*
G03X1326846Y1129319I0J-500*
G01X1326465Y1125326D02*
G03X1326846Y1129319I-2292J2233D01*
G01X1326465Y1125326D02*
G03X1326323Y1124977I358J-349D01*
G01Y1122228*
G03X1326465Y1121879I500J-0*
G01X1321881D02*
G03X1326465I2292J-2233D01*
G01X1321881D02*
G03X1322023Y1122228I-358J349D01*
G01Y1124977*
G03X1321881Y1125326I-500J-0*
G01X1321099Y1128446D02*
G03X1321881Y1125326I3074J-887D01*
G01X1321099Y1128446D02*
G03X1320604Y1129085I-481J139D01*
G01X1322745Y1134575D02*
G03X1320604Y1129085I-2233J-2292D01*
G01X1322745Y1134575D02*
G03X1323094Y1134433I349J358D01*
G01X1325630*
X1325999Y1134402D02*
G03X1325630Y1134433I-369J-2119D01*
G01X1325999Y1134402D02*
G03X1326085Y1134394I86J492D01*
G01X1328205*
G03X1328554Y1134536I0J500*
G01X1294980Y1051850D02*
Y1045945D01*
X1292480Y1043445D02*
G03X1294980Y1045945I0J2500D01*
G01X1292480Y1043445D02*
X1286921D01*
G03X1286682Y1042506I-0J-500*
G01X1279080Y1035529D02*
G03X1286682Y1042506I4995J2188D01*
G01X1279080Y1035529D02*
G03X1278164I-458J-201D01*
G01X1268175D02*
G03X1278164I4994J2188D01*
G01X1268175D02*
G03X1267259I-458J-201D01*
G01X1257269D02*
G03X1267259I4995J2188D01*
G01X1257269D02*
G03X1256353I-458J-201D01*
G01Y1039904D02*
G03Y1035529I-4995J-2187D01*
G01Y1039904D02*
G03X1257269I458J201D01*
G01X1267259D02*
G03X1257269I-4995J-2187D01*
G01X1267259D02*
G03X1268175I458J201D01*
G01X1278164D02*
G03X1268175I-4995J-2187D01*
G01X1278164D02*
G03X1279080I458J201D01*
G01X1284605Y1043144D02*
G03X1279080Y1039904I-530J-5427D01*
G01X1284605Y1043144D02*
G03X1284973Y1044025I48J497D01*
G01X1284089Y1045675D02*
G03X1284973Y1044025I2486J270D01*
G01X1284089Y1045675D02*
G03X1283175Y1045897I-497J-53D01*
G01X1273627Y1046710D02*
G03X1283175Y1045897I4995J2188D01*
G01X1273627Y1046710D02*
G03X1272711I-458J-200D01*
G01X1262722D02*
G03X1272711I4995J2188D01*
G01X1262722D02*
G03X1261806I-458J-200D01*
G01X1251816D02*
G03X1261806I4995J2188D01*
G01X1251816D02*
G03X1250900I-458J-200D01*
G01Y1051085D02*
G03Y1046710I-4994J-2187D01*
G01Y1051085D02*
G03X1251816I458J201D01*
G01X1261806D02*
G03X1251816I-4995J-2187D01*
G01X1261806D02*
G03X1262722I458J201D01*
G01X1272711D02*
G03X1262722I-4994J-2187D01*
G01X1272711D02*
G03X1273627I458J201D01*
G01X1283175Y1051899D02*
G03X1273627Y1051085I-4553J-3001D01*
G01X1283175Y1051899D02*
G03X1284089Y1052120I417J275D01*
G01X1286575Y1054350D02*
G03X1284089Y1052120I-0J-2500D01*
G01X1286575Y1054350D02*
X1292480D01*
X1294980Y1051850D02*
G03X1292480Y1054350I-2500J0D01*
G01X1291892Y1113651D02*
G03X1292701Y1119935I-42J3199D01*
G01X1291892Y1113651D02*
G03X1291545Y1113504I6J-500D01*
G01X1290946Y1112905*
G03X1290839Y1112746I354J-353*
G01X1290379Y1112062D02*
G03X1290839Y1112746I-1521J1521D01*
G01X1290379Y1112062D02*
X1289212Y1110896D01*
G03X1289066Y1110549I354J-353*
G01X1282702Y1110115D02*
G03X1289066Y1110549I3164J476D01*
G01X1282702Y1110115D02*
G03X1282207Y1110540I-495J-75D01*
G01X1281518Y1116866D02*
G03X1282207Y1110540I687J-3126D01*
G01X1281518Y1116866D02*
G03X1281765Y1117001I-107J488D01*
G01X1285960Y1121195*
G03X1286083Y1121398I-354J354*
G01X1292334Y1120419D02*
G03X1286083Y1121398I-3200J14D01*
G01X1292334Y1120419D02*
Y1120417D01*
G03X1292701Y1119935I500J0*
G01X1318952Y1171354D02*
G03X1317671Y1177624I-645J3134D01*
G01X1318952Y1171354D02*
G03X1318699Y1171218I101J-490D01*
G01X1316752Y1169271*
X1315197Y1168627D02*
G03X1316752Y1169271I-0J2200D01*
G01X1315197Y1168627D02*
X1306607D01*
G03X1306108Y1168098I0J-500*
G01X1300790Y1165519D02*
G03X1306108Y1168098I2123J2394D01*
G01X1300790Y1165519D02*
G03X1300458Y1165645I-332J-374D01*
G01X1292972*
X1292452Y1165709D02*
G03X1292972Y1165645I520J2086D01*
G01X1292452Y1165709D02*
G03X1292331Y1165724I-121J-485D01*
G01X1291834*
G03X1291485Y1165582I0J-500*
G01X1286186Y1166958D02*
G03X1291485Y1165582I3066J916D01*
G01X1286186Y1166958D02*
G03X1285686Y1167315I-479J-143D01*
G01X1285043Y1173671D02*
G03X1285686Y1167315I508J-3159D01*
G01X1285042Y1173671D02*
G03X1285463Y1174150I-79J494D01*
G01X1286274Y1176185D02*
G03X1285463Y1174150I2387J-2130D01*
G01X1286274Y1176185D02*
G03X1286332Y1176771I-374J333D01*
G01X1286069Y1177342D02*
G03X1286332Y1176771I3025J1044D01*
G01X1286069Y1177342D02*
G03X1285639Y1177677I-472J-163D01*
G01X1285417Y1184029D02*
G03X1285639Y1177677I489J-3163D01*
G01X1285417Y1184029D02*
G03X1285837Y1184465I-76J494D01*
G01X1287117Y1186670D02*
G03X1285837Y1184465I1899J-2576D01*
G01X1287117Y1186670D02*
G03X1287133Y1187463I-296J403D01*
G01X1285934Y1189961D02*
G03X1287133Y1187463I3200J-0D01*
G01X1285934Y1189961D02*
Y1189962D01*
G03X1285439Y1190462I-500J-0*
G01X1285368Y1196860D02*
G03X1285439Y1190462I104J-3199D01*
G01X1285368Y1196860D02*
G03X1285706Y1197006I-16J499D01*
G01X1295649Y1206949*
X1297205Y1207594D02*
G03X1295649Y1206949I-0J-2200D01*
G01X1297205Y1207594D02*
X1301407D01*
G03X1301749Y1207729I0J500*
G01Y1203059D02*
G03Y1207729I2188J2335D01*
G01Y1203059D02*
G03X1301407Y1203194I-342J-365D01*
G01X1298323*
G03X1297970Y1203047I0J-500*
G01X1288933Y1194011*
G03X1289266Y1193158I354J-354*
G01X1291367Y1192253D02*
G03X1289266Y1193158I-2233J-2292D01*
G01X1291367Y1192253D02*
G03X1291716Y1192111I349J358D01*
G01X1292520*
X1292889Y1192079D02*
G03X1292520Y1192111I-369J-2118D01*
G01X1292889Y1192079D02*
G03X1292975Y1192071I86J492D01*
G01X1298520*
G03X1298874Y1192218I-0J500*
G01X1302098Y1186907D02*
G03X1298874Y1192218I-956J3054D01*
G01X1302098Y1186907D02*
G03X1302247Y1185930I149J-477D01*
G01X1303875*
G03X1304223Y1186071I-0J500*
G01X1309361Y1185123D02*
G03X1304223Y1186071I-2904J-1343D01*
G01X1309361Y1185123D02*
G03X1309931Y1184846I454J209D01*
G01X1311368Y1184855D02*
G03X1309931Y1184846I-699J-3123D01*
G01X1311368Y1184855D02*
G03X1311948Y1185174I110J488D01*
G01X1317225Y1181833D02*
G03X1311948Y1185174I-2264J2261D01*
G01X1317225Y1181833D02*
G03X1317079Y1181486I354J-353D01*
G01X1317071Y1180856*
G03Y1180850I500J-6*
G01Y1178114*
G03X1317671Y1177624I500J0*
G01X1288297Y1217706D02*
G03X1285031Y1221045I-69J3200D01*
G01X1288297Y1217706D02*
G03X1287955Y1217560I11J-500D01*
G01X1285690Y1215295*
X1284134Y1214650D02*
G03X1285690Y1215295I-0J2200D01*
G01X1284134Y1214650D02*
X1277018D01*
G03X1276676Y1214515I0J-500*
G01X1274684Y1213656D02*
G03X1276676Y1214515I-196J3194D01*
G01X1274684Y1213656D02*
G03X1274493Y1212709I31J-499D01*
G01X1273112Y1206643D02*
G03X1274493Y1212709I-41J3200D01*
G01X1273112Y1206643D02*
G03X1272765Y1206496I7J-500D01*
G01X1271284Y1205015*
X1271048Y1204811D02*
G03X1271284Y1205015I-1284J1724D01*
G01X1271048Y1204811D02*
G03X1270993Y1204764I299J-401D01*
G01X1269763Y1203534*
G03X1269617Y1203187I354J-354*
G01X1263962Y1201176D02*
G03X1269617Y1203187I2455J2052D01*
G01X1263962Y1201176D02*
G03X1263287Y1201261I-383J-321D01*
G01X1259082Y1206046D02*
G03X1263287Y1201261I2335J-2188D01*
G01X1259082Y1206046D02*
G03X1259217Y1206388I-365J342D01*
G01Y1210591*
X1259862Y1212146D02*
G03X1259217Y1210591I1555J-1555D01*
G01X1259862Y1212146D02*
X1267994Y1220279D01*
G03X1268140Y1220616I-353J353*
G01X1274539Y1220512D02*
G03X1268140Y1220616I-3200J-0D01*
G01X1274539Y1220512D02*
Y1220509D01*
G03X1274964Y1220015I500J0*
G01X1276676Y1219186D02*
G03X1274964Y1220015I-2188J-2336D01*
G01X1276676Y1219186D02*
G03X1277018Y1219050I342J364D01*
G01X1283015*
G03X1283369Y1219197I0J500*
G01X1284885Y1220713*
G03X1285031Y1221045I-353J354*
G01X1249577Y1135433D02*
G03X1249577I-4774J0D01*
G01X1244437Y1173369D02*
G03X1249107I2335J-2188D01*
G01X1244436D02*
G03X1244572Y1173711I-364J342D01*
G01Y1174152*
G03X1244224Y1174629I-500J0*
G01X1248389Y1177902D02*
G03X1244224Y1174629I-3192J-225D01*
G01X1248389Y1177902D02*
G03X1248496Y1177626I499J35D01*
G01X1248972Y1176260D02*
G03X1248496Y1177626I-2200J-0D01*
G01X1248972Y1176260D02*
Y1173711D01*
G03X1249107Y1173369I500J-0*
G01X1250050Y1226370D02*
G03X1250069Y1230972I2233J2291D01*
G01X1250050Y1226370D02*
G03X1249701Y1226511I-349J-359D01*
G01X1249252*
X1248806Y1226558D02*
G03X1249252Y1226511I446J2103D01*
G01X1248806Y1226558D02*
G03X1248356Y1226430I-104J-489D01*
G01X1248375Y1231032D02*
G03X1248356Y1226430I-2233J-2292D01*
G01X1248375Y1231032D02*
G03X1248724Y1230890I349J358D01*
G01X1249173*
X1249619Y1230843D02*
G03X1249173Y1230890I-446J-2103D01*
G01X1249619Y1230843D02*
G03X1250069Y1230972I104J490D01*
G01X1222657Y1035886D02*
G03Y1050728I0J7421D01*
G01Y1035886D02*
X1214390D01*
Y1050728D02*
G03Y1035886I-0J-7421D01*
G01Y1050728D02*
X1222657D01*
X1229438Y1109604D02*
G03X1232679Y1112845I3200J42D01*
G01X1229438Y1109604D02*
G03X1229292Y1109951I-500J-6D01*
G01X1227856Y1111387*
G03X1227265Y1111474I-354J-353*
G01X1228003Y1116562D02*
G03X1227265Y1111474I-2255J-2271D01*
G01X1228003Y1116562D02*
G03X1228287Y1116421I353J354D01*
G01X1229512Y1115812D02*
G03X1228287Y1116421I-1520J-1521D01*
G01X1229512Y1115812D02*
X1232332Y1112992D01*
G03X1232679Y1112845I354J353*
G01X1230364Y1135433D02*
G03X1230364I-4773J0D01*
G01X1220659Y1192596D02*
G03X1224039Y1195833I3199J42D01*
G01X1220659Y1192596D02*
G03X1220512Y1192943I-500J-6D01*
G01X1219897Y1193558*
X1219267Y1195079D02*
G03X1219897Y1193558I2150J-0D01*
G01X1219267Y1195079D02*
Y1196394D01*
G03X1219125Y1196743I-500J0*
G01X1223709D02*
G03X1219125I-2292J2233D01*
G01X1223709D02*
G03X1223567Y1196394I358J-349D01*
G01Y1196332*
G03X1224039Y1195833I500J-0*
G01X1211977Y1197452D02*
G03X1207393I-2292J2233D01*
G01X1211977D02*
G03X1211835Y1197103I358J-349D01*
G01Y1193055*
G03X1211977Y1192706I500J-0*
G01X1207393D02*
G03X1211977I2292J-2234D01*
G01X1207393D02*
G03X1207535Y1193055I-358J349D01*
G01Y1197103*
G03X1207393Y1197452I-500J-0*
G01X1195551Y1013780D02*
G03X1195551I-5000J0D01*
G01X1187207Y1090969D02*
G03X1186453Y1096134I1454J2850D01*
G01X1187207Y1090969D02*
G03X1186626Y1090877I-228J-446D01*
G01X1183091Y1087342*
X1182399Y1086874D02*
G03X1183091Y1087342I-864J2024D01*
G01X1182399Y1086874D02*
X1181773Y1086607D01*
G03X1181512Y1086349I196J-460*
G01X1179679Y1090644D02*
G03X1181512Y1086349I-1096J-3006D01*
G01X1179679Y1090644D02*
G03X1180046Y1090654I171J470D01*
G01X1180192Y1090716*
G03X1180349Y1090823I-196J460*
G01X1184901Y1095375*
X1186172Y1096000D02*
G03X1184901Y1095375I285J-2181D01*
G01X1186172Y1096000D02*
G03X1186453Y1096134I-64J496D01*
G01X1197128Y1153533D02*
G03X1193887Y1156774I-41J3199D01*
G01X1197128Y1153533D02*
G03X1196781Y1153386I7J-500D01*
G01X1194808Y1151413*
X1193287Y1150783D02*
G03X1194808Y1151413I0J2150D01*
G01X1193287Y1150783D02*
X1193283D01*
G03X1192929Y1150637I-0J-500*
G01X1191732Y1149439*
G03X1191586Y1149092I354J-353*
G01X1188344Y1152334D02*
G03X1191586Y1149092I42J-3200D01*
G01X1188344Y1152334D02*
G03X1188691Y1152480I-6J500D01*
G01X1190665Y1154453*
X1192185Y1155083D02*
G03X1190665Y1154453I0J-2150D01*
G01X1192185Y1155083D02*
X1192190D01*
G03X1192543Y1155230I-0J500*
G01X1193740Y1156427*
G03X1193887Y1156774I-353J353*
G01X1171929Y1013780D02*
G03X1171929I-5000J0D01*
G01X1166507Y1178591D02*
G03X1158762I-3872J3906D01*
G01X1166507D02*
G03X1166655Y1177780I352J-355D01*
G01X1168135Y1175497D02*
G03X1166655Y1177780I-2500J0D01*
G01X1168135Y1175497D02*
Y1169497D01*
X1165635Y1166997D02*
G03X1168135Y1169497I-0J2500D01*
G01X1165635Y1166997D02*
X1159635D01*
X1157134Y1169497D02*
G03X1159635Y1166997I2501J0D01*
G01X1157134Y1169497D02*
Y1175497D01*
X1158614Y1177780D02*
G03X1157134Y1175497I1021J-2283D01*
G01X1158614Y1177780D02*
G03X1158762Y1178591I-204J456D01*
G01X1153563Y1027066D02*
Y1024310D01*
X1144232D02*
G03X1153563I4666J-0D01*
G01X1144232D02*
Y1027066D01*
X1153563D02*
G03X1144232I-4665J-0D01*
G01X1155970Y1194243D02*
G03X1156124Y1200631I-104J3198D01*
G01X1155970Y1194243D02*
G03X1155633Y1194096I16J-500D01*
G01X1153564Y1192027*
X1153057Y1191649D02*
G03X1153564Y1192027I-1049J1934D01*
G01X1153057Y1191649D02*
G03X1152942Y1191563I239J-439D01*
G01X1151337Y1189958*
G03X1151190Y1189620I353J-354*
G01X1144792Y1189693D02*
G03X1151190Y1189620I3200J31D01*
G01X1144792Y1189693D02*
G03X1144308Y1190187I-500J-5D01*
G01X1144855Y1196555D02*
G03X1144308Y1190187I-446J-3169D01*
G01X1144855Y1196555D02*
G03X1145278Y1196696I69J495D01*
G01X1149136Y1200554*
G03X1149282Y1200891I-354J354*
G01X1155667Y1201083D02*
G03X1149282Y1200891I-3187J-296D01*
G01X1155667Y1201083D02*
G03X1156124Y1200631I498J46D01*
G01X1119547Y1027066D02*
Y1024310D01*
X1110216D02*
G03X1119547I4666J-0D01*
G01X1110216D02*
Y1027066D01*
X1110408Y1028388D02*
G03X1110216Y1027066I4474J-1322D01*
G01X1110408Y1028388D02*
G03X1109986Y1029026I-480J141D01*
G01X1108121Y1029913D02*
G03X1109986Y1029026I2233J2292D01*
G01X1108121Y1029913D02*
G03X1107772Y1030055I-349J-358D01*
G01X1106125*
G03X1105777Y1029913I0J-500*
G01Y1034497D02*
G03Y1029913I-2234J-2292D01*
G01Y1034497D02*
G03X1106125Y1034355I348J358D01*
G01X1107772*
G03X1108121Y1034497I0J500*
G01X1113554Y1032170D02*
G03X1108121Y1034497I-3200J35D01*
G01X1113554Y1032170D02*
G03X1114134Y1031671I500J-5D01*
G01X1119547Y1027066D02*
G03X1114134Y1031671I-4665J-0D01*
G01X1100276Y1013780D02*
G03X1100276I-5000J0D01*
G01X1107849Y1182069D02*
Y1174983D01*
X1106736Y1172903D02*
G03X1107849Y1174983I-1387J2080D01*
G01X1106736Y1172903D02*
G03X1106616Y1172184I278J-416D01*
G01X1105704Y1163908D02*
G03X1106616Y1172184I-3898J4618D01*
G01X1105704Y1163908D02*
G03Y1163144I322J-382D01*
G01Y1153908D02*
G03Y1163144I-3898J4618D01*
G01Y1153908D02*
G03Y1153144I322J-382D01*
G01X1097907D02*
G03X1105704I3899J-4618D01*
G01X1097907D02*
G03Y1153908I-322J382D01*
G01Y1163144D02*
G03Y1153908I3899J-4618D01*
G01Y1163144D02*
G03Y1163908I-322J382D01*
G01X1096995Y1172184D02*
G03X1097907Y1163908I4811J-3658D01*
G01X1096995Y1172184D02*
G03X1096875Y1172903I-398J303D01*
G01X1095762Y1174983D02*
G03X1096875Y1172903I2500J-0D01*
G01X1095762Y1174983D02*
Y1182069D01*
X1098262Y1184569D02*
G03X1095762Y1182069I0J-2500D01*
G01X1098262Y1184569D02*
X1105349D01*
X1107849Y1182069D02*
G03X1105349Y1184569I-2500J0D01*
G01X1076654Y1013780D02*
G03X1076654I-5000J0D01*
G01X1050335Y1057283D02*
Y1049409D01*
X1047835Y1046909D02*
G03X1050335Y1049409I-0J2500D01*
G01X1047835Y1046909D02*
X1036024D01*
X1033524Y1049409D02*
G03X1036024Y1046909I2500J0D01*
G01X1033524Y1049409D02*
Y1057283D01*
X1036024Y1059783D02*
G03X1033524Y1057283I-0J-2500D01*
G01X1036024Y1059783D02*
X1047835D01*
X1050335Y1057283D02*
G03X1047835Y1059783I-2500J0D01*
G01X1050478Y1087421D02*
G03X1050478I-8549J0D01*
G01Y1306378D02*
G03X1050478I-8549J0D01*
G01X1080102Y1322668D02*
G03Y1328749I4583J3041D01*
G01Y1322668D02*
G03X1079268I-417J-276D01*
G01X1070102D02*
G03X1079268I4583J3041D01*
G01X1070102D02*
G03X1069268I-417J-276D01*
G01X1060102D02*
G03X1069268I4583J3041D01*
G01X1060102D02*
G03X1059268I-417J-276D01*
G01Y1328749D02*
G03Y1322668I-4583J-3040D01*
G01Y1328749D02*
G03X1060102I417J276D01*
G01X1069268D02*
G03X1060102I-4583J-3040D01*
G01X1069268D02*
G03X1070102I417J276D01*
G01X1079268D02*
G03X1070102I-4583J-3040D01*
G01X1079268D02*
G03X1080102I417J276D01*
G01X1050374Y1344370D02*
Y1336496D01*
X1047874Y1333996D02*
G03X1050374Y1336496I0J2500D01*
G01X1047874Y1333996D02*
X1036063D01*
X1033563Y1336496D02*
G03X1036063Y1333996I2500J0D01*
G01X1033563Y1336496D02*
Y1344370D01*
X1036063Y1346870D02*
G03X1033563Y1344370I-0J-2500D01*
G01X1036063Y1346870D02*
X1047874D01*
X1050374Y1344370D02*
G03X1047874Y1346870I-2500J0D01*
G01X1058766Y1354486D02*
X1066635D01*
X1060674Y1355386D02*
X1065542D01*
X1061869Y1356286D02*
X1065113D01*
X1063926Y1359886D02*
X1065039D01*
X1063661Y1358986D02*
X1065039D01*
X1063255Y1358086D02*
X1065039D01*
X1062678Y1357186D02*
X1065039D01*
X1064124Y1360786D02*
X1064955D01*
X1175394Y1343686D02*
X1179497D01*
X1174801Y1333786D02*
X1179466D01*
X1176254Y1332886D02*
X1178919D01*
X1165502Y1342786D02*
X1178805D01*
X1176574Y1344586D02*
X1178599D01*
X1165806Y1334686D02*
X1178501D01*
X1177100Y1331986D02*
X1178073D01*
X1166308Y1341886D02*
X1177999D01*
X1166506Y1335586D02*
X1177801D01*
X1177439Y1345486D02*
X1177734D01*
X1166836Y1340986D02*
X1177471D01*
X1166964Y1336486D02*
X1177343D01*
X1167168Y1340086D02*
X1177139D01*
X1167241Y1337386D02*
X1177066D01*
X1167338Y1339186D02*
X1176969D01*
X1167362Y1338286D02*
X1176945D01*
X1164841Y1333786D02*
X1170372D01*
X1164810Y1343686D02*
X1169779D01*
X1165388Y1332886D02*
X1168919D01*
X1165708Y1344586D02*
X1168599D01*
X1166234Y1331986D02*
X1168073D01*
X1166442Y1345486D02*
X1167865D01*
X1166832Y1331086D02*
X1167474D01*
X1386842Y1353586D02*
X1389201D01*
X1385282Y1352686D02*
X1389201D01*
X1383381Y1351786D02*
X1389201D01*
X1380864Y1350886D02*
X1389201D01*
X1376125Y1349986D02*
X1389201D01*
X1188214Y1349086D02*
X1389201D01*
X1188222Y1348186D02*
X1389201D01*
X1188084Y1347286D02*
X1389201D01*
X1283948Y1346386D02*
X1389201D01*
X1285249Y1345486D02*
X1389201D01*
X1285801Y1344586D02*
X1389201D01*
X1286021Y1343686D02*
X1389201D01*
X1364814Y1342786D02*
X1389201D01*
X1366086Y1341886D02*
X1389201D01*
X1366935Y1340986D02*
X1389201D01*
X1367539Y1340086D02*
X1389201D01*
X1367965Y1339186D02*
X1389201D01*
X1368248Y1338286D02*
X1389201D01*
X1368405Y1337386D02*
X1389201D01*
X1368443Y1336486D02*
X1389201D01*
X1368366Y1335586D02*
X1389201D01*
X1368170Y1334686D02*
X1389201D01*
X1367842Y1333786D02*
X1389201D01*
X1367362Y1332886D02*
X1389201D01*
X1366688Y1331986D02*
X1389201D01*
X1365731Y1331086D02*
X1389201D01*
X1364213Y1330186D02*
X1389201D01*
X1361843Y1329286D02*
X1389201D01*
X1367085Y1328386D02*
X1389201D01*
X1368065Y1327486D02*
X1389201D01*
X1368409Y1326586D02*
X1389201D01*
X1368445Y1325686D02*
X1389201D01*
X1368445Y1324786D02*
X1389201D01*
X1368445Y1323886D02*
X1389201D01*
X1368445Y1322986D02*
X1389201D01*
X1368445Y1322086D02*
X1389201D01*
X1368445Y1321186D02*
X1389201D01*
X1368445Y1320286D02*
X1389201D01*
X1368445Y1319386D02*
X1389201D01*
X1368445Y1318486D02*
X1389201D01*
X1368445Y1317586D02*
X1389201D01*
X1368409Y1316686D02*
X1389201D01*
X1368068Y1315786D02*
X1389201D01*
X1367391Y1314886D02*
X1389201D01*
X1388174Y1354486D02*
X1389143D01*
X1188061Y1349986D02*
X1371906D01*
X1187748Y1350886D02*
X1367168D01*
X1187244Y1351786D02*
X1364650D01*
X1186476Y1352686D02*
X1362750D01*
X1185221Y1353586D02*
X1361190D01*
X1315956Y1329286D02*
X1360992D01*
X1308373Y1354486D02*
X1359857D01*
X1309664Y1355386D02*
X1358692D01*
X1315546Y1330186D02*
X1358622D01*
X1312340Y1342786D02*
X1358021D01*
X1310213Y1356286D02*
X1357659D01*
X1314913Y1331086D02*
X1357103D01*
X1314066Y1341886D02*
X1356748D01*
X1310431Y1357186D02*
X1356735D01*
X1313932Y1331986D02*
X1356146D01*
X1311178Y1358086D02*
X1355902D01*
X1314997Y1340986D02*
X1355900D01*
X1316193Y1328386D02*
X1355749D01*
X1314025Y1332886D02*
X1355472D01*
X1315601Y1340086D02*
X1355296D01*
X1312078Y1358986D02*
X1355148D01*
X1314971Y1333786D02*
X1354993D01*
X1315990Y1339186D02*
X1354870D01*
X1316279Y1327486D02*
X1354770D01*
X1320534Y1388686D02*
X1354752D01*
X1315584Y1334686D02*
X1354665D01*
X1316210Y1338286D02*
X1354587D01*
X1315980Y1335586D02*
X1354468D01*
X1314515Y1359886D02*
X1354465D01*
X1316280Y1337386D02*
X1354430D01*
X1316220Y1326586D02*
X1354426D01*
X1316205Y1336486D02*
X1354391D01*
X1316013Y1325686D02*
X1354390D01*
X1315638Y1324786D02*
X1354390D01*
X1315100Y1323886D02*
X1354390D01*
X1331264Y1322986D02*
X1354390D01*
X1332164Y1322086D02*
X1354390D01*
X1333064Y1321186D02*
X1354390D01*
X1333964Y1320286D02*
X1354390D01*
X1321107Y1387786D02*
X1354210D01*
X1315420Y1360786D02*
X1353845D01*
X1321576Y1386886D02*
X1353614D01*
X1315835Y1361686D02*
X1353283D01*
X1321839Y1385986D02*
X1353073D01*
X1315956Y1362586D02*
X1352773D01*
X1321929Y1385086D02*
X1352584D01*
X1315819Y1363486D02*
X1352313D01*
X1321856Y1384186D02*
X1352143D01*
X1315383Y1364386D02*
X1351899D01*
X1321612Y1383286D02*
X1351746D01*
X1314430Y1365286D02*
X1351529D01*
X1321167Y1382386D02*
X1351392D01*
X1079083Y1366186D02*
X1351200D01*
X1320447Y1381486D02*
X1351080D01*
X1078819Y1367086D02*
X1350910D01*
X1319203Y1380586D02*
X1350806D01*
X1185196Y1367986D02*
X1350659D01*
X1187638Y1379686D02*
X1350570D01*
X1186404Y1368886D02*
X1350445D01*
X1187638Y1378786D02*
X1350370D01*
X1187069Y1369786D02*
X1350267D01*
X1187570Y1377886D02*
X1350206D01*
X1187450Y1370686D02*
X1350125D01*
X1187312Y1376986D02*
X1350077D01*
X1187621Y1371586D02*
X1350016D01*
X1186837Y1376086D02*
X1349983D01*
X1187638Y1372486D02*
X1349942D01*
X1187147Y1375186D02*
X1349922D01*
X1187632Y1373386D02*
X1349902D01*
X1187491Y1374286D02*
X1349895D01*
X1289281Y1380586D02*
X1314656D01*
X1290526Y1381486D02*
X1313411D01*
X1290612Y1388686D02*
X1313325D01*
X1291186Y1387786D02*
X1312751D01*
X1291246Y1382386D02*
X1312691D01*
X1291654Y1386886D02*
X1312283D01*
X1291690Y1383286D02*
X1312247D01*
X1291917Y1385986D02*
X1312020D01*
X1291935Y1384186D02*
X1312002D01*
X1292008Y1385086D02*
X1311929D01*
X1079095Y1365286D02*
X1311082D01*
X1079095Y1364386D02*
X1310129D01*
X1079095Y1363486D02*
X1309693D01*
X1079095Y1362586D02*
X1309453D01*
X1302340Y1342786D02*
X1308920D01*
X1079095Y1361686D02*
X1308555D01*
X1079095Y1360786D02*
X1307650D01*
X1302240Y1331986D02*
X1307328D01*
X1304025Y1332886D02*
X1307235D01*
X1304066Y1341886D02*
X1307194D01*
X1286599Y1331086D02*
X1306347D01*
X1304971Y1333786D02*
X1306289D01*
X1304997Y1340986D02*
X1306263D01*
X1229656Y1323886D02*
X1306160D01*
X1077498Y1354486D02*
X1306115D01*
X1285699Y1330186D02*
X1305714D01*
X1228756Y1324786D02*
X1305622D01*
X1284828Y1329286D02*
X1305304D01*
X1227856Y1325686D02*
X1305247D01*
X1079095Y1359886D02*
X1305134D01*
X1284644Y1328386D02*
X1305067D01*
X1283284Y1326586D02*
X1305039D01*
X1284217Y1327486D02*
X1304981D01*
X1078592Y1355386D02*
X1304825D01*
X1079095Y1358986D02*
X1304420D01*
X1079021Y1356286D02*
X1304275D01*
X1079095Y1358086D02*
X1304102D01*
X1079095Y1357186D02*
X1304058D01*
X1288104Y1331986D02*
X1299020D01*
X1285978Y1342786D02*
X1298920D01*
X1289931Y1332886D02*
X1297235D01*
X1285731Y1341886D02*
X1297194D01*
X1290568Y1333786D02*
X1296289D01*
X1286610Y1340986D02*
X1296263D01*
X1290842Y1334686D02*
X1295676D01*
X1287234Y1340086D02*
X1295659D01*
X1290848Y1335586D02*
X1295280D01*
X1287500Y1339186D02*
X1295270D01*
X1290588Y1336486D02*
X1295055D01*
X1288349Y1338286D02*
X1295050D01*
X1289974Y1337386D02*
X1294980D01*
X1237313Y1380586D02*
X1284734D01*
X1238557Y1381486D02*
X1283490D01*
X1238644Y1388686D02*
X1283403D01*
X1239217Y1387786D02*
X1282830D01*
X1239277Y1382386D02*
X1282770D01*
X1239686Y1386886D02*
X1282361D01*
X1239722Y1383286D02*
X1282325D01*
X1239949Y1385986D02*
X1282098D01*
X1239966Y1384186D02*
X1282081D01*
X1240039Y1385086D02*
X1282008D01*
X1187789Y1346386D02*
X1281722D01*
X1187308Y1345486D02*
X1280420D01*
X1186574Y1344586D02*
X1279868D01*
X1226956Y1326586D02*
X1279865D01*
X1185676Y1343686D02*
X1279649D01*
X1186368Y1342786D02*
X1279124D01*
X1226056Y1327486D02*
X1278933D01*
X1225156Y1328386D02*
X1278505D01*
X1224256Y1329286D02*
X1278375D01*
X1187174Y1341886D02*
X1278224D01*
X1188006Y1330186D02*
X1276848D01*
X1187702Y1340986D02*
X1276300D01*
X1187654Y1331086D02*
X1275815D01*
X1188034Y1340086D02*
X1275400D01*
X1187100Y1331986D02*
X1275348D01*
X1188204Y1339186D02*
X1274500D01*
X1188228Y1338286D02*
X1272373D01*
X1186254Y1332886D02*
X1272013D01*
X1188107Y1337386D02*
X1271333D01*
X1185707Y1333786D02*
X1271178D01*
X1187830Y1336486D02*
X1270862D01*
X1186672Y1334686D02*
X1270796D01*
X1187372Y1335586D02*
X1270700D01*
X1208966Y1380586D02*
X1232766D01*
X1210211Y1381486D02*
X1231522D01*
X1210297Y1388686D02*
X1231435D01*
X1210871Y1387786D02*
X1230861D01*
X1210931Y1382386D02*
X1230801D01*
X1211339Y1386886D02*
X1230393D01*
X1211375Y1383286D02*
X1230357D01*
X1211602Y1385986D02*
X1230130D01*
X1211620Y1384186D02*
X1230113D01*
X1211693Y1385086D02*
X1230040D01*
X1187576Y1380586D02*
X1204419D01*
X1187325Y1381486D02*
X1203175D01*
X1038949Y1388686D02*
X1203089D01*
X1039490Y1387786D02*
X1202515D01*
X1186843Y1382386D02*
X1202455D01*
X1040087Y1386886D02*
X1202046D01*
X1186017Y1383286D02*
X1202010D01*
X1188193Y1329286D02*
X1201886D01*
X1040627Y1385986D02*
X1201783D01*
X1184219Y1384186D02*
X1201766D01*
X1041117Y1385086D02*
X1201693D01*
X1188232Y1328386D02*
X1201272D01*
X1188127Y1327486D02*
X1201272D01*
X1187869Y1326586D02*
X1201272D01*
X1187434Y1325686D02*
X1201272D01*
X1186765Y1324786D02*
X1201272D01*
X1185718Y1323886D02*
X1201272D01*
X1183315Y1322986D02*
X1201272D01*
X1132902Y1322086D02*
X1201272D01*
X1132902Y1321186D02*
X1200636D01*
X1132902Y1320286D02*
X1199736D01*
X1132902Y1319386D02*
X1198836D01*
X1132902Y1318486D02*
X1197936D01*
X1132902Y1317586D02*
X1197036D01*
X1132902Y1316686D02*
X1196136D01*
X1132902Y1315786D02*
X1195236D01*
X1132902Y1314886D02*
X1194336D01*
X1132902Y1313986D02*
X1193436D01*
X1132902Y1313086D02*
X1192536D01*
X1132902Y1312186D02*
X1191636D01*
X1132902Y1311286D02*
X1183532D01*
X1132902Y1310386D02*
X1182632D01*
X1167132Y1384186D02*
X1182120D01*
X1173315Y1322986D02*
X1181858D01*
X1132902Y1309486D02*
X1181732D01*
X1168110Y1367986D02*
X1181142D01*
X1132902Y1308586D02*
X1180832D01*
X1132902Y1307686D02*
X1180681D01*
X1132902Y1306786D02*
X1180681D01*
X1132902Y1305886D02*
X1180681D01*
X1132902Y1304986D02*
X1180681D01*
X1132902Y1304086D02*
X1180681D01*
X1132902Y1303186D02*
X1180681D01*
X1132902Y1302286D02*
X1180681D01*
X1132902Y1301386D02*
X1180681D01*
X1132902Y1300486D02*
X1180681D01*
X1132902Y1299586D02*
X1180681D01*
X1132902Y1298686D02*
X1180681D01*
X1132902Y1297786D02*
X1180681D01*
X1132902Y1296886D02*
X1180681D01*
X1132902Y1295986D02*
X1180681D01*
X1132902Y1295086D02*
X1180681D01*
X1132902Y1294186D02*
X1180681D01*
X1132902Y1293286D02*
X1180681D01*
X1132902Y1292386D02*
X1180681D01*
X1132902Y1291486D02*
X1180681D01*
X1132902Y1290586D02*
X1180681D01*
X1132902Y1289686D02*
X1180681D01*
X1132902Y1288786D02*
X1180681D01*
X1132902Y1287886D02*
X1180681D01*
X1132902Y1286986D02*
X1180681D01*
X1132902Y1286086D02*
X1180681D01*
X1132902Y1285186D02*
X1180681D01*
X1132902Y1284286D02*
X1180681D01*
X1132902Y1283386D02*
X1180681D01*
X1132902Y1282486D02*
X1180681D01*
X1132902Y1281586D02*
X1180681D01*
X1132902Y1280686D02*
X1180681D01*
X1132902Y1279786D02*
X1180681D01*
X1132902Y1278886D02*
X1180681D01*
X1132902Y1277986D02*
X1180681D01*
X1132902Y1277086D02*
X1180681D01*
X1132902Y1276186D02*
X1180681D01*
X1132902Y1275286D02*
X1180681D01*
X1179469Y1274386D02*
X1180615D01*
X1168930Y1383286D02*
X1180322D01*
X1175221Y1353586D02*
X1179952D01*
X1169318Y1368886D02*
X1179934D01*
X1169751Y1376086D02*
X1179501D01*
X1169757Y1382386D02*
X1179495D01*
X1175718Y1323886D02*
X1179455D01*
X1169982Y1369786D02*
X1179270D01*
X1170060Y1375186D02*
X1179192D01*
X1170225Y1376986D02*
X1179027D01*
X1170238Y1381486D02*
X1179014D01*
X1170363Y1370686D02*
X1178889D01*
X1170404Y1374286D02*
X1178848D01*
X1170483Y1377886D02*
X1178769D01*
X1170489Y1380586D02*
X1178763D01*
X1170535Y1371586D02*
X1178717D01*
X1170545Y1373386D02*
X1178707D01*
X1170551Y1379686D02*
X1178701D01*
X1170551Y1378786D02*
X1178701D01*
X1170551Y1372486D02*
X1178701D01*
X1176476Y1352686D02*
X1178697D01*
X1176765Y1324786D02*
X1178408D01*
X1177265Y1351786D02*
X1177908D01*
X1169469Y1274386D02*
X1175697D01*
X1171095Y1273486D02*
X1174071D01*
X1171998Y1272586D02*
X1173168D01*
X1162449Y1322986D02*
X1171858D01*
X1164355Y1353586D02*
X1169952D01*
X1164852Y1323886D02*
X1169455D01*
X1165610Y1352686D02*
X1168697D01*
X1165899Y1324786D02*
X1168408D01*
X1166378Y1351786D02*
X1167929D01*
X1166567Y1325686D02*
X1167739D01*
X1132902Y1274386D02*
X1165697D01*
X1149888Y1384186D02*
X1165033D01*
X1132902Y1273486D02*
X1164071D01*
X1150865Y1367986D02*
X1164056D01*
X1151686Y1383286D02*
X1163235D01*
X1132902Y1272586D02*
X1163168D01*
X1152074Y1368886D02*
X1162847D01*
X1132902Y1271686D02*
X1162581D01*
X1152506Y1376086D02*
X1162415D01*
X1152513Y1382386D02*
X1162409D01*
X1132902Y1267186D02*
X1162253D01*
X1132902Y1270786D02*
X1162203D01*
X1152738Y1369786D02*
X1162183D01*
X1152816Y1375186D02*
X1162105D01*
X1132902Y1268086D02*
X1162018D01*
X1132902Y1269886D02*
X1161994D01*
X1152981Y1376986D02*
X1161940D01*
X1132902Y1268986D02*
X1161934D01*
X1152994Y1381486D02*
X1161927D01*
X1153119Y1370686D02*
X1161802D01*
X1153160Y1374286D02*
X1161761D01*
X1153239Y1377886D02*
X1161682D01*
X1153245Y1380586D02*
X1161676D01*
X1153291Y1371586D02*
X1161631D01*
X1153301Y1373386D02*
X1161620D01*
X1153307Y1379686D02*
X1161614D01*
X1153307Y1378786D02*
X1161614D01*
X1153307Y1372486D02*
X1161614D01*
X1152449Y1322986D02*
X1160992D01*
X1154355Y1353586D02*
X1159085D01*
X1154528Y1343686D02*
X1158631D01*
X1153935Y1333786D02*
X1158599D01*
X1154852Y1323886D02*
X1158589D01*
X1155388Y1332886D02*
X1158053D01*
X1132902Y1342786D02*
X1157939D01*
X1155610Y1352686D02*
X1157831D01*
X1155708Y1344586D02*
X1157733D01*
X1132902Y1334686D02*
X1157635D01*
X1155899Y1324786D02*
X1157542D01*
X1156234Y1331986D02*
X1157206D01*
X1132902Y1341886D02*
X1157133D01*
X1156399Y1351786D02*
X1157042D01*
X1132902Y1335586D02*
X1156935D01*
X1156573Y1345486D02*
X1156868D01*
X1132902Y1340986D02*
X1156605D01*
X1132902Y1336486D02*
X1156476D01*
X1132902Y1340086D02*
X1156273D01*
X1132902Y1337386D02*
X1156200D01*
X1132902Y1339186D02*
X1156102D01*
X1132902Y1338286D02*
X1156079D01*
X1132902Y1322986D02*
X1150992D01*
X1132902Y1333786D02*
X1149506D01*
X1132902Y1353586D02*
X1149085D01*
X1132902Y1343686D02*
X1148912D01*
X1132902Y1323886D02*
X1148589D01*
X1132902Y1332886D02*
X1148053D01*
X1132902Y1352686D02*
X1147831D01*
X1133628Y1384186D02*
X1147789D01*
X1132902Y1344586D02*
X1147733D01*
X1132902Y1324786D02*
X1147542D01*
X1132902Y1331986D02*
X1147206D01*
X1132902Y1351786D02*
X1147063D01*
X1132902Y1345486D02*
X1146999D01*
X1132902Y1325686D02*
X1146873D01*
X1134606Y1367986D02*
X1146812D01*
X1132902Y1331086D02*
X1146653D01*
X1132902Y1350886D02*
X1146559D01*
X1132902Y1346386D02*
X1146518D01*
X1132902Y1326586D02*
X1146437D01*
X1132902Y1330186D02*
X1146301D01*
X1132902Y1349986D02*
X1146246D01*
X1132902Y1347286D02*
X1146223D01*
X1132902Y1327486D02*
X1146179D01*
X1132902Y1329286D02*
X1146114D01*
X1132902Y1349086D02*
X1146093D01*
X1132902Y1348186D02*
X1146085D01*
X1132902Y1328386D02*
X1146074D01*
X1135426Y1383286D02*
X1145991D01*
X1135814Y1368886D02*
X1145603D01*
X1136247Y1376086D02*
X1145171D01*
X1136253Y1382386D02*
X1145165D01*
X1136478Y1369786D02*
X1144939D01*
X1136556Y1375186D02*
X1144861D01*
X1136721Y1376986D02*
X1144696D01*
X1136734Y1381486D02*
X1144683D01*
X1136859Y1370686D02*
X1144558D01*
X1136900Y1374286D02*
X1144517D01*
X1136979Y1377886D02*
X1144438D01*
X1136985Y1380586D02*
X1144432D01*
X1137031Y1371586D02*
X1144386D01*
X1137041Y1373386D02*
X1144376D01*
X1137047Y1379686D02*
X1144370D01*
X1137047Y1378786D02*
X1144370D01*
X1137047Y1372486D02*
X1144370D01*
X1116896Y1384186D02*
X1131529D01*
X1117873Y1367986D02*
X1130552D01*
X1118694Y1383286D02*
X1129731D01*
X1119082Y1368886D02*
X1129344D01*
X1119514Y1376086D02*
X1128911D01*
X1119520Y1382386D02*
X1128905D01*
X1119746Y1369786D02*
X1128679D01*
X1119824Y1375186D02*
X1128601D01*
X1119989Y1376986D02*
X1128436D01*
X1120002Y1381486D02*
X1128423D01*
X1120127Y1370686D02*
X1128298D01*
X1120168Y1374286D02*
X1128257D01*
X1120247Y1377886D02*
X1128178D01*
X1120253Y1380586D02*
X1128173D01*
X1120299Y1371586D02*
X1128127D01*
X1120309Y1373386D02*
X1128116D01*
X1120315Y1379686D02*
X1128110D01*
X1120315Y1378786D02*
X1128110D01*
X1120315Y1372486D02*
X1128110D01*
X1100457Y1384186D02*
X1114797D01*
X1101455Y1367986D02*
X1113820D01*
X1102265Y1383286D02*
X1112999D01*
X1102660Y1368886D02*
X1112611D01*
X1103091Y1376086D02*
X1112179D01*
X1103093Y1382386D02*
X1112172D01*
X1103323Y1369786D02*
X1111947D01*
X1103398Y1375186D02*
X1111869D01*
X1103566Y1376986D02*
X1111704D01*
X1103576Y1381486D02*
X1111691D01*
X1103703Y1370686D02*
X1111566D01*
X1103742Y1374286D02*
X1111525D01*
X1103823Y1377886D02*
X1111446D01*
X1103827Y1380586D02*
X1111440D01*
X1103874Y1371586D02*
X1111394D01*
X1103884Y1373386D02*
X1111384D01*
X1103890Y1379686D02*
X1111378D01*
X1103890Y1378786D02*
X1111378D01*
X1103890Y1372486D02*
X1111378D01*
X1041558Y1384186D02*
X1098386D01*
X1078038Y1367986D02*
X1097388D01*
X1041955Y1383286D02*
X1096578D01*
X1053523Y1368886D02*
X1096183D01*
X1043718Y1376086D02*
X1095753D01*
X1042308Y1382386D02*
X1095750D01*
X1053151Y1369786D02*
X1095521D01*
X1043779Y1375186D02*
X1095446D01*
X1043624Y1376986D02*
X1095278D01*
X1042621Y1381486D02*
X1095268D01*
X1043632Y1370686D02*
X1095140D01*
X1043806Y1374286D02*
X1095101D01*
X1043495Y1377886D02*
X1095020D01*
X1042895Y1380586D02*
X1095016D01*
X1043684Y1371586D02*
X1094969D01*
X1043799Y1373386D02*
X1094960D01*
X1043131Y1379686D02*
X1094953D01*
X1043331Y1378786D02*
X1094953D01*
X1043759Y1372486D02*
X1094953D01*
X1059565Y1367986D02*
X1066096D01*
X1061220Y1367086D02*
X1065315D01*
X1062229Y1366186D02*
X1065051D01*
X1062934Y1365286D02*
X1065039D01*
X1063437Y1364386D02*
X1065039D01*
X1063783Y1363486D02*
X1065039D01*
X1063997Y1362586D02*
X1065039D01*
X1053642Y1367986D02*
X1054569D01*
X1313331Y1309195D02*
X1389201D01*
X1313691Y1308295D02*
X1389201D01*
X1313830Y1307395D02*
X1389201D01*
X1313710Y1306495D02*
X1389201D01*
X1313298Y1305595D02*
X1389201D01*
X1312398Y1304695D02*
X1389201D01*
X1201727Y1303795D02*
X1389201D01*
X1202207Y1302895D02*
X1389201D01*
X1202512Y1301995D02*
X1389201D01*
X1202669Y1301095D02*
X1389201D01*
X1202689Y1300195D02*
X1389201D01*
X1202573Y1299295D02*
X1389201D01*
X1202314Y1298395D02*
X1389201D01*
X1201890Y1297495D02*
X1389201D01*
X1201256Y1296595D02*
X1389201D01*
X1200409Y1295695D02*
X1389201D01*
X1200917Y1294795D02*
X1389201D01*
X1201661Y1293895D02*
X1389201D01*
X1202163Y1292995D02*
X1389201D01*
X1202486Y1292095D02*
X1389201D01*
X1202658Y1291195D02*
X1389201D01*
X1202693Y1290295D02*
X1389201D01*
X1202593Y1289395D02*
X1389201D01*
X1202350Y1288495D02*
X1389201D01*
X1201946Y1287595D02*
X1389201D01*
X1201339Y1286695D02*
X1389201D01*
X1200462Y1285795D02*
X1389201D01*
X1200814Y1284895D02*
X1389201D01*
X1201592Y1283995D02*
X1389201D01*
X1202117Y1283095D02*
X1389201D01*
X1202458Y1282195D02*
X1389201D01*
X1202646Y1281295D02*
X1389201D01*
X1202696Y1280395D02*
X1389201D01*
X1202611Y1279495D02*
X1389201D01*
X1202385Y1278595D02*
X1389201D01*
X1202000Y1277695D02*
X1389201D01*
X1201425Y1276795D02*
X1389201D01*
X1201890Y1275895D02*
X1389201D01*
X1202514Y1274995D02*
X1389201D01*
X1202697Y1274095D02*
X1389201D01*
X1202697Y1273195D02*
X1389201D01*
X1202697Y1272295D02*
X1389201D01*
X1202697Y1271395D02*
X1389201D01*
X1202697Y1270495D02*
X1389201D01*
X1202697Y1269595D02*
X1389201D01*
X1202697Y1268695D02*
X1389201D01*
X1202697Y1267795D02*
X1389201D01*
X1202696Y1266895D02*
X1389201D01*
X1202499Y1265995D02*
X1389201D01*
X1201852Y1265095D02*
X1389201D01*
X1189544Y1264195D02*
X1389201D01*
X1190185Y1263295D02*
X1389201D01*
X1190185Y1262395D02*
X1389201D01*
X1190583Y1261495D02*
X1389201D01*
X1228341Y1260595D02*
X1389201D01*
X1229241Y1259695D02*
X1389201D01*
X1230141Y1258795D02*
X1389201D01*
X1231041Y1257895D02*
X1389201D01*
X1313330Y1310095D02*
X1388885D01*
X1313330Y1310995D02*
X1357156D01*
X1313330Y1311895D02*
X1356256D01*
X1313900Y1312795D02*
X1355356D01*
X1314893Y1313695D02*
X1354456D01*
X1315533Y1314595D02*
X1353556D01*
X1315948Y1315495D02*
X1352656D01*
X1316189Y1316395D02*
X1351756D01*
X1316279Y1317295D02*
X1331683D01*
X1316224Y1318195D02*
X1330783D01*
X1201015Y1304695D02*
X1308862D01*
X1199922Y1305595D02*
X1307962D01*
X1301892Y1311895D02*
X1307930D01*
X1197096Y1310995D02*
X1307930D01*
X1196196Y1310095D02*
X1307930D01*
X1195296Y1309195D02*
X1307929D01*
X1187585Y1308295D02*
X1307569D01*
X1197506Y1306495D02*
X1307550D01*
X1186685Y1307395D02*
X1307430D01*
X1303900Y1312795D02*
X1307360D01*
X1304893Y1313695D02*
X1306366D01*
X1197996Y1311895D02*
X1299368D01*
X1198896Y1312795D02*
X1297360D01*
X1199796Y1313695D02*
X1296366D01*
X1200696Y1314595D02*
X1295727D01*
X1201596Y1315495D02*
X1295312D01*
X1202496Y1316395D02*
X1295071D01*
X1204296Y1318195D02*
X1295036D01*
X1203396Y1317295D02*
X1294981D01*
X1205196Y1319095D02*
X1228781D01*
X1205264Y1319995D02*
X1227881D01*
X1205264Y1320895D02*
X1226981D01*
X1205264Y1321795D02*
X1226081D01*
X1205264Y1322695D02*
X1225181D01*
X1205264Y1323595D02*
X1224281D01*
X1205264Y1324495D02*
X1223381D01*
X1205264Y1325395D02*
X1222481D01*
X1205389Y1326295D02*
X1221581D01*
X1185785Y1306495D02*
X1195801D01*
X1185146Y1305595D02*
X1193385D01*
X1185146Y1295695D02*
X1192898D01*
X1185146Y1285795D02*
X1192845D01*
X1185146Y1284895D02*
X1192493D01*
X1185146Y1294795D02*
X1192390D01*
X1185146Y1304695D02*
X1192292D01*
X1185146Y1296595D02*
X1192052D01*
X1185146Y1286695D02*
X1191968D01*
X1185146Y1276795D02*
X1191882D01*
X1185146Y1283995D02*
X1191715D01*
X1185146Y1293895D02*
X1191646D01*
X1185146Y1303795D02*
X1191580D01*
X1188644Y1265095D02*
X1191455D01*
X1185146Y1275895D02*
X1191417D01*
X1185146Y1297495D02*
X1191417D01*
X1185146Y1287595D02*
X1191361D01*
X1185146Y1277695D02*
X1191307D01*
X1185146Y1283095D02*
X1191190D01*
X1185146Y1292995D02*
X1191144D01*
X1185146Y1302895D02*
X1191100D01*
X1185146Y1298395D02*
X1190993D01*
X1185146Y1288495D02*
X1190957D01*
X1185146Y1278595D02*
X1190922D01*
X1185146Y1282195D02*
X1190849D01*
X1185146Y1292095D02*
X1190821D01*
X1187744Y1265995D02*
X1190808D01*
X1185146Y1301995D02*
X1190795D01*
X1185146Y1274995D02*
X1190794D01*
X1185146Y1299295D02*
X1190734D01*
X1185146Y1289395D02*
X1190714D01*
X1185146Y1279495D02*
X1190696D01*
X1185146Y1281295D02*
X1190661D01*
X1185146Y1291195D02*
X1190649D01*
X1185146Y1301095D02*
X1190638D01*
X1185146Y1300195D02*
X1190619D01*
X1185146Y1290295D02*
X1190614D01*
X1185146Y1280395D02*
X1190611D01*
X1186844Y1266895D02*
X1190611D01*
X1185146Y1274095D02*
X1190611D01*
X1185146Y1273195D02*
X1190610D01*
X1185146Y1272295D02*
X1190610D01*
X1185146Y1271395D02*
X1190610D01*
X1185146Y1270495D02*
X1190610D01*
X1185146Y1269595D02*
X1190610D01*
X1185157Y1268695D02*
X1190610D01*
X1185944Y1267795D02*
X1190610D01*
X1267737Y1213799D02*
X1273270D01*
X1266837Y1212899D02*
X1272122D01*
X1268637Y1214699D02*
X1272120D01*
X1269537Y1215599D02*
X1271543D01*
X1270437Y1216499D02*
X1271247D01*
X1265937Y1211999D02*
X1270706D01*
X1265037Y1211099D02*
X1270128D01*
X1264137Y1210199D02*
X1269891D01*
X1263617Y1209299D02*
X1269486D01*
X1263617Y1208399D02*
X1268586D01*
X1263617Y1207499D02*
X1267647D01*
X1263617Y1206599D02*
X1266747D01*
X1358885Y1252499D02*
X1389201D01*
X1359277Y1251599D02*
X1389201D01*
X1359380Y1250699D02*
X1389201D01*
X1359225Y1249799D02*
X1389201D01*
X1358764Y1248899D02*
X1389201D01*
X1358381Y1247999D02*
X1389201D01*
X1358381Y1247099D02*
X1389201D01*
X1358381Y1246199D02*
X1389201D01*
X1358516Y1245299D02*
X1389201D01*
X1359110Y1244399D02*
X1389201D01*
X1359357Y1243499D02*
X1389201D01*
X1359340Y1242599D02*
X1389201D01*
X1359053Y1241699D02*
X1389201D01*
X1358394Y1240799D02*
X1389201D01*
X1004500Y1239899D02*
X1389201D01*
X1004500Y1238999D02*
X1389201D01*
X1004500Y1238099D02*
X1389201D01*
X1004500Y1237199D02*
X1389201D01*
X1004500Y1236299D02*
X1389201D01*
X1004500Y1235399D02*
X1389201D01*
X1004500Y1234499D02*
X1389201D01*
X1004500Y1233599D02*
X1389201D01*
X1004500Y1232699D02*
X1389201D01*
X1252914Y1231799D02*
X1389201D01*
X1254571Y1230899D02*
X1389201D01*
X1255191Y1229999D02*
X1389201D01*
X1255453Y1229099D02*
X1389201D01*
X1255450Y1228199D02*
X1389201D01*
X1255179Y1227299D02*
X1389201D01*
X1254546Y1226399D02*
X1389201D01*
X1252771Y1225499D02*
X1389201D01*
X1004500Y1224599D02*
X1389201D01*
X1289790Y1223699D02*
X1389201D01*
X1290808Y1222799D02*
X1389201D01*
X1291270Y1221899D02*
X1389201D01*
X1291427Y1220999D02*
X1389201D01*
X1291325Y1220099D02*
X1389201D01*
X1290935Y1219199D02*
X1389201D01*
X1290084Y1218299D02*
X1389201D01*
X1287793Y1217399D02*
X1389201D01*
X1286893Y1216499D02*
X1389201D01*
X1285993Y1215599D02*
X1389201D01*
X1284592Y1214699D02*
X1389201D01*
X1275451Y1213799D02*
X1389201D01*
X1274287Y1212899D02*
X1389201D01*
X1275435Y1211999D02*
X1389201D01*
X1276014Y1211099D02*
X1389201D01*
X1276251Y1210199D02*
X1389201D01*
X1276224Y1209299D02*
X1389201D01*
X1305037Y1208399D02*
X1389201D01*
X1306347Y1207499D02*
X1389201D01*
X1306901Y1206599D02*
X1389201D01*
X1307122Y1205699D02*
X1389201D01*
X1307081Y1204799D02*
X1389201D01*
X1306766Y1203899D02*
X1389201D01*
X1306059Y1202999D02*
X1389201D01*
X1297021Y1202099D02*
X1389201D01*
X1379187Y1201199D02*
X1389201D01*
X1379885Y1200299D02*
X1389201D01*
X1380194Y1199399D02*
X1389201D01*
X1380231Y1198499D02*
X1389201D01*
X1380005Y1197599D02*
X1389201D01*
X1379444Y1196699D02*
X1389201D01*
X1378105Y1195799D02*
X1389201D01*
X1289821Y1194899D02*
X1389201D01*
X1288921Y1193999D02*
X1389201D01*
X1301768Y1193099D02*
X1389201D01*
X1303429Y1192199D02*
X1389201D01*
X1304049Y1191299D02*
X1389201D01*
X1304312Y1190399D02*
X1389201D01*
X1304308Y1189499D02*
X1389201D01*
X1304037Y1188599D02*
X1389201D01*
X1303405Y1187699D02*
X1389201D01*
X1316672Y1186799D02*
X1389201D01*
X1341064Y1185899D02*
X1389201D01*
X1341874Y1184999D02*
X1389201D01*
X1342244Y1184099D02*
X1389201D01*
X1342330Y1183199D02*
X1389201D01*
X1342157Y1182299D02*
X1389201D01*
X1341673Y1181399D02*
X1389201D01*
X1341334Y1180499D02*
X1389201D01*
X1341334Y1179599D02*
X1389201D01*
X1341334Y1178699D02*
X1389201D01*
X1341334Y1177799D02*
X1389201D01*
X1341340Y1176899D02*
X1389201D01*
X1341934Y1175999D02*
X1389201D01*
X1342267Y1175099D02*
X1389201D01*
X1342324Y1174199D02*
X1389201D01*
X1342120Y1173299D02*
X1389201D01*
X1341591Y1172399D02*
X1389201D01*
X1340374Y1171499D02*
X1389201D01*
X1318080Y1170599D02*
X1389201D01*
X1317180Y1169699D02*
X1389201D01*
X1316049Y1168799D02*
X1389201D01*
X1306113Y1167899D02*
X1389201D01*
X1305980Y1166999D02*
X1389201D01*
X1305549Y1166099D02*
X1389201D01*
X1304608Y1165199D02*
X1389201D01*
X1106124Y1164299D02*
X1389201D01*
X1105543Y1163399D02*
X1389201D01*
X1106360Y1162499D02*
X1389201D01*
X1107010Y1161599D02*
X1389201D01*
X1107445Y1160699D02*
X1389201D01*
X1198002Y1159799D02*
X1389201D01*
X1199442Y1158899D02*
X1389201D01*
X1200025Y1157999D02*
X1389201D01*
X1200266Y1157099D02*
X1389201D01*
X1200242Y1156199D02*
X1389201D01*
X1199948Y1155299D02*
X1389201D01*
X1199276Y1154399D02*
X1389201D01*
X1196954Y1153499D02*
X1389201D01*
X1373008Y1152599D02*
X1389201D01*
X1374910Y1151699D02*
X1389201D01*
X1375918Y1150799D02*
X1389201D01*
X1376584Y1149899D02*
X1389201D01*
X1377031Y1148999D02*
X1389201D01*
X1377310Y1148099D02*
X1389201D01*
X1377442Y1147199D02*
X1389201D01*
X1377439Y1146299D02*
X1389201D01*
X1377300Y1145399D02*
X1389201D01*
X1377015Y1144499D02*
X1389201D01*
X1376559Y1143599D02*
X1389201D01*
X1375881Y1142699D02*
X1389201D01*
X1374852Y1141799D02*
X1389201D01*
X1372849Y1140899D02*
X1389201D01*
X1246197Y1139999D02*
X1389201D01*
X1247861Y1139099D02*
X1389201D01*
X1248694Y1138199D02*
X1389201D01*
X1249197Y1137299D02*
X1389201D01*
X1249478Y1136399D02*
X1389201D01*
X1249576Y1135499D02*
X1389201D01*
X1373807Y1134599D02*
X1389201D01*
X1375275Y1133699D02*
X1389201D01*
X1376154Y1132799D02*
X1389201D01*
X1376744Y1131899D02*
X1389201D01*
X1377135Y1130999D02*
X1389201D01*
X1377366Y1130099D02*
X1389201D01*
X1377456Y1129199D02*
X1389201D01*
X1377411Y1128299D02*
X1389201D01*
X1377228Y1127399D02*
X1389201D01*
X1376893Y1126499D02*
X1389201D01*
X1376376Y1125599D02*
X1389201D01*
X1375609Y1124699D02*
X1389201D01*
X1374407Y1123799D02*
X1389201D01*
X1326323Y1122899D02*
X1389201D01*
X1326379Y1121999D02*
X1389201D01*
X1383377Y1121099D02*
X1389201D01*
X1385311Y1120199D02*
X1389201D01*
X1385955Y1119299D02*
X1389201D01*
X1386234Y1118399D02*
X1389201D01*
X1386244Y1117499D02*
X1389201D01*
X1385988Y1116599D02*
X1389201D01*
X1385381Y1115699D02*
X1389201D01*
X1383805Y1114799D02*
X1389201D01*
X1293086Y1113899D02*
X1389201D01*
X1291039Y1112999D02*
X1389201D01*
X1290414Y1112099D02*
X1389201D01*
X1289515Y1111199D02*
X1389201D01*
X1289053Y1110299D02*
X1389201D01*
X1288836Y1109399D02*
X1389201D01*
X1288288Y1108499D02*
X1389201D01*
X1287001Y1107599D02*
X1389201D01*
X1233885Y1106699D02*
X1389201D01*
X1004500Y1105799D02*
X1389201D01*
X1004500Y1104899D02*
X1389201D01*
X1004500Y1103999D02*
X1389201D01*
X1004500Y1103099D02*
X1389201D01*
X1004500Y1102199D02*
X1389201D01*
X1004500Y1101299D02*
X1389201D01*
X1004500Y1100399D02*
X1389201D01*
X1004500Y1099499D02*
X1389201D01*
X1004500Y1098599D02*
X1389201D01*
X1004500Y1097699D02*
X1389201D01*
X1189828Y1096799D02*
X1389201D01*
X1191093Y1095899D02*
X1389201D01*
X1191636Y1094999D02*
X1389201D01*
X1191849Y1094099D02*
X1389201D01*
X1191801Y1093199D02*
X1389201D01*
X1191477Y1092299D02*
X1389201D01*
X1190755Y1091399D02*
X1389201D01*
X1186248Y1090499D02*
X1389201D01*
X1185348Y1089599D02*
X1389201D01*
X1184448Y1088699D02*
X1389201D01*
X1183548Y1087799D02*
X1389201D01*
X1182454Y1086899D02*
X1389201D01*
X1181331Y1085999D02*
X1389201D01*
X1331446Y1085099D02*
X1389201D01*
X1332534Y1084199D02*
X1389201D01*
X1333021Y1083299D02*
X1389201D01*
X1333196Y1082399D02*
X1389201D01*
X1333112Y1081499D02*
X1389201D01*
X1332745Y1080599D02*
X1389201D01*
X1331939Y1079699D02*
X1389201D01*
X1320264Y1078799D02*
X1389201D01*
X1319472Y1077899D02*
X1389201D01*
X1319349Y1076999D02*
X1389201D01*
X1318948Y1076099D02*
X1389201D01*
X1318074Y1075199D02*
X1389201D01*
X1004500Y1074299D02*
X1389201D01*
X1004500Y1073399D02*
X1389201D01*
X1004500Y1072499D02*
X1389201D01*
X1004500Y1071599D02*
X1389201D01*
X1004500Y1070699D02*
X1389201D01*
X1004500Y1069799D02*
X1389201D01*
X1004500Y1068899D02*
X1389201D01*
X1004500Y1067999D02*
X1389201D01*
X1004500Y1067099D02*
X1389201D01*
X1004500Y1066199D02*
X1389201D01*
X1004500Y1065299D02*
X1389201D01*
X1004500Y1064399D02*
X1389201D01*
X1004500Y1063499D02*
X1389201D01*
X1004500Y1062599D02*
X1389201D01*
X1004500Y1061699D02*
X1389201D01*
X1004500Y1060799D02*
X1389201D01*
X1004500Y1059899D02*
X1389201D01*
X1049653Y1058999D02*
X1389201D01*
X1050198Y1058099D02*
X1389201D01*
X1050335Y1057199D02*
X1389201D01*
X1050335Y1056299D02*
X1389201D01*
X1050335Y1055399D02*
X1389201D01*
X1050335Y1054499D02*
X1389201D01*
X1294267Y1053599D02*
X1389201D01*
X1294832Y1052699D02*
X1389201D01*
X1294980Y1051799D02*
X1389201D01*
X1294980Y1050899D02*
X1389201D01*
X1324252Y1049999D02*
X1389201D01*
X1325684Y1049099D02*
X1389201D01*
X1326624Y1048199D02*
X1389201D01*
X1327300Y1047299D02*
X1389201D01*
X1327790Y1046399D02*
X1389201D01*
X1328134Y1045499D02*
X1389201D01*
X1328351Y1044599D02*
X1389201D01*
X1376300Y1043699D02*
X1389201D01*
X1380917Y1042799D02*
X1389201D01*
X1383419Y1041899D02*
X1389201D01*
X1385312Y1040999D02*
X1389201D01*
X1386867Y1040099D02*
X1389201D01*
X1388196Y1039199D02*
X1389134D01*
X1375464Y1121099D02*
X1382764D01*
X1375892Y1114799D02*
X1382337D01*
X1368553Y1195799D02*
X1375990D01*
X1369205Y1201199D02*
X1374908D01*
X1327024Y1121099D02*
X1374851D01*
X1344507Y1114799D02*
X1374423D01*
X1345821Y1120199D02*
X1372917D01*
X1345969Y1115699D02*
X1372848D01*
X1346487Y1119299D02*
X1372273D01*
X1346557Y1116599D02*
X1372240D01*
X1346779Y1118399D02*
X1371994D01*
X1346800Y1117499D02*
X1371984D01*
X1328454Y1043699D02*
X1371731D01*
X1347249Y1140899D02*
X1369979D01*
X1347408Y1152599D02*
X1369821D01*
X1348207Y1134599D02*
X1369022D01*
X1348807Y1123799D02*
X1368422D01*
X1349252Y1141799D02*
X1367977D01*
X1349310Y1151699D02*
X1367918D01*
X1349675Y1133699D02*
X1367554D01*
X1350009Y1124699D02*
X1367220D01*
X1328447Y1042799D02*
X1367114D01*
X1350281Y1142699D02*
X1366947D01*
X1350318Y1150799D02*
X1366910D01*
X1350554Y1132799D02*
X1366675D01*
X1350776Y1125599D02*
X1366453D01*
X1350959Y1143599D02*
X1366269D01*
X1350984Y1149899D02*
X1366244D01*
X1351144Y1131899D02*
X1366085D01*
X1351293Y1126499D02*
X1365936D01*
X1290721Y1195799D02*
X1365856D01*
X1351415Y1144499D02*
X1365814D01*
X1351431Y1148999D02*
X1365797D01*
X1351535Y1130999D02*
X1365694D01*
X1351628Y1127399D02*
X1365601D01*
X1351700Y1145399D02*
X1365528D01*
X1351710Y1148099D02*
X1365519D01*
X1351766Y1130099D02*
X1365463D01*
X1351811Y1128299D02*
X1365418D01*
X1351839Y1146299D02*
X1365389D01*
X1351842Y1147199D02*
X1365386D01*
X1351856Y1129199D02*
X1365373D01*
X1296121Y1201199D02*
X1365205D01*
X1291621Y1196699D02*
X1364708D01*
X1328330Y1041899D02*
X1364612D01*
X1295221Y1200299D02*
X1364432D01*
X1292521Y1197599D02*
X1364200D01*
X1294321Y1199399D02*
X1364082D01*
X1293421Y1198499D02*
X1364011D01*
X1328096Y1040999D02*
X1362720D01*
X1327735Y1040099D02*
X1361164D01*
X1327224Y1039199D02*
X1359835D01*
X1326520Y1038299D02*
X1358673D01*
X1325534Y1037399D02*
X1357642D01*
X1323996Y1036499D02*
X1356719D01*
X1289099Y1035599D02*
X1355888D01*
X1288616Y1034699D02*
X1355135D01*
X1151182Y1004999D02*
X1354752D01*
X1287867Y1033799D02*
X1354454D01*
X1152036Y1005899D02*
X1354222D01*
X1004500Y1240799D02*
X1353968D01*
X1286628Y1032899D02*
X1353835D01*
X1152803Y1006799D02*
X1353624D01*
X1113582Y1031999D02*
X1353273D01*
X1153261Y1007699D02*
X1353082D01*
X1151243Y1031099D02*
X1352765D01*
X1153502Y1008599D02*
X1352592D01*
X1152355Y1030199D02*
X1352305D01*
X1193135Y1009499D02*
X1352150D01*
X1152994Y1029299D02*
X1351892D01*
X1194235Y1010399D02*
X1351753D01*
X1153369Y1028399D02*
X1351522D01*
X1194892Y1011299D02*
X1351398D01*
X1153543Y1027499D02*
X1351194D01*
X1195295Y1012199D02*
X1351085D01*
X1153563Y1026599D02*
X1350906D01*
X1195505Y1013099D02*
X1350810D01*
X1153563Y1025699D02*
X1350655D01*
X1195546Y1013999D02*
X1350573D01*
X1153563Y1024799D02*
X1350442D01*
X1195424Y1014899D02*
X1350373D01*
X1153545Y1023899D02*
X1350265D01*
X1195125Y1015799D02*
X1350209D01*
X1153375Y1022999D02*
X1350122D01*
X1194611Y1016699D02*
X1350079D01*
X1153006Y1022099D02*
X1350015D01*
X1193778Y1017599D02*
X1349984D01*
X1152374Y1021199D02*
X1349941D01*
X1192203Y1018499D02*
X1349923D01*
X1151280Y1020299D02*
X1349901D01*
X1043805Y1019399D02*
X1349895D01*
X1004500Y1241699D02*
X1349381D01*
X1183132Y1247999D02*
X1349257D01*
X1182881Y1247099D02*
X1349257D01*
X1183230Y1248899D02*
X1349254D01*
X1182454Y1246199D02*
X1349012D01*
X1183184Y1249799D02*
X1348674D01*
X1004500Y1242599D02*
X1348649D01*
X1181798Y1245299D02*
X1348476D01*
X1182066Y1252499D02*
X1348459D01*
X1182990Y1250699D02*
X1348330D01*
X1178575Y1243499D02*
X1348320D01*
X1180774Y1244399D02*
X1348268D01*
X1182630Y1251599D02*
X1348264D01*
X1004500Y1140899D02*
X1344379D01*
X1195994Y1152599D02*
X1344221D01*
X1332954Y1134599D02*
X1343422D01*
X1326323Y1123799D02*
X1342822D01*
X1337538Y1114799D02*
X1342737D01*
X1004500Y1141799D02*
X1342377D01*
X1195094Y1151699D02*
X1342318D01*
X1333638Y1133699D02*
X1341954D01*
X1326323Y1124699D02*
X1341620D01*
X1103407Y1142699D02*
X1341347D01*
X1193546Y1150799D02*
X1341310D01*
X1333939Y1132799D02*
X1341075D01*
X1326702Y1125599D02*
X1340853D01*
X1105305Y1143599D02*
X1340669D01*
X1192191Y1149899D02*
X1340644D01*
X1333969Y1131899D02*
X1340485D01*
X1327192Y1126499D02*
X1340336D01*
X1106311Y1144499D02*
X1340214D01*
X1191583Y1148999D02*
X1340197D01*
X1333735Y1130999D02*
X1340094D01*
X1327369Y1127399D02*
X1340001D01*
X1106977Y1145399D02*
X1339928D01*
X1191414Y1148099D02*
X1339919D01*
X1333162Y1130099D02*
X1339863D01*
X1327287Y1128299D02*
X1339818D01*
X1189870Y1146299D02*
X1339789D01*
X1190934Y1147199D02*
X1339786D01*
X1331770Y1129199D02*
X1339773D01*
X1319449Y1171499D02*
X1337894D01*
X1317604Y1185899D02*
X1337204D01*
X1317071Y1180499D02*
X1336934D01*
X1317071Y1179599D02*
X1336934D01*
X1317071Y1178699D02*
X1336934D01*
X1317183Y1177799D02*
X1336934D01*
X1320412Y1176899D02*
X1336927D01*
X1320731Y1172399D02*
X1336677D01*
X1317078Y1181399D02*
X1336595D01*
X1318030Y1184999D02*
X1336393D01*
X1321128Y1175999D02*
X1336334D01*
X1321278Y1173299D02*
X1336148D01*
X1317609Y1182299D02*
X1336110D01*
X1318161Y1184099D02*
X1336024D01*
X1321448Y1175099D02*
X1336001D01*
X1321494Y1174199D02*
X1335944D01*
X1318033Y1183199D02*
X1335937D01*
X1294306Y1114799D02*
X1335769D01*
X1327325Y1120199D02*
X1334454D01*
X1294836Y1115699D02*
X1334307D01*
X1327354Y1119299D02*
X1333788D01*
X1325151Y1116599D02*
X1333719D01*
X1327120Y1118399D02*
X1333497D01*
X1326546Y1117499D02*
X1333476D01*
X1326921Y1129199D02*
X1329805D01*
X1322721Y1134599D02*
X1328620D01*
X1180530Y1085099D02*
X1328554D01*
X1321164Y1079699D02*
X1328061D01*
X1295041Y1116599D02*
X1323195D01*
X1004500Y1124699D02*
X1322023D01*
X1004500Y1123799D02*
X1322023D01*
X1291174Y1122899D02*
X1322023D01*
X1291925Y1121999D02*
X1321968D01*
X1294984Y1117499D02*
X1321800D01*
X1004500Y1125599D02*
X1321644D01*
X1292264Y1121099D02*
X1321322D01*
X1294651Y1118399D02*
X1321226D01*
X1004500Y1126499D02*
X1321154D01*
X1004500Y1128299D02*
X1321060D01*
X1292384Y1120199D02*
X1321021D01*
X1293911Y1119299D02*
X1320992D01*
X1004500Y1127399D02*
X1320977D01*
X1049848Y1084199D02*
X1319774D01*
X1004500Y1129199D02*
X1319661D01*
X1049419Y1083299D02*
X1318683D01*
X1249503Y1134599D02*
X1318303D01*
X1004500Y1130099D02*
X1318174D01*
X1048847Y1082399D02*
X1317783D01*
X1249251Y1133699D02*
X1317642D01*
X1246571Y1130999D02*
X1317581D01*
X1248784Y1132799D02*
X1317354D01*
X1248012Y1131899D02*
X1317335D01*
X1048095Y1081499D02*
X1316883D01*
X1047081Y1080599D02*
X1314647D01*
X1004500Y1075199D02*
X1314445D01*
X1045597Y1079699D02*
X1313659D01*
X1004500Y1076099D02*
X1313572D01*
X1307517Y1186799D02*
X1313250D01*
X1004500Y1078799D02*
X1313208D01*
X1004500Y1076999D02*
X1313171D01*
X1004500Y1077899D02*
X1313060D01*
X1308854Y1185899D02*
X1312318D01*
X1309443Y1184999D02*
X1311840D01*
X1289390Y1036499D02*
X1309822D01*
X1294980Y1049999D02*
X1309567D01*
X1289518Y1037399D02*
X1308285D01*
X1294980Y1049099D02*
X1308135D01*
X1289496Y1038299D02*
X1307299D01*
X1294980Y1048199D02*
X1307195D01*
X1289322Y1039199D02*
X1306595D01*
X1294980Y1047299D02*
X1306519D01*
X1288980Y1040099D02*
X1306084D01*
X1294980Y1046399D02*
X1306029D01*
X1288429Y1040999D02*
X1305722D01*
X1294940Y1045499D02*
X1305685D01*
X1287574Y1041899D02*
X1305489D01*
X1294587Y1044599D02*
X1305468D01*
X1301910Y1186799D02*
X1305396D01*
X1286443Y1042799D02*
X1305372D01*
X1293578Y1043699D02*
X1305365D01*
X1275927Y1208399D02*
X1302837D01*
X1297921Y1202999D02*
X1301815D01*
X1291008Y1165199D02*
X1301219D01*
X1289761Y1193099D02*
X1300515D01*
X1291433Y1192199D02*
X1298853D01*
X1275250Y1207499D02*
X1296565D01*
X1272913Y1206599D02*
X1295298D01*
X1271968Y1205699D02*
X1294398D01*
X1271032Y1204799D02*
X1293498D01*
X1270128Y1203899D02*
X1292598D01*
X1269609Y1202999D02*
X1291698D01*
X1269411Y1202099D02*
X1290798D01*
X1268891Y1201199D02*
X1289898D01*
X1267705Y1200299D02*
X1288998D01*
X1224589Y1199399D02*
X1288098D01*
X1106850Y1165199D02*
X1287496D01*
X1166062Y1186799D02*
X1287239D01*
X1224581Y1198499D02*
X1287198D01*
X1004500Y1122899D02*
X1287094D01*
X1211281Y1187699D02*
X1286870D01*
X1271628Y1223699D02*
X1286667D01*
X1107340Y1166099D02*
X1286590D01*
X1166957Y1185899D02*
X1286373D01*
X1004500Y1121999D02*
X1286343D01*
X1224306Y1197599D02*
X1286298D01*
X1248877Y1176899D02*
X1286261D01*
X1212279Y1188599D02*
X1286238D01*
X1165715Y1166999D02*
X1286172D01*
X1248972Y1175999D02*
X1286119D01*
X1224480Y1189499D02*
X1285967D01*
X1167533Y1184999D02*
X1285946D01*
X1004500Y1121099D02*
X1285863D01*
X1226144Y1190399D02*
X1285677D01*
X1273577Y1222799D02*
X1285648D01*
X1248972Y1175099D02*
X1285636D01*
X1167896Y1184099D02*
X1285605D01*
X1248972Y1174199D02*
X1285465D01*
X1274222Y1221899D02*
X1285186D01*
X1280266Y1043699D02*
X1285150D01*
X1274501Y1220999D02*
X1285027D01*
X1248407Y1177799D02*
X1284994D01*
X1004500Y1120199D02*
X1284963D01*
X1281385Y1053599D02*
X1284788D01*
X1235097Y1107599D02*
X1284731D01*
X1281976Y1044599D02*
X1284468D01*
X1223671Y1196699D02*
X1284465D01*
X1274753Y1220099D02*
X1284271D01*
X1282532Y1052699D02*
X1284223D01*
X1282886Y1045499D02*
X1284115D01*
X1004500Y1119299D02*
X1284063D01*
X1249171Y1173299D02*
X1283978D01*
X1283262Y1051799D02*
X1283923D01*
X1168090Y1183199D02*
X1283715D01*
X1167557Y1167899D02*
X1283704D01*
X1248229Y1178699D02*
X1283551D01*
X1235625Y1108499D02*
X1283445D01*
X1276662Y1219199D02*
X1283371D01*
X1226765Y1191299D02*
X1283314D01*
X1004500Y1118399D02*
X1283163D01*
X1224357Y1195799D02*
X1283091D01*
X1168131Y1182299D02*
X1283044D01*
X1247756Y1179599D02*
X1282967D01*
X1249731Y1172399D02*
X1282967D01*
X1235828Y1109399D02*
X1282896D01*
X1248908Y1168799D02*
X1282848D01*
X1168024Y1181399D02*
X1282750D01*
X1246707Y1180499D02*
X1282727D01*
X1235770Y1110299D02*
X1282635D01*
X1227028Y1192199D02*
X1282626D01*
X1226123Y1194899D02*
X1282521D01*
X1249956Y1171499D02*
X1282507D01*
X1249608Y1169699D02*
X1282456D01*
X1249918Y1170599D02*
X1282352D01*
X1227025Y1193099D02*
X1282322D01*
X1226754Y1193999D02*
X1282290D01*
X1004500Y1117499D02*
X1282263D01*
X1275145Y1042799D02*
X1282099D01*
X1275723Y1032899D02*
X1281521D01*
X1227965Y1116599D02*
X1280766D01*
X1276668Y1041899D02*
X1280576D01*
X1276962Y1033799D02*
X1280282D01*
X1235436Y1111199D02*
X1280260D01*
X1277524Y1040999D02*
X1279720D01*
X1229625Y1115699D02*
X1279674D01*
X1277711Y1034699D02*
X1279533D01*
X1234693Y1112099D02*
X1279458D01*
X1230525Y1114799D02*
X1279185D01*
X1278074Y1040099D02*
X1279170D01*
X1232325Y1112999D02*
X1279092D01*
X1278201Y1035599D02*
X1279043D01*
X1231425Y1113899D02*
X1279009D01*
X1269361Y1043699D02*
X1276978D01*
X1270479Y1053599D02*
X1275859D01*
X1271071Y1044599D02*
X1275268D01*
X1271626Y1052699D02*
X1274712D01*
X1271980Y1045499D02*
X1274358D01*
X1272334Y1051799D02*
X1274005D01*
X1272563Y1046399D02*
X1273776D01*
X1272853Y1050899D02*
X1273486D01*
X1264240Y1042799D02*
X1271193D01*
X1004500Y1223699D02*
X1271049D01*
X1264817Y1032899D02*
X1270616D01*
X1265763Y1041899D02*
X1269670D01*
X1266056Y1033799D02*
X1269377D01*
X1004500Y1222799D02*
X1269100D01*
X1266618Y1040999D02*
X1268815D01*
X1266805Y1034699D02*
X1268628D01*
X1004500Y1221899D02*
X1268455D01*
X1267169Y1040099D02*
X1268264D01*
X1004500Y1220999D02*
X1268176D01*
X1267296Y1035599D02*
X1268137D01*
X1004500Y1220099D02*
X1267814D01*
X1004500Y1219199D02*
X1266914D01*
X1258455Y1043699D02*
X1266072D01*
X1004500Y1218299D02*
X1266014D01*
X1224331Y1200299D02*
X1265130D01*
X1004500Y1217399D02*
X1265114D01*
X1259574Y1053599D02*
X1264954D01*
X1260165Y1044599D02*
X1264362D01*
X1004500Y1216499D02*
X1264214D01*
X1263197Y1201199D02*
X1263942D01*
X1260721Y1052699D02*
X1263807D01*
X1261075Y1045499D02*
X1263453D01*
X1004500Y1215599D02*
X1263314D01*
X1261428Y1051799D02*
X1263100D01*
X1261657Y1046399D02*
X1262870D01*
X1261947Y1050899D02*
X1262580D01*
X1004500Y1214699D02*
X1262414D01*
X1004500Y1213799D02*
X1261514D01*
X1004500Y1212899D02*
X1260614D01*
X1253334Y1042799D02*
X1260288D01*
X1004500Y1211999D02*
X1259727D01*
X1253912Y1032899D02*
X1259710D01*
X1223720Y1201199D02*
X1259638D01*
X1004500Y1211099D02*
X1259277D01*
X1004500Y1210199D02*
X1259217D01*
X1004500Y1209299D02*
X1259217D01*
X1004500Y1208399D02*
X1259217D01*
X1004500Y1207499D02*
X1259217D01*
X1004500Y1206599D02*
X1259217D01*
X1004500Y1205699D02*
X1258800D01*
X1254857Y1041899D02*
X1258765D01*
X1222118Y1202099D02*
X1258744D01*
X1255151Y1033799D02*
X1258471D01*
X1004500Y1204799D02*
X1258359D01*
X1154793Y1202999D02*
X1258335D01*
X1153229Y1203899D02*
X1258218D01*
X1255713Y1040999D02*
X1257909D01*
X1255900Y1034699D02*
X1257722D01*
X1256263Y1040099D02*
X1257359D01*
X1256390Y1035599D02*
X1257232D01*
X1247550Y1043699D02*
X1255167D01*
X1248668Y1053599D02*
X1254048D01*
X1249260Y1044599D02*
X1253457D01*
X1249815Y1052699D02*
X1252901D01*
X1250169Y1045499D02*
X1252547D01*
X1250523Y1051799D02*
X1252194D01*
X1250752Y1046399D02*
X1251965D01*
X1004500Y1225499D02*
X1251796D01*
X1251042Y1050899D02*
X1251675D01*
X1247083Y1231799D02*
X1251653D01*
X1248323Y1226399D02*
X1250018D01*
X1248632Y1230899D02*
X1249972D01*
X1230061Y1042799D02*
X1249382D01*
X1113478Y1032899D02*
X1248805D01*
X1229944Y1041899D02*
X1247859D01*
X1113129Y1033799D02*
X1247566D01*
X1229711Y1040999D02*
X1247004D01*
X1112359Y1034699D02*
X1246817D01*
X1229349Y1040099D02*
X1246453D01*
X1052111Y1035599D02*
X1246334D01*
X1228838Y1039199D02*
X1246111D01*
X1225611Y1036499D02*
X1246043D01*
X1228134Y1038299D02*
X1245937D01*
X1227148Y1037399D02*
X1245915D01*
X1004500Y1231799D02*
X1245201D01*
X1168035Y1168799D02*
X1244635D01*
X1168135Y1174199D02*
X1244569D01*
X1168135Y1173299D02*
X1244372D01*
X1230068Y1043699D02*
X1244261D01*
X1004500Y1226399D02*
X1243961D01*
X1168135Y1169699D02*
X1243936D01*
X1168135Y1172399D02*
X1243812D01*
X1004500Y1230899D02*
X1243779D01*
X1167759Y1180499D02*
X1243687D01*
X1168135Y1170599D02*
X1243625D01*
X1168135Y1171499D02*
X1243587D01*
X1226984Y1139999D02*
X1243409D01*
X1168135Y1175099D02*
X1243302D01*
X1004500Y1227299D02*
X1243285D01*
X1004500Y1229999D02*
X1243200D01*
X1050335Y1053599D02*
X1243143D01*
X1227358Y1130999D02*
X1243036D01*
X1004500Y1228199D02*
X1242988D01*
X1004500Y1229099D02*
X1242962D01*
X1167309Y1179599D02*
X1242638D01*
X1229966Y1044599D02*
X1242551D01*
X1168084Y1175999D02*
X1242472D01*
X1166612Y1178699D02*
X1242164D01*
X1167705Y1176899D02*
X1242093D01*
X1166617Y1177799D02*
X1241999D01*
X1050335Y1052699D02*
X1241996D01*
X1228648Y1139099D02*
X1241745D01*
X1229748Y1045499D02*
X1241642D01*
X1228799Y1131899D02*
X1241594D01*
X1050335Y1051799D02*
X1241289D01*
X1229404Y1046399D02*
X1241059D01*
X1229481Y1138199D02*
X1240912D01*
X1050335Y1050899D02*
X1240833D01*
X1229571Y1132799D02*
X1240822D01*
X1228914Y1047299D02*
X1240692D01*
X1225867Y1049999D02*
X1240565D01*
X1228238Y1048199D02*
X1240498D01*
X1227298Y1049099D02*
X1240456D01*
X1229985Y1137299D02*
X1240409D01*
X1230038Y1133699D02*
X1240356D01*
X1230266Y1136399D02*
X1240128D01*
X1230291Y1134599D02*
X1240103D01*
X1230364Y1135499D02*
X1240030D01*
X1004500Y1106699D02*
X1231391D01*
X1004500Y1107599D02*
X1230178D01*
X1181202Y1253399D02*
X1229871D01*
X1004500Y1108499D02*
X1229650D01*
X1004500Y1109399D02*
X1229447D01*
X1179700Y1254299D02*
X1228971D01*
X1004500Y1110299D02*
X1228944D01*
X1171707Y1255199D02*
X1228071D01*
X1226570Y1111199D02*
X1228044D01*
X1172394Y1256099D02*
X1227171D01*
X1172843Y1256999D02*
X1226271D01*
X1004500Y1111199D02*
X1224926D01*
X1004500Y1139999D02*
X1224197D01*
X1004500Y1130999D02*
X1223823D01*
X1004500Y1116599D02*
X1223531D01*
X1004500Y1112099D02*
X1223417D01*
X1212733Y1189499D02*
X1223237D01*
X1004500Y1115699D02*
X1222874D01*
X1004500Y1112999D02*
X1222821D01*
X1004500Y1114799D02*
X1222588D01*
X1004500Y1113899D02*
X1222572D01*
X1004500Y1139099D02*
X1222533D01*
X1004500Y1131899D02*
X1222382D01*
X1004500Y1138199D02*
X1221700D01*
X1004500Y1132799D02*
X1221610D01*
X1212884Y1190399D02*
X1221572D01*
X1004500Y1137299D02*
X1221197D01*
X1004500Y1133699D02*
X1221143D01*
X1212777Y1191299D02*
X1220952D01*
X1004500Y1136399D02*
X1220916D01*
X1004500Y1134599D02*
X1220890D01*
X1004500Y1135499D02*
X1220817D01*
X1211786Y1202099D02*
X1220716D01*
X1212380Y1192199D02*
X1220689D01*
X1211835Y1193099D02*
X1220357D01*
X1211835Y1193999D02*
X1219558D01*
X1211835Y1194899D02*
X1219275D01*
X1211835Y1195799D02*
X1219267D01*
X1211835Y1196699D02*
X1219164D01*
X1212504Y1201199D02*
X1219115D01*
X1212111Y1197599D02*
X1218529D01*
X1212826Y1200299D02*
X1218503D01*
X1212657Y1198499D02*
X1218253D01*
X1212872Y1199399D02*
X1218245D01*
X1052111Y1036499D02*
X1211437D01*
X1050335Y1049999D02*
X1211181D01*
X1052110Y1037399D02*
X1209899D01*
X1050315Y1049099D02*
X1209749D01*
X1051789Y1038299D02*
X1208913D01*
X1050022Y1048199D02*
X1208809D01*
X1033866Y1039199D02*
X1208209D01*
X1049174Y1047299D02*
X1208133D01*
X1164422Y1187699D02*
X1208089D01*
X1032536Y1040099D02*
X1207698D01*
X1004500Y1046399D02*
X1207643D01*
X1155399Y1202099D02*
X1207584D01*
X1158979Y1196699D02*
X1207535D01*
X1158613Y1195799D02*
X1207535D01*
X1157810Y1194899D02*
X1207535D01*
X1155535Y1193999D02*
X1207535D01*
X1154635Y1193099D02*
X1207535D01*
X1030981Y1040999D02*
X1207337D01*
X1004500Y1045499D02*
X1207299D01*
X1159062Y1197599D02*
X1207259D01*
X1029089Y1041899D02*
X1207103D01*
X1150988Y1188599D02*
X1207091D01*
X1004500Y1044599D02*
X1207082D01*
X1153735Y1192199D02*
X1206991D01*
X1026587Y1042799D02*
X1206986D01*
X1021970Y1043699D02*
X1206979D01*
X1155654Y1201199D02*
X1206866D01*
X1158886Y1198499D02*
X1206713D01*
X1151184Y1189499D02*
X1206637D01*
X1152678Y1191299D02*
X1206594D01*
X1157306Y1200299D02*
X1206544D01*
X1158397Y1199399D02*
X1206498D01*
X1151778Y1190399D02*
X1206486D01*
X1107713Y1159799D02*
X1196172D01*
X1107837Y1158899D02*
X1194731D01*
X1107826Y1157999D02*
X1194148D01*
X1107678Y1157099D02*
X1193908D01*
X1107383Y1156199D02*
X1193512D01*
X1106915Y1155299D02*
X1192612D01*
X1106220Y1154399D02*
X1190610D01*
X1105527Y1153499D02*
X1189710D01*
X1168581Y1018499D02*
X1188899D01*
X1106271Y1152599D02*
X1188810D01*
X1169513Y1009499D02*
X1187968D01*
X1004500Y1096799D02*
X1187495D01*
X1170156Y1017599D02*
X1187324D01*
X1107424Y1146299D02*
X1186902D01*
X1170613Y1010399D02*
X1186867D01*
X1170989Y1016699D02*
X1186492D01*
X1106949Y1151699D02*
X1186472D01*
X1171270Y1011299D02*
X1186210D01*
X1171503Y1015799D02*
X1185977D01*
X1107701Y1147199D02*
X1185837D01*
X1171673Y1012199D02*
X1185808D01*
X1043034Y1095899D02*
X1185739D01*
X1171802Y1014899D02*
X1185678D01*
X1107405Y1150799D02*
X1185653D01*
X1171883Y1013099D02*
X1185598D01*
X1171924Y1013999D02*
X1185556D01*
X1107834Y1148099D02*
X1185358D01*
X1107691Y1149899D02*
X1185279D01*
X1107830Y1148999D02*
X1185189D01*
X1045888Y1094999D02*
X1184525D01*
X1047268Y1094099D02*
X1183625D01*
X1048231Y1093199D02*
X1182725D01*
X1173112Y1257899D02*
X1182135D01*
X1048950Y1092299D02*
X1181825D01*
X1173227Y1258799D02*
X1181126D01*
X1049497Y1091399D02*
X1180925D01*
X1173197Y1259699D02*
X1180118D01*
X1173019Y1260599D02*
X1179109D01*
X1172757Y1261499D02*
X1178100D01*
X1049905Y1090499D02*
X1177149D01*
X1050157Y1085099D02*
X1176635D01*
X1168575Y1243499D02*
X1176591D01*
X1050196Y1089599D02*
X1176054D01*
X1050359Y1085999D02*
X1175834D01*
X1050382Y1088699D02*
X1175564D01*
X1050462Y1086899D02*
X1175469D01*
X1170724Y1254299D02*
X1175466D01*
X1050470Y1087799D02*
X1175387D01*
X1170774Y1244399D02*
X1174392D01*
X1171202Y1253399D02*
X1173964D01*
X1171798Y1245299D02*
X1173368D01*
X1172066Y1252499D02*
X1173100D01*
X1004500Y1243499D02*
X1166591D01*
X1096928Y1018499D02*
X1165277D01*
X1004500Y1254299D02*
X1164443D01*
X1004500Y1244399D02*
X1164392D01*
X1153563Y1009499D02*
X1164346D01*
X1004500Y1253399D02*
X1163964D01*
X1098503Y1017599D02*
X1163702D01*
X1004500Y1255199D02*
X1163459D01*
X1004500Y1245299D02*
X1163368D01*
X1153563Y1010399D02*
X1163245D01*
X1004500Y1252499D02*
X1163100D01*
X1149723Y1016699D02*
X1162870D01*
X1004500Y1256099D02*
X1162772D01*
X1004500Y1246199D02*
X1162712D01*
X1153563Y1011299D02*
X1162588D01*
X1004500Y1251599D02*
X1162536D01*
X1004500Y1261499D02*
X1162409D01*
X1151750Y1015799D02*
X1162355D01*
X1004500Y1256999D02*
X1162323D01*
X1004500Y1247099D02*
X1162285D01*
X1153562Y1012199D02*
X1162186D01*
X1004500Y1250699D02*
X1162176D01*
X1004500Y1260599D02*
X1162147D01*
X1152636Y1014899D02*
X1162056D01*
X1004500Y1257899D02*
X1162054D01*
X1004500Y1247999D02*
X1162034D01*
X1004500Y1249799D02*
X1161982D01*
X1153456Y1013099D02*
X1161976D01*
X1004500Y1259699D02*
X1161970D01*
X1004500Y1258799D02*
X1161940D01*
X1004500Y1248899D02*
X1161936D01*
X1153162Y1013999D02*
X1161934D01*
X1150469Y1187699D02*
X1160847D01*
X1107653Y1166999D02*
X1159554D01*
X1149288Y1186799D02*
X1159207D01*
X1107849Y1178699D02*
X1158657D01*
X1107849Y1177799D02*
X1158652D01*
X1004500Y1185899D02*
X1158312D01*
X1107849Y1179599D02*
X1157960D01*
X1004500Y1184999D02*
X1157736D01*
X1107816Y1167899D02*
X1157712D01*
X1107849Y1176899D02*
X1157564D01*
X1107849Y1180499D02*
X1157510D01*
X1106809Y1184099D02*
X1157373D01*
X1107849Y1181399D02*
X1157245D01*
X1107843Y1168799D02*
X1157234D01*
X1107849Y1175999D02*
X1157185D01*
X1107579Y1183199D02*
X1157179D01*
X1107838Y1182299D02*
X1157138D01*
X1107849Y1175099D02*
X1157134D01*
X1107723Y1174199D02*
X1157134D01*
X1107197Y1173299D02*
X1157134D01*
X1106522Y1172399D02*
X1157134D01*
X1107067Y1171499D02*
X1157134D01*
X1107482Y1170599D02*
X1157134D01*
X1107734Y1169699D02*
X1157134D01*
X1004500Y1203899D02*
X1151732D01*
X1004500Y1202999D02*
X1150167D01*
X1004500Y1202099D02*
X1149561D01*
X1004500Y1201199D02*
X1149307D01*
X1004500Y1200299D02*
X1148880D01*
X1115701Y1016699D02*
X1148073D01*
X1004500Y1199399D02*
X1147980D01*
X1004500Y1198499D02*
X1147080D01*
X1004500Y1186799D02*
X1146696D01*
X1117167Y1004999D02*
X1146614D01*
X1117227Y1031099D02*
X1146552D01*
X1117264Y1020299D02*
X1146516D01*
X1004500Y1197599D02*
X1146180D01*
X1117733Y1015799D02*
X1146045D01*
X1118021Y1005899D02*
X1145760D01*
X1004500Y1187699D02*
X1145515D01*
X1118339Y1030199D02*
X1145441D01*
X1118358Y1021199D02*
X1145421D01*
X1004500Y1196699D02*
X1145280D01*
X1118619Y1014899D02*
X1145160D01*
X1004500Y1188599D02*
X1144997D01*
X1118788Y1006799D02*
X1144992D01*
X1118978Y1029299D02*
X1144801D01*
X1004500Y1189499D02*
X1144800D01*
X1118990Y1022099D02*
X1144790D01*
X1119146Y1013999D02*
X1144633D01*
X1119245Y1007699D02*
X1144535D01*
X1119353Y1028399D02*
X1144427D01*
X1119359Y1022999D02*
X1144420D01*
X1119440Y1013099D02*
X1144339D01*
X1119486Y1008599D02*
X1144293D01*
X1119527Y1027499D02*
X1144253D01*
X1119529Y1023899D02*
X1144251D01*
X1119546Y1012199D02*
X1144233D01*
X1119547Y1026599D02*
X1144232D01*
X1119547Y1025699D02*
X1144232D01*
X1119547Y1024799D02*
X1144232D01*
X1119547Y1011299D02*
X1144232D01*
X1119547Y1010399D02*
X1144232D01*
X1119547Y1009499D02*
X1144232D01*
X1004500Y1190399D02*
X1143262D01*
X1004500Y1195799D02*
X1142307D01*
X1004500Y1191299D02*
X1141984D01*
X1004500Y1194899D02*
X1141590D01*
X1004500Y1192199D02*
X1141438D01*
X1004500Y1193999D02*
X1141269D01*
X1004500Y1193099D02*
X1141222D01*
X1050374Y1337099D02*
X1127335D01*
X1050356Y1336199D02*
X1127335D01*
X1050069Y1335299D02*
X1127335D01*
X1049235Y1334399D02*
X1127335D01*
X1004500Y1333499D02*
X1127335D01*
X1004500Y1332599D02*
X1127335D01*
X1004500Y1331699D02*
X1127335D01*
X1086769Y1330799D02*
X1127335D01*
X1088248Y1329899D02*
X1127335D01*
X1089092Y1328999D02*
X1127335D01*
X1089639Y1328099D02*
X1127335D01*
X1089979Y1327199D02*
X1127335D01*
X1090153Y1326299D02*
X1127335D01*
X1090176Y1325399D02*
X1127335D01*
X1090050Y1324499D02*
X1127335D01*
X1089764Y1323599D02*
X1127335D01*
X1089288Y1322699D02*
X1127335D01*
X1088553Y1321799D02*
X1127335D01*
X1087352Y1320899D02*
X1127335D01*
X1004500Y1319999D02*
X1127335D01*
X1004500Y1319099D02*
X1127335D01*
X1004500Y1318199D02*
X1127335D01*
X1004500Y1317299D02*
X1127335D01*
X1004500Y1316399D02*
X1127335D01*
X1004500Y1315499D02*
X1127335D01*
X1044275Y1314599D02*
X1127335D01*
X1046344Y1313699D02*
X1127335D01*
X1047574Y1312799D02*
X1127335D01*
X1048457Y1311899D02*
X1127335D01*
X1049122Y1310999D02*
X1127335D01*
X1049626Y1310099D02*
X1127335D01*
X1049999Y1309199D02*
X1127335D01*
X1050260Y1308299D02*
X1127335D01*
X1050417Y1307399D02*
X1127335D01*
X1050477Y1306499D02*
X1127335D01*
X1050443Y1305599D02*
X1127335D01*
X1050312Y1304699D02*
X1127335D01*
X1050080Y1303799D02*
X1127335D01*
X1049738Y1302899D02*
X1127335D01*
X1049272Y1301999D02*
X1127335D01*
X1048654Y1301099D02*
X1127335D01*
X1047837Y1300199D02*
X1127335D01*
X1046722Y1299299D02*
X1127335D01*
X1044999Y1298399D02*
X1127335D01*
X1004500Y1297499D02*
X1127335D01*
X1004500Y1296599D02*
X1127335D01*
X1004500Y1295699D02*
X1127335D01*
X1004500Y1294799D02*
X1127335D01*
X1004500Y1293899D02*
X1127335D01*
X1004500Y1292999D02*
X1127335D01*
X1004500Y1292099D02*
X1127335D01*
X1004500Y1291199D02*
X1127335D01*
X1004500Y1290299D02*
X1127335D01*
X1004500Y1289399D02*
X1127335D01*
X1004500Y1288499D02*
X1127335D01*
X1004500Y1287599D02*
X1127335D01*
X1004500Y1286699D02*
X1127335D01*
X1004500Y1285799D02*
X1127335D01*
X1004500Y1284899D02*
X1127335D01*
X1004500Y1283999D02*
X1127335D01*
X1004500Y1283099D02*
X1127335D01*
X1004500Y1282199D02*
X1127335D01*
X1004500Y1281299D02*
X1127335D01*
X1004500Y1280399D02*
X1127335D01*
X1004500Y1279499D02*
X1127335D01*
X1004500Y1278599D02*
X1127335D01*
X1004500Y1277699D02*
X1127335D01*
X1004500Y1276799D02*
X1127335D01*
X1004500Y1275899D02*
X1127335D01*
X1004500Y1274999D02*
X1127335D01*
X1004500Y1274099D02*
X1127335D01*
X1004500Y1273199D02*
X1127335D01*
X1004500Y1272299D02*
X1127335D01*
X1004500Y1271399D02*
X1127335D01*
X1004500Y1270499D02*
X1127335D01*
X1004500Y1269599D02*
X1127335D01*
X1004500Y1268699D02*
X1127335D01*
X1004500Y1267799D02*
X1127335D01*
X1004500Y1266899D02*
X1127335D01*
X1004500Y1265999D02*
X1127335D01*
X1004500Y1265099D02*
X1127335D01*
X1004500Y1264199D02*
X1127335D01*
X1004500Y1263299D02*
X1127335D01*
X1004500Y1262399D02*
X1127335D01*
X1050374Y1337999D02*
X1126885D01*
X1050374Y1338899D02*
X1125985D01*
X1050374Y1339799D02*
X1125085D01*
X1050374Y1340699D02*
X1124185D01*
X1050374Y1341599D02*
X1123285D01*
X1050374Y1342499D02*
X1122385D01*
X1050374Y1343399D02*
X1121485D01*
X1050374Y1344299D02*
X1120585D01*
X1050233Y1345199D02*
X1119685D01*
X1049680Y1346099D02*
X1118785D01*
X1004500Y1346999D02*
X1117885D01*
X1004500Y1347899D02*
X1116985D01*
X1004500Y1348799D02*
X1116085D01*
X1099335Y1016699D02*
X1114062D01*
X1038949Y1004999D02*
X1112596D01*
X1043799Y1020299D02*
X1112500D01*
X1099850Y1015799D02*
X1112031D01*
X1039479Y1005899D02*
X1111743D01*
X1043760Y1021199D02*
X1111405D01*
X1100149Y1014899D02*
X1111145D01*
X1040077Y1006799D02*
X1110976D01*
X1043686Y1022099D02*
X1110774D01*
X1100271Y1013999D02*
X1110618D01*
X1040618Y1007699D02*
X1110518D01*
X1052111Y1028399D02*
X1110411D01*
X1043578Y1022999D02*
X1110404D01*
X1100229Y1013099D02*
X1110323D01*
X1041109Y1008599D02*
X1110277D01*
X1052111Y1027499D02*
X1110237D01*
X1043436Y1023899D02*
X1110235D01*
X1100019Y1012199D02*
X1110217D01*
X1052061Y1026599D02*
X1110216D01*
X1051450Y1025699D02*
X1110216D01*
X1043259Y1024799D02*
X1110216D01*
X1099617Y1011299D02*
X1110216D01*
X1098959Y1010399D02*
X1110216D01*
X1097859Y1009499D02*
X1110216D01*
X1104883Y1029299D02*
X1109015D01*
X1105548Y1034699D02*
X1108349D01*
X1052111Y1029299D02*
X1102203D01*
X1052111Y1034699D02*
X1101538D01*
X1052111Y1030199D02*
X1101050D01*
X1052111Y1033799D02*
X1100769D01*
X1052111Y1031099D02*
X1100541D01*
X1052111Y1032899D02*
X1100419D01*
X1052111Y1031999D02*
X1100350D01*
X1004500Y1142699D02*
X1100205D01*
X1004500Y1143599D02*
X1098307D01*
X1004500Y1153499D02*
X1098084D01*
X1004500Y1163399D02*
X1098068D01*
X1004500Y1164299D02*
X1097487D01*
X1004500Y1154399D02*
X1097391D01*
X1004500Y1152599D02*
X1097341D01*
X1004500Y1144499D02*
X1097300D01*
X1004500Y1162499D02*
X1097252D01*
X1004500Y1172399D02*
X1097090D01*
X1004500Y1184099D02*
X1096802D01*
X1004500Y1165199D02*
X1096761D01*
X1004500Y1155299D02*
X1096696D01*
X1004500Y1151699D02*
X1096662D01*
X1004500Y1145399D02*
X1096634D01*
X1004500Y1161599D02*
X1096602D01*
X1004500Y1171499D02*
X1096544D01*
X1004500Y1173299D02*
X1096415D01*
X1004500Y1166099D02*
X1096271D01*
X1004500Y1156199D02*
X1096228D01*
X1004500Y1150799D02*
X1096206D01*
X1004500Y1146299D02*
X1096188D01*
X1004500Y1160699D02*
X1096166D01*
X1004500Y1170599D02*
X1096129D01*
X1004500Y1183199D02*
X1096032D01*
X1004500Y1166999D02*
X1095959D01*
X1004500Y1157099D02*
X1095933D01*
X1004500Y1149899D02*
X1095920D01*
X1004500Y1147199D02*
X1095910D01*
X1004500Y1159799D02*
X1095898D01*
X1004500Y1174199D02*
X1095888D01*
X1004500Y1169699D02*
X1095877D01*
X1004500Y1167899D02*
X1095795D01*
X1004500Y1157999D02*
X1095785D01*
X1004500Y1148999D02*
X1095781D01*
X1004500Y1148099D02*
X1095777D01*
X1004500Y1158899D02*
X1095774D01*
X1004500Y1182299D02*
X1095773D01*
X1004500Y1168799D02*
X1095768D01*
X1004500Y1181399D02*
X1095762D01*
X1004500Y1180499D02*
X1095762D01*
X1004500Y1179599D02*
X1095762D01*
X1004500Y1178699D02*
X1095762D01*
X1004500Y1177799D02*
X1095762D01*
X1004500Y1176899D02*
X1095762D01*
X1004500Y1175999D02*
X1095762D01*
X1004500Y1175099D02*
X1095762D01*
X1073306Y1018499D02*
X1093623D01*
X1074237Y1009499D02*
X1092692D01*
X1074881Y1017599D02*
X1092048D01*
X1075337Y1010399D02*
X1091592D01*
X1075713Y1016699D02*
X1091216D01*
X1075995Y1011299D02*
X1090934D01*
X1076228Y1015799D02*
X1090701D01*
X1076397Y1012199D02*
X1090532D01*
X1076527Y1014899D02*
X1090402D01*
X1076607Y1013099D02*
X1090322D01*
X1076649Y1013999D02*
X1090280D01*
X1076769Y1330799D02*
X1082601D01*
X1077352Y1320899D02*
X1082018D01*
X1078248Y1329899D02*
X1081122D01*
X1078553Y1321799D02*
X1080817D01*
X1079093Y1328999D02*
X1080277D01*
X1079290Y1322699D02*
X1080080D01*
X1066769Y1330799D02*
X1072601D01*
X1067352Y1320899D02*
X1072018D01*
X1068248Y1329899D02*
X1071122D01*
X1068553Y1321799D02*
X1070817D01*
X1069092Y1328999D02*
X1070278D01*
X1069290Y1322699D02*
X1070080D01*
X1043778Y1018499D02*
X1070001D01*
X1041551Y1009499D02*
X1069070D01*
X1043717Y1017599D02*
X1068426D01*
X1041948Y1010399D02*
X1067970D01*
X1043622Y1016699D02*
X1067594D01*
X1042302Y1011299D02*
X1067312D01*
X1043492Y1015799D02*
X1067079D01*
X1042616Y1012199D02*
X1066910D01*
X1043327Y1014899D02*
X1066780D01*
X1042891Y1013099D02*
X1066700D01*
X1043127Y1013999D02*
X1066658D01*
X1056769Y1330799D02*
X1062601D01*
X1057352Y1320899D02*
X1062018D01*
X1058248Y1329899D02*
X1061122D01*
X1058553Y1321799D02*
X1060817D01*
X1059092Y1328999D02*
X1060277D01*
X1059290Y1322699D02*
X1060080D01*
X1004500Y1330799D02*
X1052601D01*
X1004500Y1320899D02*
X1052018D01*
X1004500Y1329899D02*
X1051122D01*
X1004500Y1321799D02*
X1050817D01*
X1004500Y1328999D02*
X1050277D01*
X1004500Y1322699D02*
X1050082D01*
X1004500Y1328099D02*
X1049731D01*
X1004500Y1323599D02*
X1049606D01*
X1004500Y1327199D02*
X1049391D01*
X1004500Y1324499D02*
X1049320D01*
X1004500Y1326299D02*
X1049217D01*
X1004500Y1325399D02*
X1049194D01*
X1004500Y1095899D02*
X1040824D01*
X1004500Y1314599D02*
X1039583D01*
X1004500Y1298399D02*
X1038859D01*
X1004500Y1079699D02*
X1038261D01*
X1004500Y1094999D02*
X1037970D01*
X1004500Y1313699D02*
X1037514D01*
X1004500Y1299299D02*
X1037136D01*
X1004500Y1080599D02*
X1036777D01*
X1004500Y1094099D02*
X1036591D01*
X1004500Y1312799D02*
X1036284D01*
X1004500Y1300199D02*
X1036021D01*
X1004500Y1081499D02*
X1035764D01*
X1004500Y1093199D02*
X1035628D01*
X1004500Y1311899D02*
X1035402D01*
X1004500Y1301099D02*
X1035204D01*
X1004500Y1082399D02*
X1035011D01*
X1004500Y1092299D02*
X1034908D01*
X1004500Y1310999D02*
X1034736D01*
X1004500Y1334399D02*
X1034702D01*
X1004500Y1047299D02*
X1034684D01*
X1004500Y1301999D02*
X1034586D01*
X1004500Y1083299D02*
X1034439D01*
X1004500Y1091399D02*
X1034361D01*
X1004500Y1346099D02*
X1034257D01*
X1004500Y1310099D02*
X1034232D01*
X1004500Y1058999D02*
X1034205D01*
X1004500Y1302899D02*
X1034120D01*
X1004500Y1084199D02*
X1034010D01*
X1004500Y1090499D02*
X1033953D01*
X1004500Y1335299D02*
X1033868D01*
X1004500Y1309199D02*
X1033859D01*
X1004500Y1048199D02*
X1033836D01*
X1004500Y1303799D02*
X1033778D01*
X1004500Y1345199D02*
X1033704D01*
X1004500Y1085099D02*
X1033701D01*
X1004500Y1089599D02*
X1033662D01*
X1004500Y1058099D02*
X1033660D01*
X1004500Y1308299D02*
X1033598D01*
X1004500Y1336199D02*
X1033581D01*
X1004500Y1344299D02*
X1033563D01*
X1004500Y1343399D02*
X1033563D01*
X1004500Y1342499D02*
X1033563D01*
X1004500Y1341599D02*
X1033563D01*
X1004500Y1340699D02*
X1033563D01*
X1004500Y1339799D02*
X1033563D01*
X1004500Y1338899D02*
X1033563D01*
X1004500Y1337999D02*
X1033563D01*
X1004500Y1337099D02*
X1033563D01*
X1004500Y1304699D02*
X1033546D01*
X1004500Y1049099D02*
X1033543D01*
X1004500Y1057199D02*
X1033524D01*
X1004500Y1056299D02*
X1033524D01*
X1004500Y1055399D02*
X1033524D01*
X1004500Y1054499D02*
X1033524D01*
X1004500Y1053599D02*
X1033524D01*
X1004500Y1052699D02*
X1033524D01*
X1004500Y1051799D02*
X1033524D01*
X1004500Y1050899D02*
X1033524D01*
X1004500Y1049999D02*
X1033524D01*
X1004500Y1085999D02*
X1033499D01*
X1004500Y1088699D02*
X1033476D01*
X1004500Y1307399D02*
X1033441D01*
X1004500Y1305599D02*
X1033415D01*
X1004500Y1086899D02*
X1033396D01*
X1004500Y1087799D02*
X1033388D01*
X1004500Y1306499D02*
X1033381D01*
X1004500Y1043699D02*
X1017401D01*
X1004500Y1042799D02*
X1012783D01*
X1004500Y1041899D02*
X1010281D01*
X1004500Y1040999D02*
X1008389D01*
X1004500Y1040099D02*
X1006834D01*
X1004567Y1039199D02*
X1005504D01*
X1000000Y1000000D02*
X1393701D01*
Y1393701*
X1000000*
Y1000000*
G54D88*
X1336654Y1117874D02*
X1343622D01*
X1375157Y1117913D02*
X1383071D01*
X1098811Y1017315D02*
X1097043Y1015547D01*
X1091740Y1017315D02*
X1093508Y1015547D01*
X1091740Y1010244D02*
X1093508Y1012012D01*
X1098811Y1010244D02*
X1097043Y1012012D01*
X1106079Y1144253D02*
X1104311Y1146021D01*
X1106079Y1152799D02*
X1104311Y1151032D01*
X1097532Y1152799D02*
X1099300Y1151032D01*
X1097532Y1144253D02*
X1099300Y1146021D01*
X1049642Y1334728D02*
X1046721Y1337649D01*
X1049642Y1346138D02*
X1046721Y1343217D01*
X1034295Y1346138D02*
X1037216Y1343217D01*
X1034295Y1334728D02*
X1037216Y1337649D01*
X1249761Y1052753D02*
X1247993Y1050986D01*
X1242050Y1052753D02*
X1243818Y1050986D01*
X1242050Y1045042D02*
X1243818Y1046810D01*
X1249761Y1045042D02*
X1247993Y1046810D01*
X1375688Y1151042D02*
X1373920Y1149275D01*
X1367141Y1151042D02*
X1368909Y1149275D01*
X1367141Y1142496D02*
X1368909Y1144264D01*
X1375688Y1142496D02*
X1373920Y1144264D01*
X1350088Y1151042D02*
X1348320Y1149275D01*
X1341541Y1151042D02*
X1343309Y1149275D01*
X1341541Y1142496D02*
X1343309Y1144264D01*
X1350088Y1142496D02*
X1348320Y1144264D01*
X1163588Y1255066D02*
X1165356Y1256833D01*
X1171578Y1255066D02*
X1169810Y1256833D01*
X1068574Y1329598D02*
X1066806Y1327830D01*
X1060796Y1329598D02*
X1062564Y1327830D01*
X1060796Y1321820D02*
X1062564Y1323587D01*
X1068574Y1321820D02*
X1066806Y1323587D01*
X1165715Y1324594D02*
X1163947Y1326361D01*
X1157725Y1332583D02*
X1159493Y1330816D01*
X1157725Y1324594D02*
X1159493Y1326361D01*
X1165715Y1332583D02*
X1163947Y1330816D01*
X1290543Y1388575D02*
X1288776Y1386807D01*
X1283472Y1388575D02*
X1285240Y1386807D01*
X1283472Y1381504D02*
X1285240Y1383272D01*
X1290543Y1381504D02*
X1288776Y1383272D01*
X1163588Y1273055D02*
X1165356Y1271288D01*
X1171578Y1273055D02*
X1169810Y1271288D01*
X1096262Y1382999D02*
X1098030Y1381231D01*
X1102581Y1382999D02*
X1100814Y1381231D01*
X1186581Y1324594D02*
X1184814Y1326361D01*
X1186581Y1332583D02*
X1184814Y1330816D01*
X1178592Y1324594D02*
X1180359Y1326361D01*
X1178592Y1332583D02*
X1180359Y1330816D01*
X1192380Y1294785D02*
X1194148Y1293017D01*
X1192380Y1286239D02*
X1194148Y1288006D01*
X1200927Y1286239D02*
X1199159Y1288006D01*
X1200927Y1294785D02*
X1199159Y1293017D01*
G54D90*
X1289075Y1120492D02*
X1282264Y1113681D01*
X1282205Y1113740*
X1289134Y1120433D02*
X1289075Y1120492D01*
X1310630Y1307362D02*
Y1317402D01*
G54D100*
X1045955Y1031271D02*
X1034882D01*
X1040418Y1027244D02*
Y1035297D01*
X1041836Y1358661D02*
Y1366714D01*
G54D115*
X1048228Y1087421D02*
G03X1048228I-6299J0D01*
G01Y1306358D02*
G03X1048228I-6299J0D01*
G01X1046654Y1050669D02*
Y1056102D01*
X1037205D02*
X1046654D01*
X1037205D02*
Y1050669D01*
X1046654D02*
X1037205D01*
X1046654Y1343110D02*
X1037205D01*
Y1337677D02*
Y1343110D01*
Y1337677D02*
X1046654D01*
Y1343110D02*
Y1337677D01*
G54D123*
X1278622Y1048898D03*
X1267717D03*
X1256811D03*
X1245906D03*
X1284075Y1037717D03*
X1273169D03*
X1262264D03*
X1251358D03*
G54D141*
X1103543Y1032205D02*
X1110354D01*
X1316260Y1077835D02*
X1320669Y1082244D01*
X1330000*
X1232638Y1109646D02*
X1227992Y1114291D01*
X1225748*
X1285866Y1110591D02*
X1288858Y1113583D01*
Y1113858*
X1291850Y1116850*
X1324173Y1119646D02*
Y1127559D01*
X1330787Y1132244D02*
X1325669D01*
X1325630Y1132283*
X1320512*
X1188386Y1149134D02*
X1192185Y1152933D01*
X1193287*
X1197087Y1156732*
X1302913Y1167913D02*
Y1167795D01*
X1292972*
X1292894Y1167874*
X1289252*
X1288661Y1174055D02*
X1311457D01*
X1314921Y1177520*
Y1180866*
X1314961Y1184094*
X1223858Y1192638D02*
X1221417Y1195079D01*
Y1198976*
X1209685Y1190472D02*
Y1199685D01*
X1301142Y1189961D02*
Y1189921D01*
X1292559*
X1292520Y1189961*
X1289134*
X1285906Y1180866D02*
X1287874Y1181236D01*
X1297622*
X1307777Y1180930D02*
X1308580Y1181732D01*
X1310669*
X1307777Y1180930D02*
X1297929D01*
X1297622Y1181236*
X1309055Y1177874D02*
X1308543Y1178386D01*
X1289094*
X1306457Y1183780D02*
X1297894D01*
X1297579Y1184094*
X1289016*
X1266417Y1203228D02*
X1269724Y1206535D01*
X1269764*
X1273071Y1209843*
X1252283Y1228661D02*
X1249252D01*
X1249173Y1228740*
X1246142*
G54D151*
X1182586Y1348589D03*
Y1338589D03*
Y1328589D03*
X1172586D03*
Y1348589D03*
X1161720D03*
Y1338589D03*
Y1328589D03*
X1151720D03*
Y1348589D03*
X1167583Y1249061D03*
Y1259061D03*
Y1269061D03*
X1177583D03*
Y1249061D03*
X1310630Y1337402D03*
Y1327402D03*
Y1317402D03*
X1300630D03*
Y1337402D03*
G54D229*
X1183169Y1372559D03*
Y1379252D03*
X1166083Y1372559D03*
Y1379252D03*
X1148839Y1372559D03*
Y1379252D03*
X1132579Y1372559D03*
Y1379252D03*
X1115846Y1372559D03*
Y1379252D03*
X1099422Y1372556D03*
Y1379249D03*
G54D231*
X1101806Y1178526D03*
X1196654Y1270512D03*
G54D232*
X1101806Y1168526D03*
Y1158526D03*
Y1148526D03*
X1345814Y1146769D03*
X1371414D03*
X1345814Y1129049D03*
X1371414D03*
X1196654Y1280512D03*
Y1290512D03*
Y1300512D03*
G54D243*
X1289528Y1048898D03*
G54D244*
X1218524Y1043307D03*
X1316909D03*
G54D245*
X1225591Y1135433D03*
X1244803D03*
G54D250*
X1114882Y1025688D03*
Y1010728D03*
X1148898Y1010729D03*
Y1025688D03*
G54D251*
X1072067Y1361417D03*
X1361417Y1321634D03*
G54D252*
X1057067Y1361417D03*
X1361417Y1336634D03*
G54D255*
X1041929Y1053346D03*
X1041969Y1340433D03*
G54D256*
X1041929Y1087421D03*
Y1306378D03*
G74*
X0Y0D02*
M02*
