%
T1C.016F095S3
X109551Y101925
X110354Y10322
X111035Y10322
X109402Y103831
X111602Y104323
X111854Y106685
X109539Y111106
X114043Y128228
X114087Y126815
X115248Y120079
X115587Y119744
X114441Y119339
X114799Y118972
X114409Y107768
X115189Y106547
X115752Y10587
X114602Y105165
X112114Y102118
X117295Y105114
X11952Y107673
X121579Y108035
X118764Y108669
X117858Y108764
X118866Y109382
X118839Y114913
X121949Y114953
X119709Y115673
X121591Y116
X11863Y116
X121024Y11761
X119492Y117846
X120969Y119047
X120969Y119969
X119146Y123079
X120827Y129276
X120902Y130146
X12374Y129421
X122035Y123256
X123465Y123252
X122783Y12072
X122142Y119898
X122386Y119264
X123551Y118902
X12402Y11889
X122992Y118846
X124035Y11837
X122996Y118362
X123543Y118362
X123004Y117839
X123535Y117823
X124004Y117819
X123839Y117118
X122575Y111429
X123264Y110965
X122496Y109425
X126362Y110744
X124555Y114571
X125681Y114701
X126031Y116209
X124677Y117118
X12452Y117768
X126429Y119232
X126642Y120323
X126142Y120386
X125228Y122866
X124614Y122874
X126366Y127043
X124717Y137197
X124543Y137681
X124949Y137681
X124535Y138161
X124957Y138161
X128224Y13676
X12787Y134957
X128283Y134339
X128433Y133874
X12739Y133547
X128768Y133516
X127839Y133299
X128157Y132929
X12711Y130831
X129311Y130661
X127492Y128882
X129358Y126035
X127567Y124992
X128823Y122091
X127134Y122051
X127449Y121685
X127307Y120984
X128094Y119453
X128547Y119366
X128913Y118996
X128091Y118673
X128902Y118409
X128591Y118087
X128909Y117839
X128866Y117406
X128161Y117189
X128555Y117051
X128925Y116787
X128228Y116579
X128913Y112043
X129185Y111685
X12822Y111374
X128587Y111059
X128846Y105902
X130106Y106969
X131626Y107783
X130118Y108114
X130209Y110177
X130291Y116791
X131831Y117449
X130906Y117787
X131067Y118173
X130646Y118378
X131496Y118409
X130114Y118996
X130394Y120539
X129622Y121835
X129728Y123228
X129543Y12776
X129543Y128858
X131291Y129402
X131063Y130736
X130724Y135748
X131276Y136256
X132689Y136602
X133815Y132524
X134224Y132165
X133398Y131551
X13422Y131547
X134224Y130685
X134142Y124071
X132799Y122882
X133315Y119354
X133913Y118335
X133913Y117445
X132051Y113228
X133079Y113224
X132417Y112756
X132417Y111965
X133083Y111811
X134362Y111787
X133665Y111787
X133783Y110224
X133Y108224
X136969Y108591
X138307Y111791
X137516Y111791
X13672Y11987
X137705Y119882
X135618Y124311
X135146Y124413
X135618Y125079
X135146Y125138
X13715Y13074
X134728Y132551
T2C.02F197S55
X114264Y102091
T3C.02362F197S55
X118317Y137256G85X118317Y137335
X118317Y137846G85X118317Y137925
X116608Y137256G85X116608Y137335
X116608Y137846G85X116608Y137925
X114884Y137256G85X114884Y137335
X114884Y137846G85X114884Y137925
X113258Y137256G85X113258Y137335
X113258Y137846G85X113258Y137925
X111585Y137256G85X111585Y137335
X111585Y137846G85X111585Y137925
X109942Y137256G85X109942Y137334
X109942Y137846G85X109942Y137925
T4C.0248F197S55
X122559Y113543
X12448Y113543
T5C.02756F197S55
X111488Y102431G85X111488Y102707
X111488Y100935G85X111488Y101211
X11489Y100935G85X11489Y101211
X11489Y102431G85X11489Y102707
T6C.028F197S55
X107165Y101378
X109528Y101378
X116693Y101378
X120669Y138504
X123504Y138504
X128701Y138504
X119055Y101378
X131693Y138504
T7C.03937F197S55
X105468Y132571
X106468Y132571
X107469Y132571
X108468Y132571
X116172Y134859
X115172Y134859
X116172Y133859
X115172Y132859
X116172Y132859
X116758Y126906
X116758Y125906
X116758Y124906
X117758Y124906
X117758Y126906
X117259Y132859
X118259Y132859
X118259Y133859
X117259Y134859
X118259Y134859
X131063Y13374
X130063Y13374
X131063Y13274
X130063Y13174
X131063Y13174
T8C.04F139S55
X116263Y11725
X116263Y11825
T9C.04331F139S55
X126226Y103772
X125136Y103772
X124591Y10489
X126772Y10489
X125681Y10489
X127862Y10489
X128953Y10489
X128407Y103772
X127317Y103772
T10C.04331F139S55
X134581Y112905
X134581Y114677
X137141Y114677
X137141Y112905
T11C.04724F139S55
X110181Y114853
X110181Y115853
X110181Y116853
X110181Y117853
X119665Y130051
X119665Y129051
X119665Y128051
X119665Y127051
T12C.05512F107S55
X105707Y136142
X107207Y136142
X136142Y133663
X136142Y132163
X104311Y105335G85X104075Y105335
X104315Y134043G85X104079Y134043
T13C.07087F081S55
X121498Y104331G85X122207Y104331
X131337Y104331G85X132045Y104331
T14C.12598F035S794
X104193Y108742
X104193Y130638
T15C.13F035S794
X101969Y101969
X101969Y137402
X137402Y137402
X137402Y101969
M30
