*
*
G04 PADS 9.5 Build Number: 522968 generated Gerber (RS-274-X) file*
G04 PC Version=2.1*
*
%IN "Energy harvester.pcb"*%
*
%MOIN*%
*
%FSLAX35Y35*%
*
*
*
*
G04 PC Standard Apertures*
*
*
G04 Thermal Relief Aperture macro.*
%AMTER*
1,1,$1,0,0*
1,0,$1-$2,0,0*
21,0,$3,$4,0,0,45*
21,0,$3,$4,0,0,135*
%
*
*
G04 Annular Aperture macro.*
%AMANN*
1,1,$1,0,0*
1,0,$2,0,0*
%
*
*
G04 Odd Aperture macro.*
%AMODD*
1,1,$1,0,0*
1,0,$1-0.005,0,0*
%
*
*
G04 PC Custom Aperture Macros*
*
*
*
*
*
*
G04 PC Aperture Table*
*
%ADD081C,0.01*%
%ADD097C,0.006*%
%ADD115C,0.001*%
%ADD259C,0.004*%
*
*
*
*
G04 PC Circuitry*
G04 Layer Name Energy harvester.pcb - circuitry*
%LPD*%
*
*
G04 PC Custom Flashes*
G04 Layer Name Energy harvester.pcb - flashes*
%LPD*%
*
*
G04 PC Circuitry*
G04 Layer Name Energy harvester.pcb - circuitry*
%LPD*%
*
G54D81*
G01X1159709Y1185423D02*
Y1169572D01*
X1165560*
Y1185423*
X1159709*
X1293752Y1033256D02*
X1241602D01*
Y1053122*
X1293752*
Y1033256*
X1159709Y1184871D02*
X1165560D01*
X1159709Y1183971D02*
X1165560D01*
X1159709Y1183071D02*
X1165560D01*
X1159709Y1182171D02*
X1165560D01*
X1159709Y1181271D02*
X1165560D01*
X1159709Y1180371D02*
X1165560D01*
X1159709Y1179471D02*
X1165560D01*
X1159709Y1178571D02*
X1165560D01*
X1159709Y1177671D02*
X1165560D01*
X1159709Y1176771D02*
X1165560D01*
X1159709Y1175871D02*
X1165560D01*
X1159709Y1174971D02*
X1165560D01*
X1159709Y1174071D02*
X1165560D01*
X1159709Y1173171D02*
X1165560D01*
X1159709Y1172271D02*
X1165560D01*
X1159709Y1171371D02*
X1165560D01*
X1159709Y1170471D02*
X1165560D01*
X1241602Y1053055D02*
X1293752D01*
X1241602Y1052155D02*
X1293752D01*
X1241602Y1051255D02*
X1293752D01*
X1241602Y1050355D02*
X1293752D01*
X1241602Y1049455D02*
X1293752D01*
X1241602Y1048555D02*
X1293752D01*
X1241602Y1047655D02*
X1293752D01*
X1241602Y1046755D02*
X1293752D01*
X1241602Y1045855D02*
X1293752D01*
X1241602Y1044955D02*
X1293752D01*
X1241602Y1044055D02*
X1293752D01*
X1241602Y1043155D02*
X1293752D01*
X1241602Y1042255D02*
X1293752D01*
X1241602Y1041355D02*
X1293752D01*
X1241602Y1040455D02*
X1293752D01*
X1241602Y1039555D02*
X1293752D01*
X1241602Y1038655D02*
X1293752D01*
X1241602Y1037755D02*
X1293752D01*
X1241602Y1036855D02*
X1293752D01*
X1241602Y1035955D02*
X1293752D01*
X1241602Y1035055D02*
X1293752D01*
X1241602Y1034155D02*
X1293752D01*
X1000000Y1000000D02*
X1393701D01*
Y1393701*
X1000000*
Y1000000*
G54D97*
X1389764Y1019685D02*
G75*
G03X1389764I-15748J0D01*
G01X1035433D02*
G03X1035433I-15748J0D01*
G01Y1374016D02*
G03X1035433I-15748J0D01*
G01X1389764D02*
G03X1389764I-15748J0D01*
G54D115*
G01X1083071Y1043937D02*
X1000787D01*
Y1349842D02*
Y1043937D01*
Y1349842D02*
X1083071D01*
Y1043937D02*
Y1349842D01*
G54D259*
X1011772Y1047664D02*
Y1045789D01*
X1011681Y1045414*
X1011499Y1045164*
X1011226Y1045039*
X1011044*
X1010772Y1045164*
X1010590Y1045414*
X1010499Y1045789*
Y1047664*
X1009590Y1047039D02*
Y1047164D01*
X1009499Y1047414*
X1009408Y1047539*
X1009226Y1047664*
X1008863*
X1008681Y1047539*
X1008590Y1047414*
X1008499Y1047164*
Y1046914*
X1008590Y1046664*
X1008772Y1046289*
X1009681Y1045039*
X1008408*
G74*
X0Y0D02*
M02*
