*
*
G04 PADS 9.5 Build Number: 522968 generated Gerber (RS-274-X) file*
G04 PC Version=2.1*
*
%IN "Energy harvester.pcb"*%
*
%MOIN*%
*
%FSLAX35Y35*%
*
*
*
*
G04 PC Standard Apertures*
*
*
G04 Thermal Relief Aperture macro.*
%AMTER*
1,1,$1,0,0*
1,0,$1-$2,0,0*
21,0,$3,$4,0,0,45*
21,0,$3,$4,0,0,135*
%
*
*
G04 Annular Aperture macro.*
%AMANN*
1,1,$1,0,0*
1,0,$2,0,0*
%
*
*
G04 Odd Aperture macro.*
%AMODD*
1,1,$1,0,0*
1,0,$1-0.005,0,0*
%
*
*
G04 PC Custom Aperture Macros*
*
*
*
*
*
*
G04 PC Aperture Table*
*
%ADD081C,0.01*%
%ADD097C,0.006*%
%ADD098C,0.00787*%
%ADD100C,0.005*%
%ADD115C,0.001*%
%ADD217C,0.01575*%
%ADD257C,0.00472*%
%ADD258C,0.00394*%
%ADD259C,0.004*%
*
*
*
*
G04 PC Circuitry*
G04 Layer Name Energy harvester.pcb - circuitry*
%LPD*%
*
*
G04 PC Custom Flashes*
G04 Layer Name Energy harvester.pcb - flashes*
%LPD*%
*
*
G04 PC Circuitry*
G04 Layer Name Energy harvester.pcb - circuitry*
%LPD*%
*
G54D81*
G01X1095806Y1173526D02*
X1107806D01*
X1095806Y1184526D02*
X1107806D01*
Y1142526*
X1095806*
Y1184526*
X1364524Y1137909D02*
G75*
G03X1364524I-5910J0D01*
G01X1363114D02*
G03X1363114I-4500J0D01*
G01X1367614Y1130909D02*
G03X1367614I-2000J0D01*
G01X1368114Y1144909D02*
G03X1368114I-2000J0D01*
G01X1352614Y1130909D02*
G03X1352614I-2000J0D01*
G01X1353114Y1144909D02*
G03X1353114I-2000J0D01*
G01X1370425Y1126098D02*
Y1149720D01*
X1346803*
Y1126098*
X1370425*
X1222928Y1164961D02*
G03X1222928I-881J0D01*
G01X1330079Y1296496D02*
X1360079D01*
Y1266496*
X1330079*
Y1296496*
X1382579Y1271496D02*
Y1283996D01*
X1375079*
Y1286496*
X1382579*
Y1288996*
X1375079*
Y1291496*
X1382579*
Y1296496*
X1362579*
X1392579Y1256496D02*
Y1306496D01*
X1317579*
Y1256496*
X1392579*
X1202654Y1275512D02*
X1190654D01*
X1202654Y1264512D02*
X1190654D01*
Y1306512*
X1202654*
Y1264512*
X1114567Y1005925D02*
X1114527Y1000492D01*
X1149250Y1000489*
Y1005809*
X1114567Y1015649D02*
Y1020531D01*
X1149212Y1015838D02*
Y1020720D01*
X1200394Y1375893D02*
Y1369331D01*
Y1375893D02*
X1202439D01*
X1203121Y1375581*
X1203348Y1375268*
X1203576Y1374643*
Y1373706*
X1203348Y1373081*
X1203121Y1372768*
X1202439Y1372456*
X1200394*
X1208803Y1375893D02*
X1205621Y1369331D01*
Y1375893D02*
X1208803D01*
X1205621Y1369331D02*
X1208803D01*
X1210848Y1374643D02*
X1211303Y1374956D01*
X1211985Y1375893*
Y1369331*
X1244370Y1390814D02*
Y1384252D01*
Y1390814D02*
X1246416D01*
X1247097Y1390502*
X1247325Y1390189*
X1247552Y1389564*
Y1388627*
X1247325Y1388002*
X1247097Y1387689*
X1246416Y1387377*
X1244370*
X1252779Y1390814D02*
X1249597Y1384252D01*
Y1390814D02*
X1252779D01*
X1249597Y1384252D02*
X1252779D01*
X1255052Y1389252D02*
Y1389564D01*
X1255279Y1390189*
X1255506Y1390502*
X1255961Y1390814*
X1256870*
X1257325Y1390502*
X1257552Y1390189*
X1257779Y1389564*
Y1388939*
X1257552Y1388314*
X1257097Y1387377*
X1254825Y1384252*
X1258006*
X1350156Y1320940D02*
Y1315315D01*
X1348110Y1318127D02*
X1352201D01*
X1348110Y1343561D02*
X1352201D01*
X1351339Y1157822D02*
Y1151260D01*
Y1157822D02*
X1353384D01*
X1354066Y1157510*
X1354293Y1157197*
X1354520Y1156572*
Y1155635*
X1354293Y1155010*
X1354066Y1154697*
X1353384Y1154385*
X1351339*
X1356566Y1157822D02*
X1357702Y1151260D01*
X1358839Y1157822D02*
X1357702Y1151260D01*
X1358839Y1157822D02*
X1359975Y1151260D01*
X1361111Y1157822D02*
X1359975Y1151260D01*
X1363157Y1157822D02*
Y1151260D01*
Y1157822D02*
X1365202D01*
X1365884Y1157510*
X1366111Y1157197*
X1366339Y1156572*
Y1155947*
X1366111Y1155322*
X1365884Y1155010*
X1365202Y1154697*
X1363157*
X1364748D02*
X1366339Y1151260D01*
X1225276Y1063649D02*
Y1057087D01*
Y1063649D02*
X1227321D01*
X1228003Y1063337*
X1228230Y1063024*
X1228457Y1062399*
Y1061774*
X1228230Y1061149*
X1228003Y1060837*
X1227321Y1060524*
X1225276*
X1226866D02*
X1228457Y1057087D01*
X1233685Y1062712D02*
X1233230Y1063337D01*
X1232548Y1063649*
X1231639*
X1230957Y1063337*
X1230503Y1062712*
Y1062087*
X1230730Y1061462*
X1230957Y1061149*
X1231412Y1060837*
X1232776Y1060212*
X1233230Y1059899*
X1233457Y1059587*
X1233685Y1058962*
Y1058024*
X1233230Y1057399*
X1232548Y1057087*
X1231639*
X1230957Y1057399*
X1230503Y1058024*
X1235957Y1062087D02*
Y1062399D01*
X1236185Y1063024*
X1236412Y1063337*
X1236866Y1063649*
X1236866D02*
X1237776D01*
X1238230Y1063337*
X1238457Y1063024*
X1238685Y1062399*
Y1061774*
X1238457Y1061149*
X1238003Y1060212*
X1235730Y1057087*
X1238912*
X1241412Y1063649D02*
X1243912D01*
X1242548Y1061149*
X1243230*
X1243685Y1060837*
X1243912Y1060524*
X1244139Y1059587*
Y1058962*
X1243912Y1058024*
X1243457Y1057399*
X1242776Y1057087*
X1242094*
X1241412Y1057399*
X1241185Y1057712*
X1240957Y1058337*
X1246412Y1062087D02*
Y1062399D01*
X1246639Y1063024*
X1246866Y1063337*
X1246866D02*
X1247321Y1063649D01*
X1248230*
X1248685Y1063337*
X1248912Y1063024*
X1249139Y1062399*
Y1061774*
X1248912Y1061149*
X1248457Y1060212*
X1246185Y1057087*
X1249366*
X1120574Y1037638D02*
X1120347Y1038263D01*
X1119893Y1038888*
X1119438Y1039200*
X1118529*
X1118074Y1038888*
X1117620Y1038263*
X1117393Y1037638*
X1117165Y1036700*
Y1035138*
X1117393Y1034200*
X1117620Y1033575*
X1118074Y1032950*
X1118529Y1032638*
X1119438*
X1119893Y1032950*
X1120347Y1033575*
X1120574Y1034200*
X1122620Y1039200D02*
Y1032638D01*
X1125802Y1039200D02*
Y1032638D01*
X1122620Y1036075D02*
X1125802D01*
X1129665Y1039200D02*
X1127847Y1032638D01*
X1129665Y1039200D02*
X1131484Y1032638D01*
X1128529Y1034825D02*
X1130802D01*
X1133529Y1039200D02*
Y1032638D01*
Y1039200D02*
X1135574D01*
X1136256Y1038888*
X1136484Y1038575*
X1136711Y1037950*
Y1037325*
X1136484Y1036700*
X1136256Y1036388*
X1135574Y1036075*
X1133529*
X1135120D02*
X1136711Y1032638D01*
X1142165Y1037638D02*
X1141938Y1038263D01*
X1141484Y1038888*
X1141029Y1039200*
X1140120*
X1139665Y1038888*
X1139211Y1038263*
X1138984Y1037638*
X1138756Y1036700*
Y1035138*
X1138984Y1034200*
X1139211Y1033575*
X1139665Y1032950*
X1140120Y1032638*
X1141029*
X1141484Y1032950*
X1141938Y1033575*
X1142165Y1034200*
Y1035138*
X1141029D02*
X1142165D01*
X1144211Y1039200D02*
Y1032638D01*
Y1039200D02*
X1147165D01*
X1144211Y1036075D02*
X1146029D01*
X1144211Y1032638D02*
X1147165D01*
X1161951Y1027650D02*
Y1023150D01*
X1160315Y1025400D02*
X1163588D01*
X1167588Y1028400D02*
X1165770D01*
X1165588Y1026150*
X1165770Y1026400*
X1166315Y1026650*
X1166860*
X1167406Y1026400*
X1167770Y1025900*
X1167951Y1025150*
X1167770Y1024650*
X1167588Y1023900*
X1167224Y1023400*
X1166679Y1023150*
X1166133*
X1165588Y1023400*
X1165406Y1023650*
X1165224Y1024150*
X1169588Y1028400D02*
X1171042Y1023150D01*
X1172497Y1028400D02*
X1171042Y1023150D01*
X1182109Y1027138D02*
Y1022638D01*
X1180472Y1024888D02*
X1183745D01*
X1185745Y1027888D02*
X1187745D01*
X1186654Y1025888*
X1187200*
X1187563Y1025638*
X1187745Y1025388*
X1187927Y1024638*
Y1024138*
X1187745Y1023388*
X1187382Y1022888*
X1186836Y1022638*
X1186291*
X1185745Y1022888*
X1185563Y1023138*
X1185382Y1023638*
X1189745Y1023138D02*
X1189563Y1022888D01*
X1189745Y1022638*
X1189927Y1022888*
X1189745Y1023138*
X1191927Y1027888D02*
X1193927D01*
X1192836Y1025888*
X1193382*
X1193745Y1025638*
X1193927Y1025388*
X1194109Y1024638*
Y1024138*
X1193927Y1023388*
X1193563Y1022888*
X1193018Y1022638*
X1192472*
X1191927Y1022888*
X1191745Y1023138*
X1191563Y1023638*
X1195745Y1027888D02*
X1197200Y1022638D01*
X1198654Y1027888D02*
X1197200Y1022638D01*
X1067008Y1028045D02*
Y1022795D01*
Y1028045D02*
X1068644D01*
X1069190Y1027795*
X1069372Y1027545*
X1069553Y1027045*
Y1026545*
X1069372Y1026045*
X1069190Y1025795*
X1068644Y1025545*
X1067008D02*
X1068644D01*
X1069190Y1025295*
X1069372Y1025045*
X1069553Y1024545*
Y1023795*
X1069372Y1023295*
X1069190Y1023045*
X1068644Y1022795*
X1067008*
X1072644Y1028045D02*
X1071190Y1022795D01*
X1072644Y1028045D02*
X1074099Y1022795D01*
X1071735Y1024545D02*
X1073553D01*
X1077008Y1028045D02*
Y1022795D01*
X1075735Y1028045D02*
X1078281D01*
X1092767Y1026598D02*
X1092585Y1027098D01*
X1092221Y1027598*
X1091858Y1027848*
X1091130*
X1090767Y1027598*
X1090403Y1027098*
X1090221Y1026598*
X1090039Y1025848*
Y1024598*
X1090221Y1023848*
X1090403Y1023348*
X1090767Y1022848*
X1091130Y1022598*
X1091858*
X1092221Y1022848*
X1092585Y1023348*
X1092767Y1023848*
Y1024598*
X1091858D02*
X1092767D01*
X1094403Y1027848D02*
Y1022598D01*
Y1027848D02*
X1096948Y1022598D01*
Y1027848D02*
Y1022598D01*
X1098585Y1027848D02*
Y1022598D01*
Y1027848D02*
X1099858D01*
X1100403Y1027598*
X1100767Y1027098*
X1100948Y1026598*
X1101130Y1025848*
Y1024598*
X1100948Y1023848*
X1100767Y1023348*
X1100403Y1022848*
X1099858Y1022598*
X1098585*
X1202913Y1242652D02*
Y1237402D01*
Y1242652D02*
X1204550D01*
X1205095Y1242402*
X1205277Y1242152*
X1205459Y1241652*
Y1241152*
X1205277Y1240652*
X1205095Y1240402*
X1204550Y1240152*
X1202913*
X1204186D02*
X1205459Y1237402D01*
X1207095Y1242652D02*
Y1238902D01*
X1207277Y1238152*
X1207641Y1237652*
X1208186Y1237402*
X1208550*
X1209095Y1237652*
X1209459Y1238152*
X1209641Y1238902*
Y1242652*
X1211277D02*
Y1237402D01*
Y1242652D02*
X1213822Y1237402D01*
Y1242652D02*
Y1237402D01*
X1202441Y1226392D02*
Y1221142D01*
Y1226392D02*
X1204077D01*
X1204623Y1226142*
X1204805Y1225892*
X1204986Y1225392*
Y1224892*
X1204805Y1224392*
X1204623Y1224142*
X1204077Y1223892*
X1202441D02*
X1204077D01*
X1204623Y1223642*
X1204805Y1223392*
X1204986Y1222892*
Y1222142*
X1204805Y1221642*
X1204623Y1221392*
X1204077Y1221142*
X1202441*
X1208077Y1226392D02*
X1206623Y1221142D01*
X1208077Y1226392D02*
X1209532Y1221142D01*
X1207168Y1222892D02*
X1208986D01*
X1212441Y1226392D02*
Y1221142D01*
X1211168Y1226392D02*
X1213714D01*
X1211220Y1332100D02*
Y1326850D01*
Y1332100D02*
X1212857D01*
X1213402Y1331850*
X1213584Y1331600*
X1213766Y1331100*
Y1330600*
X1213584Y1330100*
X1213402Y1329850*
X1212857Y1329600*
X1211220*
X1212493D02*
X1213766Y1326850D01*
X1215402Y1332100D02*
Y1328350D01*
X1215584Y1327600*
X1215948Y1327100*
X1216493Y1326850*
X1216857*
X1217402Y1327100*
X1217766Y1327600*
X1217948Y1328350*
Y1332100*
X1219584D02*
Y1326850D01*
Y1332100D02*
X1222130Y1326850D01*
Y1332100D02*
Y1326850D01*
X1286677Y1374094D02*
X1286450Y1374719D01*
X1285995Y1375344*
X1285540Y1375657*
X1284631*
X1284177Y1375344*
X1283722Y1374719*
X1283495Y1374094*
X1283268Y1373157*
Y1371594*
X1283495Y1370657*
X1283722Y1370032*
X1284177Y1369407*
X1284631Y1369094*
X1285540*
X1285995Y1369407*
X1286450Y1370032*
X1286677Y1370657*
Y1371594*
X1285540D02*
X1286677D01*
X1288722Y1375657D02*
Y1369094D01*
Y1375657D02*
X1291904Y1369094D01*
Y1375657D02*
Y1369094D01*
X1293950Y1375657D02*
Y1369094D01*
Y1375657D02*
X1295540D01*
X1296222Y1375344*
X1296677Y1374719*
X1296904Y1374094*
X1297131Y1373157*
Y1371594*
X1296904Y1370657*
X1296677Y1370032*
X1296222Y1369407*
X1295540Y1369094*
X1293950*
X1299404Y1374094D02*
Y1374407D01*
X1299631Y1375032*
X1299859Y1375344*
X1300313Y1375657*
X1301222*
X1301677Y1375344*
X1301904Y1375032*
X1302131Y1374407*
Y1373782*
X1301904Y1373157*
X1301450Y1372219*
X1299177Y1369094*
X1302359*
X1326324Y1390027D02*
X1325870Y1389715D01*
X1325415Y1389090*
X1325188Y1388465*
X1324961Y1387527*
Y1385965*
X1325188Y1385027*
X1325415Y1384402*
X1325870Y1383777*
X1326324Y1383465*
X1327233*
X1327688Y1383777*
X1328142Y1384402*
X1328370Y1385027*
X1328597Y1385965*
Y1387527*
X1328370Y1388465*
X1328142Y1389090*
X1327688Y1389715*
X1327233Y1390027*
X1326324*
X1330642D02*
Y1385340D01*
X1330870Y1384402*
X1331324Y1383777*
X1332006Y1383465*
X1332461*
X1333142Y1383777*
X1333597Y1384402*
X1333824Y1385340*
Y1390027*
X1337461D02*
Y1383465D01*
X1335870Y1390027D02*
X1339052D01*
X1341097D02*
Y1383465D01*
Y1390027D02*
X1343142D01*
X1343824Y1389715*
X1344052Y1389402*
X1344279Y1388777*
Y1387840*
X1344052Y1387215*
X1343824Y1386902*
X1343142Y1386590*
X1341097*
X1346324Y1390027D02*
Y1385340D01*
X1346552Y1384402*
X1347006Y1383777*
X1347688Y1383465*
X1348142*
X1348824Y1383777*
X1349279Y1384402*
X1349506Y1385340*
Y1390027*
X1353142D02*
Y1383465D01*
X1351552Y1390027D02*
X1354733D01*
X1153740Y1319712D02*
Y1313150D01*
Y1319712D02*
X1155331D01*
X1156013Y1319400*
X1156467Y1318775*
X1156695Y1318150*
X1156922Y1317212*
Y1315650*
X1156695Y1314712*
X1156467Y1314087*
X1156013Y1313462*
X1155331Y1313150*
X1153740*
X1158967Y1318462D02*
X1159422Y1318775D01*
X1160104Y1319712*
Y1313150*
X1174173Y1319358D02*
Y1312795D01*
Y1319358D02*
X1175764D01*
X1176446Y1319045*
X1176901Y1318420*
X1176901D02*
X1177128Y1317795D01*
X1177355Y1316858*
Y1315295*
X1177128Y1314358*
X1176901Y1313733*
X1176901D02*
X1176446Y1313108D01*
X1175764Y1312795*
X1174173*
X1180764Y1319358D02*
X1180082Y1319045D01*
X1179628Y1318108*
X1179401Y1316545*
X1179401D02*
Y1315608D01*
X1179401D02*
X1179628Y1314045D01*
X1180082Y1313108*
X1180764Y1312795*
X1181219*
X1181901Y1313108*
X1181901D02*
X1182355Y1314045D01*
X1182582Y1315608*
Y1316545*
X1182355Y1318108*
X1181901Y1319045*
X1181901D02*
X1181219Y1319358D01*
X1180764*
X1193268Y1347084D02*
X1193722Y1347397D01*
X1194404Y1348334*
Y1341772*
X1204016Y1346769D02*
X1204470Y1347082D01*
X1205152Y1348019*
Y1341457*
X1194316Y1333964D02*
X1193635Y1333652D01*
X1193180Y1332714*
X1192953Y1331152*
Y1330214*
X1193180Y1328652*
X1193635Y1327714*
X1194316Y1327402*
X1194771*
X1195453Y1327714*
X1195907Y1328652*
X1196135Y1330214*
Y1331152*
X1195907Y1332714*
X1195453Y1333652*
X1194771Y1333964*
X1194316*
X1204001Y1333885D02*
X1203320Y1333573D01*
X1202865Y1332635*
X1202638Y1331073*
Y1330135*
X1202865Y1328573*
X1203320Y1327635*
X1204001Y1327323*
X1204456*
X1205138Y1327635*
X1205592Y1328573*
X1205820Y1330135*
Y1331073*
X1205592Y1332635*
X1205138Y1333573*
X1204456Y1333885*
X1204001*
X1157677Y1218816D02*
X1158132Y1219129D01*
X1158814Y1220066*
Y1213504*
X1148332Y1219948D02*
X1147650Y1219636D01*
X1147196Y1218698*
X1146969Y1217136*
Y1216198*
X1147196Y1214636*
X1147650Y1213698*
X1148332Y1213386*
X1148787*
X1149469Y1213698*
X1149923Y1214636*
X1150150Y1216198*
Y1217136*
X1149923Y1218698*
X1149469Y1219636*
X1148787Y1219948*
X1148332*
X1148253Y1231523D02*
X1147572Y1231211D01*
X1147117Y1230273*
X1146890Y1228711*
Y1227773*
X1147117Y1226211*
X1147572Y1225273*
X1148253Y1224961*
X1148708*
X1149390Y1225273*
X1149844Y1226211*
X1150072Y1227773*
Y1228711*
X1149844Y1230273*
X1149390Y1231211*
X1148708Y1231523*
X1148253*
X1158057Y1231602D02*
X1157375Y1231289D01*
X1156920Y1230352*
X1156693Y1228789*
Y1227852*
X1156920Y1226289*
X1157375Y1225352*
X1158057Y1225039*
X1158511*
X1159193Y1225352*
X1159647Y1226289*
X1159875Y1227852*
Y1228789*
X1159647Y1230352*
X1159193Y1231289*
X1158511Y1231602*
X1158057*
X1157978Y1209555D02*
X1157296Y1209242D01*
X1156841Y1208305*
X1156614Y1206742*
Y1205805*
X1156841Y1204242*
X1157296Y1203305*
X1157978Y1202992*
X1158432*
X1159114Y1203305*
X1159569Y1204242*
X1159796Y1205805*
Y1206742*
X1159569Y1208305*
X1159114Y1209242*
X1158432Y1209555*
X1157978*
X1147520Y1208462D02*
X1147974Y1208775D01*
X1148656Y1209712*
Y1203150*
X1147992Y1196927D02*
X1148447Y1197239D01*
X1149128Y1198177*
Y1191614*
X1157283Y1196927D02*
X1157738Y1197239D01*
X1158420Y1198177*
Y1191614*
X1154213Y1240053D02*
Y1234803D01*
Y1240053D02*
X1155485D01*
X1156031Y1239803*
X1156394Y1239303*
X1156576Y1238803*
X1156758Y1238053*
Y1236803*
X1156576Y1236053*
X1156394Y1235553*
X1156031Y1235053*
X1155485Y1234803*
X1154213*
X1159485Y1240053D02*
X1158940Y1239803D01*
X1158576Y1239053*
X1158394Y1237803*
Y1237053*
X1158576Y1235803*
X1158940Y1235053*
X1159485Y1234803*
X1159849*
X1160394Y1235053*
X1160758Y1235803*
X1160940Y1237053*
Y1237803*
X1160758Y1239053*
X1160394Y1239803*
X1159849Y1240053*
X1159485*
X1146063Y1239935D02*
Y1234685D01*
Y1239935D02*
X1147336D01*
X1147881Y1239685*
X1148245Y1239185*
X1148427Y1238685*
X1148608Y1237935*
Y1236685*
X1148427Y1235935*
X1148245Y1235435*
X1147881Y1234935*
X1147336Y1234685*
X1146063*
X1150245Y1238935D02*
X1150608Y1239185D01*
X1151154Y1239935*
Y1234685*
X1164173Y1240053D02*
X1165628Y1234803D01*
X1167082Y1240053D02*
X1165628Y1234803D01*
X1169810Y1240053D02*
X1169446Y1239803D01*
X1169082Y1239303*
X1168901Y1238803*
X1168901D02*
X1168719Y1238053D01*
Y1236803*
X1168901Y1236053*
X1168901D02*
X1169082Y1235553D01*
X1169446Y1235053*
X1169810Y1234803*
X1170537*
X1170901Y1235053*
X1170901D02*
X1171264Y1235553D01*
X1171446Y1236053*
X1171628Y1236803*
Y1238053*
X1171446Y1238803*
X1171264Y1239303*
X1170901Y1239803*
X1170901D02*
X1170537Y1240053D01*
X1169810*
X1173264D02*
Y1236303D01*
X1173446Y1235553*
X1173810Y1235053*
X1174355Y1234803*
X1174719*
X1175264Y1235053*
X1175628Y1235553*
X1175810Y1236303*
Y1240053*
X1178719D02*
Y1234803D01*
X1177446Y1240053D02*
X1179991D01*
X1163937Y1229447D02*
X1164301Y1229697D01*
X1164846Y1230447*
Y1225197*
X1166664Y1225697D02*
X1166482Y1225447D01*
X1166664Y1225197*
X1166846Y1225447*
X1166664Y1225697*
X1169392Y1230447D02*
X1168846Y1230197D01*
X1168664Y1229697*
Y1229197*
X1168846Y1228697*
X1169210Y1228447*
X1169937Y1228197*
X1170482Y1227947*
X1170846Y1227447*
X1171028Y1226947*
Y1226197*
X1170846Y1225697*
X1170664Y1225447*
X1170119Y1225197*
X1169392*
X1168846Y1225447*
X1168664Y1225697*
X1168482Y1226197*
Y1226947*
X1168664Y1227447*
X1169028Y1227947*
X1169573Y1228197*
X1170301Y1228447*
X1170664Y1228697*
X1170846Y1229197*
Y1229697*
X1170664Y1230197*
X1170119Y1230447*
X1169392*
X1172664D02*
X1174119Y1225197D01*
X1175573Y1230447D02*
X1174119Y1225197D01*
X1164473Y1218094D02*
Y1218344D01*
X1164655Y1218844*
X1164837Y1219094*
X1165200Y1219344*
X1165928*
X1166291Y1219094*
X1166473Y1218844*
X1166655Y1218344*
Y1217844*
X1166473Y1217344*
X1166110Y1216594*
X1164291Y1214094*
X1166837*
X1168655Y1214594D02*
X1168473Y1214344D01*
X1168655Y1214094*
X1168837Y1214344*
X1168655Y1214594*
X1172837Y1219344D02*
X1171019D01*
X1170837Y1217094*
X1171019Y1217344*
X1171564Y1217594*
X1172110*
X1172655Y1217344*
X1173019Y1216844*
X1173200Y1216094*
X1173019Y1215594*
X1172837Y1214844*
X1172473Y1214344*
X1171928Y1214094*
X1171382*
X1170837Y1214344*
X1170655Y1214594*
X1170473Y1215094*
X1174837Y1219344D02*
X1176291Y1214094D01*
X1177746Y1219344D02*
X1176291Y1214094D01*
X1165009Y1209030D02*
X1167009D01*
X1165918Y1207030*
X1166464*
X1166827Y1206780*
X1167009Y1206530*
X1167191Y1205780*
Y1205280*
X1167009Y1204530*
X1166646Y1204030*
X1166100Y1203780*
X1165555*
X1165009Y1204030*
X1164827Y1204280*
X1164646Y1204780*
X1169009Y1204280D02*
X1168827Y1204030D01*
X1169009Y1203780*
X1169191Y1204030*
X1169009Y1204280*
X1171191Y1209030D02*
X1173191D01*
X1172100Y1207030*
X1172646*
X1173009Y1206780*
X1173191Y1206530*
X1173373Y1205780*
Y1205280*
X1173191Y1204530*
X1172827Y1204030*
X1172282Y1203780*
X1171737*
X1171191Y1204030*
X1171009Y1204280*
X1170827Y1204780*
X1175009Y1209030D02*
X1176464Y1203780D01*
X1177918Y1209030D02*
X1176464Y1203780D01*
X1164773Y1197809D02*
X1166773D01*
X1165682Y1195809*
X1166228*
X1166591Y1195559*
X1166773Y1195309*
X1166955Y1194559*
Y1194059*
X1166773Y1193309*
X1166409Y1192809*
X1165864Y1192559*
X1165319*
X1164773Y1192809*
X1164591Y1193059*
X1164409Y1193559*
X1168773Y1193059D02*
X1168591Y1192809D01*
X1168773Y1192559*
X1168955Y1192809*
X1168773Y1193059*
X1172773Y1197059D02*
X1172591Y1197559D01*
X1172046Y1197809*
X1171682*
X1171137Y1197559*
X1170773Y1196809*
X1170591Y1195559*
Y1194309*
X1170773Y1193309*
X1171137Y1192809*
X1171682Y1192559*
X1171864*
X1172409Y1192809*
X1172773Y1193309*
X1172955Y1194059*
Y1194309*
X1172773Y1195059*
X1172409Y1195559*
X1171864Y1195809*
X1171682*
X1171137Y1195559*
X1170773Y1195059*
X1170591Y1194309*
X1174591Y1197809D02*
X1176046Y1192559D01*
X1177500Y1197809D02*
X1176046Y1192559D01*
X1170183Y1283255D02*
X1169728Y1282943D01*
X1169273Y1282318*
X1169046Y1281693*
X1168819Y1280755*
Y1279193*
X1169046Y1278255*
X1169273Y1277630*
X1169728Y1277005*
X1170183Y1276693*
X1171092*
X1171546Y1277005*
X1172001Y1277630*
X1172228Y1278255*
X1172455Y1279193*
Y1280755*
X1172228Y1281693*
X1172001Y1282318*
X1171546Y1282943*
X1171092Y1283255*
X1170183*
X1174501D02*
Y1276693D01*
Y1283255D02*
X1177683Y1276693D01*
Y1283255D02*
Y1276693D01*
X1148135Y1254122D02*
X1147681Y1253809D01*
X1147226Y1253184*
X1146999Y1252559*
X1146772Y1251622*
Y1250059*
X1146999Y1249122*
X1147226Y1248497*
X1147681Y1247872*
X1148135Y1247559*
X1149044*
X1149499Y1247872*
X1149953Y1248497*
X1150181Y1249122*
X1150408Y1250059*
Y1251622*
X1150181Y1252559*
X1149953Y1253184*
X1149499Y1253809*
X1149044Y1254122*
X1148135*
X1152453D02*
Y1247559D01*
Y1254122D02*
X1155408D01*
X1152453Y1250997D02*
X1154272D01*
X1157453Y1254122D02*
Y1247559D01*
Y1254122D02*
X1160408D01*
X1157453Y1250997D02*
X1159272D01*
X1290996Y1057732D02*
G03X1290996I-1468J0D01*
G01X1159709Y1169572D02*
Y1185423D01*
X1165560*
Y1169572*
X1159709*
X1290996Y1057732D02*
G03X1290996I-1468J0D01*
G01X1232232Y1007980D02*
X1303201D01*
Y1052650*
X1232232*
Y1007980*
X1307350Y1052650D02*
X1326272D01*
Y1033650*
X1307350*
Y1052650*
X1209161D02*
X1228083D01*
Y1033650*
X1209161*
Y1052650*
X1159709Y1184871D02*
X1165560D01*
X1159709Y1183971D02*
X1165560D01*
X1159709Y1183071D02*
X1165560D01*
X1159709Y1182171D02*
X1165560D01*
X1159709Y1181271D02*
X1165560D01*
X1159709Y1180371D02*
X1165560D01*
X1159709Y1179471D02*
X1165560D01*
X1159709Y1178571D02*
X1165560D01*
X1159709Y1177671D02*
X1165560D01*
X1159709Y1176771D02*
X1165560D01*
X1159709Y1175871D02*
X1165560D01*
X1159709Y1174971D02*
X1165560D01*
X1159709Y1174071D02*
X1165560D01*
X1159709Y1173171D02*
X1165560D01*
X1159709Y1172271D02*
X1165560D01*
X1159709Y1171371D02*
X1165560D01*
X1159709Y1170471D02*
X1165560D01*
X1288097Y1058062D02*
X1290958D01*
X1288174Y1057162D02*
X1290881D01*
X1288726Y1058962D02*
X1290330D01*
X1232232Y1052079D02*
X1303201D01*
X1232232Y1051179D02*
X1303201D01*
X1232232Y1050279D02*
X1303201D01*
X1232232Y1049379D02*
X1303201D01*
X1232232Y1048479D02*
X1303201D01*
X1232232Y1047579D02*
X1303201D01*
X1232232Y1046679D02*
X1303201D01*
X1232232Y1045779D02*
X1303201D01*
X1232232Y1044879D02*
X1303201D01*
X1232232Y1043979D02*
X1303201D01*
X1232232Y1043079D02*
X1303201D01*
X1232232Y1042179D02*
X1303201D01*
X1232232Y1041279D02*
X1303201D01*
X1232232Y1040379D02*
X1303201D01*
X1232232Y1039479D02*
X1303201D01*
X1232232Y1038579D02*
X1303201D01*
X1232232Y1037679D02*
X1303201D01*
X1232232Y1036779D02*
X1303201D01*
X1232232Y1035879D02*
X1303201D01*
X1232232Y1034979D02*
X1303201D01*
X1232232Y1034079D02*
X1303201D01*
X1232232Y1033179D02*
X1303201D01*
X1232232Y1032279D02*
X1303201D01*
X1232232Y1031379D02*
X1303201D01*
X1232232Y1030479D02*
X1303201D01*
X1232232Y1029579D02*
X1303201D01*
X1232232Y1028679D02*
X1303201D01*
X1232232Y1027779D02*
X1303201D01*
X1232232Y1026879D02*
X1303201D01*
X1232232Y1025979D02*
X1303201D01*
X1232232Y1025079D02*
X1303201D01*
X1232232Y1024179D02*
X1303201D01*
X1232232Y1023279D02*
X1303201D01*
X1232232Y1022379D02*
X1303201D01*
X1232232Y1021479D02*
X1303201D01*
X1232232Y1020579D02*
X1303201D01*
X1232232Y1019679D02*
X1303201D01*
X1232232Y1018779D02*
X1303201D01*
X1232232Y1017879D02*
X1303201D01*
X1232232Y1016979D02*
X1303201D01*
X1232232Y1016079D02*
X1303201D01*
X1232232Y1015179D02*
X1303201D01*
X1232232Y1014279D02*
X1303201D01*
X1232232Y1013379D02*
X1303201D01*
X1232232Y1012479D02*
X1303201D01*
X1232232Y1011579D02*
X1303201D01*
X1232232Y1010679D02*
X1303201D01*
X1232232Y1009779D02*
X1303201D01*
X1232232Y1008879D02*
X1303201D01*
X1307350Y1052548D02*
X1326272D01*
X1307350Y1051648D02*
X1326272D01*
X1307350Y1050748D02*
X1326272D01*
X1307350Y1049848D02*
X1326272D01*
X1307350Y1048948D02*
X1326272D01*
X1307350Y1048048D02*
X1326272D01*
X1307350Y1047148D02*
X1326272D01*
X1307350Y1046248D02*
X1326272D01*
X1307350Y1045348D02*
X1326272D01*
X1307350Y1044448D02*
X1326272D01*
X1307350Y1043548D02*
X1326272D01*
X1307350Y1042648D02*
X1326272D01*
X1307350Y1041748D02*
X1326272D01*
X1307350Y1040848D02*
X1326272D01*
X1307350Y1039948D02*
X1326272D01*
X1307350Y1039048D02*
X1326272D01*
X1307350Y1038148D02*
X1326272D01*
X1307350Y1037248D02*
X1326272D01*
X1307350Y1036348D02*
X1326272D01*
X1307350Y1035448D02*
X1326272D01*
X1307350Y1034548D02*
X1326272D01*
X1209161Y1052548D02*
X1228083D01*
X1209161Y1051648D02*
X1228083D01*
X1209161Y1050748D02*
X1228083D01*
X1209161Y1049848D02*
X1228083D01*
X1209161Y1048948D02*
X1228083D01*
X1209161Y1048048D02*
X1228083D01*
X1209161Y1047148D02*
X1228083D01*
X1209161Y1046248D02*
X1228083D01*
X1209161Y1045348D02*
X1228083D01*
X1209161Y1044448D02*
X1228083D01*
X1209161Y1043548D02*
X1228083D01*
X1209161Y1042648D02*
X1228083D01*
X1209161Y1041748D02*
X1228083D01*
X1209161Y1040848D02*
X1228083D01*
X1209161Y1039948D02*
X1228083D01*
X1209161Y1039048D02*
X1228083D01*
X1209161Y1038148D02*
X1228083D01*
X1209161Y1037248D02*
X1228083D01*
X1209161Y1036348D02*
X1228083D01*
X1209161Y1035448D02*
X1228083D01*
X1209161Y1034548D02*
X1228083D01*
X1000000Y1000000D02*
X1393701D01*
Y1393701*
X1000000*
Y1000000*
X1000039Y1350276D02*
X1129882D01*
X1140512Y1332953*
Y1298898*
X1144606Y1294803*
X1184685*
Y1253189*
X1315748*
X1320866Y1248071*
X1393858*
X1189685Y1353701D02*
X1199173D01*
Y1323465*
X1189685*
Y1353701*
X1199213Y1353819D02*
X1208386D01*
Y1323583*
X1199213*
Y1353819*
X1189370Y1338898D02*
X1208465D01*
X1143937Y1211575D02*
X1153110D01*
Y1189646*
X1143937*
Y1211575*
X1143858Y1200827D02*
X1152835D01*
X1143819Y1222638D02*
X1152795D01*
X1143898Y1233386D02*
X1153071D01*
Y1211457*
X1143898*
Y1233386*
X1152874Y1222677D02*
X1161850D01*
X1152953Y1233425D02*
X1162126D01*
Y1211496*
X1152953*
Y1233425*
X1152992Y1211614D02*
X1162165D01*
Y1189685*
X1152992*
Y1211614*
X1152913Y1200866D02*
X1161890D01*
X1162008Y1222874D02*
X1180354D01*
X1162323Y1233425D02*
X1180669D01*
Y1211496*
X1162323*
Y1233425*
X1162244Y1211575D02*
X1180669D01*
Y1189646*
X1162244*
Y1211575*
X1162165Y1200827D02*
X1180551D01*
G54D97*
X1187586Y1353589D02*
Y1323589D01*
X1167586*
Y1353589*
X1187586*
X1166720D02*
Y1323589D01*
X1146720*
Y1353589*
X1166720*
X1344286Y1327627D02*
X1333263D01*
Y1332352*
X1344286*
Y1327627*
Y1337470D02*
X1333263D01*
Y1342194*
X1344286*
Y1337470*
X1349567Y1334610D02*
Y1338622D01*
X1344843*
Y1334610*
X1349567Y1331610D02*
Y1327598D01*
X1344843*
Y1331610*
X1333263Y1337470D02*
X1344286D01*
Y1332746*
X1333263*
Y1337470*
X1284170Y1237899D02*
X1273147D01*
Y1242623*
X1284170*
Y1237899*
Y1233174D02*
X1273147D01*
Y1237899*
X1284170*
Y1233174*
X1273147Y1232387D02*
X1284170D01*
Y1227662*
X1273147*
Y1232387*
X1273081Y1248003D02*
X1284104D01*
Y1243279*
X1273081*
Y1248003*
X1269302Y1162118D02*
X1280325D01*
Y1157394*
X1269302*
Y1162118*
X1273313Y1166843D02*
X1269302D01*
Y1162118*
X1273313*
X1276313Y1166843D02*
X1280325D01*
Y1162118*
X1276313*
X1330719Y1184934D02*
Y1180923D01*
X1335444*
Y1184934*
X1330719Y1187934D02*
Y1191946D01*
X1335444*
Y1187934*
X1325509Y1180923D02*
Y1191946D01*
X1330233*
Y1180923*
X1325509*
X1324860Y1191946D02*
Y1180923D01*
X1320135*
Y1191946*
X1324860*
X1272802Y1362440D02*
Y1356940D01*
X1279802*
Y1362440*
X1272802Y1365440D02*
Y1370940D01*
X1279802*
Y1365440*
X1242539Y1385039D02*
G03X1242539I-7500J0D01*
G01X1335390Y1354513D02*
X1324366D01*
Y1359238*
X1335390*
Y1354513*
X1331375Y1359854D02*
X1335387D01*
Y1364578*
X1331375*
X1328375Y1359854D02*
X1324364D01*
Y1364578*
X1328375*
X1340534Y1324072D02*
Y1313049D01*
X1335809*
Y1324072*
X1340534*
X1175197Y1366063D02*
Y1385748D01*
X1184646D02*
G03X1175197I-4725J0D01*
G01X1184646D02*
Y1381811D01*
X1186220*
Y1369606*
X1184646*
Y1366063*
X1175197D02*
G03X1184646I4724J-0D01*
G01X1175197Y1390866D02*
Y1360945D01*
X1173228*
Y1390866*
X1175197*
X1185376Y1367086D02*
X1188189D01*
X1186783Y1366063D02*
Y1368108D01*
X1185995Y1382992D02*
Y1385038D01*
X1158110Y1366063D02*
Y1385748D01*
X1167559D02*
G03X1158110I-4724J0D01*
G01X1167559D02*
Y1381811D01*
X1169134*
Y1369606*
X1167559*
Y1366063*
X1158110D02*
G03X1167559I4725J-0D01*
G01X1158110Y1390866D02*
Y1360945D01*
X1156142*
Y1390866*
X1158110*
X1168290Y1367086D02*
X1171102D01*
X1169696Y1366063D02*
Y1368108D01*
X1168909Y1382992D02*
Y1385038D01*
X1140866Y1366063D02*
Y1385748D01*
X1150315D02*
G03X1140866I-4724J0D01*
G01X1150315D02*
Y1381811D01*
X1151890*
Y1369606*
X1150315*
Y1366063*
X1140866D02*
G03X1150315I4725J-0D01*
G01X1140866Y1390866D02*
Y1360945D01*
X1138898*
Y1390866*
X1140866*
X1151046Y1367086D02*
X1153858D01*
X1152452Y1366063D02*
Y1368108D01*
X1151665Y1382992D02*
Y1385038D01*
X1124606Y1366063D02*
Y1385748D01*
X1134055D02*
G03X1124606I-4724J0D01*
G01X1134055D02*
Y1381811D01*
X1135630*
Y1369606*
X1134055*
Y1366063*
X1124606D02*
G03X1134055I4725J-0D01*
G01X1124606Y1390866D02*
Y1360945D01*
X1122638*
Y1390866*
X1124606*
X1134786Y1367086D02*
X1137598D01*
X1136192Y1366063D02*
Y1368108D01*
X1135405Y1382992D02*
Y1385038D01*
X1107874Y1366063D02*
Y1385748D01*
X1117323D02*
G03X1107874I-4725J0D01*
G01X1117323D02*
Y1381811D01*
X1118898*
Y1369606*
X1117323*
Y1366063*
X1107874D02*
G03X1117323I4724J-0D01*
G01X1107874Y1390866D02*
Y1360945D01*
X1105906*
Y1390866*
X1107874*
X1118054Y1367086D02*
X1120866D01*
X1119460Y1366063D02*
Y1368108D01*
X1118672Y1382992D02*
Y1385038D01*
X1091449Y1366060D02*
Y1385745D01*
X1100898D02*
G03X1091449I-4724J-0D01*
G01X1100898D02*
Y1381808D01*
X1102473*
Y1369603*
X1100898*
Y1366060*
X1091449D02*
G03X1100898I4725J-0D01*
G01X1091449Y1390863D02*
Y1360942D01*
X1089481*
Y1390863*
X1091449*
X1101629Y1367082D02*
X1104441D01*
X1103035Y1366060D02*
Y1368105D01*
X1102248Y1382989D02*
Y1385034D01*
X1266490Y1291130D02*
X1262479D01*
Y1286405*
X1266490*
X1269490Y1291130D02*
X1273502D01*
Y1286405*
X1269490*
X1262479Y1296248D02*
X1273502D01*
Y1291523*
X1262479*
Y1296248*
X1217967Y1283888D02*
X1221979D01*
Y1288613*
X1221979D02*
X1217967D01*
X1214967Y1283888D02*
X1210955D01*
Y1288613*
X1210955D02*
X1214967D01*
X1108308Y1193407D02*
X1097285D01*
Y1198131*
X1108308*
Y1193407*
Y1188682D02*
X1097285D01*
Y1193407*
X1108308*
Y1188682*
X1162583Y1244061D02*
Y1274061D01*
X1182583*
Y1244061*
X1162583*
X1199983Y1232513D02*
X1188960D01*
Y1237237*
X1199983*
Y1232513*
Y1242749D02*
X1188960D01*
Y1247474*
X1199983*
Y1242749*
X1195184Y1242493D02*
X1200484D01*
Y1237493*
X1195184*
X1188084Y1242493D02*
X1199384D01*
Y1237493*
X1188084*
Y1242493*
X1200268Y1216096D02*
X1189244D01*
Y1220821*
X1200268*
Y1216096*
X1195468Y1226470D02*
X1200768D01*
Y1221470*
X1195468*
X1188368Y1226470D02*
X1199668D01*
Y1221470*
X1188368*
Y1226470*
X1268639Y1189079D02*
X1279662D01*
Y1184355*
X1268639*
Y1189079*
X1272939Y1174251D02*
X1268928D01*
Y1169526*
X1272939*
X1275939Y1174251D02*
X1279951D01*
Y1169526*
X1275939*
X1156650Y1166513D02*
Y1188482D01*
X1168619*
Y1166513*
X1156650*
X1336006Y1238372D02*
X1340018D01*
Y1243096*
X1336006*
X1333006Y1238372D02*
X1328994D01*
Y1243096*
X1333006*
X1298502Y1248503D02*
X1309525D01*
Y1243779*
X1298502*
Y1248503*
X1329134Y1225984D02*
X1340157D01*
Y1221260*
X1329134*
Y1225984*
X1340157Y1226378D02*
X1329134D01*
Y1231102*
X1340157*
Y1226378*
X1329134Y1235827D02*
X1340157D01*
Y1231102*
X1329134*
Y1235827*
X1389764Y1019685D02*
G03X1389764I-15748J0D01*
G01X1237383Y1158240D02*
X1248406D01*
Y1153515*
X1237383*
Y1158240*
X1203937Y1081496D02*
Y1092520D01*
X1208661*
Y1081496*
X1203937*
X1171260Y1048819D02*
X1160236D01*
Y1053543*
X1171260*
Y1048819*
X1141339Y1052165D02*
X1136417D01*
Y1054242*
X1134646*
Y1052165*
X1129528*
Y1073819*
X1141339*
Y1052165*
X1144588Y1052756D02*
X1144432Y1052983D01*
X1143963Y1053324*
X1147244*
X1165705Y1063705D02*
Y1069205D01*
X1158705*
Y1063705*
X1165705Y1060705D02*
Y1055205D01*
X1158705*
Y1060705*
X1108736Y1070429D02*
X1103236D01*
Y1063429*
X1108736*
X1111736Y1070429D02*
X1117236D01*
Y1063429*
X1111736*
X1116142Y1057874D02*
X1105118D01*
Y1062598*
X1116142*
Y1057874*
X1287008Y1061417D02*
X1275984D01*
Y1066142*
X1287008*
Y1061417*
X1314567Y1062598D02*
X1303543D01*
Y1067323*
X1314567*
Y1062598*
X1368110Y1078740D02*
X1357087D01*
Y1083465*
X1368110*
Y1078740*
X1237008Y1220079D02*
Y1231102D01*
X1241732*
Y1220079*
X1237008*
X1218110Y1092520D02*
Y1081496D01*
X1213386*
Y1092520*
X1218110*
X1213386D02*
Y1081496D01*
X1208661*
Y1092520*
X1213386*
X1218110Y1081496D02*
Y1092520D01*
X1222835*
Y1081496*
X1218110*
X1138976Y1099213D02*
X1127953D01*
Y1103937*
X1138976*
Y1099213*
X1100394Y1077165D02*
Y1088189D01*
X1105118*
Y1077165*
X1100394*
X1222835Y1081496D02*
Y1092520D01*
X1227559*
Y1081496*
X1222835*
X1097638Y1118504D02*
X1108661D01*
Y1113780*
X1097638*
Y1118504*
X1193701Y1175984D02*
X1182677D01*
Y1180709*
X1193701*
Y1175984*
X1221654Y1315748D02*
X1210630D01*
Y1320472*
X1221654*
Y1315748*
X1198425Y1081496D02*
Y1092520D01*
X1203150*
Y1081496*
X1198425*
X1127953Y1108661D02*
X1138976D01*
Y1103937*
X1127953*
Y1108661*
X1118504Y1049606D02*
X1107480D01*
Y1054331*
X1118504*
Y1049606*
X1232677Y1099606D02*
Y1088583D01*
X1227953*
Y1099606*
X1232677*
X1108661Y1118504D02*
X1097638D01*
Y1123228*
X1108661*
Y1118504*
X1192445Y1167366D02*
X1197945D01*
Y1174366*
X1192445*
X1189445Y1167366D02*
X1183945D01*
Y1174366*
X1189445*
X1361098Y1088189D02*
X1357087D01*
Y1083465*
X1361098*
X1364098Y1088189D02*
X1368110D01*
Y1083465*
X1364098*
X1232283Y1224091D02*
Y1220079D01*
X1237008*
Y1224091*
X1232283Y1227091D02*
Y1231102D01*
X1237008*
Y1227091*
X1300469Y1302362D02*
X1296457D01*
Y1297638*
X1300469*
X1303469Y1302362D02*
X1307480D01*
Y1297638*
X1303469*
X1310555Y1105512D02*
X1314567D01*
Y1110236*
X1310555*
X1307555Y1105512D02*
X1303543D01*
Y1110236*
X1307555*
Y1093307D02*
X1303543D01*
Y1088583*
X1307555*
X1310555Y1093307D02*
X1314567D01*
Y1088583*
X1310555*
Y1099213D02*
X1314567D01*
Y1103937*
X1310555*
X1307555Y1099213D02*
X1303543D01*
Y1103937*
X1307555*
X1310555Y1078740D02*
X1314567D01*
Y1083465*
X1310555*
X1307555Y1078740D02*
X1303543D01*
Y1083465*
X1307555*
X1335358Y1111417D02*
X1339370D01*
Y1116142*
X1335358*
X1332358Y1111417D02*
X1328346D01*
Y1116142*
X1332358*
X1140902Y1086539D02*
Y1092039D01*
X1133902*
Y1086539*
X1140902Y1083539D02*
Y1078039D01*
X1133902*
Y1083539*
X1132634Y1086539D02*
Y1092039D01*
X1125634*
Y1086539*
X1132634Y1083539D02*
Y1078039D01*
X1125634*
Y1083539*
X1277996Y1088264D02*
Y1082764D01*
X1284996*
Y1088264*
X1277996Y1091264D02*
Y1096764D01*
X1284996*
Y1091264*
X1173972Y1063705D02*
Y1069205D01*
X1166972*
Y1063705*
X1173972Y1060705D02*
Y1055205D01*
X1166972*
Y1060705*
X1269728Y1088264D02*
Y1082764D01*
X1276728*
Y1088264*
X1269728Y1091264D02*
Y1096764D01*
X1276728*
Y1091264*
X1221610Y1102287D02*
Y1107787D01*
X1214610*
Y1102287*
X1221610Y1099287D02*
Y1093787D01*
X1214610*
Y1099287*
X1213343Y1102287D02*
Y1107787D01*
X1206343*
Y1102287*
X1213343Y1099287D02*
Y1093787D01*
X1206343*
Y1099287*
X1241020Y1151969D02*
X1237008D01*
Y1147244*
X1241020*
X1244020Y1151969D02*
X1248031D01*
Y1147244*
X1244020*
X1228272D02*
X1232283D01*
Y1151969*
X1228272*
X1225272Y1147244D02*
X1221260D01*
Y1151969*
X1225272*
X1190870Y1161417D02*
X1194882D01*
Y1166142*
X1190870*
X1187870Y1161417D02*
X1183858D01*
Y1166142*
X1187870*
X1272516Y1196850D02*
X1268504D01*
Y1192126*
X1272516*
X1275516Y1196850D02*
X1279528D01*
Y1192126*
X1275516*
X1261811Y1157555D02*
Y1153543D01*
X1266535*
Y1157555*
X1261811Y1160555D02*
Y1164567D01*
X1266535*
Y1160555*
X1189689Y1181102D02*
X1193701D01*
Y1185827*
X1189689*
X1186689Y1181102D02*
X1182677D01*
Y1185827*
X1186689*
X1255437Y1148425D02*
X1259449D01*
Y1153150*
X1255437*
X1252437Y1148425D02*
X1248425D01*
Y1153150*
X1252437*
X1220398Y1153937D02*
X1224409D01*
Y1158661*
X1220398*
X1217398Y1153937D02*
X1213386D01*
Y1158661*
X1217398*
X1285827Y1088657D02*
Y1084646D01*
X1290551*
Y1088657*
X1285827Y1091657D02*
Y1095669D01*
X1290551*
Y1091657*
X1101650Y1113386D02*
X1097638D01*
Y1108661*
X1101650*
X1104650Y1113386D02*
X1108661D01*
Y1108661*
X1104650*
X1111492Y1049606D02*
X1107480D01*
Y1044882*
X1111492*
X1114492Y1049606D02*
X1118504D01*
Y1044882*
X1114492*
X1131965Y1099213D02*
X1127953D01*
Y1094488*
X1131965*
X1134965Y1099213D02*
X1138976D01*
Y1094488*
X1134965*
X1095276Y1081177D02*
Y1077165D01*
X1100000*
Y1081177*
X1095276Y1084177D02*
Y1088189D01*
X1100000*
Y1084177*
X1218110Y1224091D02*
Y1220079D01*
X1222835*
Y1224091*
X1218110Y1227091D02*
Y1231102D01*
X1222835*
Y1227091*
X1222441Y1099681D02*
Y1095669D01*
X1227165*
Y1099681*
X1222441Y1102681D02*
Y1106693D01*
X1227165*
Y1102681*
X1146457Y1086539D02*
Y1090551D01*
X1141732*
Y1086539*
X1146457Y1083539D02*
Y1079528D01*
X1141732*
Y1083539*
X1059012Y1308780D02*
X1055000D01*
Y1304055*
X1059012*
X1062012Y1308780D02*
X1066024D01*
Y1304055*
X1062012*
X1239567Y1272108D02*
X1242913D01*
Y1275984*
X1249213*
Y1272108*
X1252559*
Y1261811*
X1239567*
Y1272108*
X1109646Y1120927D02*
X1112992Y1120926D01*
Y1124803*
X1119291*
Y1120926*
X1122638Y1120927*
Y1110630*
X1109646*
Y1120927*
X1204528Y1096850D02*
X1177165D01*
Y1107874*
X1204528*
Y1096850*
X1203150Y1097244D02*
Y1107480D01*
X1127385Y1106277D02*
Y1094324D01*
X1111985*
Y1106276*
X1116085*
Y1111233*
X1123285*
Y1106277*
X1127385*
X1095843Y1096086D02*
Y1108039D01*
X1111243*
Y1096086*
X1107143*
Y1091130*
X1099943*
Y1096086*
X1095843*
X1120692Y1088954D02*
Y1077001D01*
X1105292*
Y1088953*
X1109392*
Y1093910*
X1116592*
Y1088954*
X1120692*
X1217248Y1325728D02*
X1222548D01*
Y1320728*
X1217248*
X1210148Y1325728D02*
X1221448D01*
Y1320728*
X1210148*
Y1325728*
X1232738Y1161218D02*
Y1158518D01*
X1256914Y1176071D02*
X1259414D01*
X1257114Y1186071D02*
X1261014D01*
X1236433Y1204858D02*
Y1209458D01*
X1213852Y1187871D02*
X1209952D01*
X1213852Y1177871D02*
X1211552D01*
X1242338Y1161018D02*
Y1156718D01*
X1248425Y1170079D02*
Y1196063D01*
X1222441*
Y1172441*
X1224803Y1170079*
X1248425*
X1227745Y1173622D02*
G03X1227745I-1761J0D01*
G01X1241142Y1069445D02*
Y1106145D01*
X1268307*
Y1069445*
X1241142*
X1173622Y1081496D02*
X1172047Y1079921D01*
X1162689*
X1161449Y1081161*
X1160191Y1079921*
X1150787*
X1149213Y1081496*
Y1106693*
X1150787Y1108268*
X1160214*
X1161484Y1107003*
X1162749Y1108268*
X1172047*
X1173622Y1106693*
Y1081496*
X1206299Y1005906D02*
Y1055512D01*
X1329134*
Y1005906*
X1206299*
X1230157D02*
Y1055512D01*
X1305276Y1005906D02*
Y1055512D01*
X1235571Y1005906D02*
X1299862D01*
Y981693*
X1235571*
Y1005906*
X1210650D02*
X1226398D01*
Y987008*
X1210650*
Y1005906*
X1309035D02*
X1324783D01*
Y987008*
X1309035*
Y1005906*
X1329108Y1110630D02*
X1333264D01*
Y1107264*
X1334452*
Y1110610*
X1338608*
Y1068898*
X1329108*
Y1110630*
X1332283Y1106299D02*
G03X1332283I-787J0D01*
G01X1325491Y1110236D02*
X1325647Y1110009D01*
X1326116Y1109668*
X1322835*
X1368110Y1088976D02*
X1357087D01*
Y1093701*
X1368110*
Y1088976*
X1262598Y1301969D02*
X1273622D01*
Y1297244*
X1262598*
Y1301969*
X1083740Y1304055D02*
X1072717D01*
Y1308780*
X1083740*
Y1304055*
X1305043Y1215748D02*
X1309055D01*
Y1220472*
X1305043*
X1302043Y1215748D02*
X1298031D01*
Y1220472*
X1302043*
X1149138Y1279921D02*
X1153150D01*
Y1284646*
X1149138*
X1146138Y1279921D02*
X1142126D01*
Y1284646*
X1146138*
X1356496Y1104785D02*
X1359843D01*
Y1108661*
X1366142*
Y1104785*
X1369488*
Y1094488*
X1356496*
Y1104785*
X1206496Y1272108D02*
X1209843D01*
Y1275984*
X1216142*
Y1272108*
X1219488*
Y1261811*
X1206496*
Y1272108*
X1082657Y1355118D02*
X1046476D01*
Y1393701*
X1082657*
Y1355118*
X1077362Y1382165D02*
Y1391220D01*
X1081299Y1387283*
X1073425*
X1077362Y1391220*
X1082651Y1368110D02*
X1046476D01*
X1077972Y1355118D02*
Y1368110D01*
X1066161*
Y1355118*
X1077972*
X1062972D02*
Y1368110D01*
X1051161*
Y1355118*
X1062972*
X1080512Y1382821D02*
Y1386102D01*
X1078921Y1382821D02*
Y1386102D01*
X1080512Y1384384D02*
X1078921D01*
X1311024Y1221457D02*
X1304375D01*
Y1223881*
X1302712*
Y1221457*
X1296063*
Y1243110*
X1311024*
Y1221457*
X1308256Y1225277D02*
G03X1308256I-1083J0D01*
G01X1313832Y1222449D02*
X1313676Y1222676D01*
X1313207Y1223017*
X1316488*
X1307874Y1290945D02*
X1296850D01*
Y1295669*
X1307874*
Y1290945*
X1252756Y1261811D02*
Y1272835D01*
X1257480*
Y1261811*
X1252756*
X1307874Y1279921D02*
X1296850D01*
Y1284646*
X1307874*
Y1279921*
Y1270472D02*
X1296850D01*
Y1275197*
X1307874*
Y1270472*
X1340157Y1215748D02*
X1329134D01*
Y1220472*
X1340157*
Y1215748*
X1307874Y1260236D02*
X1296850D01*
Y1264961*
X1307874*
Y1260236*
X1222047Y1303937D02*
X1211024D01*
Y1308661*
X1222047*
Y1303937*
X1099882Y1304055D02*
X1088858D01*
Y1308780*
X1099882*
Y1304055*
X1266610Y1306693D02*
X1262598D01*
Y1301969*
X1266610*
X1269610Y1306693D02*
X1273622D01*
Y1301969*
X1269610*
X1303862Y1275197D02*
X1307874D01*
Y1279921*
X1303862*
X1300862Y1275197D02*
X1296850D01*
Y1279921*
X1300862*
X1303862Y1265748D02*
X1307874D01*
Y1270472*
X1303862*
X1300862Y1265748D02*
X1296850D01*
Y1270472*
X1300862*
X1303862Y1255512D02*
X1307874D01*
Y1260236*
X1303862*
X1300862Y1255512D02*
X1296850D01*
Y1260236*
X1300862*
X1257480Y1265823D02*
Y1261811D01*
X1262205*
Y1265823*
X1257480Y1268823D02*
Y1272835D01*
X1262205*
Y1268823*
X1303862Y1286220D02*
X1307874D01*
Y1290945*
X1303862*
X1300862Y1286220D02*
X1296850D01*
Y1290945*
X1300862*
X1218035Y1299213D02*
X1222047D01*
Y1303937*
X1218035*
X1215035Y1299213D02*
X1211024D01*
Y1303937*
X1215035*
X1231890Y1329921D02*
X1230315Y1331496D01*
Y1340854*
X1231554Y1342094*
X1230315Y1343352*
Y1352756*
X1231890Y1354331*
X1257087*
X1258661Y1352756*
Y1343329*
X1257396Y1342059*
X1258661Y1340794*
Y1331496*
X1257087Y1329921*
X1231890*
X1355118Y1311043D02*
Y1347224D01*
X1393701*
Y1311043*
X1355118*
X1382165Y1316339D02*
X1391220D01*
X1387283Y1312402*
Y1320276*
X1391220Y1316339*
X1368110Y1311050D02*
Y1347224D01*
X1355118Y1315728D02*
X1368110D01*
Y1327539*
X1355118*
Y1315728*
Y1330728D02*
X1368110D01*
Y1342539*
X1355118*
Y1330728*
X1382821Y1313189D02*
X1386102D01*
X1382821Y1314780D02*
X1386102D01*
X1384384Y1313189D02*
Y1314780D01*
X1315630Y1342402D02*
Y1312402D01*
X1295630*
Y1342402*
X1315630*
X1102776Y1013780D02*
G03X1102776I-7500J0D01*
G01X1106299Y1040945D02*
X1095276D01*
Y1045669*
X1106299*
Y1040945*
X1314567Y1072047D02*
X1303543D01*
Y1076772*
X1314567*
Y1072047*
X1357087Y1075197D02*
X1368110D01*
Y1070472*
X1357087*
Y1075197*
X1142126Y1270472D02*
X1153150D01*
Y1265748*
X1142126*
Y1270472*
X1095276Y1040945D02*
X1106299D01*
Y1036220*
X1095276*
Y1040945*
X1106299Y1050394D02*
X1095276D01*
Y1055118*
X1106299*
Y1050394*
X1237008Y1158268D02*
Y1147244D01*
X1232283*
Y1158268*
X1237008*
X1217642Y1289413D02*
X1223142D01*
Y1296413*
X1217642*
X1214642Y1289413D02*
X1209142D01*
Y1296413*
X1214642*
X1300075Y1310193D02*
X1294575D01*
Y1303193*
X1300075*
X1303075Y1310193D02*
X1308575D01*
Y1303193*
X1303075*
X1279996Y1061417D02*
X1275984D01*
Y1056693*
X1279996*
X1282996Y1061417D02*
X1287008D01*
Y1056693*
X1282996*
X1310555Y1067323D02*
X1314567D01*
Y1072047*
X1310555*
X1307555Y1067323D02*
X1303543D01*
Y1072047*
X1307555*
X1262248Y1344563D02*
Y1339063D01*
X1269248*
Y1344563*
X1262248Y1347563D02*
Y1353063D01*
X1269248*
Y1347563*
X1270516Y1344563D02*
Y1339063D01*
X1277516*
Y1344563*
X1270516Y1347563D02*
Y1353063D01*
X1277516*
Y1347563*
X1186295Y1079134D02*
X1182283D01*
Y1074409*
X1186295*
X1189295Y1079134D02*
X1193307D01*
Y1074409*
X1189295*
X1214610Y1360705D02*
Y1355205D01*
X1221610*
Y1360705*
X1214610Y1363705D02*
Y1369205D01*
X1221610*
Y1363705*
X1198051Y1013780D02*
G03X1198051I-7500J0D01*
G01X1095276Y1050394D02*
X1106299D01*
Y1045669*
X1095276*
Y1050394*
X1142126Y1279921D02*
X1153150D01*
Y1275197*
X1142126*
Y1279921*
X1153150Y1270472D02*
X1142126D01*
Y1275197*
X1153150*
Y1270472*
X1294508Y1385039D02*
G03X1294508I-7500J0D01*
G01X1079154Y1013780D02*
G03X1079154I-7500J0D01*
G01X1174429D02*
G03X1174429I-7500J0D01*
G01X1214193Y1385039D02*
G03X1214193I-7500J0D01*
G01X1324429D02*
G03X1324429I-7500J0D01*
G01X1035433Y1019685D02*
G03X1035433I-15748J0D01*
G01Y1374016D02*
G03X1035433I-15748J0D01*
G01X1389764D02*
G03X1389764I-15748J0D01*
G01X1284516Y1338085D02*
X1284152Y1337835D01*
X1283789Y1337335*
X1283607Y1336835*
X1283425Y1336085*
Y1334835*
X1283607Y1334085*
X1283789Y1333585*
X1284152Y1333085*
X1284516Y1332835*
X1285243*
X1285607Y1333085*
X1285971Y1333585*
X1286152Y1334085*
X1286334Y1334835*
Y1336085*
X1286152Y1336835*
X1285971Y1337335*
X1285607Y1337835*
X1285243Y1338085*
X1284516*
X1287971D02*
Y1334335D01*
X1288152Y1333585*
X1288516Y1333085*
X1289062Y1332835*
X1289425*
X1289971Y1333085*
X1290334Y1333585*
X1290516Y1334335*
Y1338085*
X1293425D02*
Y1332835D01*
X1292152Y1338085D02*
X1294698D01*
X1275485Y1319502D02*
Y1314252D01*
X1274213Y1319502D02*
X1276758D01*
X1278394D02*
Y1314252D01*
Y1319502D02*
X1280031D01*
X1280576Y1319252*
X1280758Y1319002*
X1280940Y1318502*
Y1318002*
X1280758Y1317502*
X1280576Y1317252*
X1280031Y1317002*
X1278394*
X1279667D02*
X1280940Y1314252D01*
X1284031Y1319502D02*
X1282576Y1314252D01*
X1284031Y1319502D02*
X1285485Y1314252D01*
X1283122Y1316002D02*
X1284940D01*
X1287122Y1319502D02*
Y1314252D01*
Y1319502D02*
X1289667Y1314252D01*
Y1319502D02*
Y1314252D01*
X1293849Y1318752D02*
X1293485Y1319252D01*
X1292940Y1319502*
X1292213*
X1291667Y1319252*
X1291304Y1318752*
Y1318252*
X1291485Y1317752*
X1291667Y1317502*
X1292031Y1317252*
X1293122Y1316752*
X1293485Y1316502*
X1293667Y1316252*
X1293849Y1315752*
Y1315002*
X1293485Y1314502*
X1292940Y1314252*
X1292213*
X1291667Y1314502*
X1291304Y1315002*
X1086212Y1180447D02*
X1087462D01*
X1086780Y1179197*
X1087121*
X1087348Y1179040*
X1087462Y1178884*
X1087575Y1178415*
Y1178103*
X1087462Y1177634*
X1087234Y1177322*
X1086893Y1177165*
X1086552*
X1086212Y1177322*
X1086098Y1177478*
X1085984Y1177790*
X1088712Y1177478D02*
X1088598Y1177322D01*
X1088712Y1177165*
X1088825Y1177322*
X1088712Y1177478*
X1090075Y1180447D02*
X1091325D01*
X1090643Y1179197*
X1090984*
X1091212Y1179040*
X1091325Y1178884*
X1091439Y1178415*
Y1178103*
X1091325Y1177634*
X1091098Y1177322*
X1090757Y1177165*
X1090416*
X1090075Y1177322*
X1089962Y1177478*
X1089848Y1177790*
X1092462Y1180447D02*
X1093371Y1177165D01*
X1094280Y1180447D02*
X1093371Y1177165D01*
X1088504Y1170722D02*
Y1167441D01*
Y1170722D02*
X1089299D01*
X1089640Y1170566*
X1089868Y1170253*
X1089981Y1169941*
X1090095Y1169472*
Y1168691*
X1089981Y1168222*
X1089868Y1167910*
X1089640Y1167597*
X1089299Y1167441*
X1088504*
X1091118Y1170722D02*
Y1167441D01*
X1092822Y1170722D02*
X1092595Y1170566D01*
X1092368Y1170253*
X1092254Y1169941*
X1092140Y1169472*
Y1168691*
X1092254Y1168222*
X1092368Y1167910*
X1092595Y1167597*
X1092822Y1167441*
X1093277*
X1093504Y1167597*
X1093731Y1167910*
X1093845Y1168222*
X1093958Y1168691*
Y1169472*
X1093845Y1169941*
X1093731Y1170253*
X1093504Y1170566*
X1093277Y1170722*
X1092822*
X1089382Y1159547D02*
X1089268Y1159860D01*
X1089041Y1160172*
X1088814Y1160328*
X1088359*
X1088132Y1160172*
X1087904Y1159860*
X1087791Y1159547*
X1087677Y1159078*
Y1158297*
X1087791Y1157828*
X1087904Y1157516*
X1088132Y1157203*
X1088359Y1157047*
X1088814*
X1089041Y1157203*
X1089268Y1157516*
X1089382Y1157828*
X1090404Y1160328D02*
Y1157047D01*
X1091768*
X1092791Y1160328D02*
Y1157047D01*
X1094382Y1160328D02*
X1092791Y1158141D01*
X1093359Y1158922D02*
X1094382Y1157047D01*
X1088870Y1149941D02*
X1088756Y1150253D01*
X1088529Y1150566*
X1088302Y1150722*
X1087847*
X1087620Y1150566*
X1087393Y1150253*
X1087279Y1149941*
X1087165Y1149472*
Y1148691*
X1087279Y1148222*
X1087393Y1147910*
X1087620Y1147597*
X1087847Y1147441*
X1088302*
X1088529Y1147597*
X1088756Y1147910*
X1088870Y1148222*
Y1148691*
X1088302D02*
X1088870D01*
X1089893Y1150722D02*
Y1147441D01*
Y1150722D02*
X1091484Y1147441D01*
Y1150722D02*
Y1147441D01*
X1092506Y1150722D02*
Y1147441D01*
Y1150722D02*
X1093302D01*
X1093643Y1150566*
X1093870Y1150253*
X1093984Y1149941*
X1094097Y1149472*
Y1148691*
X1093984Y1148222*
X1093870Y1147910*
X1093643Y1147597*
X1093302Y1147441*
X1092506*
X1051811Y1348006D02*
Y1342756D01*
Y1348006D02*
X1053447D01*
X1053993Y1347756*
X1054175Y1347506*
X1054356Y1347006*
Y1346256*
X1054175Y1345756*
X1053993Y1345506*
X1053447Y1345256*
X1051811*
X1058538Y1348006D02*
X1055993Y1342756D01*
Y1348006D02*
X1058538D01*
X1055993Y1342756D02*
X1058538D01*
X1060356Y1346756D02*
Y1347006D01*
X1060538Y1347506*
X1060720Y1347756*
X1061084Y1348006*
X1061811*
X1062175Y1347756*
X1062356Y1347506*
X1062538Y1347006*
Y1346506*
X1062356Y1346006*
X1061993Y1345256*
X1060175Y1342756*
X1062720*
X1068780Y1347888D02*
Y1342638D01*
Y1347888D02*
X1070416D01*
X1070961Y1347638*
X1071143Y1347388*
X1071325Y1346888*
Y1346138*
X1071143Y1345638*
X1070961Y1345388*
X1070416Y1345138*
X1068780*
X1075507Y1347888D02*
X1072961Y1342638D01*
Y1347888D02*
X1075507D01*
X1072961Y1342638D02*
X1075507D01*
X1077143Y1346888D02*
X1077507Y1347138D01*
X1078052Y1347888*
Y1342638*
G54D98*
X1233366Y1368898D02*
X1238976D01*
X1235630Y1310827D02*
X1250197D01*
Y1285236*
X1235630*
Y1310827*
X1228445Y1311811D02*
X1234252D01*
X1179405Y1090282D02*
G03X1179405I-713J0D01*
G54D100*
G01X1143963Y1073577D02*
X1146150Y1072441D01*
Y1074145*
X1143963Y1073577D02*
X1147244D01*
X1123490Y1073918D02*
Y1072782D01*
X1124897Y1072668*
X1124740Y1072782*
X1124584Y1073123*
Y1073464*
X1124740Y1073805*
X1125053Y1074032*
X1125522Y1074145*
X1125834Y1074032*
X1126303Y1073918*
X1126615Y1073691*
X1126772Y1073350*
Y1073009*
X1126615Y1072668*
X1126459Y1072555*
X1126147Y1072441*
X1123490Y1052537D02*
X1123647Y1052196D01*
X1123959Y1052082*
X1124272*
X1124584Y1052196*
X1124740Y1052423*
X1124897Y1052878*
X1125053Y1053219*
X1125365Y1053446*
X1125678Y1053559*
X1126147*
X1126459Y1053446*
X1126615Y1053332*
X1126772Y1052991*
Y1052537*
X1126615Y1052196*
X1126459Y1052082*
X1126147Y1051969*
X1125678*
X1125365Y1052082*
X1125053Y1052309*
X1124897Y1052650*
X1124740Y1053105*
X1124584Y1053332*
X1124272Y1053446*
X1123959*
X1123647Y1053332*
X1123490Y1052991*
Y1052537*
X1225197Y1158899D02*
X1225015Y1158774D01*
X1224742Y1158399*
Y1161024*
X1247638Y1159293D02*
X1247456Y1159168D01*
X1247184Y1158793*
Y1161418*
X1246274Y1159418D02*
Y1159293D01*
X1246184Y1159043*
X1246093Y1158918*
X1245911Y1158793*
X1245547*
X1245365Y1158918*
X1245274Y1159043*
X1245184Y1159293*
Y1159543*
X1245274Y1159793*
X1245456Y1160168*
X1246365Y1161418*
X1245093*
X1259139Y1173271D02*
X1259264Y1173089D01*
X1259639Y1172816*
X1257014*
X1259639Y1171816D02*
Y1170816D01*
X1258639Y1171362*
Y1171089*
X1258514Y1170907*
X1258389Y1170816*
X1258014Y1170725*
X1257764*
X1257389Y1170816*
X1257139Y1170998*
X1257014Y1171271*
Y1171544*
X1257139Y1171816*
X1257264Y1171907*
X1257514Y1171998*
X1258914Y1195380D02*
X1259039D01*
X1259289Y1195289*
X1259414Y1195198*
X1259539Y1195016*
Y1194653*
X1259414Y1194471*
X1259289Y1194380*
X1259039Y1194289*
X1258789*
X1258539Y1194380*
X1258164Y1194562*
X1256914Y1195471*
Y1194198*
X1259539Y1192471D02*
X1257789Y1193380D01*
Y1192016*
X1259539Y1192471D02*
X1256914D01*
X1244824Y1206758D02*
Y1206883D01*
X1244915Y1207133*
X1245006Y1207258*
X1245188Y1207383*
X1245551*
X1245733Y1207258*
X1245824Y1207133*
X1245915Y1206883*
Y1206633*
X1245824Y1206383*
X1245642Y1206008*
X1244733Y1204758*
X1246006*
X1248006Y1207383D02*
X1247097D01*
X1247006Y1206258*
X1247097Y1206383*
X1247369Y1206508*
X1247642*
X1247915Y1206383*
X1248097Y1206133*
X1248188Y1205758*
X1248097Y1205508*
X1248006Y1205133*
X1247824Y1204883*
X1247551Y1204758*
X1247279*
X1247006Y1204883*
X1246915Y1205008*
X1246824Y1205258*
X1223315Y1207483D02*
X1224315D01*
X1223769Y1206483*
X1224042*
X1224224Y1206358*
X1224315Y1206233*
X1224406Y1205858*
Y1205608*
X1224315Y1205233*
X1224133Y1204983*
X1223860Y1204858*
X1223588*
X1223315Y1204983*
X1223224Y1205108*
X1223133Y1205358*
X1226315Y1207108D02*
X1226224Y1207358D01*
X1225951Y1207483*
X1225769*
X1225497Y1207358*
X1225315Y1206983*
X1225224Y1206358*
Y1205733*
X1225315Y1205233*
X1225497Y1204983*
X1225769Y1204858*
X1225860*
X1226133Y1204983*
X1226315Y1205233*
X1226406Y1205608*
Y1205733*
X1226315Y1206108*
X1226133Y1206358*
X1225860Y1206483*
X1225769*
X1225497Y1206358*
X1225315Y1206108*
X1225224Y1205733*
X1211227Y1192653D02*
Y1193653D01*
X1212227Y1193107*
Y1193380*
X1212352Y1193562*
X1212477Y1193653*
X1212852Y1193744*
X1213102*
X1213477Y1193653*
X1213727Y1193471*
X1213852Y1193198*
Y1192925*
X1213727Y1192653*
X1213602Y1192562*
X1213352Y1192471*
X1211227Y1195835D02*
X1213852Y1194925D01*
X1211227Y1194562D02*
Y1195835D01*
X1211427Y1171680D02*
X1213177Y1170771D01*
Y1172135*
X1211427Y1171680D02*
X1214052D01*
X1211427Y1173407D02*
X1211552Y1173135D01*
X1211552D02*
X1211802Y1173044D01*
X1212052*
X1212302Y1173135*
X1212302D02*
X1212427Y1173316D01*
X1212552Y1173680*
X1212677Y1173953*
X1212927Y1174135*
X1212927D02*
X1213177Y1174225D01*
X1213552*
X1213802Y1174135*
X1213802D02*
X1213927Y1174044D01*
X1214052Y1173771*
Y1173407*
X1213927Y1173135*
X1213927D02*
X1213802Y1173044D01*
X1213552Y1172953*
X1213177*
X1212927Y1173044*
X1212677Y1173225*
X1212552Y1173498*
X1212427Y1173862*
X1212302Y1174044*
X1212052Y1174135*
X1212052D02*
X1211802D01*
X1211802D02*
X1211552Y1174044D01*
X1211427Y1173771*
Y1173407*
X1264386Y1107608D02*
X1264113Y1107420D01*
X1263704Y1106858*
Y1110795*
X1255584Y1107496D02*
Y1107309D01*
X1255448Y1106934*
X1255311Y1106746*
X1255039Y1106559*
X1254493*
X1254220Y1106746*
X1254084Y1106934*
X1253948Y1107309*
Y1107684*
X1254084Y1108059*
X1254357Y1108621*
X1255720Y1110496*
X1253811*
X1246373Y1106401D02*
X1244873D01*
X1245691Y1107901*
X1245282*
X1245009Y1108089*
X1244873Y1108276*
X1244737Y1108839*
Y1109214*
X1244873Y1109776*
X1245146Y1110151*
X1245555Y1110339*
X1245964*
X1246373Y1110151*
X1246509Y1109964*
X1246646Y1109589*
X1254266Y1065228D02*
X1255630Y1067853D01*
X1253584*
X1254266Y1065228D02*
Y1069165D01*
X1335079Y1281309D02*
Y1279996D01*
Y1280934D02*
X1335283Y1281215D01*
X1335420Y1281309*
X1335624*
X1335761Y1281215*
X1335829Y1280934*
Y1279996*
X1336442Y1281965D02*
Y1279996D01*
Y1281965D02*
X1337056D01*
X1337261Y1281871*
X1337329Y1281777*
X1337397Y1281590*
Y1281402*
X1337329Y1281215*
X1337261Y1281121*
X1337056Y1281027*
X1336442*
X1336920D02*
X1337397Y1279996D01*
X1338011Y1281965D02*
Y1279996D01*
Y1281965D02*
X1338897D01*
X1338011Y1281027D02*
X1338556D01*
X1339579Y1281496D02*
Y1281590D01*
X1339647Y1281777*
X1339715Y1281871*
X1339851Y1281965*
X1340124*
X1340261Y1281871*
X1340329Y1281777*
X1340397Y1281590*
Y1281402*
X1340329Y1281215*
X1340192Y1280934*
X1339511Y1279996*
X1340465*
X1341761Y1281965D02*
X1341079Y1280652D01*
X1342101*
X1341761Y1281965D02*
Y1279996D01*
X1342715Y1281965D02*
Y1279996D01*
X1343533*
X1344556Y1281965D02*
X1344351Y1281871D01*
X1344215Y1281590*
X1344147Y1281121*
Y1280840*
X1344215Y1280371*
X1344351Y1280090*
X1344556Y1279996*
X1344692*
X1344897Y1280090*
X1345033Y1280371*
X1345101Y1280840*
Y1281121*
X1345033Y1281590*
X1344897Y1281871*
X1344692Y1281965*
X1344556*
X1345715Y1281590D02*
X1345851Y1281684D01*
X1346056Y1281965*
Y1279996*
X1084646Y1360533D02*
X1084418Y1360376D01*
X1084077Y1359908*
Y1363189*
X1045162Y1361280D02*
Y1361123D01*
X1045048Y1360811*
X1044935Y1360655*
X1044707Y1360498*
X1044253*
X1044026Y1360655*
X1043912Y1360811*
X1043798Y1361123*
Y1361436*
X1043912Y1361748*
X1044139Y1362217*
X1045276Y1363780*
X1043685*
X1143838Y1292451D02*
X1151438D01*
Y1288651*
X1143838*
Y1292451*
X1151438Y1284714D02*
X1143838D01*
Y1288514*
X1151438*
Y1284714*
X1360533Y1309055D02*
X1360376Y1309282D01*
X1359908Y1309623*
X1363189*
X1361280Y1348539D02*
X1361123D01*
X1360811Y1348652*
X1360655Y1348766*
X1360498Y1348993*
Y1349448*
X1360655Y1349675*
X1360811Y1349789*
X1361123Y1349902*
X1361436*
X1361748Y1349789*
X1362217Y1349562*
X1363780Y1348425*
Y1350016*
G54D115*
X1076142Y1325709D02*
G03X1076142I-1457J0D01*
G01X1066142D02*
G03X1066142I-1457J0D01*
G01X1086142D02*
G03X1086142I-1457J0D01*
G01X1139370Y1201693D02*
X1097244D01*
X1139370D02*
Y1333583D01*
X1000000D02*
X1139370D01*
X1000000D02*
Y1201693D01*
X1042126D02*
X1000000D01*
X1042126Y1209567D02*
Y1201693D01*
Y1209567D02*
X1097244D01*
Y1201693D02*
Y1209567D01*
X1015748Y1323740D02*
G03X1015748I-5906J0D01*
G01Y1211535D02*
G03X1015748I-5906J0D01*
G01X1135433D02*
G03X1135433I-5905J0D01*
G01Y1323740D02*
G03X1135433I-5905J0D01*
G01X1001772Y1312913D02*
Y1222362D01*
Y1312913D02*
X1137598D01*
Y1222362D02*
X1001772D01*
X1137598D02*
Y1312913D01*
X1127598Y1246772D02*
Y1304646D01*
X1011771D02*
Y1246772D01*
X1127598D02*
X1011771D01*
Y1304646D02*
X1127598D01*
X1056142Y1325709D02*
G03X1056142I-1457J0D01*
G01X1076142D02*
G03X1076142I-1457J0D01*
G01X1066142D02*
G03X1066142I-1457J0D01*
G01X1086142D02*
G03X1086142I-1457J0D01*
G01X1139370Y1201693D02*
X1097244D01*
X1139370D02*
Y1333583D01*
X1000000D02*
X1139370D01*
X1000000D02*
Y1201693D01*
X1042126D02*
X1000000D01*
X1042126Y1209567D02*
Y1201693D01*
Y1209567D02*
X1097244D01*
Y1201693D02*
Y1209567D01*
X1015748Y1323740D02*
G03X1015748I-5906J0D01*
G01Y1211535D02*
G03X1015748I-5906J0D01*
G01X1135433D02*
G03X1135433I-5905J0D01*
G01Y1323740D02*
G03X1135433I-5905J0D01*
G01X1001772Y1312913D02*
Y1222362D01*
Y1312913D02*
X1137598D01*
Y1222362D02*
X1001772D01*
X1137598D02*
Y1312913D01*
X1127598Y1246772D02*
Y1304646D01*
X1011771D02*
Y1246772D01*
X1127598D02*
X1011771D01*
Y1304646D02*
X1127598D01*
X1056142Y1325709D02*
G03X1056142I-1457J0D01*
G54D217*
G01X1171622Y1172497D02*
G03X1171622I-787J0D01*
G01X1152756Y1055906D02*
G03X1152756I-787J0D01*
G01X1073223Y1353543D02*
G03X1073223I-787J0D01*
G01X1354331Y1321265D02*
G03X1354331I-788J0D01*
G54D257*
G01X1180315Y1092520D02*
Y1080709D01*
X1195276*
Y1092520*
X1180315*
G54D258*
X1212854Y1144587D02*
X1257539D01*
Y1126280*
X1212854*
Y1144587*
G54D259*
X1069016Y1204515D02*
Y1202640D01*
X1069107Y1202265*
X1069288Y1202015*
X1069561Y1201890*
X1069743*
X1070016Y1202015*
X1070198Y1202265*
X1070288Y1202640*
Y1204515*
X1071107Y1204015D02*
X1071288Y1204140D01*
X1071561Y1204515*
Y1201890*
X1072379Y1204015D02*
X1072561Y1204140D01*
X1072834Y1204515*
Y1201890*
X1325315Y1330696D02*
Y1328071D01*
Y1330696D02*
X1326133D01*
X1326406Y1330571*
X1326497Y1330446*
X1326588Y1330196*
Y1329946*
X1326497Y1329696*
X1326406Y1329571*
X1326133Y1329446*
X1325315*
X1325951D02*
X1326588Y1328071D01*
X1328588Y1330696D02*
X1327679D01*
X1327588Y1329571*
X1327679Y1329696*
X1327951Y1329821*
X1328224*
X1328497Y1329696*
X1328679Y1329446*
X1328770Y1329071*
X1328679Y1328821*
X1328588Y1328446*
X1328406Y1328196*
X1328133Y1328071*
X1327860*
X1327588Y1328196*
X1327497Y1328321*
X1327406Y1328571*
X1329770Y1330696D02*
X1330770D01*
X1330224Y1329696*
X1330497*
X1330679Y1329571*
X1330770Y1329446*
X1330860Y1329071*
Y1328821*
X1330770Y1328446*
X1330588Y1328196*
X1330315Y1328071*
X1330042*
X1329770Y1328196*
X1329679Y1328321*
X1329588Y1328571*
X1325787Y1341090D02*
Y1338465D01*
Y1341090D02*
X1326606D01*
X1326878Y1340965*
X1326969Y1340840*
X1327060Y1340590*
Y1340340*
X1326969Y1340090*
X1326878Y1339965*
X1326606Y1339840*
X1325787*
X1326424D02*
X1327060Y1338465D01*
X1329060Y1341090D02*
X1328151D01*
X1328060Y1339965*
X1328151Y1340090*
X1328424Y1340215*
X1328696*
X1328969Y1340090*
X1329151Y1339840*
X1329242Y1339465*
X1329151Y1339215*
X1329060Y1338840*
X1328878Y1338590*
X1328606Y1338465*
X1328333*
X1328060Y1338590*
X1327969Y1338715*
X1327878Y1338965*
X1330969Y1341090D02*
X1330060Y1339340D01*
X1331424*
X1330969Y1341090D02*
Y1338465D01*
X1351425Y1330812D02*
X1351175Y1330722D01*
X1350925Y1330540*
X1350800Y1330358*
Y1329994*
X1350925Y1329812*
X1351175Y1329631*
X1351425Y1329540*
X1351800Y1329449*
X1352425*
X1352800Y1329540*
X1353050Y1329631*
X1353300Y1329812*
X1353425Y1329994*
Y1330358*
X1353300Y1330540*
X1353050Y1330722*
X1352800Y1330812*
X1351175Y1332722D02*
X1350925Y1332631D01*
X1350800Y1332358*
Y1332176*
X1350925Y1331903*
X1351300Y1331722*
X1351925Y1331631*
X1352550*
X1353050Y1331722*
X1353300Y1331903*
X1353425Y1332176*
Y1332267*
X1353300Y1332540*
X1353050Y1332722*
X1352675Y1332812*
X1352550*
X1352175Y1332722*
X1351925Y1332540*
X1351800Y1332267*
Y1332176*
X1351925Y1331903*
X1352175Y1331722*
X1352550Y1331631*
X1351175Y1334722D02*
X1350925Y1334631D01*
X1350800Y1334358*
Y1334176*
X1350925Y1333903*
X1351300Y1333722*
X1351925Y1333631*
X1352550*
X1353050Y1333722*
X1353300Y1333903*
X1353425Y1334176*
Y1334267*
X1353300Y1334540*
X1353050Y1334722*
X1352675Y1334812*
X1352550*
X1352175Y1334722*
X1351925Y1334540*
X1351800Y1334267*
Y1334176*
X1351925Y1333903*
X1352175Y1333722*
X1352550Y1333631*
X1325315Y1336090D02*
Y1333465D01*
Y1336090D02*
X1326133D01*
X1326406Y1335965*
X1326497Y1335840*
X1326588Y1335590*
Y1335340*
X1326497Y1335090*
X1326406Y1334965*
X1326133Y1334840*
X1325315*
X1325951D02*
X1326588Y1333465D01*
X1328588Y1336090D02*
X1327679D01*
X1327588Y1334965*
X1327679Y1335090*
X1327951Y1335215*
X1328224*
X1328497Y1335090*
X1328679Y1334840*
X1328770Y1334465*
X1328679Y1334215*
X1328588Y1333840*
X1328406Y1333590*
X1328133Y1333465*
X1327860*
X1327588Y1333590*
X1327497Y1333715*
X1327406Y1333965*
X1329679Y1335465D02*
Y1335590D01*
X1329770Y1335840*
X1329860Y1335965*
X1330042Y1336090*
X1330406*
X1330588Y1335965*
X1330679Y1335840*
X1330770Y1335590*
Y1335340*
X1330679Y1335090*
X1330497Y1334715*
X1329588Y1333465*
X1330860*
X1264528Y1241090D02*
Y1238465D01*
Y1241090D02*
X1265346D01*
X1265618Y1240965*
X1265709Y1240840*
X1265800Y1240590*
Y1240340*
X1265709Y1240090*
X1265618Y1239965*
X1265346Y1239840*
X1264528*
X1265164D02*
X1265800Y1238465D01*
X1267800Y1241090D02*
X1266891D01*
X1266800Y1239965*
X1266891Y1240090*
X1267164Y1240215*
X1267437*
X1267709Y1240090*
X1267891Y1239840*
X1267982Y1239465*
X1267891Y1239215*
X1267800Y1238840*
X1267618Y1238590*
X1267346Y1238465*
X1267073*
X1266800Y1238590*
X1266709Y1238715*
X1266618Y1238965*
X1269982Y1240215D02*
X1269891Y1239840D01*
X1269709Y1239590*
X1269437Y1239465*
X1269346*
X1269073Y1239590*
X1268891Y1239840*
X1268800Y1240215*
Y1240340*
X1268891Y1240715*
X1269073Y1240965*
X1269346Y1241090*
X1269437*
X1269709Y1240965*
X1269891Y1240715*
X1269982Y1240215*
Y1239590*
X1269891Y1238965*
X1269709Y1238590*
X1269437Y1238465*
X1269255*
X1268982Y1238590*
X1268891Y1238840*
X1265039Y1236759D02*
Y1234134D01*
Y1236759D02*
X1265858D01*
X1266130Y1236634*
X1266221Y1236509*
X1266312Y1236259*
Y1236009*
X1266221Y1235759*
X1266130Y1235634*
X1265858Y1235509*
X1265039*
X1265676D02*
X1266312Y1234134D01*
X1268312Y1236759D02*
X1267403D01*
X1267312Y1235634*
X1267403Y1235759*
X1267676Y1235884*
X1267948*
X1268221Y1235759*
X1268403Y1235509*
X1268494Y1235134*
X1268403Y1234884*
X1268312Y1234509*
X1268130Y1234259*
X1267858Y1234134*
X1267585*
X1267312Y1234259*
X1267221Y1234384*
X1267130Y1234634*
X1269767Y1236759D02*
X1269494Y1236634D01*
X1269403Y1236384*
Y1236134*
X1269494Y1235884*
X1269676Y1235759*
X1270039Y1235634*
X1270312Y1235509*
X1270494Y1235259*
X1270585Y1235009*
Y1234634*
X1270494Y1234384*
X1270403Y1234259*
X1270130Y1234134*
X1269767*
X1269494Y1234259*
X1269403Y1234384*
X1269312Y1234634*
Y1235009*
X1269403Y1235259*
X1269585Y1235509*
X1269858Y1235634*
X1270221Y1235759*
X1270403Y1235884*
X1270494Y1236134*
Y1236384*
X1270403Y1236634*
X1270130Y1236759*
X1269767*
X1266299Y1231208D02*
Y1228583D01*
Y1231208D02*
X1267117D01*
X1267390Y1231083*
X1267481Y1230958*
X1267572Y1230708*
Y1230458*
X1267481Y1230208*
X1267390Y1230083*
X1267117Y1229958*
X1266299*
X1266936D02*
X1267572Y1228583D01*
X1269481Y1230833D02*
X1269390Y1231083D01*
X1269117Y1231208*
X1268936*
X1268663Y1231083*
X1268481Y1230708*
X1268390Y1230083*
Y1229458*
X1268481Y1228958*
X1268663Y1228708*
X1268936Y1228583*
X1269026*
X1269299Y1228708*
X1269481Y1228958*
X1269572Y1229333*
Y1229458*
X1269481Y1229833*
X1269299Y1230083*
X1269026Y1230208*
X1268936*
X1268663Y1230083*
X1268481Y1229833*
X1268390Y1229458*
X1270390Y1230708D02*
X1270572Y1230833D01*
X1270845Y1231208*
Y1228583*
X1265433Y1247034D02*
Y1244409D01*
Y1247034D02*
X1266251D01*
X1266524Y1246909*
X1266615Y1246784*
X1266706Y1246534*
Y1246284*
X1266615Y1246034*
X1266524Y1245909*
X1266251Y1245784*
X1265433*
X1266069D02*
X1266706Y1244409D01*
X1268615Y1246659D02*
X1268524Y1246909D01*
X1268251Y1247034*
X1268069*
X1267797Y1246909*
X1267615Y1246534*
X1267524Y1245909*
Y1245284*
X1267615Y1244784*
X1267797Y1244534*
X1268069Y1244409*
X1268160*
X1268433Y1244534*
X1268615Y1244784*
X1268706Y1245159*
Y1245284*
X1268615Y1245659*
X1268433Y1245909*
X1268160Y1246034*
X1268069*
X1267797Y1245909*
X1267615Y1245659*
X1267524Y1245284*
X1269706Y1247034D02*
X1270706D01*
X1270160Y1246034*
X1270433*
X1270615Y1245909*
X1270706Y1245784*
X1270797Y1245409*
Y1245159*
X1270706Y1244784*
X1270524Y1244534*
X1270251Y1244409*
X1269979*
X1269706Y1244534*
X1269615Y1244659*
X1269524Y1244909*
X1281693Y1159830D02*
Y1157205D01*
Y1159830D02*
X1282511D01*
X1282784Y1159705*
X1282875Y1159580*
X1282966Y1159330*
Y1159080*
X1282875Y1158830*
X1282784Y1158705*
X1282511Y1158580*
X1281693*
X1282329D02*
X1282966Y1157205D01*
X1284693Y1159830D02*
X1283784Y1158080D01*
X1285147*
X1284693Y1159830D02*
Y1157205D01*
X1287147Y1159830D02*
X1286238D01*
X1286147Y1158705*
X1286238Y1158830*
X1286511Y1158955*
X1286784*
X1287057Y1158830*
X1287238Y1158580*
X1287329Y1158205*
X1287238Y1157955*
X1287147Y1157580*
X1286966Y1157330*
X1286693Y1157205*
X1286420*
X1286147Y1157330*
X1286057Y1157455*
X1285966Y1157705*
X1285931Y1164008D02*
X1285840Y1164258D01*
X1285658Y1164508*
X1285476Y1164633*
X1285112*
X1284931Y1164508*
X1284749Y1164258*
X1284658Y1164008*
X1284567Y1163633*
Y1163008*
X1284658Y1162633*
X1284749Y1162383*
X1284931Y1162133*
X1285112Y1162008*
X1285476*
X1285658Y1162133*
X1285840Y1162383*
X1285931Y1162633*
X1286931Y1164633D02*
X1287931D01*
X1287385Y1163633*
X1287658*
X1287840Y1163508*
X1287931Y1163383*
X1288021Y1163008*
Y1162758*
X1287931Y1162383*
X1287749Y1162133*
X1287476Y1162008*
X1287203*
X1286931Y1162133*
X1286840Y1162258*
X1286749Y1162508*
X1289385Y1164633D02*
X1289112Y1164508D01*
X1288931Y1164133*
X1288840Y1163508*
Y1163133*
X1288931Y1162508*
X1289112Y1162133*
X1289385Y1162008*
X1289567*
X1289840Y1162133*
X1290021Y1162508*
X1290112Y1163133*
Y1163508*
X1290021Y1164133*
X1289840Y1164508*
X1289567Y1164633*
X1289385*
X1346228Y1187427D02*
X1345978Y1187336D01*
X1345728Y1187154*
X1345603Y1186972*
Y1186608*
X1345728Y1186427*
X1345978Y1186245*
X1346228Y1186154*
X1346603Y1186063*
X1347228*
X1347603Y1186154*
X1347853Y1186245*
X1348103Y1186427*
X1348228Y1186608*
Y1186972*
X1348103Y1187154*
X1347853Y1187336*
X1347603Y1187427*
X1345603Y1189427D02*
Y1188518D01*
X1346728Y1188427*
X1346603Y1188518*
X1346478Y1188790*
Y1189063*
X1346603Y1189336*
X1346853Y1189518*
X1347228Y1189608*
X1347478Y1189518*
X1347853Y1189427*
X1348103Y1189245*
X1348228Y1188972*
Y1188699*
X1348103Y1188427*
X1347978Y1188336*
X1347728Y1188245*
X1345603Y1191608D02*
Y1190699D01*
X1346728Y1190608*
X1346603Y1190699*
X1346478Y1190972*
Y1191245*
X1346603Y1191518*
X1346853Y1191699*
X1347228Y1191790*
X1347478Y1191699*
X1347853Y1191608*
X1348103Y1191427*
X1348228Y1191154*
Y1190881*
X1348103Y1190608*
X1347978Y1190518*
X1347728Y1190427*
X1341430Y1186575D02*
X1344055D01*
X1341430D02*
Y1187393D01*
X1341555Y1187666*
X1341680Y1187757*
X1341930Y1187848*
X1342180*
X1342430Y1187757*
X1342555Y1187666*
X1342680Y1187393*
Y1186575*
Y1187211D02*
X1344055Y1187848D01*
X1341930Y1188666D02*
X1341805Y1188848D01*
X1341430Y1189120*
X1344055*
X1341430Y1191120D02*
Y1190211D01*
X1342555Y1190120*
X1342430Y1190211*
X1342305Y1190484*
Y1190757*
X1342430Y1191029*
X1342680Y1191211*
X1343055Y1191302*
X1343305Y1191211*
X1343680Y1191120*
X1343930Y1190938*
X1344055Y1190666*
Y1190393*
X1343930Y1190120*
X1343805Y1190029*
X1343555Y1189938*
X1337414Y1186890D02*
X1340039D01*
X1337414D02*
Y1187708D01*
X1337539Y1187981*
X1337664Y1188072*
X1337914Y1188162*
X1338164*
X1338414Y1188072*
X1338539Y1187981*
X1338664Y1187708*
Y1186890*
Y1187526D02*
X1340039Y1188162D01*
X1337914Y1188981D02*
X1337789Y1189162D01*
X1337414Y1189435*
X1340039*
X1337414Y1190435D02*
Y1191435D01*
X1338414Y1190890*
Y1191162*
X1338539Y1191344*
X1338664Y1191435*
X1339039Y1191526*
X1339289*
X1339664Y1191435*
X1339914Y1191253*
X1340039Y1190981*
Y1190708*
X1339914Y1190435*
X1339789Y1190344*
X1339539Y1190253*
X1257717Y1364672D02*
Y1362797D01*
X1257807Y1362422*
X1257989Y1362172*
X1258262Y1362047*
X1258444*
X1258717Y1362172*
X1258898Y1362422*
X1258989Y1362797*
Y1364672*
X1260989Y1363797D02*
X1260898Y1363422D01*
X1260717Y1363172*
X1260444Y1363047*
X1260353*
X1260080Y1363172*
X1259898Y1363422*
X1259807Y1363797*
Y1363922*
X1259898Y1364297*
X1260080Y1364547*
X1260353Y1364672*
X1260444*
X1260717Y1364547*
X1260898Y1364297*
X1260989Y1363797*
Y1363172*
X1260898Y1362547*
X1260717Y1362172*
X1260444Y1362047*
X1260262*
X1259989Y1362172*
X1259898Y1362422*
X1275402Y1374120D02*
X1275152Y1374029D01*
X1274902Y1373847*
X1274777Y1373665*
Y1373301*
X1274902Y1373120*
X1275152Y1372938*
X1275402Y1372847*
X1275777Y1372756*
X1276402*
X1276777Y1372847*
X1277027Y1372938*
X1277277Y1373120*
X1277402Y1373301*
Y1373665*
X1277277Y1373847*
X1277027Y1374029*
X1276777Y1374120*
X1274777Y1376120D02*
Y1375210D01*
X1275902Y1375120*
X1275777Y1375210*
X1275652Y1375483*
Y1375756*
X1275777Y1376029*
X1276027Y1376210*
X1276402Y1376301*
X1276652Y1376210*
X1277027Y1376120*
X1277277Y1375938*
X1277402Y1375665*
Y1375392*
X1277277Y1375120*
X1277152Y1375029*
X1276902Y1374938*
X1221581Y1391759D02*
Y1389134D01*
X1220945Y1391759D02*
X1222218D01*
X1223036D02*
Y1389134D01*
Y1391759D02*
X1223854D01*
X1224127Y1391634*
X1224218Y1391509*
X1224309Y1391259*
Y1390884*
X1224218Y1390634*
X1224127Y1390509*
X1223854Y1390384*
X1223036*
X1226399Y1391759D02*
X1225490Y1389134D01*
X1225127Y1391759D02*
X1226399D01*
X1336378Y1357822D02*
Y1355197D01*
Y1357822D02*
X1337196D01*
X1337469Y1357697*
X1337560Y1357572*
X1337651Y1357322*
Y1357072*
X1337560Y1356822*
X1337469Y1356697*
X1337196Y1356572*
X1336378*
X1337014D02*
X1337651Y1355197D01*
X1338469Y1357322D02*
X1338651Y1357447D01*
X1338923Y1357822*
Y1355197*
X1340196Y1357822D02*
X1339923Y1357697D01*
X1339832Y1357447*
X1339832D02*
Y1357197D01*
X1339832D02*
X1339923Y1356947D01*
X1340105Y1356822*
X1340469Y1356697*
X1340742Y1356572*
X1340923Y1356322*
X1341014Y1356072*
Y1355697*
X1340923Y1355447*
X1340832Y1355322*
X1340832D02*
X1340560Y1355197D01*
X1340196*
X1339923Y1355322*
X1339832Y1355447*
X1339832D02*
X1339742Y1355697D01*
Y1356072*
X1339832Y1356322*
X1339832D02*
X1340014Y1356572D01*
X1340287Y1356697*
X1340651Y1356822*
X1340832Y1356947*
X1340832D02*
X1340923Y1357197D01*
Y1357447*
X1340832Y1357697*
X1340832D02*
X1340560Y1357822D01*
X1340196*
X1337584Y1363024D02*
X1337493Y1363274D01*
X1337311Y1363524*
X1337130Y1363649*
X1336766*
X1336584Y1363524*
X1336402Y1363274*
X1336311Y1363024*
X1336220Y1362649*
Y1362024*
X1336311Y1361649*
X1336402Y1361399*
X1336584Y1361149*
X1336766Y1361024*
X1337130*
X1337311Y1361149*
X1337493Y1361399*
X1337584Y1361649*
X1339493Y1363274D02*
X1339402Y1363524D01*
X1339130Y1363649*
X1338948*
X1338675Y1363524*
X1338493Y1363149*
X1338402Y1362524*
Y1361899*
X1338493Y1361399*
X1338675Y1361149*
X1338948Y1361024*
X1339039*
X1339311Y1361149*
X1339493Y1361399*
X1339584Y1361774*
Y1361899*
X1339493Y1362274*
X1339311Y1362524*
X1339039Y1362649*
X1338948*
X1338675Y1362524*
X1338493Y1362274*
X1338402Y1361899*
X1341584Y1363649D02*
X1340675D01*
X1340584Y1362524*
X1340675Y1362649*
X1340948Y1362774*
X1341220*
X1341493Y1362649*
X1341675Y1362399*
X1341766Y1362024*
X1341675Y1361774*
X1341584Y1361399*
X1341402Y1361149*
X1341130Y1361024*
X1340857*
X1340584Y1361149*
X1340493Y1361274*
X1340402Y1361524*
X1332139Y1318228D02*
X1334764D01*
X1332139D02*
Y1319047D01*
X1332264Y1319319*
X1332389Y1319410*
X1332639Y1319501*
X1332889*
X1333139Y1319410*
X1333264Y1319319*
X1333389Y1319047*
Y1318228*
Y1318865D02*
X1334764Y1319501D01*
X1332139Y1321228D02*
X1333889Y1320319D01*
Y1321683*
X1332139Y1321228D02*
X1334764D01*
X1332139Y1323774D02*
X1334764Y1322865D01*
X1332139Y1322501D02*
Y1323774D01*
X1187213Y1358765D02*
X1186963Y1358674D01*
X1186713Y1358492*
X1186588Y1358311*
Y1357947*
X1186713Y1357765*
X1186963Y1357583*
X1187213Y1357492*
X1187588Y1357402*
X1188213*
X1188588Y1357492*
X1188838Y1357583*
X1189088Y1357765*
X1189213Y1357947*
Y1358311*
X1189088Y1358492*
X1188838Y1358674*
X1188588Y1358765*
X1186963Y1360674D02*
X1186713Y1360583D01*
X1186588Y1360311*
Y1360129*
X1186713Y1359856*
X1187088Y1359674*
X1187713Y1359583*
X1188338*
X1188838Y1359674*
X1189088Y1359856*
X1189213Y1360129*
Y1360220*
X1189088Y1360492*
X1188838Y1360674*
X1188463Y1360765*
X1188338*
X1187963Y1360674*
X1187713Y1360492*
X1187588Y1360220*
Y1360129*
X1187713Y1359856*
X1187963Y1359674*
X1188338Y1359583*
X1186588Y1362492D02*
X1188338Y1361583D01*
Y1362947*
X1186588Y1362492D02*
X1189213D01*
X1169417Y1358253D02*
X1169167Y1358162D01*
X1168917Y1357981*
X1168792Y1357799*
Y1357435*
X1168917Y1357253*
X1169167Y1357072*
X1169417Y1356981*
X1169792Y1356890*
X1170417*
X1170792Y1356981*
X1171042Y1357072*
X1171292Y1357253*
X1171417Y1357435*
Y1357799*
X1171292Y1357981*
X1171042Y1358162*
X1170792Y1358253*
X1169167Y1360162D02*
X1168917Y1360072D01*
X1168792Y1359799*
Y1359617*
X1168917Y1359344*
X1169292Y1359162*
X1169917Y1359072*
X1170542*
X1171042Y1359162*
X1171292Y1359344*
X1171417Y1359617*
Y1359708*
X1171292Y1359981*
X1171042Y1360162*
X1170667Y1360253*
X1170542*
X1170167Y1360162*
X1169917Y1359981*
X1169792Y1359708*
Y1359617*
X1169917Y1359344*
X1170167Y1359162*
X1170542Y1359072*
X1168792Y1361617D02*
X1168917Y1361344D01*
X1169292Y1361162*
X1169917Y1361072*
X1170292*
X1170917Y1361162*
X1171292Y1361344*
X1171417Y1361617*
Y1361799*
X1171292Y1362072*
X1170917Y1362253*
X1170292Y1362344*
X1169917*
X1169292Y1362253*
X1168917Y1362072*
X1168792Y1361799*
Y1361617*
X1152134Y1358883D02*
X1151884Y1358792D01*
X1151634Y1358611*
X1151509Y1358429*
Y1358065*
X1151634Y1357883*
X1151884Y1357702*
X1152134Y1357611*
X1152509Y1357520*
X1153134*
X1153509Y1357611*
X1153759Y1357702*
X1154009Y1357883*
X1154134Y1358065*
Y1358429*
X1154009Y1358611*
X1153759Y1358792*
X1153509Y1358883*
X1151884Y1360792D02*
X1151634Y1360702D01*
X1151509Y1360429*
Y1360247*
X1151634Y1359974*
X1152009Y1359792*
X1152634Y1359702*
X1153259*
X1153759Y1359792*
X1154009Y1359974*
X1154134Y1360247*
Y1360338*
X1154009Y1360611*
X1153759Y1360792*
X1153384Y1360883*
X1153259*
X1152884Y1360792*
X1152634Y1360611*
X1152509Y1360338*
Y1360247*
X1152634Y1359974*
X1152884Y1359792*
X1153259Y1359702*
X1152009Y1361702D02*
X1151884Y1361883D01*
X1151509Y1362156*
X1154134*
X1129181Y1354513D02*
X1128931Y1354422D01*
X1128681Y1354241*
X1128556Y1354059*
Y1353695*
X1128681Y1353513*
X1128931Y1353331*
X1129181Y1353241*
X1129556Y1353150*
X1130181*
X1130556Y1353241*
X1130806Y1353331*
X1131056Y1353513*
X1131181Y1353695*
Y1354059*
X1131056Y1354241*
X1130806Y1354422*
X1130556Y1354513*
X1128556Y1356513D02*
Y1355604D01*
X1129681Y1355513*
X1129556Y1355604*
X1129431Y1355877*
Y1356150*
X1129556Y1356422*
X1129806Y1356604*
X1130181Y1356695*
X1130431Y1356604*
X1130806Y1356513*
X1131056Y1356331*
X1131181Y1356059*
Y1355786*
X1131056Y1355513*
X1130931Y1355422*
X1130681Y1355331*
X1129431Y1358695D02*
X1129806Y1358604D01*
X1130056Y1358422*
X1130181Y1358150*
Y1358059*
X1130056Y1357786*
X1129806Y1357604*
X1129431Y1357513*
X1129306*
X1128931Y1357604*
X1128681Y1357786*
X1128556Y1358059*
Y1358150*
X1128681Y1358422*
X1128931Y1358604*
X1129431Y1358695*
X1130056*
X1130681Y1358604*
X1131056Y1358422*
X1131181Y1358150*
Y1357968*
X1131056Y1357695*
X1130806Y1357604*
X1112724Y1354592D02*
X1112474Y1354501D01*
X1112224Y1354319*
X1112099Y1354137*
Y1353774*
X1112224Y1353592*
X1112474Y1353410*
X1112724Y1353319*
X1113099Y1353228*
X1113724*
X1114099Y1353319*
X1114349Y1353410*
X1114599Y1353592*
X1114724Y1353774*
Y1354137*
X1114599Y1354319*
X1114349Y1354501*
X1114099Y1354592*
X1112099Y1356592D02*
Y1355683D01*
X1113224Y1355592*
X1113099Y1355683*
X1112974Y1355956*
Y1356228*
X1113099Y1356501*
X1113349Y1356683*
X1113724Y1356774*
X1113974Y1356683*
X1114349Y1356592*
X1114599Y1356410*
X1114724Y1356137*
Y1355865*
X1114599Y1355592*
X1114474Y1355501*
X1114224Y1355410*
X1112099Y1358865D02*
X1114724Y1357956D01*
X1112099Y1357592D02*
Y1358865D01*
X1096110Y1354513D02*
X1095860Y1354422D01*
X1095610Y1354241*
X1095485Y1354059*
Y1353695*
X1095610Y1353513*
X1095860Y1353331*
X1096110Y1353241*
X1096485Y1353150*
X1097110*
X1097485Y1353241*
X1097735Y1353331*
X1097985Y1353513*
X1098110Y1353695*
Y1354059*
X1097985Y1354241*
X1097735Y1354422*
X1097485Y1354513*
X1095485Y1356513D02*
Y1355604D01*
X1096610Y1355513*
X1096485Y1355604*
X1096360Y1355877*
Y1356150*
X1096485Y1356422*
X1096735Y1356604*
X1097110Y1356695*
X1097360Y1356604*
X1097735Y1356513*
X1097985Y1356331*
X1098110Y1356059*
Y1355786*
X1097985Y1355513*
X1097860Y1355422*
X1097610Y1355331*
X1095485Y1357968D02*
X1095610Y1357695D01*
X1095860Y1357604*
X1096110*
X1096360Y1357695*
X1096485Y1357877*
X1096610Y1358241*
X1096735Y1358513*
X1096985Y1358695*
X1097235Y1358786*
X1097610*
X1097860Y1358695*
X1097985Y1358604*
X1098110Y1358331*
Y1357968*
X1097985Y1357695*
X1097860Y1357604*
X1097610Y1357513*
X1097235*
X1096985Y1357604*
X1096735Y1357786*
X1096610Y1358059*
X1096485Y1358422*
X1096360Y1358604*
X1096110Y1358695*
X1095860*
X1095610Y1358604*
X1095485Y1358331*
Y1357968*
X1279080Y1288299D02*
X1278989Y1288549D01*
X1278807Y1288799*
X1278626Y1288924*
X1278262*
X1278080Y1288799*
X1277898Y1288549*
X1277807Y1288299*
X1277717Y1287924*
Y1287299*
X1277807Y1286924*
X1277898Y1286674*
X1278080Y1286424*
X1278262Y1286299*
X1278626*
X1278807Y1286424*
X1278989Y1286674*
X1279080Y1286924*
X1279898Y1288424D02*
X1280080Y1288549D01*
X1280353Y1288924*
Y1286299*
X1281171Y1288424D02*
X1281353Y1288549D01*
X1281626Y1288924*
Y1286299*
X1275000Y1295184D02*
Y1292559D01*
Y1295184D02*
X1275818D01*
X1276091Y1295059*
X1276182Y1294934*
X1276273Y1294684*
Y1294434*
X1276182Y1294184*
X1276091Y1294059*
X1275818Y1293934*
X1275000*
X1275636D02*
X1276273Y1292559D01*
X1277273Y1295184D02*
X1278273D01*
X1277727Y1294184*
X1278000*
X1278182Y1294059*
X1278273Y1293934*
X1278364Y1293559*
Y1293309*
X1278273Y1292934*
X1278091Y1292684*
X1277818Y1292559*
X1277545*
X1277273Y1292684*
X1277182Y1292809*
X1277091Y1293059*
X1214238Y1281134D02*
X1214147Y1281384D01*
X1213965Y1281634*
X1213783Y1281759*
X1213419*
X1213238Y1281634*
X1213056Y1281384*
X1212965Y1281134*
X1212874Y1280759*
Y1280134*
X1212965Y1279759*
X1213056Y1279509*
X1213238Y1279259*
X1213419Y1279134*
X1213783*
X1213965Y1279259*
X1214147Y1279509*
X1214238Y1279759*
X1215965Y1281759D02*
X1215056Y1280009D01*
X1216419*
X1215965Y1281759D02*
Y1279134D01*
X1218419Y1280884D02*
X1218329Y1280509D01*
X1218147Y1280259*
X1217874Y1280134*
X1217783*
X1217510Y1280259*
X1217329Y1280509*
X1217238Y1280884*
Y1281009*
X1217329Y1281384*
X1217510Y1281634*
X1217783Y1281759*
X1217874*
X1218147Y1281634*
X1218329Y1281384*
X1218419Y1280884*
Y1280259*
X1218329Y1279634*
X1218147Y1279259*
X1217874Y1279134*
X1217692*
X1217419Y1279259*
X1217329Y1279509*
X1240197Y1314200D02*
Y1312325D01*
X1240288Y1311950*
X1240470Y1311700*
X1240742Y1311575*
X1240924*
X1241197Y1311700*
X1241379Y1311950*
X1241470Y1312325*
Y1314200*
X1242288Y1313700D02*
X1242470Y1313825D01*
X1242742Y1314200*
Y1311575*
X1244106Y1314200D02*
X1243833Y1314075D01*
X1243651Y1313700*
X1243560Y1313075*
Y1312700*
X1243651Y1312075*
X1243833Y1311700*
X1244106Y1311575*
X1244288*
X1244560Y1311700*
X1244742Y1312075*
X1244833Y1312700*
Y1313075*
X1244742Y1313700*
X1244560Y1314075*
X1244288Y1314200*
X1244106*
X1108898Y1196759D02*
Y1194134D01*
Y1196759D02*
X1109716D01*
X1109989Y1196634*
X1110079Y1196509*
X1110170Y1196259*
Y1196009*
X1110079Y1195759*
X1109989Y1195634*
X1109716Y1195509*
X1108898*
X1109534D02*
X1110170Y1194134D01*
X1112261Y1196759D02*
X1111352Y1194134D01*
X1110989Y1196759D02*
X1112261D01*
X1113170Y1196134D02*
Y1196259D01*
X1113261Y1196509*
X1113352Y1196634*
X1113534Y1196759*
X1113898*
X1114079Y1196634*
X1114170Y1196509*
X1114261Y1196259*
Y1196009*
X1114170Y1195759*
X1113989Y1195384*
X1113079Y1194134*
X1114352*
X1109213Y1191680D02*
Y1189055D01*
Y1191680D02*
X1110031D01*
X1110304Y1191555*
X1110394Y1191430*
X1110485Y1191180*
Y1190930*
X1110394Y1190680*
X1110304Y1190555*
X1110031Y1190430*
X1109213*
X1109849D02*
X1110485Y1189055D01*
X1112576Y1191680D02*
X1111667Y1189055D01*
X1111304Y1191680D02*
X1112576D01*
X1113576D02*
X1114576D01*
X1114031Y1190680*
X1114304*
X1114485Y1190555*
X1114576Y1190430*
X1114667Y1190055*
Y1189805*
X1114576Y1189430*
X1114394Y1189180*
X1114122Y1189055*
X1113849*
X1113576Y1189180*
X1113485Y1189305*
X1113394Y1189555*
X1185013Y1247211D02*
X1184831Y1247461D01*
X1184558Y1247586*
X1184195*
X1183922Y1247461*
X1183740Y1247211*
Y1246961*
X1183831Y1246711*
X1183922Y1246586*
X1184104Y1246461*
X1184649Y1246211*
X1184831Y1246086*
X1184922Y1245961*
X1185013Y1245711*
Y1245336*
X1184831Y1245086*
X1184558Y1244961*
X1184195*
X1183922Y1245086*
X1183740Y1245336*
X1185922Y1246961D02*
Y1247086D01*
X1186013Y1247336*
X1186104Y1247461*
X1186286Y1247586*
X1186649*
X1186831Y1247461*
X1186922Y1247336*
X1187013Y1247086*
Y1246836*
X1186922Y1246586*
X1186740Y1246211*
X1185831Y1244961*
X1187104*
X1201102Y1235735D02*
Y1233110D01*
Y1235735D02*
X1201921D01*
X1202193Y1235610*
X1202284Y1235485*
X1202375Y1235235*
Y1234985*
X1202284Y1234735*
X1202193Y1234610*
X1201921Y1234485*
X1201102*
X1201739D02*
X1202375Y1233110D01*
X1203193Y1235235D02*
X1203375Y1235360D01*
X1203648Y1235735*
Y1233110*
X1205011Y1235735D02*
X1204739Y1235610D01*
X1204557Y1235235*
X1204466Y1234610*
Y1234235*
X1204557Y1233610*
X1204739Y1233235*
X1205011Y1233110*
X1205193*
X1205466Y1233235*
X1205648Y1233610*
X1205739Y1234235*
Y1234610*
X1205648Y1235235*
X1205466Y1235610*
X1205193Y1235735*
X1205011*
X1190827Y1250775D02*
Y1248150D01*
Y1250775D02*
X1191645D01*
X1191918Y1250650*
X1192009Y1250525*
X1192099Y1250275*
X1192099D02*
Y1250025D01*
X1192099D02*
X1192009Y1249775D01*
X1191918Y1249650*
X1191645Y1249525*
X1190827*
X1191463D02*
X1192099Y1248150D01*
X1193009Y1250150D02*
Y1250275D01*
X1193099Y1250525*
X1193099D02*
X1193190Y1250650D01*
X1193372Y1250775*
X1193736*
X1193918Y1250650*
X1194009Y1250525*
X1194099Y1250275*
X1194099D02*
Y1250025D01*
X1194099D02*
X1194009Y1249775D01*
X1193827Y1249400*
X1192918Y1248150*
X1194190*
X1195190Y1250775D02*
X1196190D01*
X1195645Y1249775*
X1195918*
X1196099Y1249650*
X1196099D02*
X1196190Y1249525D01*
X1196281Y1249150*
Y1248900*
X1196190Y1248525*
X1196009Y1248275*
X1195736Y1248150*
X1195463*
X1195190Y1248275*
X1195099Y1248400*
X1195099D02*
X1195009Y1248650D01*
X1201535Y1219318D02*
Y1216693D01*
Y1219318D02*
X1202354D01*
X1202626Y1219193*
X1202717Y1219068*
X1202808Y1218818*
Y1218568*
X1202717Y1218318*
X1202626Y1218193*
X1202354Y1218068*
X1201535*
X1202172D02*
X1202808Y1216693D01*
X1203808Y1219318D02*
X1204808D01*
X1204263Y1218318*
X1204535*
X1204717Y1218193*
X1204808Y1218068*
X1204899Y1217693*
Y1217443*
X1204808Y1217068*
X1204626Y1216818*
X1204354Y1216693*
X1204081*
X1203808Y1216818*
X1203717Y1216943*
X1203626Y1217193*
X1206626Y1219318D02*
X1205717Y1217568D01*
X1207081*
X1206626Y1219318D02*
Y1216693D01*
X1270433Y1200223D02*
Y1197598D01*
Y1200223D02*
X1271251D01*
X1271524Y1200098*
X1271615Y1199973*
X1271706Y1199723*
Y1199473*
X1271615Y1199223*
X1271524Y1199098*
X1271251Y1198973*
X1270433*
X1271069D02*
X1271706Y1197598D01*
X1272706Y1200223D02*
X1273706D01*
X1273160Y1199223*
X1273433*
X1273615Y1199098*
X1273706Y1198973*
X1273797Y1198598*
Y1198348*
X1273706Y1197973*
X1273524Y1197723*
X1273251Y1197598*
X1272979*
X1272706Y1197723*
X1272615Y1197848*
X1272524Y1198098*
X1274797Y1200223D02*
X1275797D01*
X1275251Y1199223*
X1275524*
X1275706Y1199098*
X1275797Y1198973*
X1275888Y1198598*
Y1198348*
X1275797Y1197973*
X1275615Y1197723*
X1275342Y1197598*
X1275069*
X1274797Y1197723*
X1274706Y1197848*
X1274615Y1198098*
X1272348Y1177197D02*
X1272257Y1177447D01*
X1272075Y1177697*
X1271893Y1177822*
X1271530*
X1271348Y1177697*
X1271166Y1177447*
X1271075Y1177197*
X1270984Y1176822*
Y1176197*
X1271075Y1175822*
X1271166Y1175572*
X1271348Y1175322*
X1271530Y1175197*
X1271893*
X1272075Y1175322*
X1272257Y1175572*
X1272348Y1175822*
X1274439Y1177822D02*
X1273530Y1175197D01*
X1273166Y1177822D02*
X1274439D01*
X1275802D02*
X1275530Y1177697D01*
X1275348Y1177322*
X1275257Y1176697*
Y1176322*
X1275348Y1175697*
X1275530Y1175322*
X1275802Y1175197*
X1275984*
X1276257Y1175322*
X1276439Y1175697*
X1276530Y1176322*
Y1176697*
X1276439Y1177322*
X1276257Y1177697*
X1275984Y1177822*
X1275802*
X1161430Y1162445D02*
X1163430D01*
X1163805Y1162354*
X1163930Y1162263*
X1164055Y1162081*
Y1161899*
X1163930Y1161717*
X1163805Y1161626*
X1163430Y1161535*
X1163180*
X1162055Y1163354D02*
X1161930D01*
X1161680Y1163445*
X1161555Y1163535*
X1161430Y1163717*
Y1164081*
X1161555Y1164263*
X1161680Y1164354*
X1161930Y1164445*
X1162180*
X1162430Y1164354*
X1162805Y1164172*
X1164055Y1163263*
Y1164535*
X1321954Y1240976D02*
X1321863Y1241226D01*
X1321681Y1241476*
X1321500Y1241601*
X1321136*
X1320954Y1241476*
X1320772Y1241226*
X1320681Y1240976*
X1320591Y1240601*
Y1239976*
X1320681Y1239601*
X1320772Y1239351*
X1320954Y1239101*
X1321136Y1238976*
X1321500*
X1321681Y1239101*
X1321863Y1239351*
X1321954Y1239601*
X1323863Y1241226D02*
X1323772Y1241476D01*
X1323500Y1241601*
X1323318*
X1323045Y1241476*
X1322863Y1241101*
X1322772Y1240476*
Y1239851*
X1322863Y1239351*
X1323045Y1239101*
X1323318Y1238976*
X1323409*
X1323681Y1239101*
X1323863Y1239351*
X1323954Y1239726*
Y1239851*
X1323863Y1240226*
X1323681Y1240476*
X1323409Y1240601*
X1323318*
X1323045Y1240476*
X1322863Y1240226*
X1322772Y1239851*
X1325227Y1241601D02*
X1324954Y1241476D01*
X1324863Y1241226*
Y1240976*
X1324954Y1240726*
X1325136Y1240601*
X1325500Y1240476*
X1325772Y1240351*
X1325954Y1240101*
X1326045Y1239851*
Y1239476*
X1325954Y1239226*
X1325863Y1239101*
X1325591Y1238976*
X1325227*
X1324954Y1239101*
X1324863Y1239226*
X1324772Y1239476*
Y1239851*
X1324863Y1240101*
X1325045Y1240351*
X1325318Y1240476*
X1325681Y1240601*
X1325863Y1240726*
X1325954Y1240976*
Y1241226*
X1325863Y1241476*
X1325591Y1241601*
X1325227*
X1310945Y1247664D02*
Y1245039D01*
Y1247664D02*
X1311763D01*
X1312036Y1247539*
X1312127Y1247414*
X1312218Y1247164*
Y1246914*
X1312127Y1246664*
X1312036Y1246539*
X1311763Y1246414*
X1310945*
X1311581D02*
X1312218Y1245039D01*
X1314127Y1247289D02*
X1314036Y1247539D01*
X1313763Y1247664*
X1313581*
X1313309Y1247539*
X1313127Y1247164*
X1313036Y1246539*
Y1245914*
X1313127Y1245414*
X1313309Y1245164*
X1313581Y1245039*
X1313672*
X1313945Y1245164*
X1314127Y1245414*
X1314218Y1245789*
Y1245914*
X1314127Y1246289*
X1313945Y1246539*
X1313672Y1246664*
X1313581*
X1313309Y1246539*
X1313127Y1246289*
X1313036Y1245914*
X1315127Y1247039D02*
Y1247164D01*
X1315218Y1247414*
X1315309Y1247539*
X1315490Y1247664*
X1315854*
X1316036Y1247539*
X1316127Y1247414*
X1316218Y1247164*
Y1246914*
X1316127Y1246664*
X1315945Y1246289*
X1315036Y1245039*
X1316309*
X1340945Y1225066D02*
Y1222441D01*
Y1225066D02*
X1341763D01*
X1342036Y1224941*
X1342127Y1224816*
X1342218Y1224566*
Y1224316*
X1342127Y1224066*
X1342036Y1223941*
X1341763Y1223816*
X1340945*
X1341581D02*
X1342218Y1222441D01*
X1344218Y1225066D02*
X1343309D01*
X1343218Y1223941*
X1343309Y1224066*
X1343581Y1224191*
X1343854*
X1344127Y1224066*
X1344309Y1223816*
X1344399Y1223441*
X1344309Y1223191*
X1344218Y1222816*
X1344036Y1222566*
X1343763Y1222441*
X1343490*
X1343218Y1222566*
X1343127Y1222691*
X1343036Y1222941*
X1346399Y1225066D02*
X1345490D01*
X1345399Y1223941*
X1345490Y1224066*
X1345763Y1224191*
X1346036*
X1346309Y1224066*
X1346490Y1223816*
X1346581Y1223441*
X1346490Y1223191*
X1346399Y1222816*
X1346218Y1222566*
X1345945Y1222441*
X1345672*
X1345399Y1222566*
X1345309Y1222691*
X1345218Y1222941*
X1341378Y1229436D02*
Y1226811D01*
Y1229436D02*
X1342196D01*
X1342469Y1229311*
X1342560Y1229186*
X1342651Y1228936*
Y1228686*
X1342560Y1228436*
X1342469Y1228311*
X1342196Y1228186*
X1341378*
X1342014D02*
X1342651Y1226811D01*
X1344560Y1229061D02*
X1344469Y1229311D01*
X1344196Y1229436*
X1344014*
X1343742Y1229311*
X1343560Y1228936*
X1343469Y1228311*
Y1227686*
X1343560Y1227186*
X1343742Y1226936*
X1344014Y1226811*
X1344105*
X1344378Y1226936*
X1344560Y1227186*
X1344651Y1227561*
Y1227686*
X1344560Y1228061*
X1344378Y1228311*
X1344105Y1228436*
X1344014*
X1343742Y1228311*
X1343560Y1228061*
X1343469Y1227686*
X1346014Y1229436D02*
X1345742Y1229311D01*
X1345560Y1228936*
X1345469Y1228311*
Y1227936*
X1345560Y1227311*
X1345742Y1226936*
X1346014Y1226811*
X1346196*
X1346469Y1226936*
X1346651Y1227311*
X1346742Y1227936*
Y1228311*
X1346651Y1228936*
X1346469Y1229311*
X1346196Y1229436*
X1346014*
X1341457Y1234712D02*
Y1232087D01*
Y1234712D02*
X1342275D01*
X1342548Y1234587*
X1342639Y1234462*
X1342729Y1234212*
Y1233962*
X1342639Y1233712*
X1342548Y1233587*
X1342275Y1233462*
X1341457*
X1342093D02*
X1342729Y1232087D01*
X1344729Y1234712D02*
X1343820D01*
X1343729Y1233587*
X1343820Y1233712*
X1344093Y1233837*
X1344366*
X1344639Y1233712*
X1344820Y1233462*
X1344911Y1233087*
X1344820Y1232837*
X1344729Y1232462*
X1344548Y1232212*
X1344275Y1232087*
X1344002*
X1343729Y1232212*
X1343639Y1232337*
X1343548Y1232587*
X1346820Y1234337D02*
X1346729Y1234587D01*
X1346457Y1234712*
X1346275*
X1346002Y1234587*
X1345820Y1234212*
X1345729Y1233587*
Y1232962*
X1345820Y1232462*
X1346002Y1232212*
X1346275Y1232087*
X1346366*
X1346639Y1232212*
X1346820Y1232462*
X1346911Y1232837*
Y1232962*
X1346820Y1233337*
X1346639Y1233587*
X1346366Y1233712*
X1346275*
X1346002Y1233587*
X1345820Y1233337*
X1345729Y1232962*
X1374016Y1022310D02*
X1375288Y1019685D01*
Y1022310D02*
X1374016Y1019685D01*
X1377016Y1022310D02*
X1376107Y1020560D01*
X1377470*
X1377016Y1022310D02*
Y1019685D01*
X1262992Y1152034D02*
Y1149409D01*
Y1152034D02*
X1263810D01*
X1264083Y1151909*
X1264174Y1151784*
X1264265Y1151534*
Y1151284*
X1264174Y1151034*
X1264083Y1150909*
X1263810Y1150784*
X1262992*
X1263628D02*
X1264265Y1149409D01*
X1265538Y1152034D02*
X1265265Y1151909D01*
X1265174Y1151659*
Y1151409*
X1265265Y1151159*
X1265447Y1151034*
X1265810Y1150909*
X1266083Y1150784*
X1266265Y1150534*
X1266356Y1150284*
Y1149909*
X1266265Y1149659*
X1266174Y1149534*
X1265901Y1149409*
X1265538*
X1265265Y1149534*
X1265174Y1149659*
X1265083Y1149909*
Y1150284*
X1265174Y1150534*
X1265356Y1150784*
X1265628Y1150909*
X1265992Y1151034*
X1266174Y1151159*
X1266265Y1151409*
Y1151659*
X1266174Y1151909*
X1265901Y1152034*
X1265538*
X1205406Y1073780D02*
X1208031D01*
X1205406D02*
Y1074598D01*
X1205531Y1074870*
X1205656Y1074961*
X1205906Y1075052*
X1206156*
X1206406Y1074961*
X1206531Y1074870*
X1206656Y1074598*
Y1073780*
Y1074416D02*
X1208031Y1075052D01*
X1205406Y1076780D02*
X1207156Y1075870D01*
Y1077234*
X1205406Y1076780D02*
X1208031D01*
X1205406Y1078598D02*
X1205531Y1078325D01*
X1205906Y1078143*
X1206531Y1078052*
X1206906*
X1207531Y1078143*
X1207906Y1078325*
X1208031Y1078598*
Y1078780*
X1207906Y1079052*
X1207531Y1079234*
X1206906Y1079325*
X1206531*
X1205906Y1079234*
X1205531Y1079052*
X1205406Y1078780*
Y1078598*
X1175000Y1084987D02*
Y1083112D01*
X1175091Y1082737*
X1175273Y1082487*
X1175545Y1082362*
X1175727*
X1176000Y1082487*
X1176182Y1082737*
X1176273Y1083112*
Y1084987*
X1178182Y1084612D02*
X1178091Y1084862D01*
X1177818Y1084987*
X1177636*
X1177364Y1084862*
X1177182Y1084487*
X1177091Y1083862*
Y1083237*
X1177182Y1082737*
X1177364Y1082487*
X1177636Y1082362*
X1177727*
X1178000Y1082487*
X1178182Y1082737*
X1178273Y1083112*
Y1083237*
X1178182Y1083612*
X1178000Y1083862*
X1177727Y1083987*
X1177636*
X1177364Y1083862*
X1177182Y1083612*
X1177091Y1083237*
X1162992Y1046956D02*
Y1044331D01*
Y1046956D02*
X1163810D01*
X1164083Y1046831*
X1164174Y1046706*
X1164265Y1046456*
Y1046206*
X1164174Y1045956*
X1164083Y1045831*
X1163810Y1045706*
X1162992*
X1163628D02*
X1164265Y1044331D01*
X1165992Y1046956D02*
X1165083Y1045206D01*
X1166447*
X1165992Y1046956D02*
Y1044331D01*
X1167265Y1046456D02*
X1167447Y1046581D01*
X1167719Y1046956*
Y1044331*
X1133583Y1050184D02*
Y1048309D01*
X1133674Y1047934*
X1133855Y1047684*
X1134128Y1047559*
X1134310*
X1134583Y1047684*
X1134764Y1047934*
X1134764D02*
X1134855Y1048309D01*
Y1050184*
X1136946D02*
X1136037Y1047559D01*
X1135674Y1050184D02*
X1136946D01*
X1176858Y1060891D02*
X1176608Y1060800D01*
X1176358Y1060618*
X1176233Y1060437*
Y1060073*
X1176358Y1059891*
X1176608Y1059709*
X1176858Y1059618*
X1177233Y1059528*
X1177858*
X1178233Y1059618*
X1178483Y1059709*
X1178733Y1059891*
X1178858Y1060073*
Y1060437*
X1178733Y1060618*
X1178483Y1060800*
X1178233Y1060891*
X1176858Y1061800D02*
X1176733D01*
X1176483Y1061891*
X1176358Y1061982*
X1176233Y1062164*
Y1062528*
X1176358Y1062709*
X1176483Y1062800*
X1176733Y1062891*
X1176983*
X1177233Y1062800*
X1177608Y1062618*
X1178858Y1061709*
Y1062982*
X1176233Y1064255D02*
X1176358Y1063982D01*
X1176608Y1063891*
X1176858*
X1177108Y1063982*
X1177233Y1064164*
X1177358Y1064528*
X1177483Y1064800*
X1177733Y1064982*
X1177983Y1065073*
X1178358*
X1178608Y1064982*
X1178733Y1064891*
X1178858Y1064618*
Y1064255*
X1178733Y1063982*
X1178608Y1063891*
X1178358Y1063800*
X1177983*
X1177733Y1063891*
X1177483Y1064073*
X1177358Y1064346*
X1177233Y1064709*
X1177108Y1064891*
X1176858Y1064982*
X1176608*
X1176358Y1064891*
X1176233Y1064618*
Y1064255*
X1095891Y1067354D02*
X1095800Y1067604D01*
X1095618Y1067854*
X1095437Y1067979*
X1095073*
X1094891Y1067854*
X1094709Y1067604*
X1094618Y1067354*
X1094528Y1066979*
Y1066354*
X1094618Y1065979*
X1094709Y1065729*
X1094891Y1065479*
X1095073Y1065354*
X1095437*
X1095618Y1065479*
X1095800Y1065729*
X1095891Y1065979*
X1096891Y1067979D02*
X1097891D01*
X1097346Y1066979*
X1097618*
X1097800Y1066854*
X1097891Y1066729*
X1097982Y1066354*
Y1066104*
X1097891Y1065729*
X1097709Y1065479*
X1097437Y1065354*
X1097164*
X1096891Y1065479*
X1096800Y1065604*
X1096709Y1065854*
X1099982Y1067979D02*
X1099073D01*
X1098982Y1066854*
X1099073Y1066979*
X1099346Y1067104*
X1099618*
X1099891Y1066979*
X1100073Y1066729*
X1100164Y1066354*
X1100073Y1066104*
X1099982Y1065729*
X1099800Y1065479*
X1099528Y1065354*
X1099255*
X1098982Y1065479*
X1098891Y1065604*
X1098800Y1065854*
X1096654Y1061168D02*
Y1058543D01*
Y1061168D02*
X1097472D01*
X1097744Y1061043*
X1097835Y1060918*
X1097926Y1060668*
Y1060418*
X1097835Y1060168*
X1097744Y1060043*
X1097472Y1059918*
X1096654*
X1097290D02*
X1097926Y1058543D01*
X1099835Y1060793D02*
X1099744Y1061043D01*
X1099472Y1061168*
X1099290*
X1099017Y1061043*
X1098835Y1060668*
X1098744Y1060043*
Y1059418*
X1098835Y1058918*
X1099017Y1058668*
X1099290Y1058543*
X1099381*
X1099654Y1058668*
X1099835Y1058918*
X1099926Y1059293*
Y1059418*
X1099835Y1059793*
X1099654Y1060043*
X1099381Y1060168*
X1099290*
X1099017Y1060043*
X1098835Y1059793*
X1098744Y1059418*
X1101654Y1061168D02*
X1100744Y1059418D01*
X1102108*
X1101654Y1061168D02*
Y1058543D01*
X1266850Y1065263D02*
Y1062638D01*
Y1065263D02*
X1267669D01*
X1267941Y1065138*
X1268032Y1065013*
X1268123Y1064763*
Y1064513*
X1268032Y1064263*
X1267941Y1064138*
X1267669Y1064013*
X1266850*
X1267487D02*
X1268123Y1062638D01*
X1268941Y1064763D02*
X1269123Y1064888D01*
X1269396Y1065263*
Y1062638*
X1270669Y1065263D02*
X1270396Y1065138D01*
X1270305Y1064888*
Y1064638*
X1270396Y1064388*
X1270578Y1064263*
X1270941Y1064138*
X1271214Y1064013*
X1271396Y1063763*
X1271487Y1063513*
Y1063138*
X1271396Y1062888*
X1271305Y1062763*
X1271032Y1062638*
X1270669*
X1270396Y1062763*
X1270305Y1062888*
X1270214Y1063138*
Y1063513*
X1270305Y1063763*
X1270487Y1064013*
X1270759Y1064138*
X1271123Y1064263*
X1271305Y1064388*
X1271396Y1064638*
Y1064888*
X1271305Y1065138*
X1271032Y1065263*
X1270669*
X1273396Y1064888D02*
X1273305Y1065138D01*
X1273032Y1065263*
X1272850*
X1272578Y1065138*
X1272396Y1064763*
X1272305Y1064138*
Y1063513*
X1272396Y1063013*
X1272578Y1062763*
X1272850Y1062638*
X1272941*
X1273214Y1062763*
X1273396Y1063013*
X1273487Y1063388*
Y1063513*
X1273396Y1063888*
X1273214Y1064138*
X1272941Y1064263*
X1272850*
X1272578Y1064138*
X1272396Y1063888*
X1272305Y1063513*
X1294016Y1065775D02*
Y1063150D01*
Y1065775D02*
X1294834D01*
X1295107Y1065650*
X1295198Y1065525*
X1295288Y1065275*
Y1065025*
X1295198Y1064775*
X1295107Y1064650*
X1294834Y1064525*
X1294016*
X1294652D02*
X1295288Y1063150D01*
X1296107Y1065275D02*
X1296288Y1065400D01*
X1296561Y1065775*
Y1063150*
X1297834Y1065775D02*
X1297561Y1065650D01*
X1297470Y1065400*
Y1065150*
X1297561Y1064900*
X1297743Y1064775*
X1298107Y1064650*
X1298379Y1064525*
X1298561Y1064275*
X1298652Y1064025*
Y1063650*
X1298561Y1063400*
X1298470Y1063275*
X1298198Y1063150*
X1297834*
X1297561Y1063275*
X1297470Y1063400*
X1297379Y1063650*
Y1064025*
X1297470Y1064275*
X1297652Y1064525*
X1297925Y1064650*
X1298288Y1064775*
X1298470Y1064900*
X1298561Y1065150*
Y1065400*
X1298470Y1065650*
X1298198Y1065775*
X1297834*
X1300743D02*
X1299834Y1063150D01*
X1299470Y1065775D02*
X1300743D01*
X1368898Y1082192D02*
Y1079567D01*
Y1082192D02*
X1369716D01*
X1369989Y1082067*
X1370079Y1081942*
X1370170Y1081692*
Y1081442*
X1370079Y1081192*
X1369989Y1081067*
X1369716Y1080942*
X1368898*
X1369534D02*
X1370170Y1079567D01*
X1371898Y1082192D02*
X1370989Y1080442D01*
X1372352*
X1371898Y1082192D02*
Y1079567D01*
X1373352Y1082192D02*
X1374352D01*
X1373807Y1081192*
X1374079*
X1374261Y1081067*
X1374352Y1080942*
X1374443Y1080567*
Y1080317*
X1374352Y1079942*
X1374170Y1079692*
X1373898Y1079567*
X1373625*
X1373352Y1079692*
X1373261Y1079817*
X1373170Y1080067*
X1238674Y1232047D02*
X1241299D01*
X1238674D02*
Y1232865D01*
X1238799Y1233138*
X1238924Y1233229*
X1239174Y1233320*
X1239424*
X1239674Y1233229*
X1239799Y1233138*
X1239924Y1232865*
Y1232047*
Y1232684D02*
X1241299Y1233320D01*
X1238674Y1235047D02*
X1240424Y1234138D01*
Y1235502*
X1238674Y1235047D02*
X1241299D01*
X1238674Y1237229D02*
X1240424Y1236320D01*
Y1237684*
X1238674Y1237229D02*
X1241299D01*
X1214895Y1071260D02*
X1217520D01*
X1214895D02*
Y1072078D01*
X1215020Y1072351*
X1215145Y1072442*
X1215395Y1072533*
X1215645*
X1215895Y1072442*
X1216020Y1072351*
X1216145Y1072078*
Y1071260*
Y1071896D02*
X1217520Y1072533D01*
X1215520Y1073442D02*
X1215395D01*
X1215145Y1073533*
X1215020Y1073623*
X1214895Y1073805*
Y1074169*
X1215020Y1074351*
X1215145Y1074442*
X1215395Y1074533*
X1215645*
X1215895Y1074442*
X1216270Y1074260*
X1217520Y1073351*
Y1074623*
X1215770Y1076623D02*
X1216145Y1076533D01*
X1216395Y1076351*
X1216520Y1076078*
Y1075987*
X1216395Y1075714*
X1216145Y1075533*
X1215770Y1075442*
X1215645*
X1215270Y1075533*
X1215020Y1075714*
X1214895Y1075987*
Y1076078*
X1215020Y1076351*
X1215270Y1076533*
X1215770Y1076623*
X1216395*
X1217020Y1076533*
X1217395Y1076351*
X1217520Y1076078*
Y1075896*
X1217395Y1075623*
X1217145Y1075533*
X1210131Y1073780D02*
X1212756D01*
X1210131D02*
Y1074598D01*
X1210256Y1074870*
X1210381Y1074961*
X1210631Y1075052*
X1210881*
X1211131Y1074961*
X1211256Y1074870*
X1211381Y1074598*
Y1073780*
Y1074416D02*
X1212756Y1075052D01*
X1210131Y1076052D02*
Y1077052D01*
X1211131Y1076507*
Y1076780*
X1211256Y1076961*
X1211381Y1077052*
X1211756Y1077143*
X1212006*
X1212381Y1077052*
X1212631Y1076870*
X1212756Y1076598*
Y1076325*
X1212631Y1076052*
X1212506Y1075961*
X1212256Y1075870*
X1210131Y1078507D02*
X1210256Y1078234D01*
X1210631Y1078052*
X1211256Y1077961*
X1211631*
X1212256Y1078052*
X1212631Y1078234*
X1212756Y1078507*
Y1078689*
X1212631Y1078961*
X1212256Y1079143*
X1211631Y1079234*
X1211256*
X1210631Y1079143*
X1210256Y1078961*
X1210131Y1078689*
Y1078507*
X1219973Y1073465D02*
X1222598D01*
X1219973D02*
Y1074283D01*
X1220098Y1074555*
X1220223Y1074646*
X1220473Y1074737*
X1220723*
X1220973Y1074646*
X1221098Y1074555*
X1221223Y1074283*
Y1073465*
Y1074101D02*
X1222598Y1074737D01*
X1219973Y1075737D02*
Y1076737D01*
X1220973Y1076192*
Y1076465*
X1221098Y1076646*
X1221223Y1076737*
X1221598Y1076828*
X1221848*
X1222223Y1076737*
X1222473Y1076555*
X1222598Y1076283*
Y1076010*
X1222473Y1075737*
X1222348Y1075646*
X1222098Y1075555*
X1219973Y1078919D02*
X1222598Y1078010D01*
X1219973Y1077646D02*
Y1078919D01*
X1140000Y1102271D02*
Y1099646D01*
Y1102271D02*
X1140818D01*
X1141091Y1102146*
X1141182Y1102021*
X1141273Y1101771*
Y1101521*
X1141182Y1101271*
X1141091Y1101146*
X1140818Y1101021*
X1140000*
X1140636D02*
X1141273Y1099646D01*
X1142182Y1101646D02*
Y1101771D01*
X1142273Y1102021*
X1142364Y1102146*
X1142545Y1102271*
X1142909*
X1143091Y1102146*
X1143182Y1102021*
X1143273Y1101771*
Y1101521*
X1143182Y1101271*
X1143000Y1100896*
X1142091Y1099646*
X1143364*
X1145455Y1102271D02*
X1144545Y1099646D01*
X1144182Y1102271D02*
X1145455D01*
X1091391Y1079291D02*
X1094016D01*
X1091391D02*
Y1080110D01*
X1091516Y1080382*
X1091641Y1080473*
X1091891Y1080564*
X1092141*
X1092391Y1080473*
X1092516Y1080382*
X1092641Y1080110*
Y1079291*
Y1079928D02*
X1094016Y1080564D01*
X1091891Y1081382D02*
X1091766Y1081564D01*
X1091391Y1081837*
X1094016*
X1092266Y1083837D02*
X1092641Y1083746D01*
X1092891Y1083564*
X1093016Y1083291*
Y1083200*
X1092891Y1082928*
X1092641Y1082746*
X1092266Y1082655*
X1092141*
X1091766Y1082746*
X1091516Y1082928*
X1091391Y1083200*
Y1083291*
X1091516Y1083564*
X1091766Y1083746*
X1092266Y1083837*
X1092891*
X1093516Y1083746*
X1093891Y1083564*
X1094016Y1083291*
Y1083110*
X1093891Y1082837*
X1093641Y1082746*
X1091391Y1085110D02*
X1091516Y1084837D01*
X1091766Y1084746*
X1092016*
X1092266Y1084837*
X1092391Y1085019*
X1092516Y1085382*
X1092641Y1085655*
X1092891Y1085837*
X1093141Y1085928*
X1093516*
X1093766Y1085837*
X1093891Y1085746*
X1094016Y1085473*
Y1085110*
X1093891Y1084837*
X1093766Y1084746*
X1093516Y1084655*
X1093141*
X1092891Y1084746*
X1092641Y1084928*
X1092516Y1085200*
X1092391Y1085564*
X1092266Y1085746*
X1092016Y1085837*
X1091766*
X1091516Y1085746*
X1091391Y1085473*
Y1085110*
X1224737Y1073661D02*
X1227362D01*
X1224737D02*
Y1074480D01*
X1224862Y1074752*
X1224987Y1074843*
X1225237Y1074934*
X1225487*
X1225737Y1074843*
X1225862Y1074752*
X1225987Y1074480*
Y1073661*
Y1074298D02*
X1227362Y1074934D01*
X1224737Y1075934D02*
Y1076934D01*
X1225737Y1076389*
Y1076661*
X1225862Y1076843*
X1225987Y1076934*
X1226362Y1077025*
X1226612*
X1226987Y1076934*
X1227237Y1076752*
X1227362Y1076480*
Y1076207*
X1227237Y1075934*
X1227112Y1075843*
X1226862Y1075752*
X1224737Y1078298D02*
X1224862Y1078025D01*
X1225112Y1077934*
X1225362*
X1225612Y1078025*
X1225737Y1078207*
X1225862Y1078571*
X1225987Y1078843*
X1226237Y1079025*
X1226487Y1079116*
X1226862*
X1227112Y1079025*
X1227237Y1078934*
X1227362Y1078661*
Y1078298*
X1227237Y1078025*
X1227112Y1077934*
X1226862Y1077843*
X1226487*
X1226237Y1077934*
X1225987Y1078116*
X1225862Y1078389*
X1225737Y1078752*
X1225612Y1078934*
X1225362Y1079025*
X1225112*
X1224862Y1078934*
X1224737Y1078661*
Y1078298*
X1089449Y1117625D02*
Y1115000D01*
Y1117625D02*
X1090267D01*
X1090540Y1117500*
X1090631Y1117375*
X1090722Y1117125*
Y1116875*
X1090631Y1116625*
X1090540Y1116500*
X1090267Y1116375*
X1089449*
X1090085D02*
X1090722Y1115000D01*
X1092631Y1117250D02*
X1092540Y1117500D01*
X1092267Y1117625*
X1092085*
X1091812Y1117500*
X1091631Y1117125*
X1091540Y1116500*
Y1115875*
X1091631Y1115375*
X1091812Y1115125*
X1092085Y1115000*
X1092176*
X1092449Y1115125*
X1092631Y1115375*
X1092722Y1115750*
Y1115875*
X1092631Y1116250*
X1092449Y1116500*
X1092176Y1116625*
X1092085*
X1091812Y1116500*
X1091631Y1116250*
X1091540Y1115875*
X1094722Y1116750D02*
X1094631Y1116375D01*
X1094449Y1116125*
X1094176Y1116000*
X1094085*
X1093812Y1116125*
X1093631Y1116375*
X1093540Y1116750*
Y1116875*
X1093631Y1117250*
X1093812Y1117500*
X1094085Y1117625*
X1094176*
X1094449Y1117500*
X1094631Y1117250*
X1094722Y1116750*
Y1116125*
X1094631Y1115500*
X1094449Y1115125*
X1094176Y1115000*
X1093994*
X1093722Y1115125*
X1093631Y1115375*
X1177008Y1178767D02*
Y1176142D01*
Y1178767D02*
X1177826D01*
X1178099Y1178642*
X1178190Y1178517*
X1178281Y1178267*
Y1178017*
X1178190Y1177767*
X1178099Y1177642*
X1177826Y1177517*
X1177008*
X1177644D02*
X1178281Y1176142D01*
X1180372Y1178767D02*
X1179462Y1176142D01*
X1179099Y1178767D02*
X1180372D01*
X1203110Y1319239D02*
Y1316614D01*
Y1319239D02*
X1203928D01*
X1204201Y1319114*
X1204292Y1318989*
X1204383Y1318739*
Y1318489*
X1204292Y1318239*
X1204201Y1318114*
X1203928Y1317989*
X1203110*
X1203747D02*
X1204383Y1316614D01*
X1205201Y1318739D02*
X1205383Y1318864D01*
X1205656Y1319239*
Y1316614*
X1206565Y1318614D02*
Y1318739D01*
X1206656Y1318989*
X1206747Y1319114*
X1206928Y1319239*
X1207292*
X1207474Y1319114*
X1207565Y1318989*
X1207656Y1318739*
Y1318489*
X1207565Y1318239*
X1207383Y1317864*
X1206474Y1316614*
X1207747*
X1199580Y1073976D02*
X1202205D01*
X1199580D02*
Y1074795D01*
X1199705Y1075067*
X1199830Y1075158*
X1200080Y1075249*
X1200330*
X1200580Y1075158*
X1200705Y1075067*
X1200830Y1074795*
Y1073976*
Y1074613D02*
X1202205Y1075249D01*
X1200205Y1076158D02*
X1200080D01*
X1199830Y1076249*
X1199705Y1076340*
X1199580Y1076522*
Y1076885*
X1199705Y1077067*
X1199830Y1077158*
X1200080Y1077249*
X1200330*
X1200580Y1077158*
X1200955Y1076976*
X1202205Y1076067*
Y1077340*
X1199955Y1079249D02*
X1199705Y1079158D01*
X1199580Y1078885*
Y1078704*
X1199705Y1078431*
X1200080Y1078249*
X1200705Y1078158*
X1201330*
X1201830Y1078249*
X1202080Y1078431*
X1202205Y1078704*
Y1078795*
X1202080Y1079067*
X1201830Y1079249*
X1201455Y1079340*
X1201330*
X1200955Y1079249*
X1200705Y1079067*
X1200580Y1078795*
Y1078704*
X1200705Y1078431*
X1200955Y1078249*
X1201330Y1078158*
X1140591Y1107546D02*
Y1104921D01*
Y1107546D02*
X1141409D01*
X1141681Y1107421*
X1141772Y1107296*
X1141863Y1107046*
Y1106796*
X1141772Y1106546*
X1141681Y1106421*
X1141409Y1106296*
X1140591*
X1141227D02*
X1141863Y1104921D01*
X1142772Y1106921D02*
Y1107046D01*
X1142863Y1107296*
X1142954Y1107421*
X1143136Y1107546*
X1143500*
X1143681Y1107421*
X1143772Y1107296*
X1143863Y1107046*
Y1106796*
X1143772Y1106546*
X1143591Y1106171*
X1142681Y1104921*
X1143954*
X1145227Y1107546D02*
X1144954Y1107421D01*
X1144863Y1107171*
Y1106921*
X1144954Y1106671*
X1145136Y1106546*
X1145500Y1106421*
X1145772Y1106296*
X1145954Y1106046*
X1146045Y1105796*
Y1105421*
X1145954Y1105171*
X1145863Y1105046*
X1145591Y1104921*
X1145227*
X1144954Y1105046*
X1144863Y1105171*
X1144772Y1105421*
Y1105796*
X1144863Y1106046*
X1145045Y1106296*
X1145318Y1106421*
X1145681Y1106546*
X1145863Y1106671*
X1145954Y1106921*
Y1107171*
X1145863Y1107421*
X1145591Y1107546*
X1145227*
X1108150Y1042271D02*
Y1039646D01*
Y1042271D02*
X1108968D01*
X1109241Y1042146*
X1109331Y1042021*
X1109422Y1041771*
Y1041521*
X1109331Y1041271*
X1109241Y1041146*
X1108968Y1041021*
X1108150*
X1108786D02*
X1109422Y1039646D01*
X1110422Y1042271D02*
X1111422D01*
X1110877Y1041271*
X1111150*
X1111331Y1041146*
X1111422Y1041021*
X1111513Y1040646*
Y1040396*
X1111422Y1040021*
X1111241Y1039771*
X1110968Y1039646*
X1110695*
X1110422Y1039771*
X1110331Y1039896*
X1110241Y1040146*
X1112331Y1041771D02*
X1112513Y1041896D01*
X1112786Y1042271*
Y1039646*
X1229580Y1100709D02*
X1232205D01*
X1229580D02*
Y1101527D01*
X1229705Y1101800*
X1229830Y1101890*
X1230080Y1101981*
X1230330*
X1230580Y1101890*
X1230705Y1101800*
X1230830Y1101527*
Y1100709*
Y1101345D02*
X1232205Y1101981D01*
X1229580Y1102981D02*
Y1103981D01*
X1230580Y1103436*
Y1103709*
X1230705Y1103890*
X1230830Y1103981*
X1231205Y1104072*
X1231455*
X1231830Y1103981*
X1232080Y1103800*
X1232205Y1103527*
Y1103254*
X1232080Y1102981*
X1231955Y1102890*
X1231705Y1102800*
X1230455Y1106072D02*
X1230830Y1105981D01*
X1231080Y1105800*
X1231205Y1105527*
Y1105436*
X1231080Y1105163*
X1230830Y1104981*
X1230455Y1104890*
X1230330*
X1229955Y1104981*
X1229705Y1105163*
X1229580Y1105436*
Y1105527*
X1229705Y1105800*
X1229955Y1105981*
X1230455Y1106072*
X1231080*
X1231705Y1105981*
X1232080Y1105800*
X1232205Y1105527*
Y1105345*
X1232080Y1105072*
X1231830Y1104981*
X1088898Y1122940D02*
Y1120315D01*
Y1122940D02*
X1089716D01*
X1089989Y1122815*
X1090079Y1122690*
X1090170Y1122440*
Y1122190*
X1090079Y1121940*
X1089989Y1121815*
X1089716Y1121690*
X1088898*
X1089534D02*
X1090170Y1120315D01*
X1092261Y1122940D02*
X1091352Y1120315D01*
X1090989Y1122940D02*
X1092261D01*
X1094352D02*
X1093443Y1120315D01*
X1093079Y1122940D02*
X1094352D01*
X1177820Y1171646D02*
X1177729Y1171896D01*
X1177548Y1172146*
X1177366Y1172271*
X1177002*
X1176820Y1172146*
X1176639Y1171896*
X1176548Y1171646*
X1176457Y1171271*
Y1170646*
X1176548Y1170271*
X1176639Y1170021*
X1176820Y1169771*
X1177002Y1169646*
X1177366*
X1177548Y1169771*
X1177729Y1170021*
X1177820Y1170271*
X1178639Y1171771D02*
X1178820Y1171896D01*
X1179093Y1172271*
Y1169646*
X1181093Y1172271D02*
X1180184D01*
X1180093Y1171146*
X1180184Y1171271*
X1180457Y1171396*
X1180729*
X1181002Y1171271*
X1181184Y1171021*
X1181275Y1170646*
X1181184Y1170396*
X1181093Y1170021*
X1180911Y1169771*
X1180639Y1169646*
X1180366*
X1180093Y1169771*
X1180002Y1169896*
X1179911Y1170146*
X1372860Y1086252D02*
X1372769Y1086502D01*
X1372587Y1086752*
X1372405Y1086877*
X1372042*
X1371860Y1086752*
X1371678Y1086502*
X1371587Y1086252*
X1371496Y1085877*
Y1085252*
X1371587Y1084877*
X1371678Y1084627*
X1371860Y1084377*
X1372042Y1084252*
X1372405*
X1372587Y1084377*
X1372769Y1084627*
X1372860Y1084877*
X1374587Y1086877D02*
X1373678Y1085127D01*
X1375042*
X1374587Y1086877D02*
Y1084252D01*
X1375951Y1086252D02*
Y1086377D01*
X1376042Y1086627*
X1376132Y1086752*
X1376314Y1086877*
X1376678*
X1376860Y1086752*
X1376951Y1086627*
X1377042Y1086377*
Y1086127*
X1376951Y1085877*
X1376769Y1085502*
X1375860Y1084252*
X1377132*
X1234142Y1236167D02*
X1233892Y1236076D01*
X1233642Y1235894*
X1233517Y1235712*
Y1235349*
X1233642Y1235167*
X1233892Y1234985*
X1234142Y1234894*
X1234517Y1234803*
X1235142*
X1235517Y1234894*
X1235767Y1234985*
X1236017Y1235167*
X1236142Y1235349*
Y1235712*
X1236017Y1235894*
X1235767Y1236076*
X1235517Y1236167*
X1233517Y1237894D02*
X1235267Y1236985D01*
Y1238349*
X1233517Y1237894D02*
X1236142D01*
X1233517Y1239349D02*
Y1240349D01*
X1234517Y1239803*
Y1240076*
X1234642Y1240258*
X1234767Y1240349*
X1235142Y1240440*
X1235392*
X1235767Y1240349*
X1236017Y1240167*
X1236142Y1239894*
Y1239621*
X1236017Y1239349*
X1235892Y1239258*
X1235642Y1239167*
X1292269Y1299874D02*
X1292178Y1300124D01*
X1291996Y1300374*
X1291815Y1300499*
X1291451*
X1291269Y1300374*
X1291087Y1300124*
X1290996Y1299874*
X1290906Y1299499*
Y1298874*
X1290996Y1298499*
X1291087Y1298249*
X1291269Y1297999*
X1291451Y1297874*
X1291815*
X1291996Y1297999*
X1292178Y1298249*
X1292269Y1298499*
X1293269Y1300499D02*
X1294269D01*
X1293724Y1299499*
X1293996*
X1294178Y1299374*
X1294269Y1299249*
X1294360Y1298874*
Y1298624*
X1294269Y1298249*
X1294087Y1297999*
X1293815Y1297874*
X1293542*
X1293269Y1297999*
X1293178Y1298124*
X1293087Y1298374*
X1296285Y1108339D02*
X1296194Y1108589D01*
X1296012Y1108839*
X1295830Y1108964*
X1295467*
X1295285Y1108839*
X1295103Y1108589*
X1295012Y1108339*
X1294921Y1107964*
Y1107339*
X1295012Y1106964*
X1295103Y1106714*
X1295285Y1106464*
X1295467Y1106339*
X1295830*
X1296012Y1106464*
X1296194Y1106714*
X1296285Y1106964*
X1297285Y1108964D02*
X1298285D01*
X1297739Y1107964*
X1298012*
X1298194Y1107839*
X1298285Y1107714*
X1298376Y1107339*
Y1107089*
X1298285Y1106714*
X1298103Y1106464*
X1297830Y1106339*
X1297558*
X1297285Y1106464*
X1297194Y1106589*
X1297103Y1106839*
X1300285Y1108589D02*
X1300194Y1108839D01*
X1299921Y1108964*
X1299739*
X1299467Y1108839*
X1299285Y1108464*
X1299194Y1107839*
Y1107214*
X1299285Y1106714*
X1299467Y1106464*
X1299739Y1106339*
X1299830*
X1300103Y1106464*
X1300285Y1106714*
X1300376Y1107089*
Y1107214*
X1300285Y1107589*
X1300103Y1107839*
X1299830Y1107964*
X1299739*
X1299467Y1107839*
X1299285Y1107589*
X1299194Y1107214*
X1307230Y1096134D02*
X1307139Y1096384D01*
X1306957Y1096634*
X1306775Y1096759*
X1306412*
X1306230Y1096634*
X1306048Y1096384*
X1305957Y1096134*
X1305866Y1095759*
Y1095134*
X1305957Y1094759*
X1306048Y1094509*
X1306230Y1094259*
X1306412Y1094134*
X1306775*
X1306957Y1094259*
X1307139Y1094509*
X1307230Y1094759*
X1308230Y1096759D02*
X1309230D01*
X1308684Y1095759*
X1308957*
X1309139Y1095634*
X1309230Y1095509*
X1309321Y1095134*
Y1094884*
X1309230Y1094509*
X1309048Y1094259*
X1308775Y1094134*
X1308503*
X1308230Y1094259*
X1308139Y1094384*
X1308048Y1094634*
X1311412Y1096759D02*
X1310503Y1094134D01*
X1310139Y1096759D02*
X1311412D01*
X1294238Y1101882D02*
X1294147Y1102132D01*
X1293965Y1102382*
X1293783Y1102507*
X1293419*
X1293238Y1102382*
X1293056Y1102132*
X1292965Y1101882*
X1292874Y1101507*
Y1100882*
X1292965Y1100507*
X1293056Y1100257*
X1293238Y1100007*
X1293419Y1099882*
X1293783*
X1293965Y1100007*
X1294147Y1100257*
X1294238Y1100507*
X1295238Y1102507D02*
X1296238D01*
X1295692Y1101507*
X1295965*
X1296147Y1101382*
X1296238Y1101257*
X1296329Y1100882*
Y1100632*
X1296238Y1100257*
X1296056Y1100007*
X1295783Y1099882*
X1295510*
X1295238Y1100007*
X1295147Y1100132*
X1295056Y1100382*
X1297601Y1102507D02*
X1297329Y1102382D01*
X1297238Y1102132*
Y1101882*
X1297329Y1101632*
X1297510Y1101507*
X1297874Y1101382*
X1298147Y1101257*
X1298329Y1101007*
X1298419Y1100757*
Y1100382*
X1298329Y1100132*
X1298238Y1100007*
X1297965Y1099882*
X1297601*
X1297329Y1100007*
X1297238Y1100132*
X1297147Y1100382*
Y1100757*
X1297238Y1101007*
X1297419Y1101257*
X1297692Y1101382*
X1298056Y1101507*
X1298238Y1101632*
X1298329Y1101882*
Y1102132*
X1298238Y1102382*
X1297965Y1102507*
X1297601*
X1306600Y1086173D02*
X1306509Y1086423D01*
X1306327Y1086673*
X1306145Y1086798*
X1305782*
X1305600Y1086673*
X1305418Y1086423*
X1305327Y1086173*
X1305236Y1085798*
Y1085173*
X1305327Y1084798*
X1305418Y1084548*
X1305600Y1084298*
X1305782Y1084173*
X1306145*
X1306327Y1084298*
X1306509Y1084548*
X1306600Y1084798*
X1307600Y1086798D02*
X1308600D01*
X1308054Y1085798*
X1308327*
X1308509Y1085673*
X1308600Y1085548*
X1308691Y1085173*
Y1084923*
X1308600Y1084548*
X1308418Y1084298*
X1308145Y1084173*
X1307873*
X1307600Y1084298*
X1307509Y1084423*
X1307418Y1084673*
X1310691Y1085923D02*
X1310600Y1085548D01*
X1310418Y1085298*
X1310145Y1085173*
X1310054*
X1309782Y1085298*
X1309600Y1085548*
X1309509Y1085923*
Y1086048*
X1309600Y1086423*
X1309782Y1086673*
X1310054Y1086798*
X1310145*
X1310418Y1086673*
X1310600Y1086423*
X1310691Y1085923*
Y1085298*
X1310600Y1084673*
X1310418Y1084298*
X1310145Y1084173*
X1309963*
X1309691Y1084298*
X1309600Y1084548*
X1321285Y1114480D02*
X1321194Y1114730D01*
X1321012Y1114980*
X1320830Y1115105*
X1320467*
X1320285Y1114980*
X1320103Y1114730*
X1320012Y1114480*
X1319921Y1114105*
Y1113480*
X1320012Y1113105*
X1320103Y1112855*
X1320285Y1112605*
X1320467Y1112480*
X1320830*
X1321012Y1112605*
X1321194Y1112855*
X1321285Y1113105*
X1323012Y1115105D02*
X1322103Y1113355D01*
X1323467*
X1323012Y1115105D02*
Y1112480D01*
X1324830Y1115105D02*
X1324558Y1114980D01*
X1324376Y1114605*
X1324285Y1113980*
Y1113605*
X1324376Y1112980*
X1324558Y1112605*
X1324830Y1112480*
X1325012*
X1325285Y1112605*
X1325467Y1112980*
X1325558Y1113605*
Y1113980*
X1325467Y1114605*
X1325285Y1114980*
X1325012Y1115105*
X1324830*
X1156740Y1071560D02*
X1156490Y1071470D01*
X1156240Y1071288*
X1156115Y1071106*
Y1070742*
X1156240Y1070560*
X1156490Y1070379*
X1156740Y1070288*
X1157115Y1070197*
X1157740*
X1158115Y1070288*
X1158365Y1070379*
X1158615Y1070560*
X1158740Y1070742*
Y1071106*
X1158615Y1071288*
X1158365Y1071470*
X1158115Y1071560*
X1156615Y1072379D02*
X1156490Y1072560D01*
X1156115Y1072833*
X1158740*
X1156740Y1073742D02*
X1156615D01*
X1156365Y1073833*
X1156240Y1073924*
X1156115Y1074106*
Y1074470*
X1156240Y1074651*
X1156365Y1074742*
X1156615Y1074833*
X1156865*
X1157115Y1074742*
X1157490Y1074560*
X1158740Y1073651*
Y1074924*
X1156115Y1076924D02*
Y1076015D01*
X1157240Y1075924*
X1157115Y1076015*
X1156990Y1076288*
Y1076560*
X1157115Y1076833*
X1157365Y1077015*
X1157740Y1077106*
X1157990Y1077015*
X1158365Y1076924*
X1158615Y1076742*
X1158740Y1076470*
Y1076197*
X1158615Y1075924*
X1158490Y1075833*
X1158240Y1075742*
X1151819Y1071442D02*
X1151569Y1071351D01*
X1151319Y1071170*
X1151194Y1070988*
Y1070624*
X1151319Y1070442*
X1151569Y1070261*
X1151819Y1070170*
X1152194Y1070079*
X1152819*
X1153194Y1070170*
X1153444Y1070261*
X1153694Y1070442*
X1153819Y1070624*
Y1070988*
X1153694Y1071170*
X1153444Y1071351*
X1153194Y1071442*
X1151694Y1072261D02*
X1151569Y1072442D01*
X1151194Y1072715*
X1153819*
X1151194Y1074715D02*
Y1073806D01*
X1152319Y1073715*
X1152194Y1073806*
X1152069Y1074079*
Y1074351*
X1152194Y1074624*
X1152444Y1074806*
X1152819Y1074897*
X1153069Y1074806*
X1153444Y1074715*
X1153694Y1074533*
X1153819Y1074261*
Y1073988*
X1153694Y1073715*
X1153569Y1073624*
X1153319Y1073533*
X1151569Y1076806D02*
X1151319Y1076715D01*
X1151194Y1076442*
Y1076261*
X1151319Y1075988*
X1151694Y1075806*
X1152319Y1075715*
X1152944*
X1153444Y1075806*
X1153694Y1075988*
X1153819Y1076261*
Y1076351*
X1153694Y1076624*
X1153444Y1076806*
X1153069Y1076897*
X1152944*
X1152569Y1076806*
X1152319Y1076624*
X1152194Y1076351*
Y1076261*
X1152319Y1075988*
X1152569Y1075806*
X1152944Y1075715*
X1280756Y1099553D02*
X1280506Y1099462D01*
X1280256Y1099280*
X1280131Y1099098*
Y1098734*
X1280256Y1098553*
X1280506Y1098371*
X1280756Y1098280*
X1281131Y1098189*
X1281756*
X1282131Y1098280*
X1282381Y1098371*
X1282631Y1098553*
X1282756Y1098734*
Y1099098*
X1282631Y1099280*
X1282381Y1099462*
X1282131Y1099553*
X1280756Y1100462D02*
X1280631D01*
X1280381Y1100553*
X1280256Y1100644*
X1280131Y1100825*
Y1101189*
X1280256Y1101371*
X1280381Y1101462*
X1280631Y1101553*
X1280881*
X1281131Y1101462*
X1281506Y1101280*
X1282756Y1100371*
Y1101644*
X1280506Y1103553D02*
X1280256Y1103462D01*
X1280131Y1103189*
Y1103007*
X1280256Y1102734*
X1280631Y1102553*
X1281256Y1102462*
X1281881*
X1282381Y1102553*
X1282631Y1102734*
X1282756Y1103007*
Y1103098*
X1282631Y1103371*
X1282381Y1103553*
X1282006Y1103644*
X1281881*
X1281506Y1103553*
X1281256Y1103371*
X1281131Y1103098*
Y1103007*
X1281256Y1102734*
X1281506Y1102553*
X1281881Y1102462*
X1181228Y1061324D02*
X1180978Y1061233D01*
X1180728Y1061052*
X1180603Y1060870*
Y1060506*
X1180728Y1060324*
X1180978Y1060142*
X1181228Y1060052*
X1181603Y1059961*
X1182228*
X1182603Y1060052*
X1182853Y1060142*
X1183103Y1060324*
X1183228Y1060506*
Y1060870*
X1183103Y1061052*
X1182853Y1061233*
X1182603Y1061324*
X1181228Y1062233D02*
X1181103D01*
X1180853Y1062324*
X1180728Y1062415*
X1180603Y1062597*
Y1062961*
X1180728Y1063142*
X1180853Y1063233*
X1181103Y1063324*
X1181353*
X1181603Y1063233*
X1181978Y1063052*
X1183228Y1062142*
Y1063415*
X1180603Y1065506D02*
X1183228Y1064597D01*
X1180603Y1064233D02*
Y1065506D01*
X1272843Y1099868D02*
X1272593Y1099777D01*
X1272343Y1099595*
X1272218Y1099413*
Y1099049*
X1272343Y1098868*
X1272593Y1098686*
X1272843Y1098595*
X1273218Y1098504*
X1273843*
X1274218Y1098595*
X1274468Y1098686*
X1274718Y1098868*
X1274843Y1099049*
Y1099413*
X1274718Y1099595*
X1274468Y1099777*
X1274218Y1099868*
X1272218Y1100868D02*
Y1101868D01*
X1273218Y1101322*
Y1101595*
X1273343Y1101777*
X1273468Y1101868*
X1273843Y1101958*
X1274093*
X1274468Y1101868*
X1274718Y1101686*
X1274843Y1101413*
Y1101140*
X1274718Y1100868*
X1274593Y1100777*
X1274343Y1100686*
X1272718Y1102777D02*
X1272593Y1102958D01*
X1272218Y1103231*
X1274843*
X1217921Y1109710D02*
X1217671Y1109619D01*
X1217421Y1109437*
X1217296Y1109256*
Y1108892*
X1217421Y1108710*
X1217671Y1108528*
X1217921Y1108437*
X1218296Y1108346*
X1218921*
X1219296Y1108437*
X1219546Y1108528*
X1219796Y1108710*
X1219921Y1108892*
Y1109256*
X1219796Y1109437*
X1219546Y1109619*
X1219296Y1109710*
X1217296Y1110983D02*
X1217421Y1110710D01*
X1217671Y1110619*
X1217921*
X1218171Y1110710*
X1218296Y1110892*
X1218421Y1111256*
X1218546Y1111528*
X1218796Y1111710*
X1219046Y1111801*
X1219421*
X1219671Y1111710*
X1219796Y1111619*
X1219921Y1111346*
Y1110983*
X1219796Y1110710*
X1219671Y1110619*
X1219421Y1110528*
X1219046*
X1218796Y1110619*
X1218546Y1110801*
X1218421Y1111074*
X1218296Y1111437*
X1218171Y1111619*
X1217921Y1111710*
X1217671*
X1217421Y1111619*
X1217296Y1111346*
Y1110983*
X1217921Y1112710D02*
X1217796D01*
X1217546Y1112801*
X1217421Y1112892*
X1217296Y1113074*
Y1113437*
X1217421Y1113619*
X1217546Y1113710*
X1217796Y1113801*
X1218046*
X1218296Y1113710*
X1218671Y1113528*
X1219921Y1112619*
Y1113892*
X1209417Y1109907D02*
X1209167Y1109816D01*
X1208917Y1109634*
X1208792Y1109452*
Y1109089*
X1208917Y1108907*
X1209167Y1108725*
X1209417Y1108634*
X1209792Y1108543*
X1210417*
X1210792Y1108634*
X1211042Y1108725*
X1211292Y1108907*
X1211417Y1109089*
Y1109452*
X1211292Y1109634*
X1211042Y1109816*
X1210792Y1109907*
X1208792Y1111180D02*
X1208917Y1110907D01*
X1209167Y1110816*
X1209417*
X1209667Y1110907*
X1209792Y1111089*
X1209917Y1111452*
X1210042Y1111725*
X1210292Y1111907*
X1210542Y1111998*
X1210917*
X1211167Y1111907*
X1211292Y1111816*
X1211417Y1111543*
Y1111180*
X1211292Y1110907*
X1211167Y1110816*
X1210917Y1110725*
X1210542*
X1210292Y1110816*
X1210042Y1110998*
X1209917Y1111271*
X1209792Y1111634*
X1209667Y1111816*
X1209417Y1111907*
X1209167*
X1208917Y1111816*
X1208792Y1111543*
Y1111180*
Y1113725D02*
X1210542Y1112816D01*
Y1114180*
X1208792Y1113725D02*
X1211417D01*
X1263057Y1146803D02*
X1262966Y1147053D01*
X1262784Y1147303*
X1262602Y1147428*
X1262238*
X1262057Y1147303*
X1261875Y1147053*
X1261784Y1146803*
X1261693Y1146428*
Y1145803*
X1261784Y1145428*
X1261875Y1145178*
X1262057Y1144928*
X1262238Y1144803*
X1262602*
X1262784Y1144928*
X1262966Y1145178*
X1263057Y1145428*
X1264966Y1147053D02*
X1264875Y1147303D01*
X1264602Y1147428*
X1264420*
X1264147Y1147303*
X1263966Y1146928*
X1263875Y1146303*
Y1145678*
X1263966Y1145178*
X1264147Y1144928*
X1264420Y1144803*
X1264511*
X1264784Y1144928*
X1264966Y1145178*
X1265057Y1145553*
Y1145678*
X1264966Y1146053*
X1264784Y1146303*
X1264511Y1146428*
X1264420*
X1264147Y1146303*
X1263966Y1146053*
X1263875Y1145678*
X1265966Y1146803D02*
Y1146928D01*
X1266057Y1147178*
X1266147Y1147303*
X1266329Y1147428*
X1266693*
X1266875Y1147303*
X1266966Y1147178*
X1267057Y1146928*
Y1146678*
X1266966Y1146428*
X1266784Y1146053*
X1265875Y1144803*
X1267147*
X1211836Y1149913D02*
X1211745Y1150163D01*
X1211563Y1150413*
X1211382Y1150538*
X1211018*
X1210836Y1150413*
X1210654Y1150163*
X1210563Y1149913*
X1210472Y1149538*
Y1148913*
X1210563Y1148538*
X1210654Y1148288*
X1210836Y1148038*
X1211018Y1147913*
X1211382*
X1211563Y1148038*
X1211745Y1148288*
X1211836Y1148538*
X1213745Y1150163D02*
X1213654Y1150413D01*
X1213382Y1150538*
X1213200*
X1212927Y1150413*
X1212745Y1150038*
X1212654Y1149413*
Y1148788*
X1212745Y1148288*
X1212927Y1148038*
X1213200Y1147913*
X1213291*
X1213563Y1148038*
X1213745Y1148288*
X1213836Y1148663*
Y1148788*
X1213745Y1149163*
X1213563Y1149413*
X1213291Y1149538*
X1213200*
X1212927Y1149413*
X1212745Y1149163*
X1212654Y1148788*
X1214836Y1150538D02*
X1215836D01*
X1215291Y1149538*
X1215563*
X1215745Y1149413*
X1215836Y1149288*
X1215927Y1148913*
Y1148663*
X1215836Y1148288*
X1215654Y1148038*
X1215382Y1147913*
X1215109*
X1214836Y1148038*
X1214745Y1148163*
X1214654Y1148413*
X1180655Y1164283D02*
X1180564Y1164533D01*
X1180382Y1164783*
X1180200Y1164908*
X1179837*
X1179655Y1164783*
X1179473Y1164533*
X1179382Y1164283*
X1179291Y1163908*
Y1163283*
X1179382Y1162908*
X1179473Y1162658*
X1179655Y1162408*
X1179837Y1162283*
X1180200*
X1180382Y1162408*
X1180564Y1162658*
X1180655Y1162908*
X1181473Y1164408D02*
X1181655Y1164533D01*
X1181928Y1164908*
Y1162283*
X1272033Y1203850D02*
X1271942Y1204100D01*
X1271760Y1204350*
X1271578Y1204475*
X1271215*
X1271033Y1204350*
X1270851Y1204100*
X1270760Y1203850*
X1270669Y1203475*
Y1202850*
X1270760Y1202475*
X1270851Y1202225*
X1271033Y1201975*
X1271215Y1201850*
X1271578*
X1271760Y1201975*
X1271942Y1202225*
X1272033Y1202475*
X1272851Y1203975D02*
X1273033Y1204100D01*
X1273306Y1204475*
Y1201850*
X1274306Y1204475D02*
X1275306D01*
X1274760Y1203475*
X1275033*
X1275215Y1203350*
X1275306Y1203225*
X1275397Y1202850*
Y1202600*
X1275306Y1202225*
X1275124Y1201975*
X1274851Y1201850*
X1274578*
X1274306Y1201975*
X1274215Y1202100*
X1274124Y1202350*
X1263512Y1166994D02*
X1263262Y1166903D01*
X1263012Y1166721*
X1262887Y1166539*
Y1166175*
X1263012Y1165994*
X1263262Y1165812*
X1263512Y1165721*
X1263887Y1165630*
X1264512*
X1264887Y1165721*
X1265137Y1165812*
X1265387Y1165994*
X1265512Y1166175*
Y1166539*
X1265387Y1166721*
X1265137Y1166903*
X1264887Y1166994*
X1263387Y1167812D02*
X1263262Y1167994D01*
X1262887Y1168266*
X1265512*
X1262887Y1169994D02*
X1264637Y1169084D01*
Y1170448*
X1262887Y1169994D02*
X1265512D01*
X1177230Y1183614D02*
X1177139Y1183864D01*
X1176957Y1184114*
X1176775Y1184239*
X1176412*
X1176230Y1184114*
X1176048Y1183864*
X1175957Y1183614*
X1175866Y1183239*
Y1182614*
X1175957Y1182239*
X1176048Y1181989*
X1176230Y1181739*
X1176412Y1181614*
X1176775*
X1176957Y1181739*
X1177139Y1181989*
X1177230Y1182239*
X1178048Y1183739D02*
X1178230Y1183864D01*
X1178503Y1184239*
Y1181614*
X1180593Y1184239D02*
X1179684Y1181614D01*
X1179321Y1184239D02*
X1180593D01*
X1271285Y1148260D02*
X1271194Y1148510D01*
X1271012Y1148760*
X1270830Y1148885*
X1270467*
X1270285Y1148760*
X1270103Y1148510*
X1270012Y1148260*
X1269921Y1147885*
Y1147260*
X1270012Y1146885*
X1270103Y1146635*
X1270285Y1146385*
X1270467Y1146260*
X1270830*
X1271012Y1146385*
X1271194Y1146635*
X1271285Y1146885*
X1272103Y1148385D02*
X1272285Y1148510D01*
X1272558Y1148885*
Y1146260*
X1273830Y1148885D02*
X1273558Y1148760D01*
X1273467Y1148510*
Y1148260*
X1273558Y1148010*
X1273739Y1147885*
X1274103Y1147760*
X1274376Y1147635*
X1274558Y1147385*
X1274649Y1147135*
Y1146760*
X1274558Y1146510*
X1274467Y1146385*
X1274194Y1146260*
X1273830*
X1273558Y1146385*
X1273467Y1146510*
X1273376Y1146760*
Y1147135*
X1273467Y1147385*
X1273649Y1147635*
X1273921Y1147760*
X1274285Y1147885*
X1274467Y1148010*
X1274558Y1148260*
Y1148510*
X1274467Y1148760*
X1274194Y1148885*
X1273830*
X1209710Y1156646D02*
X1209619Y1156896D01*
X1209437Y1157146*
X1209256Y1157271*
X1208892*
X1208710Y1157146*
X1208528Y1156896*
X1208437Y1156646*
X1208346Y1156271*
Y1155646*
X1208437Y1155271*
X1208528Y1155021*
X1208710Y1154771*
X1208892Y1154646*
X1209256*
X1209437Y1154771*
X1209619Y1155021*
X1209710Y1155271*
X1210619Y1156646D02*
Y1156771D01*
X1210710Y1157021*
X1210801Y1157146*
X1210983Y1157271*
X1211346*
X1211528Y1157146*
X1211619Y1157021*
X1211710Y1156771*
Y1156521*
X1211619Y1156271*
X1211437Y1155896*
X1210528Y1154646*
X1211801*
X1287843Y1099041D02*
X1287593Y1098950D01*
X1287343Y1098768*
X1287218Y1098586*
Y1098223*
X1287343Y1098041*
X1287593Y1097859*
X1287843Y1097768*
X1288218Y1097677*
X1288843*
X1289218Y1097768*
X1289468Y1097859*
X1289718Y1098041*
X1289843Y1098223*
Y1098586*
X1289718Y1098768*
X1289468Y1098950*
X1289218Y1099041*
X1287843Y1099950D02*
X1287718D01*
X1287468Y1100041*
X1287343Y1100132*
X1287218Y1100314*
Y1100677*
X1287343Y1100859*
X1287468Y1100950*
X1287718Y1101041*
X1287968*
X1288218Y1100950*
X1288593Y1100768*
X1289843Y1099859*
Y1101132*
X1287843Y1102041D02*
X1287718D01*
X1287468Y1102132*
X1287343Y1102223*
X1287218Y1102404*
Y1102768*
X1287343Y1102950*
X1287468Y1103041*
X1287718Y1103132*
X1287968*
X1288218Y1103041*
X1288593Y1102859*
X1289843Y1101950*
Y1103223*
X1087584Y1111291D02*
X1087493Y1111541D01*
X1087311Y1111791*
X1087130Y1111916*
X1086766*
X1086584Y1111791*
X1086402Y1111541*
X1086311Y1111291*
X1086220Y1110916*
Y1110291*
X1086311Y1109916*
X1086402Y1109666*
X1086584Y1109416*
X1086766Y1109291*
X1087130*
X1087311Y1109416*
X1087493Y1109666*
X1087584Y1109916*
X1088493Y1111291D02*
Y1111416D01*
X1088584Y1111666*
X1088675Y1111791*
X1088857Y1111916*
X1089220*
X1089402Y1111791*
X1089493Y1111666*
X1089584Y1111416*
Y1111166*
X1089493Y1110916*
X1089311Y1110541*
X1088402Y1109291*
X1089675*
X1091675Y1111041D02*
X1091584Y1110666D01*
X1091402Y1110416*
X1091130Y1110291*
X1091039*
X1090766Y1110416*
X1090584Y1110666*
X1090493Y1111041*
Y1111166*
X1090584Y1111541*
X1090766Y1111791*
X1091039Y1111916*
X1091130*
X1091402Y1111791*
X1091584Y1111541*
X1091675Y1111041*
Y1110416*
X1091584Y1109791*
X1091402Y1109416*
X1091130Y1109291*
X1090948*
X1090675Y1109416*
X1090584Y1109666*
X1108805Y1037394D02*
X1108714Y1037644D01*
X1108532Y1037894*
X1108350Y1038019*
X1107986*
X1107805Y1037894*
X1107623Y1037644*
X1107532Y1037394*
X1107441Y1037019*
Y1036394*
X1107532Y1036019*
X1107623Y1035769*
X1107805Y1035519*
X1107986Y1035394*
X1108350*
X1108532Y1035519*
X1108714Y1035769*
X1108805Y1036019*
X1109805Y1038019D02*
X1110805D01*
X1110259Y1037019*
X1110532*
X1110714Y1036894*
X1110805Y1036769*
X1110895Y1036394*
Y1036144*
X1110805Y1035769*
X1110623Y1035519*
X1110350Y1035394*
X1110077*
X1109805Y1035519*
X1109714Y1035644*
X1109623Y1035894*
X1111805Y1037394D02*
Y1037519D01*
X1111895Y1037769*
X1111986Y1037894*
X1112168Y1038019*
X1112532*
X1112714Y1037894*
X1112805Y1037769*
X1112895Y1037519*
Y1037269*
X1112805Y1037019*
X1112623Y1036644*
X1111714Y1035394*
X1112986*
X1141009Y1096843D02*
X1140918Y1097093D01*
X1140737Y1097343*
X1140555Y1097468*
X1140191*
X1140009Y1097343*
X1139827Y1097093*
X1139737Y1096843*
X1139646Y1096468*
Y1095843*
X1139737Y1095468*
X1139827Y1095218*
X1140009Y1094968*
X1140191Y1094843*
X1140555*
X1140737Y1094968*
X1140918Y1095218*
X1141009Y1095468*
X1142009Y1097468D02*
X1143009D01*
X1142464Y1096468*
X1142737*
X1142918Y1096343*
X1143009Y1096218*
X1143100Y1095843*
Y1095593*
X1143009Y1095218*
X1142827Y1094968*
X1142555Y1094843*
X1142282*
X1142009Y1094968*
X1141918Y1095093*
X1141827Y1095343*
X1144100Y1097468D02*
X1145100D01*
X1144555Y1096468*
X1144827*
X1145009Y1096343*
X1145100Y1096218*
X1145191Y1095843*
Y1095593*
X1145100Y1095218*
X1144918Y1094968*
X1144646Y1094843*
X1144373*
X1144100Y1094968*
X1144009Y1095093*
X1143918Y1095343*
X1087291Y1080655D02*
X1087041Y1080564D01*
X1086791Y1080382*
X1086666Y1080200*
Y1079837*
X1086791Y1079655*
X1087041Y1079473*
X1087291Y1079382*
X1087666Y1079291*
X1088291*
X1088666Y1079382*
X1088916Y1079473*
X1089166Y1079655*
X1089291Y1079837*
Y1080200*
X1089166Y1080382*
X1088916Y1080564*
X1088666Y1080655*
X1086666Y1081655D02*
Y1082655D01*
X1087666Y1082110*
Y1082382*
X1087791Y1082564*
X1087916Y1082655*
X1088291Y1082746*
X1088541*
X1088916Y1082655*
X1089166Y1082473*
X1089291Y1082200*
Y1081928*
X1089166Y1081655*
X1089041Y1081564*
X1088791Y1081473*
X1086666Y1084473D02*
X1088416Y1083564D01*
Y1084928*
X1086666Y1084473D02*
X1089291D01*
X1220205Y1236639D02*
X1219955Y1236548D01*
X1219705Y1236366*
X1219705D02*
X1219580Y1236185D01*
Y1235821*
X1219705Y1235639*
X1219955Y1235457*
X1220205Y1235366*
X1220205D02*
X1220580Y1235276D01*
X1221205*
X1221580Y1235366*
X1221580D02*
X1221830Y1235457D01*
X1222080Y1235639*
X1222205Y1235821*
Y1236185*
X1222080Y1236366*
X1222080D02*
X1221830Y1236548D01*
X1221580Y1236639*
X1219580Y1238366D02*
X1221330Y1237457D01*
Y1238821*
X1219580Y1238366D02*
X1222205D01*
X1224142Y1108647D02*
X1223892Y1108556D01*
X1223642Y1108374*
X1223517Y1108193*
Y1107829*
X1223642Y1107647*
X1223892Y1107465*
X1224142Y1107374*
X1224517Y1107283*
X1225142*
X1225517Y1107374*
X1225767Y1107465*
X1226017Y1107647*
X1226142Y1107829*
Y1108193*
X1226017Y1108374*
X1225767Y1108556*
X1225517Y1108647*
X1223517Y1109920D02*
X1223642Y1109647D01*
X1223892Y1109556*
X1224142*
X1224392Y1109647*
X1224517Y1109829*
X1224642Y1110193*
X1224767Y1110465*
X1225017Y1110647*
X1225267Y1110738*
X1225642*
X1225892Y1110647*
X1226017Y1110556*
X1226142Y1110283*
Y1109920*
X1226017Y1109647*
X1225892Y1109556*
X1225642Y1109465*
X1225267*
X1225017Y1109556*
X1224767Y1109738*
X1224642Y1110011*
X1224517Y1110374*
X1224392Y1110556*
X1224142Y1110647*
X1223892*
X1223642Y1110556*
X1223517Y1110283*
Y1109920*
X1224017Y1111556D02*
X1223892Y1111738D01*
X1223517Y1112011*
X1226142*
X1161425Y1071442D02*
X1161175Y1071351D01*
X1160925Y1071170*
X1160800Y1070988*
Y1070624*
X1160925Y1070442*
X1161175Y1070261*
X1161425Y1070170*
X1161800Y1070079*
X1162425*
X1162800Y1070170*
X1163050Y1070261*
X1163300Y1070442*
X1163425Y1070624*
Y1070988*
X1163300Y1071170*
X1163050Y1071351*
X1162800Y1071442*
X1160800Y1072715D02*
X1160925Y1072442D01*
X1161175Y1072351*
X1161425*
X1161675Y1072442*
X1161800Y1072624*
X1161925Y1072988*
X1162050Y1073261*
X1162300Y1073442*
X1162550Y1073533*
X1162925*
X1163175Y1073442*
X1163300Y1073351*
X1163425Y1073079*
Y1072715*
X1163300Y1072442*
X1163175Y1072351*
X1162925Y1072261*
X1162550*
X1162300Y1072351*
X1162050Y1072533*
X1161925Y1072806*
X1161800Y1073170*
X1161675Y1073351*
X1161425Y1073442*
X1161175*
X1160925Y1073351*
X1160800Y1073079*
Y1072715*
Y1074806D02*
X1160925Y1074533D01*
X1161175Y1074442*
X1161425*
X1161675Y1074533*
X1161800Y1074715*
X1161925Y1075079*
X1162050Y1075351*
X1162300Y1075533*
X1162550Y1075624*
X1162925*
X1163175Y1075533*
X1163300Y1075442*
X1163425Y1075170*
Y1074806*
X1163300Y1074533*
X1163175Y1074442*
X1162925Y1074351*
X1162550*
X1162300Y1074442*
X1162050Y1074624*
X1161925Y1074897*
X1161800Y1075261*
X1161675Y1075442*
X1161425Y1075533*
X1161175*
X1160925Y1075442*
X1160800Y1075170*
Y1074806*
X1058214Y1300661D02*
X1058123Y1300911D01*
X1057941Y1301161*
X1057759Y1301286*
X1057396*
X1057214Y1301161*
X1057032Y1300911*
X1056941Y1300661*
X1056850Y1300286*
Y1299661*
X1056941Y1299286*
X1057032Y1299036*
X1057214Y1298786*
X1057396Y1298661*
X1057759*
X1057941Y1298786*
X1058123Y1299036*
X1058214Y1299286*
X1059941Y1301286D02*
X1059032Y1299536D01*
X1060396*
X1059941Y1301286D02*
Y1298661D01*
X1062396Y1301286D02*
X1061487D01*
X1061396Y1300161*
X1061487Y1300286*
X1061759Y1300411*
X1062032*
X1062305Y1300286*
X1062487Y1300036*
X1062578Y1299661*
X1062487Y1299411*
X1062396Y1299036*
X1062214Y1298786*
X1061941Y1298661*
X1061669*
X1061396Y1298786*
X1061305Y1298911*
X1061214Y1299161*
X1244409Y1279987D02*
Y1277362D01*
Y1279987D02*
X1245046D01*
X1245319Y1279862*
X1245500Y1279612*
X1245591Y1279362*
X1245682Y1278987*
Y1278362*
X1245591Y1277987*
X1245500Y1277737*
X1245319Y1277487*
X1245046Y1277362*
X1244409*
X1247682Y1279987D02*
X1246773D01*
X1246682Y1278862*
X1246773Y1278987*
X1247046Y1279112*
X1247319*
X1247591Y1278987*
X1247773Y1278737*
X1247864Y1278362*
X1247773Y1278112*
X1247682Y1277737*
X1247500Y1277487*
X1247228Y1277362*
X1246955*
X1246682Y1277487*
X1246591Y1277612*
X1246500Y1277862*
X1114764Y1128649D02*
Y1126024D01*
Y1128649D02*
X1115400D01*
X1115673Y1128524*
X1115855Y1128274*
X1115946Y1128024*
X1116037Y1127649*
Y1127024*
X1115946Y1126649*
X1115855Y1126399*
X1115673Y1126149*
X1115400Y1126024*
X1114764*
X1118127Y1128649D02*
X1117218Y1126024D01*
X1116855Y1128649D02*
X1118127D01*
X1187520Y1112192D02*
Y1109567D01*
Y1112192D02*
X1188156D01*
X1188429Y1112067*
X1188611Y1111817*
X1188702Y1111567*
X1188792Y1111192*
Y1110567*
X1188702Y1110192*
X1188611Y1109942*
X1188429Y1109692*
X1188156Y1109567*
X1187520*
X1189611Y1111692D02*
X1189792Y1111817D01*
X1190065Y1112192*
Y1109567*
X1192156Y1112192D02*
X1191247Y1109567D01*
X1190883Y1112192D02*
X1192156D01*
X1126018Y1112861D02*
X1125836Y1112736D01*
X1125654Y1112486*
X1125563Y1112236*
X1125472Y1111861*
Y1111236*
X1125563Y1110861*
X1125654Y1110611*
X1125836Y1110361*
X1126018Y1110236*
X1126382*
X1126563Y1110361*
X1126745Y1110611*
X1126836Y1110861*
X1126927Y1111236*
Y1111861*
X1126836Y1112236*
X1126745Y1112486*
X1126563Y1112736*
X1126382Y1112861*
X1126018*
X1126291Y1110736D02*
X1126836Y1109986D01*
X1127836Y1112236D02*
Y1112361D01*
X1127927Y1112611*
X1128018Y1112736*
X1128200Y1112861*
X1128563*
X1128745Y1112736*
X1128836Y1112611*
X1128927Y1112361*
Y1112111*
X1128836Y1111861*
X1128654Y1111486*
X1127745Y1110236*
X1129018*
X1130745Y1112861D02*
X1129836Y1111111D01*
X1131200*
X1130745Y1112861D02*
Y1110236D01*
X1087947Y1103216D02*
X1087765Y1103091D01*
X1087583Y1102841*
X1087492Y1102591*
X1087402Y1102216*
Y1101591*
X1087492Y1101216*
X1087583Y1100966*
X1087765Y1100716*
X1087947Y1100591*
X1088311*
X1088492Y1100716*
X1088674Y1100966*
X1088765Y1101216*
X1088856Y1101591*
Y1102216*
X1088765Y1102591*
X1088674Y1102841*
X1088492Y1103091*
X1088311Y1103216*
X1087947*
X1088220Y1101091D02*
X1088765Y1100341D01*
X1090583Y1103216D02*
X1089674Y1101466D01*
X1091038*
X1090583Y1103216D02*
Y1100591D01*
X1093038Y1103216D02*
X1092129D01*
X1092038Y1102091*
X1092129Y1102216*
X1092402Y1102341*
X1092674*
X1092947Y1102216*
X1093129Y1101966*
X1093220Y1101591*
X1093129Y1101341*
X1093038Y1100966*
X1092856Y1100716*
X1092583Y1100591*
X1092311*
X1092038Y1100716*
X1091947Y1100841*
X1091856Y1101091*
X1110506Y1075105D02*
X1110324Y1074980D01*
X1110142Y1074730*
X1110052Y1074480*
X1109961Y1074105*
Y1073480*
X1110052Y1073105*
X1110142Y1072855*
X1110324Y1072605*
X1110506Y1072480*
X1110870*
X1111052Y1072605*
X1111233Y1072855*
X1111324Y1073105*
X1111415Y1073480*
Y1074105*
X1111324Y1074480*
X1111233Y1074730*
X1111052Y1074980*
X1110870Y1075105*
X1110506*
X1110779Y1072980D02*
X1111324Y1072230D01*
X1113142Y1075105D02*
X1112233Y1073355D01*
X1113597*
X1113142Y1075105D02*
Y1072480D01*
X1115506Y1074730D02*
X1115415Y1074980D01*
X1115142Y1075105*
X1114961*
X1114688Y1074980*
X1114506Y1074605*
X1114415Y1073980*
Y1073355*
X1114506Y1072855*
X1114688Y1072605*
X1114961Y1072480*
X1115052*
X1115324Y1072605*
X1115506Y1072855*
X1115597Y1073230*
Y1073355*
X1115506Y1073730*
X1115324Y1073980*
X1115052Y1074105*
X1114961*
X1114688Y1073980*
X1114506Y1073730*
X1114415Y1073355*
X1223307Y1323531D02*
Y1320906D01*
Y1323531D02*
X1223943D01*
X1224216Y1323406*
X1224398Y1323156*
X1224489Y1322906*
X1224580Y1322531*
Y1321906*
X1224489Y1321531*
X1224398Y1321281*
X1224216Y1321031*
X1223943Y1320906*
X1223307*
X1225580Y1323531D02*
X1226580D01*
X1226034Y1322531*
X1226307*
X1226489Y1322406*
X1226580Y1322281*
X1226671Y1321906*
Y1321656*
X1226580Y1321281*
X1226398Y1321031*
X1226125Y1320906*
X1225853*
X1225580Y1321031*
X1225489Y1321156*
X1225398Y1321406*
X1232808Y1183071D02*
X1234683D01*
X1235058Y1183162*
X1235308Y1183344*
X1235433Y1183616*
Y1183798*
X1235308Y1184071*
X1235058Y1184253*
X1234683Y1184344*
X1232808*
X1233308Y1185162D02*
X1233183Y1185344D01*
X1232808Y1185616*
X1235433*
X1252362Y1114830D02*
Y1112955D01*
X1252453Y1112580*
X1252635Y1112330*
X1252908Y1112205*
X1253089*
X1253362Y1112330*
X1253544Y1112580*
X1253635Y1112955*
Y1114830*
X1255635D02*
X1254726D01*
X1254635Y1113705*
X1254726Y1113830*
X1254999Y1113955*
X1255271*
X1255544Y1113830*
X1255726Y1113580*
X1255817Y1113205*
X1255726Y1112955*
X1255635Y1112580*
X1255453Y1112330*
X1255180Y1112205*
X1254908*
X1254635Y1112330*
X1254544Y1112455*
X1254453Y1112705*
X1158543Y1113609D02*
Y1110984D01*
X1159634*
X1160543Y1112984D02*
Y1113109D01*
X1160634Y1113359*
X1160725Y1113484*
X1160907Y1113609*
X1161271*
X1161452Y1113484*
X1161543Y1113359*
X1161634Y1113109*
Y1112859*
X1161543Y1112609*
X1161361Y1112234*
X1160452Y1110984*
X1161725*
X1162543Y1113109D02*
X1162725Y1113234D01*
X1162998Y1113609*
Y1110984*
X1332466Y1014480D02*
X1332375Y1014730D01*
X1332193Y1014980*
X1332011Y1015105*
X1331648*
X1331466Y1014980*
X1331284Y1014730*
X1331193Y1014480*
X1331102Y1014105*
Y1013480*
X1331193Y1013105*
X1331284Y1012855*
X1331466Y1012605*
X1331648Y1012480*
X1332011*
X1332193Y1012605*
X1332375Y1012855*
X1332466Y1013105*
X1333284Y1015105D02*
Y1012480D01*
Y1015105D02*
X1334557Y1012480D01*
Y1015105D02*
Y1012480D01*
X1335375Y1014605D02*
X1335557Y1014730D01*
X1335830Y1015105*
Y1012480*
X1331614Y1067428D02*
Y1065553D01*
X1331705Y1065178*
X1331887Y1064928*
X1332160Y1064803*
X1332341*
X1332614Y1064928*
X1332796Y1065178*
X1332887Y1065553*
Y1067428*
X1334160D02*
X1333887Y1067303D01*
X1333796Y1067053*
Y1066803*
X1333887Y1066553*
X1334069Y1066428*
X1334432Y1066303*
X1334705Y1066178*
X1334887Y1065928*
X1334978Y1065678*
Y1065303*
X1334887Y1065053*
X1334796Y1064928*
X1334523Y1064803*
X1334160*
X1333887Y1064928*
X1333796Y1065053*
X1333705Y1065303*
Y1065678*
X1333796Y1065928*
X1333978Y1066178*
X1334251Y1066303*
X1334614Y1066428*
X1334796Y1066553*
X1334887Y1066803*
Y1067053*
X1334796Y1067303*
X1334523Y1067428*
X1334160*
X1206693Y1136759D02*
X1207420Y1135509D01*
Y1134134*
X1208147Y1136759D02*
X1207420Y1135509D01*
X1208966Y1136259D02*
X1209147Y1136384D01*
X1209420Y1136759*
Y1134134*
X1369055Y1092310D02*
Y1089685D01*
Y1092310D02*
X1369873D01*
X1370146Y1092185*
X1370237Y1092060*
X1370328Y1091810*
Y1091560*
X1370237Y1091310*
X1370146Y1091185*
X1369873Y1091060*
X1369055*
X1369691D02*
X1370328Y1089685D01*
X1371146Y1091810D02*
X1371328Y1091935D01*
X1371601Y1092310*
Y1089685*
X1373328Y1092310D02*
X1372419Y1090560D01*
X1373782*
X1373328Y1092310D02*
Y1089685D01*
X1274724Y1300263D02*
Y1297638D01*
Y1300263D02*
X1275543D01*
X1275815Y1300138*
X1275906Y1300013*
X1275997Y1299763*
Y1299513*
X1275906Y1299263*
X1275815Y1299138*
X1275543Y1299013*
X1274724*
X1275361D02*
X1275997Y1297638D01*
X1276906Y1299638D02*
Y1299763D01*
X1276997Y1300013*
X1277088Y1300138*
X1277270Y1300263*
X1277634*
X1277634D02*
X1277815Y1300138D01*
X1277906Y1300013*
X1277997Y1299763*
Y1299513*
X1277906Y1299263*
X1277724Y1298888*
X1276815Y1297638*
X1278088*
X1075512Y1301405D02*
Y1298780D01*
Y1301405D02*
X1076330D01*
X1076603Y1301280*
X1076694Y1301155*
X1076785Y1300905*
Y1300655*
X1076694Y1300405*
X1076603Y1300280*
X1076330Y1300155*
X1075512*
X1076148D02*
X1076785Y1298780D01*
X1077603Y1300905D02*
X1077785Y1301030D01*
X1078057Y1301405*
Y1298780*
X1080148Y1301405D02*
X1079239Y1298780D01*
X1078875Y1301405D02*
X1080148D01*
X1301679Y1212827D02*
X1301588Y1213077D01*
X1301406Y1213327*
X1301224Y1213452*
X1300860*
X1300679Y1213327*
X1300497Y1213077*
X1300406Y1212827*
X1300315Y1212452*
Y1211827*
X1300406Y1211452*
X1300497Y1211202*
X1300679Y1210952*
X1300860Y1210827*
X1301224*
X1301406Y1210952*
X1301588Y1211202*
X1301679Y1211452*
X1303588Y1213077D02*
X1303497Y1213327D01*
X1303224Y1213452*
X1303042*
X1302770Y1213327*
X1302588Y1212952*
X1302497Y1212327*
Y1211702*
X1302588Y1211202*
X1302770Y1210952*
X1303042Y1210827*
X1303133*
X1303406Y1210952*
X1303588Y1211202*
X1303679Y1211577*
Y1211702*
X1303588Y1212077*
X1303406Y1212327*
X1303133Y1212452*
X1303042*
X1302770Y1212327*
X1302588Y1212077*
X1302497Y1211702*
X1305679Y1212577D02*
X1305588Y1212202D01*
X1305406Y1211952*
X1305133Y1211827*
X1305042*
X1304770Y1211952*
X1304588Y1212202*
X1304497Y1212577*
Y1212702*
X1304588Y1213077*
X1304770Y1213327*
X1305042Y1213452*
X1305133*
X1305406Y1213327*
X1305588Y1213077*
X1305679Y1212577*
Y1211952*
X1305588Y1211327*
X1305406Y1210952*
X1305133Y1210827*
X1304951*
X1304679Y1210952*
X1304588Y1211202*
X1155025Y1282866D02*
X1154934Y1283116D01*
X1154752Y1283366*
X1154571Y1283491*
X1154207*
X1154025Y1283366*
X1153843Y1283116*
X1153752Y1282866*
X1153661Y1282491*
Y1281866*
X1153752Y1281491*
X1153843Y1281241*
X1154025Y1280991*
X1154207Y1280866*
X1154571*
X1154752Y1280991*
X1154934Y1281241*
X1155025Y1281491*
X1156934Y1283116D02*
X1156843Y1283366D01*
X1156571Y1283491*
X1156389*
X1156116Y1283366*
X1155934Y1282991*
X1155843Y1282366*
Y1281741*
X1155934Y1281241*
X1156116Y1280991*
X1156389Y1280866*
X1156480*
X1156752Y1280991*
X1156934Y1281241*
X1157025Y1281616*
Y1281741*
X1156934Y1282116*
X1156752Y1282366*
X1156480Y1282491*
X1156389*
X1156116Y1282366*
X1155934Y1282116*
X1155843Y1281741*
X1159116Y1283491D02*
X1158207Y1280866D01*
X1157843Y1283491D02*
X1159116D01*
X1361102Y1112271D02*
Y1109646D01*
Y1112271D02*
X1361739D01*
X1362011Y1112146*
X1362193Y1111896*
X1362284Y1111646*
X1362375Y1111271*
Y1110646*
X1362284Y1110271*
X1362193Y1110021*
X1362011Y1109771*
X1361739Y1109646*
X1361102*
X1363193Y1111771D02*
X1363375Y1111896D01*
X1363648Y1112271*
Y1109646*
X1220276Y1267901D02*
Y1265276D01*
Y1267901D02*
X1220912D01*
X1221185Y1267776*
X1221366Y1267526*
X1221366D02*
X1221457Y1267276D01*
X1221548Y1266901*
Y1266276*
X1221457Y1265901*
X1221366Y1265651*
X1221366D02*
X1221185Y1265401D01*
X1220912Y1265276*
X1220276*
X1223276Y1267901D02*
X1222366Y1266151D01*
X1222366D02*
X1223730D01*
X1223276Y1267901D02*
Y1265276D01*
X1152638Y1292113D02*
Y1289488D01*
Y1292113D02*
X1153456D01*
X1153729Y1291988*
X1153820Y1291863*
X1153911Y1291613*
Y1291363*
X1153820Y1291113*
X1153729Y1290988*
X1153456Y1290863*
X1152638*
X1153274D02*
X1153911Y1289488D01*
X1155638Y1292113D02*
X1154729Y1290363D01*
X1156092*
X1155638Y1292113D02*
Y1289488D01*
X1158092Y1291238D02*
X1158001Y1290863D01*
X1157820Y1290613*
X1157547Y1290488*
X1157456*
X1157183Y1290613*
X1157001Y1290863*
X1156911Y1291238*
Y1291363*
X1157001Y1291738*
X1157183Y1291988*
X1157456Y1292113*
X1157547*
X1157820Y1291988*
X1158001Y1291738*
X1158092Y1291238*
Y1290613*
X1158001Y1289988*
X1157820Y1289613*
X1157547Y1289488*
X1157365*
X1157092Y1289613*
X1157001Y1289863*
X1152520Y1287901D02*
Y1285276D01*
Y1287901D02*
X1153338D01*
X1153611Y1287776*
X1153702Y1287651*
X1153792Y1287401*
Y1287151*
X1153702Y1286901*
X1153611Y1286776*
X1153338Y1286651*
X1152520*
X1153156D02*
X1153792Y1285276D01*
X1155792Y1287901D02*
X1154883D01*
X1154792Y1286776*
X1154883Y1286901*
X1155156Y1287026*
X1155429*
X1155702Y1286901*
X1155883Y1286651*
X1155974Y1286276*
X1155883Y1286026*
X1155792Y1285651*
X1155611Y1285401*
X1155338Y1285276*
X1155065*
X1154792Y1285401*
X1154702Y1285526*
X1154611Y1285776*
X1157338Y1287901D02*
X1157065Y1287776D01*
X1156883Y1287401*
X1156792Y1286776*
Y1286401*
X1156883Y1285776*
X1157065Y1285401*
X1157338Y1285276*
X1157520*
X1157792Y1285401*
X1157974Y1285776*
X1158065Y1286401*
Y1286776*
X1157974Y1287401*
X1157792Y1287776*
X1157520Y1287901*
X1157338*
X1291378Y1294318D02*
Y1291693D01*
Y1294318D02*
X1292196D01*
X1292469Y1294193*
X1292560Y1294068*
X1292651Y1293818*
Y1293568*
X1292560Y1293318*
X1292469Y1293193*
X1292196Y1293068*
X1291378*
X1292014D02*
X1292651Y1291693D01*
X1293469Y1293818D02*
X1293651Y1293943D01*
X1293923Y1294318*
Y1291693*
X1264304Y1262441D02*
X1266929D01*
X1264304D02*
Y1263259D01*
X1264429Y1263532*
X1264554Y1263623*
X1264804Y1263714*
X1265054*
X1265304Y1263623*
X1265429Y1263532*
X1265554Y1263259*
Y1262441*
Y1263077D02*
X1266929Y1263714D01*
X1264804Y1264532D02*
X1264679Y1264714D01*
X1264304Y1264986*
X1266929*
X1264679Y1266895D02*
X1264429Y1266805D01*
X1264304Y1266532*
Y1266350*
X1264429Y1266077*
X1264804Y1265895*
X1265429Y1265805*
X1266054*
X1266554Y1265895*
X1266804Y1266077*
X1266929Y1266350*
Y1266441*
X1266804Y1266714*
X1266554Y1266895*
X1266179Y1266986*
X1266054*
X1265679Y1266895*
X1265429Y1266714*
X1265304Y1266441*
Y1266350*
X1265429Y1266077*
X1265679Y1265895*
X1266054Y1265805*
X1291496Y1283491D02*
Y1280866D01*
Y1283491D02*
X1292314D01*
X1292587Y1283366*
X1292678Y1283241*
X1292769Y1282991*
Y1282741*
X1292678Y1282491*
X1292587Y1282366*
X1292314Y1282241*
X1291496*
X1292132D02*
X1292769Y1280866D01*
X1294496Y1283491D02*
X1293587Y1281741D01*
X1294951*
X1294496Y1283491D02*
Y1280866D01*
X1288858Y1274042D02*
Y1271417D01*
Y1274042D02*
X1289676D01*
X1289949Y1273917*
X1290040Y1273792*
X1290131Y1273542*
Y1273292*
X1290040Y1273042*
X1289949Y1272917*
X1289676Y1272792*
X1288858*
X1289495D02*
X1290131Y1271417D01*
X1292131Y1274042D02*
X1291222D01*
X1291131Y1272917*
X1291222Y1273042*
X1291495Y1273167*
X1291767*
X1292040Y1273042*
X1292222Y1272792*
X1292313Y1272417*
X1292222Y1272167*
X1292131Y1271792*
X1291949Y1271542*
X1291676Y1271417*
X1291404*
X1291131Y1271542*
X1291040Y1271667*
X1290949Y1271917*
X1341457Y1218964D02*
Y1216339D01*
Y1218964D02*
X1342275D01*
X1342548Y1218839*
X1342639Y1218714*
X1342729Y1218464*
Y1218214*
X1342639Y1217964*
X1342548Y1217839*
X1342275Y1217714*
X1341457*
X1342093D02*
X1342729Y1216339D01*
X1344729Y1218964D02*
X1343820D01*
X1343729Y1217839*
X1343820Y1217964*
X1344093Y1218089*
X1344366*
X1344639Y1217964*
X1344820Y1217714*
X1344911Y1217339*
X1344820Y1217089*
X1344729Y1216714*
X1344548Y1216464*
X1344275Y1216339*
X1344002*
X1343729Y1216464*
X1343639Y1216589*
X1343548Y1216839*
X1347002Y1218964D02*
X1346093Y1216339D01*
X1345729Y1218964D02*
X1347002D01*
X1291260Y1264751D02*
Y1262126D01*
Y1264751D02*
X1292078D01*
X1292351Y1264626*
X1292442Y1264501*
X1292533Y1264251*
Y1264001*
X1292442Y1263751*
X1292351Y1263626*
X1292078Y1263501*
X1291260*
X1291896D02*
X1292533Y1262126D01*
X1294442Y1264376D02*
X1294351Y1264626D01*
X1294078Y1264751*
X1293896*
X1293623Y1264626*
X1293442Y1264251*
X1293351Y1263626*
Y1263001*
X1293442Y1262501*
X1293623Y1262251*
X1293896Y1262126*
X1293987*
X1294260Y1262251*
X1294442Y1262501*
X1294533Y1262876*
Y1263001*
X1294442Y1263376*
X1294260Y1263626*
X1293987Y1263751*
X1293896*
X1293623Y1263626*
X1293442Y1263376*
X1293351Y1263001*
X1204370Y1312704D02*
Y1310079D01*
Y1312704D02*
X1205188D01*
X1205461Y1312579*
X1205552Y1312454*
X1205643Y1312204*
Y1311954*
X1205552Y1311704*
X1205461Y1311579*
X1205188Y1311454*
X1204370*
X1205006D02*
X1205643Y1310079D01*
X1206461Y1312204D02*
X1206643Y1312329D01*
X1206916Y1312704*
Y1310079*
X1207734Y1312204D02*
X1207916Y1312329D01*
X1208188Y1312704*
Y1310079*
X1092165Y1301523D02*
Y1298898D01*
Y1301523D02*
X1092984D01*
X1093256Y1301398*
X1093347Y1301273*
X1093438Y1301023*
Y1300773*
X1093347Y1300523*
X1093256Y1300398*
X1092984Y1300273*
X1092165*
X1092802D02*
X1093438Y1298898D01*
X1095438Y1301523D02*
X1094529D01*
X1094438Y1300398*
X1094529Y1300523*
X1094802Y1300648*
X1095074*
X1095347Y1300523*
X1095529Y1300273*
X1095620Y1299898*
X1095529Y1299648*
X1095438Y1299273*
X1095256Y1299023*
X1094984Y1298898*
X1094711*
X1094438Y1299023*
X1094347Y1299148*
X1094256Y1299398*
X1096438Y1301023D02*
X1096620Y1301148D01*
X1096893Y1301523*
Y1298898*
X1275812Y1305346D02*
X1275722Y1305596D01*
X1275540Y1305846*
X1275358Y1305971*
X1274994*
X1274812Y1305846*
X1274631Y1305596*
X1274540Y1305346*
X1274449Y1304971*
Y1304346*
X1274540Y1303971*
X1274631Y1303721*
X1274812Y1303471*
X1274994Y1303346*
X1275358*
X1275540Y1303471*
X1275722Y1303721*
X1275812Y1303971*
X1276631Y1305471D02*
X1276812Y1305596D01*
X1277085Y1305971*
Y1303346*
X1278449Y1305971D02*
X1278176Y1305846D01*
X1277994Y1305471*
X1277903Y1304846*
Y1304471*
X1277994Y1303846*
X1278176Y1303471*
X1278449Y1303346*
X1278631*
X1278903Y1303471*
X1279085Y1303846*
X1279176Y1304471*
Y1304846*
X1279085Y1305471*
X1278903Y1305846*
X1278631Y1305971*
X1278449*
X1288568Y1278417D02*
X1288477Y1278667D01*
X1288296Y1278917*
X1288114Y1279042*
X1287750*
X1287568Y1278917*
X1287387Y1278667*
X1287296Y1278417*
X1287205Y1278042*
Y1277417*
X1287296Y1277042*
X1287387Y1276792*
X1287568Y1276542*
X1287750Y1276417*
X1288114*
X1288296Y1276542*
X1288477Y1276792*
X1288568Y1277042*
X1289387Y1278542D02*
X1289568Y1278667D01*
X1289841Y1279042*
Y1276417*
X1290750Y1278417D02*
Y1278542D01*
X1290841Y1278792*
X1290932Y1278917*
X1291114Y1279042*
X1291477*
X1291659Y1278917*
X1291750Y1278792*
X1291841Y1278542*
Y1278292*
X1291750Y1278042*
X1291568Y1277667*
X1290659Y1276417*
X1291932*
X1289316Y1268929D02*
X1289225Y1269179D01*
X1289044Y1269429*
X1288862Y1269554*
X1288498*
X1288316Y1269429*
X1288135Y1269179*
X1288044Y1268929*
X1287953Y1268554*
Y1267929*
X1288044Y1267554*
X1288135Y1267304*
X1288316Y1267054*
X1288498Y1266929*
X1288862*
X1289044Y1267054*
X1289225Y1267304*
X1289316Y1267554*
X1291316Y1269554D02*
X1290407D01*
X1290316Y1268429*
X1290407Y1268554*
X1290680Y1268679*
X1290953*
X1291225Y1268554*
X1291407Y1268304*
X1291498Y1267929*
X1291407Y1267679*
X1291316Y1267304*
X1291135Y1267054*
X1290862Y1266929*
X1290589*
X1290316Y1267054*
X1290225Y1267179*
X1290135Y1267429*
X1292498Y1269554D02*
X1293498D01*
X1292953Y1268554*
X1293225*
X1293407Y1268429*
X1293498Y1268304*
X1293589Y1267929*
Y1267679*
X1293498Y1267304*
X1293316Y1267054*
X1293044Y1266929*
X1292771*
X1292498Y1267054*
X1292407Y1267179*
X1292316Y1267429*
X1289986Y1256764D02*
X1289895Y1257014D01*
X1289713Y1257264*
X1289531Y1257389*
X1289168*
X1289168D02*
X1288986Y1257264D01*
X1288804Y1257014*
X1288713Y1256764*
X1288622Y1256389*
Y1255764*
X1288713Y1255389*
X1288804Y1255139*
X1288986Y1254889*
X1289168Y1254764*
X1289168D02*
X1289531D01*
X1289713Y1254889*
X1289895Y1255139*
X1289986Y1255389*
X1291986Y1257389D02*
X1291077D01*
X1290986Y1256264*
X1291077Y1256389*
X1291349Y1256514*
X1291622*
X1291895Y1256389*
X1292077Y1256139*
X1292168Y1255764*
X1292168D02*
X1292077Y1255514D01*
X1291986Y1255139*
X1291804Y1254889*
X1291531Y1254764*
X1291258*
X1290986Y1254889*
X1290895Y1255014*
X1290804Y1255264*
X1293895Y1257389D02*
X1292986Y1255639D01*
X1294349*
X1293895Y1257389D02*
Y1254764D01*
X1269457Y1263529D02*
X1269207Y1263438D01*
X1268957Y1263256*
X1268832Y1263074*
Y1262711*
X1268957Y1262529*
X1269207Y1262347*
X1269457Y1262256*
X1269832Y1262165*
X1270457*
X1270832Y1262256*
X1271082Y1262347*
X1271332Y1262529*
X1271457Y1262711*
Y1263074*
X1271332Y1263256*
X1271082Y1263438*
X1270832Y1263529*
X1268832Y1265529D02*
Y1264620D01*
X1269957Y1264529*
X1269832Y1264620*
X1269707Y1264893*
Y1265165*
X1269832Y1265438*
X1270082Y1265620*
X1270457Y1265711*
X1270707Y1265620*
X1271082Y1265529*
X1271332Y1265347*
X1271457Y1265074*
Y1264802*
X1271332Y1264529*
X1271207Y1264438*
X1270957Y1264347*
X1269207Y1267620D02*
X1268957Y1267529D01*
X1268832Y1267256*
Y1267074*
X1268957Y1266802*
X1269332Y1266620*
X1269957Y1266529*
X1270582*
X1271082Y1266620*
X1271332Y1266802*
X1271457Y1267074*
Y1267165*
X1271332Y1267438*
X1271082Y1267620*
X1270707Y1267711*
X1270582*
X1270207Y1267620*
X1269957Y1267438*
X1269832Y1267165*
Y1267074*
X1269957Y1266802*
X1270207Y1266620*
X1270582Y1266529*
X1290261Y1288890D02*
X1290170Y1289140D01*
X1289989Y1289390*
X1289807Y1289515*
X1289443*
X1289261Y1289390*
X1289079Y1289140*
X1288989Y1288890*
X1288898Y1288515*
Y1287890*
X1288989Y1287515*
X1289079Y1287265*
X1289261Y1287015*
X1289443Y1286890*
X1289807*
X1289989Y1287015*
X1290170Y1287265*
X1290261Y1287515*
X1291534Y1289515D02*
X1291261Y1289390D01*
X1291170Y1289140*
Y1288890*
X1291261Y1288640*
X1291443Y1288515*
X1291807Y1288390*
X1292079Y1288265*
X1292261Y1288015*
X1292352Y1287765*
Y1287390*
X1292261Y1287140*
X1292170Y1287015*
X1291898Y1286890*
X1291534*
X1291261Y1287015*
X1291170Y1287140*
X1291079Y1287390*
Y1287765*
X1291170Y1288015*
X1291352Y1288265*
X1291625Y1288390*
X1291989Y1288515*
X1292170Y1288640*
X1292261Y1288890*
Y1289140*
X1292170Y1289390*
X1291898Y1289515*
X1291534*
X1204749Y1307276D02*
X1204659Y1307526D01*
X1204477Y1307776*
X1204295Y1307901*
X1203931*
X1203749Y1307776*
X1203568Y1307526*
X1203477Y1307276*
X1203386Y1306901*
Y1306276*
X1203477Y1305901*
X1203568Y1305651*
X1203749Y1305401*
X1203931Y1305276*
X1204295*
X1204477Y1305401*
X1204659Y1305651*
X1204749Y1305901*
X1206749Y1307901D02*
X1205840D01*
X1205749Y1306776*
X1205840Y1306901*
X1206113Y1307026*
X1206386*
X1206659Y1306901*
X1206840Y1306651*
X1206931Y1306276*
X1206840Y1306026*
X1206749Y1305651*
X1206568Y1305401*
X1206295Y1305276*
X1206022*
X1205749Y1305401*
X1205659Y1305526*
X1205568Y1305776*
X1207840Y1307276D02*
Y1307401D01*
X1207931Y1307651*
X1208022Y1307776*
X1208204Y1307901*
X1208568*
X1208749Y1307776*
X1208840Y1307651*
X1208931Y1307401*
Y1307151*
X1208840Y1306901*
X1208659Y1306526*
X1207749Y1305276*
X1209022*
X1242795Y1326838D02*
Y1324213D01*
X1243886*
X1244704Y1326338D02*
X1244886Y1326463D01*
X1245159Y1326838*
Y1324213*
X1388547Y1351050D02*
Y1349050D01*
X1388456Y1348675*
X1388365Y1348550*
X1388183Y1348425*
X1388001*
X1387820Y1348550*
X1387729Y1348675*
X1387638Y1349050*
Y1349300*
X1389820Y1351050D02*
X1389547Y1350925D01*
X1389456Y1350675*
Y1350425*
X1389547Y1350175*
X1389729Y1350050*
X1390092Y1349925*
X1390365Y1349800*
X1390547Y1349550*
X1390638Y1349300*
Y1348925*
X1390547Y1348675*
X1390456Y1348550*
X1390183Y1348425*
X1389820*
X1389547Y1348550*
X1389456Y1348675*
X1389365Y1348925*
Y1349300*
X1389456Y1349550*
X1389638Y1349800*
X1389911Y1349925*
X1390274Y1350050*
X1390456Y1350175*
X1390547Y1350425*
Y1350675*
X1390456Y1350925*
X1390183Y1351050*
X1389820*
X1304580Y1345006D02*
X1304398Y1345256D01*
X1304125Y1345381*
X1303762*
X1303489Y1345256*
X1303307Y1345006*
Y1344756*
X1303398Y1344506*
X1303489Y1344381*
X1303671Y1344256*
X1304216Y1344006*
X1304398Y1343881*
X1304489Y1343756*
X1304580Y1343506*
Y1343131*
X1304398Y1342881*
X1304125Y1342756*
X1303762*
X1303489Y1342881*
X1303307Y1343131*
X1306307Y1345381D02*
X1305398Y1343631D01*
X1306762*
X1306307Y1345381D02*
Y1342756D01*
X1092644Y1004908D02*
Y1002283D01*
X1092008Y1004908D02*
X1093281D01*
X1094099D02*
Y1002283D01*
Y1004908D02*
X1094917D01*
X1095190Y1004783*
X1095281Y1004658*
X1095372Y1004408*
Y1004033*
X1095281Y1003783*
X1095190Y1003658*
X1094917Y1003533*
X1094099*
X1096281Y1004283D02*
Y1004408D01*
X1096372Y1004658*
X1096462Y1004783*
X1096644Y1004908*
X1097008*
X1097190Y1004783*
X1097281Y1004658*
X1097372Y1004408*
Y1004158*
X1097281Y1003908*
X1097099Y1003533*
X1096190Y1002283*
X1097462*
X1087283Y1044554D02*
Y1041929D01*
Y1044554D02*
X1088102D01*
X1088374Y1044429*
X1088465Y1044304*
X1088556Y1044054*
Y1043804*
X1088465Y1043554*
X1088374Y1043429*
X1088102Y1043304*
X1087283*
X1087920D02*
X1088556Y1041929D01*
X1089556Y1044554D02*
X1090556D01*
X1090011Y1043554*
X1090283*
X1090465Y1043429*
X1090556Y1043304*
X1090647Y1042929*
Y1042679*
X1090556Y1042304*
X1090374Y1042054*
X1090102Y1041929*
X1089829*
X1089556Y1042054*
X1089465Y1042179*
X1089374Y1042429*
X1091556Y1043929D02*
Y1044054D01*
X1091647Y1044304*
X1091738Y1044429*
X1091920Y1044554*
X1092283*
X1092465Y1044429*
X1092556Y1044304*
X1092647Y1044054*
Y1043804*
X1092556Y1043554*
X1092374Y1043179*
X1091465Y1041929*
X1092738*
X1296457Y1075735D02*
Y1073110D01*
Y1075735D02*
X1297275D01*
X1297548Y1075610*
X1297639Y1075485*
X1297729Y1075235*
Y1074985*
X1297639Y1074735*
X1297548Y1074610*
X1297275Y1074485*
X1296457*
X1297093D02*
X1297729Y1073110D01*
X1298639Y1075110D02*
Y1075235D01*
X1298729Y1075485*
X1298820Y1075610*
X1299002Y1075735*
X1299366*
X1299548Y1075610*
X1299639Y1075485*
X1299729Y1075235*
Y1074985*
X1299639Y1074735*
X1299457Y1074360*
X1298548Y1073110*
X1299820*
X1301548Y1075735D02*
X1300639Y1073985D01*
X1302002*
X1301548Y1075735D02*
Y1073110D01*
X1368819Y1073688D02*
Y1071063D01*
Y1073688D02*
X1369637D01*
X1369910Y1073563*
X1370001Y1073438*
X1370092Y1073188*
Y1072938*
X1370001Y1072688*
X1369910Y1072563*
X1369637Y1072438*
X1368819*
X1369455D02*
X1370092Y1071063D01*
X1371001Y1073063D02*
Y1073188D01*
X1371092Y1073438*
X1371183Y1073563*
X1371364Y1073688*
X1371728*
X1371910Y1073563*
X1372001Y1073438*
X1372092Y1073188*
Y1072938*
X1372001Y1072688*
X1371819Y1072313*
X1370910Y1071063*
X1372183*
X1373001Y1073188D02*
X1373183Y1073313D01*
X1373455Y1073688*
Y1071063*
X1154528Y1268806D02*
Y1266181D01*
Y1268806D02*
X1155346D01*
X1155618Y1268681*
X1155709Y1268556*
X1155800Y1268306*
Y1268056*
X1155709Y1267806*
X1155618Y1267681*
X1155346Y1267556*
X1154528*
X1155164D02*
X1155800Y1266181D01*
X1156709Y1268181D02*
Y1268306D01*
X1156800Y1268556*
X1156891Y1268681*
X1157073Y1268806*
X1157437*
X1157618Y1268681*
X1157709Y1268556*
X1157800Y1268306*
Y1268056*
X1157709Y1267806*
X1157528Y1267431*
X1156618Y1266181*
X1157891*
X1158800Y1268181D02*
Y1268306D01*
X1158891Y1268556*
X1158982Y1268681*
X1159164Y1268806*
X1159528*
X1159709Y1268681*
X1159800Y1268556*
X1159891Y1268306*
Y1268056*
X1159800Y1267806*
X1159618Y1267431*
X1158709Y1266181*
X1159982*
X1085433Y1039594D02*
Y1036969D01*
Y1039594D02*
X1086251D01*
X1086524Y1039469*
X1086615Y1039344*
X1086706Y1039094*
Y1038844*
X1086615Y1038594*
X1086524Y1038469*
X1086251Y1038344*
X1085433*
X1086069D02*
X1086706Y1036969D01*
X1087706Y1039594D02*
X1088706D01*
X1088160Y1038594*
X1088433*
X1088615Y1038469*
X1088706Y1038344*
X1088797Y1037969*
Y1037719*
X1088706Y1037344*
X1088524Y1037094*
X1088251Y1036969*
X1087979*
X1087706Y1037094*
X1087615Y1037219*
X1087524Y1037469*
X1090706Y1039219D02*
X1090615Y1039469D01*
X1090342Y1039594*
X1090160*
X1089888Y1039469*
X1089706Y1039094*
X1089615Y1038469*
Y1037844*
X1089706Y1037344*
X1089888Y1037094*
X1090160Y1036969*
X1090251*
X1090524Y1037094*
X1090706Y1037344*
X1090797Y1037719*
Y1037844*
X1090706Y1038219*
X1090524Y1038469*
X1090251Y1038594*
X1090160*
X1089888Y1038469*
X1089706Y1038219*
X1089615Y1037844*
X1087283Y1054042D02*
Y1051417D01*
Y1054042D02*
X1088102D01*
X1088374Y1053917*
X1088465Y1053792*
X1088556Y1053542*
Y1053292*
X1088465Y1053042*
X1088374Y1052917*
X1088102Y1052792*
X1087283*
X1087920D02*
X1088556Y1051417D01*
X1089465Y1053417D02*
Y1053542D01*
X1089556Y1053792*
X1089647Y1053917*
X1089829Y1054042*
X1090193*
X1090374Y1053917*
X1090465Y1053792*
X1090556Y1053542*
Y1053292*
X1090465Y1053042*
X1090283Y1052667*
X1089374Y1051417*
X1090647*
X1092647Y1054042D02*
X1091738D01*
X1091647Y1052917*
X1091738Y1053042*
X1092011Y1053167*
X1092283*
X1092556Y1053042*
X1092738Y1052792*
X1092829Y1052417*
X1092738Y1052167*
X1092647Y1051792*
X1092465Y1051542*
X1092193Y1051417*
X1091920*
X1091647Y1051542*
X1091556Y1051667*
X1091465Y1051917*
X1228832Y1154252D02*
X1231457D01*
X1228832D02*
Y1155070D01*
X1228957Y1155343*
X1229082Y1155434*
X1229332Y1155525*
X1229582*
X1229832Y1155434*
X1229957Y1155343*
X1230082Y1155070*
Y1154252*
Y1154888D02*
X1231457Y1155525D01*
X1229707Y1157525D02*
X1230082Y1157434D01*
X1230332Y1157252*
X1230457Y1156979*
Y1156888*
X1230332Y1156616*
X1230082Y1156434*
X1229707Y1156343*
X1229582*
X1229207Y1156434*
X1228957Y1156616*
X1228832Y1156888*
Y1156979*
X1228957Y1157252*
X1229207Y1157434*
X1229707Y1157525*
X1230332*
X1230957Y1157434*
X1231332Y1157252*
X1231457Y1156979*
Y1156797*
X1231332Y1156525*
X1231082Y1156434*
X1205183Y1296449D02*
X1205092Y1296699D01*
X1204910Y1296949*
X1204728Y1297074*
X1204364*
X1204183Y1296949*
X1204001Y1296699*
X1203910Y1296449*
X1203819Y1296074*
Y1295449*
X1203910Y1295074*
X1204001Y1294824*
X1204183Y1294574*
X1204364Y1294449*
X1204728*
X1204910Y1294574*
X1205092Y1294824*
X1205183Y1295074*
X1207183Y1296199D02*
X1207092Y1295824D01*
X1206910Y1295574*
X1206637Y1295449*
X1206546*
X1206273Y1295574*
X1206092Y1295824*
X1206001Y1296199*
Y1296324*
X1206092Y1296699*
X1206273Y1296949*
X1206546Y1297074*
X1206637*
X1206910Y1296949*
X1207092Y1296699*
X1207183Y1296199*
Y1295574*
X1207092Y1294949*
X1206910Y1294574*
X1206637Y1294449*
X1206455*
X1206183Y1294574*
X1206092Y1294824*
X1287820Y1306764D02*
X1287729Y1307014D01*
X1287548Y1307264*
X1287366Y1307389*
X1287002*
X1286820Y1307264*
X1286639Y1307014*
X1286548Y1306764*
X1286457Y1306389*
Y1305764*
X1286548Y1305389*
X1286639Y1305139*
X1286820Y1304889*
X1287002Y1304764*
X1287366*
X1287548Y1304889*
X1287729Y1305139*
X1287820Y1305389*
X1289911Y1307389D02*
X1289002Y1304764D01*
X1288639Y1307389D02*
X1289911D01*
X1269041Y1059638D02*
X1268950Y1059888D01*
X1268768Y1060138*
X1268586Y1060263*
X1268223*
X1268041Y1060138*
X1267859Y1059888*
X1267768Y1059638*
X1267677Y1059263*
Y1058638*
X1267768Y1058263*
X1267859Y1058013*
X1268041Y1057763*
X1268223Y1057638*
X1268586*
X1268768Y1057763*
X1268950Y1058013*
X1269041Y1058263*
X1269950Y1059638D02*
Y1059763D01*
X1270041Y1060013*
X1270132Y1060138*
X1270314Y1060263*
X1270677*
X1270859Y1060138*
X1270950Y1060013*
X1271041Y1059763*
Y1059513*
X1270950Y1059263*
X1270768Y1058888*
X1269859Y1057638*
X1271132*
X1272495Y1060263D02*
X1272223Y1060138D01*
X1272041Y1059763*
X1271950Y1059138*
Y1058763*
X1272041Y1058138*
X1272223Y1057763*
X1272495Y1057638*
X1272677*
X1272950Y1057763*
X1273132Y1058138*
X1273223Y1058763*
Y1059138*
X1273132Y1059763*
X1272950Y1060138*
X1272677Y1060263*
X1272495*
X1294435Y1069638D02*
X1294344Y1069888D01*
X1294162Y1070138*
X1293980Y1070263*
X1293616*
X1293435Y1070138*
X1293435D02*
X1293253Y1069888D01*
X1293162Y1069638*
X1293071Y1069263*
Y1068638*
X1293162Y1068263*
X1293253Y1068013*
X1293435Y1067763*
X1293435D02*
X1293616Y1067638D01*
X1293980*
X1294162Y1067763*
X1294344Y1068013*
X1294435Y1068263*
X1295253Y1069763D02*
X1295435Y1069888D01*
X1295435D02*
X1295707Y1070263D01*
Y1067638*
X1297707Y1069388D02*
X1297616Y1069013D01*
X1297435Y1068763*
X1297435D02*
X1297162Y1068638D01*
X1297071*
X1296798Y1068763*
X1296616Y1069013*
X1296525Y1069388*
Y1069513*
X1296616Y1069888*
X1296798Y1070138*
X1297071Y1070263*
X1297162*
X1297435Y1070138*
X1297435D02*
X1297616Y1069888D01*
X1297707Y1069388*
Y1068763*
X1297616Y1068138*
X1297435Y1067763*
X1297435D02*
X1297162Y1067638D01*
X1296980*
X1296707Y1067763*
X1296616Y1068013*
X1262488Y1355970D02*
X1262238Y1355879D01*
X1261988Y1355697*
X1261863Y1355515*
Y1355152*
X1261988Y1354970*
X1262238Y1354788*
X1262488Y1354697*
X1262863Y1354606*
X1263488*
X1263863Y1354697*
X1264113Y1354788*
X1264363Y1354970*
X1264488Y1355152*
Y1355515*
X1264363Y1355697*
X1264113Y1355879*
X1263863Y1355970*
X1262363Y1356788D02*
X1262238Y1356970D01*
X1261863Y1357243*
X1264488*
X1262238Y1359152D02*
X1261988Y1359061D01*
X1261863Y1358788*
Y1358606*
X1261988Y1358334*
X1262363Y1358152*
X1262988Y1358061*
X1263613*
X1264113Y1358152*
X1264363Y1358334*
X1264488Y1358606*
Y1358697*
X1264363Y1358970*
X1264113Y1359152*
X1263738Y1359243*
X1263613*
X1263238Y1359152*
X1262988Y1358970*
X1262863Y1358697*
Y1358606*
X1262988Y1358334*
X1263238Y1358152*
X1263613Y1358061*
X1269260Y1356403D02*
X1269010Y1356312D01*
X1268760Y1356130*
X1268635Y1355948*
Y1355585*
X1268760Y1355403*
X1269010Y1355221*
X1269260Y1355130*
X1269635Y1355039*
X1270260*
X1270635Y1355130*
X1270885Y1355221*
X1271135Y1355403*
X1271260Y1355585*
Y1355948*
X1271135Y1356130*
X1270885Y1356312*
X1270635Y1356403*
X1269010Y1358312D02*
X1268760Y1358221D01*
X1268635Y1357948*
Y1357767*
X1268760Y1357494*
X1269135Y1357312*
X1269760Y1357221*
X1270385*
X1270885Y1357312*
X1271135Y1357494*
X1271260Y1357767*
Y1357858*
X1271135Y1358130*
X1270885Y1358312*
X1270510Y1358403*
X1270385*
X1270010Y1358312*
X1269760Y1358130*
X1269635Y1357858*
Y1357767*
X1269760Y1357494*
X1270010Y1357312*
X1270385Y1357221*
X1176757Y1077315D02*
X1176666Y1077565D01*
X1176485Y1077815*
X1176303Y1077940*
X1175939*
X1175757Y1077815*
X1175576Y1077565*
X1175485Y1077315*
X1175394Y1076940*
Y1076315*
X1175485Y1075940*
X1175576Y1075690*
X1175757Y1075440*
X1175939Y1075315*
X1176303*
X1176485Y1075440*
X1176666Y1075690*
X1176757Y1075940*
X1177666Y1077315D02*
Y1077440D01*
X1177757Y1077690*
X1177848Y1077815*
X1178030Y1077940*
X1178394*
X1178576Y1077815*
X1178666Y1077690*
X1178757Y1077440*
Y1077190*
X1178666Y1076940*
X1178485Y1076565*
X1177576Y1075315*
X1178848*
X1179666Y1077440D02*
X1179848Y1077565D01*
X1180121Y1077940*
Y1075315*
X1211228Y1360655D02*
X1210978Y1360564D01*
X1210728Y1360382*
X1210603Y1360200*
Y1359837*
X1210728Y1359655*
X1210978Y1359473*
X1211228Y1359382*
X1211603Y1359291*
X1212228*
X1212603Y1359382*
X1212853Y1359473*
X1213103Y1359655*
X1213228Y1359837*
Y1360200*
X1213103Y1360382*
X1212853Y1360564*
X1212603Y1360655*
X1211228Y1361564D02*
X1211103D01*
X1210853Y1361655*
X1210728Y1361746*
X1210603Y1361928*
Y1362291*
X1210728Y1362473*
X1210853Y1362564*
X1211103Y1362655*
X1211353*
X1211603Y1362564*
X1211978Y1362382*
X1213228Y1361473*
Y1362746*
X1210603Y1363746D02*
Y1364746D01*
X1211603Y1364200*
Y1364473*
X1211728Y1364655*
X1211853Y1364746*
X1212228Y1364837*
X1212478*
X1212853Y1364746*
X1213103Y1364564*
X1213228Y1364291*
Y1364019*
X1213103Y1363746*
X1212978Y1363655*
X1212728Y1363564*
X1189022Y1004751D02*
Y1002126D01*
X1188386Y1004751D02*
X1189659D01*
X1190477D02*
Y1002126D01*
Y1004751D02*
X1191295D01*
X1191568Y1004626*
X1191659Y1004501*
X1191749Y1004251*
Y1003876*
X1191659Y1003626*
X1191568Y1003501*
X1191295Y1003376*
X1190477*
X1192568Y1004251D02*
X1192749Y1004376D01*
X1193022Y1004751*
Y1002126*
X1086575Y1049239D02*
Y1046614D01*
Y1049239D02*
X1087393D01*
X1087666Y1049114*
X1087757Y1048989*
X1087848Y1048739*
Y1048489*
X1087757Y1048239*
X1087666Y1048114*
X1087393Y1047989*
X1086575*
X1087211D02*
X1087848Y1046614D01*
X1088848Y1049239D02*
X1089848D01*
X1089302Y1048239*
X1089575*
X1089757Y1048114*
X1089848Y1047989*
X1089938Y1047614*
Y1047364*
X1089848Y1046989*
X1089666Y1046739*
X1089393Y1046614*
X1089120*
X1088848Y1046739*
X1088757Y1046864*
X1088666Y1047114*
X1091938Y1049239D02*
X1091029D01*
X1090938Y1048114*
X1091029Y1048239*
X1091302Y1048364*
X1091575*
X1091848Y1048239*
X1092029Y1047989*
X1092120Y1047614*
X1092029Y1047364*
X1091938Y1046989*
X1091757Y1046739*
X1091484Y1046614*
X1091211*
X1090938Y1046739*
X1090848Y1046864*
X1090757Y1047114*
X1153976Y1278570D02*
Y1275945D01*
Y1278570D02*
X1154795D01*
X1155067Y1278445*
X1155158Y1278320*
X1155249Y1278070*
Y1277820*
X1155158Y1277570*
X1155067Y1277445*
X1154795Y1277320*
X1153976*
X1154613D02*
X1155249Y1275945D01*
X1156067Y1278070D02*
X1156249Y1278195D01*
X1156522Y1278570*
Y1275945*
X1158522Y1277695D02*
X1158431Y1277320D01*
X1158249Y1277070*
X1157976Y1276945*
X1157885*
X1157613Y1277070*
X1157431Y1277320*
X1157340Y1277695*
Y1277820*
X1157431Y1278195*
X1157613Y1278445*
X1157885Y1278570*
X1157976*
X1158249Y1278445*
X1158431Y1278195*
X1158522Y1277695*
Y1277070*
X1158431Y1276445*
X1158249Y1276070*
X1157976Y1275945*
X1157795*
X1157522Y1276070*
X1157431Y1276320*
X1153898Y1273845D02*
Y1271220D01*
Y1273845D02*
X1154716D01*
X1154989Y1273720*
X1155079Y1273595*
X1155170Y1273345*
Y1273095*
X1155079Y1272845*
X1154989Y1272720*
X1154716Y1272595*
X1153898*
X1154534D02*
X1155170Y1271220D01*
X1156079Y1273220D02*
Y1273345D01*
X1156170Y1273595*
X1156261Y1273720*
X1156443Y1273845*
X1156807*
X1156989Y1273720*
X1157079Y1273595*
X1157170Y1273345*
Y1273095*
X1157079Y1272845*
X1156898Y1272470*
X1155989Y1271220*
X1157261*
X1158625Y1273845D02*
X1158352Y1273720D01*
X1158170Y1273345*
X1158079Y1272720*
Y1272345*
X1158170Y1271720*
X1158352Y1271345*
X1158625Y1271220*
X1158807*
X1159079Y1271345*
X1159261Y1271720*
X1159352Y1272345*
Y1272720*
X1159261Y1273345*
X1159079Y1273720*
X1158807Y1273845*
X1158625*
X1273156Y1391168D02*
Y1388543D01*
X1272520Y1391168D02*
X1273792D01*
X1274611D02*
Y1388543D01*
Y1391168D02*
X1275429D01*
X1275702Y1391043*
X1275792Y1390918*
X1275883Y1390668*
Y1390293*
X1275792Y1390043*
X1275702Y1389918*
X1275429Y1389793*
X1274611*
X1276883Y1391168D02*
X1277883D01*
X1277338Y1390168*
X1277611*
X1277792Y1390043*
X1277883Y1389918*
X1277974Y1389543*
Y1389293*
X1277883Y1388918*
X1277702Y1388668*
X1277429Y1388543*
X1277156*
X1276883Y1388668*
X1276792Y1388793*
X1276702Y1389043*
X1068904Y1004554D02*
Y1001929D01*
X1068268Y1004554D02*
X1069540D01*
X1070359D02*
Y1001929D01*
Y1004554D02*
X1071177D01*
X1071450Y1004429*
X1071540Y1004304*
X1071631Y1004054*
Y1003679*
X1071540Y1003429*
X1071450Y1003304*
X1071177Y1003179*
X1070359*
X1073359Y1004554D02*
X1072450Y1002804D01*
X1073813*
X1073359Y1004554D02*
Y1001929D01*
X1163865Y1004318D02*
Y1001693D01*
X1163228Y1004318D02*
X1164501D01*
X1165319D02*
Y1001693D01*
Y1004318D02*
X1166137D01*
X1166410Y1004193*
X1166501Y1004068*
X1166592Y1003818*
Y1003443*
X1166501Y1003193*
X1166410Y1003068*
X1166137Y1002943*
X1165319*
X1168592Y1004318D02*
X1167683D01*
X1167592Y1003193*
X1167683Y1003318*
X1167956Y1003443*
X1168228*
X1168501Y1003318*
X1168683Y1003068*
X1168774Y1002693*
X1168683Y1002443*
X1168592Y1002068*
X1168410Y1001818*
X1168137Y1001693*
X1167865*
X1167592Y1001818*
X1167501Y1001943*
X1167410Y1002193*
X1192526Y1391562D02*
Y1388937D01*
X1191890Y1391562D02*
X1193162D01*
X1193981D02*
Y1388937D01*
Y1391562D02*
X1194799D01*
X1195072Y1391437*
X1195162Y1391312*
X1195253Y1391062*
Y1390687*
X1195162Y1390437*
X1195072Y1390312*
X1194799Y1390187*
X1193981*
X1196526Y1391562D02*
X1196253Y1391437D01*
X1196162Y1391187*
Y1390937*
X1196253Y1390687*
X1196435Y1390562*
X1196799Y1390437*
X1197072Y1390312*
X1197253Y1390062*
X1197344Y1389812*
Y1389437*
X1197253Y1389187*
X1197162Y1389062*
X1196890Y1388937*
X1196526*
X1196253Y1389062*
X1196162Y1389187*
X1196072Y1389437*
Y1389812*
X1196162Y1390062*
X1196344Y1390312*
X1196617Y1390437*
X1196981Y1390562*
X1197162Y1390687*
X1197253Y1390937*
Y1391187*
X1197162Y1391437*
X1196890Y1391562*
X1196526*
X1305125Y1392074D02*
Y1389449D01*
X1304488Y1392074D02*
X1305761D01*
X1306579D02*
Y1389449D01*
Y1392074D02*
X1307397D01*
X1307670Y1391949*
X1307761Y1391824*
X1307852Y1391574*
Y1391199*
X1307761Y1390949*
X1307670Y1390824*
X1307397Y1390699*
X1306579*
X1309852Y1391199D02*
X1309761Y1390824D01*
X1309579Y1390574*
X1309306Y1390449*
X1309215*
X1308943Y1390574*
X1308761Y1390824*
X1308670Y1391199*
Y1391324*
X1308761Y1391699*
X1308943Y1391949*
X1309215Y1392074*
X1309306*
X1309579Y1391949*
X1309761Y1391699*
X1309852Y1391199*
Y1390574*
X1309761Y1389949*
X1309579Y1389574*
X1309306Y1389449*
X1309125*
X1308852Y1389574*
X1308761Y1389824*
X1019685Y1022310D02*
X1020958Y1019685D01*
Y1022310D02*
X1019685Y1019685D01*
X1021776Y1021810D02*
X1021958Y1021935D01*
X1022230Y1022310*
Y1019685*
X1019685Y1376641D02*
X1020958Y1374016D01*
Y1376641D02*
X1019685Y1374016D01*
X1021867Y1376016D02*
Y1376141D01*
X1021958Y1376391*
X1022049Y1376516*
X1022230Y1376641*
X1022594*
X1022776Y1376516*
X1022867Y1376391*
X1022958Y1376141*
Y1375891*
X1022867Y1375641*
X1022685Y1375266*
X1021776Y1374016*
X1023049*
X1374016Y1376641D02*
X1375288Y1374016D01*
Y1376641D02*
X1374016Y1374016D01*
X1376288Y1376641D02*
X1377288D01*
X1376743Y1375641*
X1377016*
X1377198Y1375516*
X1377288Y1375391*
X1377379Y1375016*
Y1374766*
X1377288Y1374391*
X1377107Y1374141*
X1376834Y1374016*
X1376561*
X1376288Y1374141*
X1376198Y1374266*
X1376107Y1374516*
G74*
X0Y0D02*
M02*
