*
*
G04 PADS 9.5 Build Number: 522968 generated Gerber (RS-274-X) file*
G04 PC Version=2.1*
*
%IN "Energy harvester.pcb"*%
*
%MOIN*%
*
%FSLAX35Y35*%
*
*
*
*
G04 PC Standard Apertures*
*
*
G04 Thermal Relief Aperture macro.*
%AMTER*
1,1,$1,0,0*
1,0,$1-$2,0,0*
21,0,$3,$4,0,0,45*
21,0,$3,$4,0,0,135*
%
*
*
G04 Annular Aperture macro.*
%AMANN*
1,1,$1,0,0*
1,0,$2,0,0*
%
*
*
G04 Odd Aperture macro.*
%AMODD*
1,1,$1,0,0*
1,0,$1-0.005,0,0*
%
*
*
G04 PC Custom Aperture Macros*
*
*
*
*
*
*
G04 PC Aperture Table*
*
%ADD033R,0.065X0.065*%
%ADD034C,0.065*%
%ADD081C,0.01*%
%ADD084C,0.055*%
%ADD115C,0.001*%
%ADD165C,0.06799*%
%ADD174C,0.06406*%
%ADD263O,0.04437X0.05618*%
%ADD265R,0.07587X0.07587*%
%ADD266C,0.07587*%
%ADD278R,0.06406X0.06406*%
%ADD279O,0.1861X0.10343*%
%ADD280C,0.05047*%
%ADD285O,0.04831X0.07587*%
%ADD286R,0.09555X0.09555*%
%ADD287C,0.09555*%
%ADD290R,0.12311X0.08374*%
%ADD291C,0.13098*%
%ADD292C,0.023*%
%ADD293C,0.027*%
*
*
*
*
G04 PC Circuitry*
G04 Layer Name Energy harvester.pcb - circuitry*
%LPD*%
*
*
G04 PC Custom Flashes*
G04 Layer Name Energy harvester.pcb - flashes*
%LPD*%
*
*
G04 PC Circuitry*
G04 Layer Name Energy harvester.pcb - circuitry*
%LPD*%
*
G54D33*
G01X1162635Y1172497D03*
G54D34*
X1054685Y1325709D03*
X1064685D03*
X1074685D03*
X1084685D03*
X1162635Y1182497D03*
G54D81*
X1000000Y1000000D02*
X1393701D01*
Y1393701*
X1000000*
Y1000000*
G54D84*
X1235039Y1385039D03*
X1095276Y1013780D03*
X1190551D03*
X1287008Y1385039D03*
X1071654Y1013780D03*
X1166929D03*
X1206693Y1385039D03*
X1316929D03*
G54D115*
G54D165*
X1182586Y1348589D03*
Y1338589D03*
Y1328589D03*
X1172586D03*
Y1348589D03*
X1161720D03*
Y1338589D03*
Y1328589D03*
X1151720D03*
Y1348589D03*
X1167583Y1249061D03*
Y1259061D03*
Y1269061D03*
X1177583D03*
Y1249061D03*
X1310630Y1337402D03*
Y1327402D03*
Y1317402D03*
X1300630D03*
Y1337402D03*
G54D174*
X1278622Y1048898D03*
X1267717D03*
X1256811D03*
X1245906D03*
X1284075Y1037717D03*
X1273169D03*
X1262264D03*
X1251358D03*
G54D263*
X1183169Y1372559D03*
Y1379252D03*
X1166083Y1372559D03*
Y1379252D03*
X1148839Y1372559D03*
Y1379252D03*
X1132579Y1372559D03*
Y1379252D03*
X1115846Y1372559D03*
Y1379252D03*
X1099422Y1372556D03*
Y1379249D03*
G54D265*
X1101806Y1178526D03*
X1196654Y1270512D03*
G54D266*
X1101806Y1168526D03*
Y1158526D03*
Y1148526D03*
X1345814Y1146769D03*
X1371414D03*
X1345814Y1129049D03*
X1371414D03*
X1196654Y1280512D03*
Y1290512D03*
Y1300512D03*
G54D278*
X1289528Y1048898D03*
G54D279*
X1218524Y1043307D03*
X1316909D03*
G54D280*
X1225591Y1135433D03*
X1244803D03*
G54D285*
X1114882Y1025688D03*
Y1010728D03*
X1148898Y1010729D03*
Y1025688D03*
G54D286*
X1072067Y1361417D03*
X1361417Y1321634D03*
G54D287*
X1057067Y1361417D03*
X1361417Y1336634D03*
G54D290*
X1041929Y1053346D03*
X1041969Y1340433D03*
G54D291*
X1041929Y1087421D03*
Y1306378D03*
G54D292*
X1095512Y1019252D03*
X1103543Y1032205D03*
X1121142Y1021181D03*
X1110354Y1032205D03*
X1094016Y1038307D03*
X1116024Y1043228D03*
X1146024Y1051654D03*
X1172953Y1051142D03*
X1118543Y1066850D03*
X1157520Y1058701D03*
X1151890Y1065472D03*
X1301063Y1069685D03*
X1288465Y1059016D03*
X1144094Y1077677D03*
X1178583Y1087638D03*
X1187638Y1086693D03*
X1195197Y1076732D03*
X1188661Y1093819D03*
X1215787Y1080354D03*
X1224961Y1094252D03*
X1301181Y1081142D03*
X1316260Y1077835D03*
X1330000Y1082244D03*
X1369685Y1085906D03*
X1095394Y1111063D03*
X1232638Y1109646D03*
X1225748Y1114291D03*
X1263622Y1107441D03*
X1282205Y1113740D03*
X1285866Y1110591D03*
X1302087Y1101772D03*
X1337835Y1102244D03*
X1291850Y1116850D03*
X1289134Y1120433D03*
X1320512Y1132283D03*
X1324173Y1127559D03*
Y1119646D03*
X1330787Y1132244D03*
X1330827Y1118110D03*
X1343622Y1117874D03*
X1336654D03*
X1383071Y1117913D03*
X1375157D03*
X1188386Y1149134D03*
X1219488Y1149528D03*
X1256811Y1147008D03*
X1245551Y1145709D03*
X1197087Y1156732D03*
X1186299Y1160000D03*
X1215906D03*
X1238386Y1171181D03*
X1246772D03*
X1260315Y1162087D03*
X1282283Y1165787D03*
X1281614Y1171890D03*
X1288661Y1174055D03*
X1289252Y1167874D03*
X1302913Y1167913D03*
X1285551Y1170512D03*
X1318307Y1174488D03*
X1339134Y1174449D03*
X1144409Y1193386D03*
X1147992Y1189724D03*
X1194921Y1178465D03*
X1223858Y1192638D03*
X1210236Y1176102D03*
X1209685Y1190472D03*
X1235512Y1189016D03*
X1240197Y1188898D03*
X1240354Y1183701D03*
X1235433Y1183622D03*
X1240039Y1178189D03*
X1235354Y1178228D03*
X1230039Y1178386D03*
X1229961Y1183622D03*
X1229921Y1188465D03*
X1245197Y1177677D03*
X1264291Y1192323D03*
X1280906Y1186732D03*
X1280945Y1194528D03*
X1289094Y1178386D03*
X1289016Y1184094D03*
X1301142Y1189961D03*
X1289134D03*
X1285472Y1193661D03*
X1285906Y1180866D03*
X1309055Y1177874D03*
X1314961Y1184094D03*
X1306457Y1183780D03*
X1310669Y1181732D03*
X1333150Y1193543D03*
X1339134Y1183346D03*
X1152480Y1200787D03*
X1155866Y1197441D03*
X1221417Y1198976D03*
X1209685Y1199685D03*
X1227835Y1207205D03*
X1261417Y1203858D03*
X1266417Y1203228D03*
X1273071Y1209843D03*
X1303937Y1205394D03*
X1367205Y1198701D03*
X1377047Y1198819D03*
X1191457Y1230787D03*
X1220354Y1232559D03*
X1234646Y1232520D03*
X1246142Y1228740D03*
X1252283Y1228661D03*
X1271339Y1220512D03*
X1274488Y1216850D03*
X1288228Y1220906D03*
X1297283Y1232283D03*
X1296220Y1218346D03*
X1327992Y1228819D03*
X1275669Y1249921D03*
X1341417Y1240709D03*
X1351457Y1244134D03*
Y1251378D03*
X1356181Y1250787D03*
Y1243110D03*
X1140866Y1268150D03*
X1263661Y1270433D03*
X1293583Y1260354D03*
X1140433Y1282283D03*
X1208268Y1292756D03*
X1237402Y1294213D03*
X1274921Y1288819D03*
X1295433Y1288583D03*
Y1277598D03*
X1312913Y1294016D03*
X1209016Y1301457D03*
X1271102Y1308307D03*
X1293110Y1306614D03*
X1310630Y1307362D03*
X1342244Y1306850D03*
X1371496Y1307402D03*
X1278386Y1332992D03*
X1281575Y1329291D03*
X1333976Y1315512D03*
X1342205Y1315472D03*
X1338150Y1325236D03*
X1342244Y1321654D03*
X1347283Y1325512D03*
X1273898Y1335472D03*
X1282835Y1343386D03*
X1284331Y1338740D03*
X1278701Y1349567D03*
X1287677Y1335157D03*
X1247165Y1371969D03*
X1282244Y1367598D03*
X1312756Y1362559D03*
X1307244Y1357480D03*
X1326890Y1366024D03*
X1245354Y1381614D03*
X1245433Y1376811D03*
X1249488D03*
X1249567Y1381614D03*
G54D293*
X1142638Y1020906D03*
X0Y0D02*
M02*
