*
*
G04 PADS 9.5 Build Number: 522968 generated Gerber (RS-274-X) file*
G04 PC Version=2.1*
*
%IN "Energy harvester.pcb"*%
*
%MOIN*%
*
%FSLAX35Y35*%
*
*
*
*
G04 PC Standard Apertures*
*
*
G04 Thermal Relief Aperture macro.*
%AMTER*
1,1,$1,0,0*
1,0,$1-$2,0,0*
21,0,$3,$4,0,0,45*
21,0,$3,$4,0,0,135*
%
*
*
G04 Annular Aperture macro.*
%AMANN*
1,1,$1,0,0*
1,0,$2,0,0*
%
*
*
G04 Odd Aperture macro.*
%AMODD*
1,1,$1,0,0*
1,0,$1-0.005,0,0*
%
*
*
G04 PC Custom Aperture Macros*
*
*
*
*
*
*
G04 PC Aperture Table*
*
%ADD013R,0.06X0.06*%
%ADD014C,0.06*%
%ADD028C,0.04*%
%ADD031C,0.035*%
%ADD039C,0.03*%
%ADD069C,0.05*%
%ADD081C,0.01*%
%ADD088C,0.015*%
%ADD090C,0.02*%
%ADD096C,0.008*%
%ADD115C,0.001*%
%ADD123C,0.05906*%
%ADD141C,0.009*%
%ADD151C,0.06299*%
%ADD183R,0.03X0.032*%
%ADD184R,0.032X0.03*%
%ADD185R,0.022X0.022*%
%ADD186R,0.035X0.032*%
%ADD187R,0.07X0.025*%
%ADD216R,0.032X0.035*%
%ADD224R,0.05X0.045*%
%ADD225R,0.045X0.05*%
%ADD227R,0.0561X0.01181*%
%ADD228R,0.06614X0.07402*%
%ADD229O,0.03937X0.05118*%
%ADD230R,0.05807X0.01772*%
%ADD231R,0.07087X0.07087*%
%ADD232C,0.07087*%
%ADD233R,0.04331X0.01969*%
%ADD234R,0.10276X0.1378*%
%ADD235R,0.0315X0.04*%
%ADD236R,0.07874X0.07874*%
%ADD237R,0.04X0.048*%
%ADD238R,0.01X0.06299*%
%ADD239R,0.06299X0.01*%
%ADD240R,0.04X0.08*%
%ADD241R,0.13X0.08*%
%ADD242R,0.21654X0.08465*%
%ADD243R,0.05906X0.05906*%
%ADD244O,0.1811X0.09843*%
%ADD245C,0.04547*%
%ADD246R,0.1X0.03*%
%ADD247R,0.0315X0.05905*%
%ADD248R,0.02992X0.05905*%
%ADD249R,0.02756X0.05905*%
%ADD250O,0.04331X0.07087*%
%ADD251R,0.09055X0.09055*%
%ADD252C,0.09055*%
%ADD253R,0.06X0.013*%
%ADD254R,0.08465X0.21654*%
%ADD255R,0.11811X0.07874*%
%ADD256C,0.12598*%
*
*
*
*
G04 PC Circuitry*
G04 Layer Name Energy harvester.pcb - circuitry*
%LPD*%
*
*
G04 PC Custom Flashes*
G04 Layer Name Energy harvester.pcb - flashes*
%LPD*%
*
*
G04 PC Circuitry*
G04 Layer Name Energy harvester.pcb - circuitry*
%LPD*%
*
G54D13*
G01X1162635Y1172497D03*
G54D14*
X1054685Y1325709D03*
X1064685D03*
X1074685D03*
X1084685D03*
X1162635Y1182497D03*
G54D28*
X1041929Y1053346D02*
Y1052756D01*
X1052402*
X1059055*
X1073228Y1066929*
X1097835*
X1106736*
X1254724Y1075395D02*
Y1100195D01*
X1263622Y1107441D02*
X1263724Y1102195D01*
Y1100195*
X1361417Y1336634D02*
X1361919Y1337135D01*
X1371496Y1327558*
Y1307402*
G54D31*
X1142638Y1020906D03*
G54D39*
X1121065Y1026280D02*
X1121139D01*
Y1024827*
X1121142Y1021181*
X1142638Y1020906D02*
X1142756Y1020787D01*
X1142846Y1020789*
X1142715Y1026280D02*
X1142789D01*
Y1024827*
X1142846Y1020789*
X1137875Y1026280D02*
Y1031023D01*
X1147797Y1040945*
X1177402*
X1180945Y1044488*
X1125905Y1026280D02*
Y1019843D01*
X1128031Y1017717*
X1135039*
X1137875Y1020552*
Y1026280*
X1117126Y1074016D02*
X1119159D01*
X1122683Y1070492*
X1124933*
X1113736Y1066929D02*
Y1066850D01*
X1118543*
X1106736Y1066929D02*
Y1072484D01*
X1108268Y1074016*
X1117126*
X1124933Y1055492D02*
X1125905D01*
X1157520Y1058701D02*
X1162205D01*
Y1058705*
Y1057955*
X1170472*
Y1058705*
X1162205Y1065705D02*
Y1064955D01*
X1170472*
Y1065705*
X1145933Y1070492D02*
X1157167D01*
X1161955Y1065705*
X1162205*
X1170472D02*
X1178508D01*
X1180945Y1063268*
Y1044488*
X1112992Y1089764D02*
X1120201D01*
X1121425Y1088539*
X1129134*
X1116992Y1081264D02*
Y1076118D01*
X1117126Y1075984*
Y1074016*
X1144094Y1088039D02*
X1161417D01*
Y1086516*
X1129134Y1088539D02*
Y1087789D01*
X1137402*
Y1088539D02*
Y1087789D01*
Y1088539*
Y1087789D02*
X1144094D01*
Y1088039*
X1288189Y1087157D02*
X1291289D01*
X1292205Y1088073*
X1283370Y1118543D02*
Y1118135D01*
X1286978Y1114528*
X1287445*
X1292205Y1109767*
Y1088073*
X1193110Y1153110D02*
Y1138486D01*
X1213053Y1118543*
X1283370*
X1192370Y1163780D02*
X1192608D01*
X1193110Y1159528*
Y1153110*
X1264173Y1156055D02*
Y1145669D01*
X1283370Y1126472*
Y1118543*
X1361417Y1321634D02*
Y1322917D01*
X1274016Y1342563D02*
X1274266D01*
X1278758Y1338071*
X1279035*
X1289705Y1327402*
X1310630*
X1095512Y1019252D03*
X1103543Y1032205D03*
X1121142Y1021181D03*
X1110354Y1032205D03*
X1094016Y1038307D03*
X1116024Y1043228D03*
X1146024Y1051654D03*
X1172953Y1051142D03*
X1118543Y1066850D03*
X1157520Y1058701D03*
X1151890Y1065472D03*
X1301063Y1069685D03*
X1288465Y1059016D03*
X1144094Y1077677D03*
X1178583Y1087638D03*
X1187638Y1086693D03*
X1195197Y1076732D03*
X1188661Y1093819D03*
X1215787Y1080354D03*
X1224961Y1094252D03*
X1301181Y1081142D03*
X1316260Y1077835D03*
X1330000Y1082244D03*
X1369685Y1085906D03*
X1095394Y1111063D03*
X1232638Y1109646D03*
X1225748Y1114291D03*
X1263622Y1107441D03*
X1282205Y1113740D03*
X1285866Y1110591D03*
X1302087Y1101772D03*
X1337835Y1102244D03*
X1291850Y1116850D03*
X1289134Y1120433D03*
X1320512Y1132283D03*
X1324173Y1127559D03*
Y1119646D03*
X1330787Y1132244D03*
X1330827Y1118110D03*
X1343622Y1117874D03*
X1336654D03*
X1383071Y1117913D03*
X1375157D03*
X1188386Y1149134D03*
X1219488Y1149528D03*
X1256811Y1147008D03*
X1245551Y1145709D03*
X1197087Y1156732D03*
X1186299Y1160000D03*
X1215906D03*
X1238386Y1171181D03*
X1246772D03*
X1260315Y1162087D03*
X1282283Y1165787D03*
X1281614Y1171890D03*
X1288661Y1174055D03*
X1289252Y1167874D03*
X1302913Y1167913D03*
X1285551Y1170512D03*
X1318307Y1174488D03*
X1339134Y1174449D03*
X1144409Y1193386D03*
X1147992Y1189724D03*
X1194921Y1178465D03*
X1223858Y1192638D03*
X1210236Y1176102D03*
X1209685Y1190472D03*
X1235512Y1189016D03*
X1240197Y1188898D03*
X1240354Y1183701D03*
X1235433Y1183622D03*
X1240039Y1178189D03*
X1235354Y1178228D03*
X1230039Y1178386D03*
X1229961Y1183622D03*
X1229921Y1188465D03*
X1245197Y1177677D03*
X1264291Y1192323D03*
X1280906Y1186732D03*
X1280945Y1194528D03*
X1289094Y1178386D03*
X1289016Y1184094D03*
X1301142Y1189961D03*
X1289134D03*
X1285472Y1193661D03*
X1285906Y1180866D03*
X1309055Y1177874D03*
X1314961Y1184094D03*
X1306457Y1183780D03*
X1310669Y1181732D03*
X1333150Y1193543D03*
X1339134Y1183346D03*
X1152480Y1200787D03*
X1155866Y1197441D03*
X1221417Y1198976D03*
X1209685Y1199685D03*
X1227835Y1207205D03*
X1261417Y1203858D03*
X1266417Y1203228D03*
X1273071Y1209843D03*
X1303937Y1205394D03*
X1367205Y1198701D03*
X1377047Y1198819D03*
X1191457Y1230787D03*
X1220354Y1232559D03*
X1234646Y1232520D03*
X1246142Y1228740D03*
X1252283Y1228661D03*
X1271339Y1220512D03*
X1274488Y1216850D03*
X1288228Y1220906D03*
X1297283Y1232283D03*
X1296220Y1218346D03*
X1327992Y1228819D03*
X1275669Y1249921D03*
X1341417Y1240709D03*
X1351457Y1244134D03*
Y1251378D03*
X1356181Y1250787D03*
Y1243110D03*
X1140866Y1268150D03*
X1263661Y1270433D03*
X1293583Y1260354D03*
X1140433Y1282283D03*
X1208268Y1292756D03*
X1237402Y1294213D03*
X1274921Y1288819D03*
X1295433Y1288583D03*
Y1277598D03*
X1312913Y1294016D03*
X1209016Y1301457D03*
X1271102Y1308307D03*
X1293110Y1306614D03*
X1310630Y1307362D03*
X1342244Y1306850D03*
X1371496Y1307402D03*
X1278386Y1332992D03*
X1281575Y1329291D03*
X1333976Y1315512D03*
X1342205Y1315472D03*
X1338150Y1325236D03*
X1342244Y1321654D03*
X1347283Y1325512D03*
X1273898Y1335472D03*
X1282835Y1343386D03*
X1284331Y1338740D03*
X1278701Y1349567D03*
X1287677Y1335157D03*
X1247165Y1371969D03*
X1282244Y1367598D03*
X1312756Y1362559D03*
X1307244Y1357480D03*
X1326890Y1366024D03*
X1245354Y1381614D03*
X1245433Y1376811D03*
X1249488D03*
X1249567Y1381614D03*
G54D69*
X1235039Y1385039D03*
X1095276Y1013780D03*
X1190551D03*
X1287008Y1385039D03*
X1071654Y1013780D03*
X1166929D03*
X1206693Y1385039D03*
X1316929D03*
G54D81*
X1107559Y1085677D02*
X1107797D01*
X1108238Y1085236*
X1113420*
X1116992Y1081664*
Y1081264*
X1115685Y1098587D02*
Y1098187D01*
X1119108Y1094764*
X1126242*
X1127638Y1096159*
Y1096274*
X1128215Y1096850*
X1130465*
X1242323Y1165542D02*
Y1161881D01*
X1244007Y1160197*
X1248858*
X1255432Y1166770*
X1266031*
X1268321Y1164480*
X1271813*
X1238386Y1165542D02*
Y1171181D01*
X1252962Y1172244D02*
X1255612D01*
X1258998Y1168858*
X1283898*
X1285551Y1170512*
X1246260Y1165542D02*
Y1168191D01*
X1246772Y1171181*
X1277813Y1159756D02*
X1281134D01*
X1289252Y1167874*
X1271813Y1159756D02*
Y1164480D01*
X1318307Y1174488D02*
X1318425Y1174606D01*
X1318583Y1174449*
X1339134*
X1108052Y1191044D02*
X1126234D01*
X1127554Y1189724*
X1147992*
X1210236Y1176102D02*
X1212126Y1174213D01*
X1217904*
X1245197Y1177677D02*
Y1187008D01*
X1248307Y1190118*
Y1194872*
X1257293Y1203858*
X1261417*
X1285472Y1193661D02*
X1285765Y1193369D01*
X1288150Y1195753*
X1309055Y1177874D02*
X1329457D01*
X1329496Y1177913*
X1362402*
X1367205Y1182717*
Y1198701*
X1310669Y1181732D02*
X1312945D01*
X1314835Y1179843*
X1342668*
X1356181Y1193355*
Y1243110*
X1322497Y1189434D02*
X1327871D01*
Y1183434D02*
X1333081D01*
Y1183346*
X1339134*
X1105797Y1195769D02*
Y1195669D01*
X1142126*
X1144409Y1193386*
X1303937Y1205394D02*
X1304055D01*
Y1201953*
X1320157Y1185851*
Y1185674*
X1322397Y1183434*
X1322497*
X1281658Y1230025D02*
Y1229925D01*
X1286977Y1224606*
X1291893*
X1275658Y1230025D02*
Y1225452D01*
X1276142Y1224969*
Y1220899*
X1282985Y1214055*
X1286579*
X1310927Y1189708*
Y1188129*
X1314961Y1184094*
X1288228Y1220906D02*
X1298622Y1210512D01*
X1306339*
X1322497Y1194353*
Y1189434*
X1315193Y1229724D02*
X1320038D01*
X1327400Y1237087*
X1344409*
X1351457Y1244134*
X1280658Y1240261D02*
Y1235536D01*
X1281658*
X1280658Y1240261D02*
X1281658D01*
X1281592Y1245641D02*
Y1245541D01*
X1286024Y1241110*
Y1237641*
X1288385Y1235279*
X1288386*
X1289921Y1234843*
X1291893*
X1275658Y1235536D02*
X1275830D01*
Y1235609*
X1281486Y1229953*
Y1230025*
X1281658*
Y1235536D02*
Y1235436D01*
X1285197Y1231898*
Y1229724*
X1287756Y1227165*
X1291893*
X1356181Y1250787D02*
X1367480Y1262087D01*
X1196654Y1270512D02*
X1205229D01*
X1206607Y1269134*
X1214846*
X1218425Y1272713*
Y1273701*
X1220827Y1276102*
X1243220*
X1246063Y1273260*
Y1272835*
X1216732Y1264961D02*
X1236732D01*
X1261772Y1239921*
Y1225978*
X1270899Y1216850*
X1274488*
X1254865Y1270676D02*
X1255118D01*
Y1270323*
X1259843D02*
Y1270433D01*
X1263661*
X1255118Y1270323D02*
Y1272953D01*
X1256811Y1274646*
X1265748*
X1271339Y1269055*
Y1220512*
X1293583Y1260354D02*
X1296063Y1257874D01*
X1299362*
Y1268110D02*
Y1268007D01*
X1299615*
X1302262Y1270654*
Y1275015*
X1150638Y1277559D02*
Y1282283D01*
X1244764Y1281257D02*
X1249803Y1276218D01*
Y1264961*
X1244764Y1281257D02*
Y1303235D01*
X1251077Y1309547*
X1254480*
X1270990Y1288768D02*
Y1288819D01*
X1274921*
X1295433Y1288583D02*
X1299362D01*
X1295433Y1277598D02*
Y1277638D01*
X1299362*
Y1277559*
Y1277662*
X1299615*
X1302262Y1275015*
X1312913Y1294016D02*
X1320079D01*
Y1293996*
X1342244Y1306850D02*
X1351457Y1297638D01*
Y1251378*
X1074685Y1325709D02*
X1081228Y1319165D01*
X1333976Y1315512D02*
X1338171D01*
Y1315560*
X1338150Y1325236D02*
Y1321560D01*
X1338171*
Y1315560D02*
Y1315472D01*
X1342205*
X1338171Y1321560D02*
Y1321654D01*
X1342244*
X1341775Y1335108D02*
X1347205D01*
Y1336110*
X1341775Y1335108D02*
X1342775D01*
Y1339832*
X1335775Y1329990D02*
Y1335108D01*
X1341775Y1329990D02*
X1347205D01*
Y1330110*
X1347283*
Y1325512*
X1144173Y1352913D02*
Y1301969D01*
X1149538Y1296604*
Y1290551*
X1144173Y1352913D02*
X1150433Y1359173D01*
X1184921*
X1190551Y1364803*
Y1378307*
X1190906Y1378661*
X1161720Y1338589D02*
X1166714Y1343583D01*
X1213159*
X1228985Y1327756*
X1273150*
X1278386Y1332992*
X1161720Y1348589D02*
X1166399Y1353268D01*
X1177907*
X1182586Y1348589*
Y1338589D02*
X1214344D01*
X1228720Y1324213*
X1276496*
X1281575Y1329291*
X1182586Y1348589D02*
X1211962D01*
X1230865Y1329685*
X1268110*
X1273898Y1335472*
X1282835Y1343386D02*
X1289528D01*
X1292598Y1346457*
Y1359764*
X1305980Y1347126D02*
Y1332051D01*
X1310630Y1327402*
X1305980Y1347126D02*
X1328581D01*
X1335775Y1339932*
Y1339832*
X1305980Y1347126D02*
Y1356413D01*
X1307047Y1357480*
X1307244*
X1341775Y1339832D02*
X1342775D01*
X1347205Y1336110D02*
Y1335960D01*
X1354031Y1329134*
X1365094*
X1367480Y1326747*
Y1262087*
X1218110Y1365705D02*
X1224904D01*
X1226752Y1363858*
X1230867*
X1231102Y1363622*
X1257992Y1367480D02*
X1259803Y1369291D01*
Y1374528*
X1262795Y1377520*
X1292795*
X1311299Y1359016*
X1324838*
X1326878Y1356976*
Y1356876*
X1276302Y1367440D02*
Y1367598D01*
X1282244*
X1276302Y1360440D02*
X1291922D01*
X1292598Y1359764*
X1312756Y1362559D02*
Y1371213D01*
X1316929Y1375386*
Y1385039*
X1326875Y1362216D02*
Y1366038D01*
X1326890Y1366024*
X1332875Y1362216D02*
X1332878D01*
Y1356876*
X1349700*
X1377047Y1329528*
Y1198819*
X1110972Y1092531D02*
X1116840D01*
X1117746Y1091626*
X1172864*
X1175169Y1089320*
Y1078947*
X1172824Y1076602*
X1153750*
X1149949Y1080404*
Y1083987*
X1148317Y1085618*
X1121309*
X1119302Y1087626*
X1111900*
X1110972Y1088554*
Y1092531*
X1144161Y1096900D02*
Y1107785D01*
X1146349Y1109972*
X1186092*
X1189461Y1106604*
Y1099065*
X1187352Y1096957*
X1185738*
X1184933Y1096152*
Y1089892*
X1184921Y1089880*
X1185010Y1089791*
X1181309*
X1176349Y1094752*
X1146309*
X1144161Y1096900*
X1193059Y1110563D02*
Y1099223D01*
X1195522Y1096760*
X1202391*
X1204461Y1098829*
Y1101073*
X1205423Y1102035*
X1227569*
X1228610Y1100995*
Y1096546*
X1229695Y1095461*
X1231880*
X1232610Y1096191*
Y1104675*
X1226604Y1110681*
X1192924*
X1192806Y1110563*
X1193059*
X1253728Y1106053D02*
X1250618Y1102943D01*
Y1082116*
X1246996Y1078494*
Y1069341*
X1249971Y1066366*
X1262431*
X1265996Y1069932*
Y1090147*
X1263218Y1092925*
X1260462*
X1258004Y1095383*
Y1105935*
X1257628Y1106311*
X1253728*
Y1106053*
X1261996Y1108476D02*
Y1097924D01*
X1263239Y1096681*
X1267176*
X1268886Y1094971*
Y1092018*
X1269223Y1091681*
X1286761*
X1288336Y1093256*
X1288437*
Y1100738*
X1282155Y1107020*
X1266250*
X1264202Y1109067*
X1262114*
Y1108476*
X1261996*
X1290130Y1088673D02*
X1266664D01*
X1263886Y1085895*
Y1080128*
X1266664Y1077350*
X1285659*
X1290248Y1081939*
Y1088240*
X1290130*
Y1088673*
X1247256Y1104972D02*
X1231917D01*
Y1096388*
X1233396Y1094909*
X1246525*
X1247492Y1095876*
Y1104815*
X1247256*
Y1104972*
X1247689Y1359752D02*
X1241917D01*
Y1380029*
X1246270Y1384382*
X1253004*
Y1373554*
X1247689Y1368239*
Y1359752*
X1234475Y1359028D02*
X1238594D01*
Y1357234*
X1240187Y1355642*
X1242943*
X1243673Y1354911*
Y1332845*
X1242982Y1332154*
X1233790*
X1232272Y1333672*
Y1357097*
X1234471Y1359032*
X1234475Y1359028*
X1257059D02*
Y1345209D01*
X1276486*
X1277610Y1344084*
Y1341406*
X1264439*
X1258004Y1334971*
Y1331917*
X1247429*
Y1332401*
X1247546Y1355225*
X1250894Y1358572*
Y1359028*
X1257059*
X1110972Y1089201D02*
X1175169D01*
X1111225Y1088301D02*
X1175169D01*
X1119527Y1087401D02*
X1175169D01*
X1120427Y1086501D02*
X1175169D01*
X1148334Y1085601D02*
X1175169D01*
X1149234Y1084701D02*
X1175169D01*
X1149949Y1083801D02*
X1175169D01*
X1149949Y1082901D02*
X1175169D01*
X1149949Y1082001D02*
X1175169D01*
X1149949Y1081101D02*
X1175169D01*
X1150152Y1080201D02*
X1175169D01*
X1151052Y1079301D02*
X1175169D01*
X1151952Y1078401D02*
X1174623D01*
X1110972Y1090101D02*
X1174389D01*
X1152852Y1077501D02*
X1173723D01*
X1110972Y1091001D02*
X1173489D01*
X1110972Y1091901D02*
X1117471D01*
X1144161Y1105990D02*
X1189461D01*
X1144161Y1105090D02*
X1189461D01*
X1144161Y1104190D02*
X1189461D01*
X1144161Y1103290D02*
X1189461D01*
X1144161Y1102390D02*
X1189461D01*
X1144161Y1101490D02*
X1189461D01*
X1144161Y1100590D02*
X1189461D01*
X1144161Y1099690D02*
X1189461D01*
X1144161Y1098790D02*
X1189185D01*
X1144161Y1106890D02*
X1189175D01*
X1144161Y1097890D02*
X1188285D01*
X1144166Y1107790D02*
X1188275D01*
X1144161Y1096990D02*
X1187385D01*
X1145066Y1108690D02*
X1187375D01*
X1145966Y1109590D02*
X1186475D01*
X1144971Y1096090D02*
X1184933D01*
X1145871Y1095190D02*
X1184933D01*
X1176811Y1094290D02*
X1184933D01*
X1177711Y1093390D02*
X1184933D01*
X1178611Y1092490D02*
X1184933D01*
X1179511Y1091590D02*
X1184933D01*
X1180411Y1090690D02*
X1184933D01*
X1193059Y1104459D02*
X1232610D01*
X1193059Y1103559D02*
X1232610D01*
X1193059Y1102659D02*
X1232610D01*
X1227845Y1101759D02*
X1232610D01*
X1228610Y1100859D02*
X1232610D01*
X1228610Y1099959D02*
X1232610D01*
X1228610Y1099059D02*
X1232610D01*
X1228610Y1098159D02*
X1232610D01*
X1228610Y1097259D02*
X1232610D01*
X1228797Y1096359D02*
X1232610D01*
X1193059Y1105359D02*
X1231926D01*
X1193059Y1106259D02*
X1231026D01*
X1193059Y1107159D02*
X1230126D01*
X1193059Y1108059D02*
X1229226D01*
X1193059Y1108959D02*
X1228326D01*
X1193059Y1109859D02*
X1227426D01*
X1193059Y1101759D02*
X1205147D01*
X1193059Y1100859D02*
X1204461D01*
X1193059Y1099959D02*
X1204461D01*
X1193223Y1099059D02*
X1204461D01*
X1194123Y1098159D02*
X1203791D01*
X1195023Y1097259D02*
X1202891D01*
X1250618Y1089765D02*
X1265996D01*
X1250618Y1088865D02*
X1265996D01*
X1250618Y1087965D02*
X1265996D01*
X1250618Y1087065D02*
X1265996D01*
X1250618Y1086165D02*
X1265996D01*
X1250618Y1085265D02*
X1265996D01*
X1250618Y1084365D02*
X1265996D01*
X1250618Y1083465D02*
X1265996D01*
X1250618Y1082565D02*
X1265996D01*
X1250167Y1081665D02*
X1265996D01*
X1249267Y1080765D02*
X1265996D01*
X1248367Y1079865D02*
X1265996D01*
X1247467Y1078965D02*
X1265996D01*
X1246996Y1078065D02*
X1265996D01*
X1246996Y1077165D02*
X1265996D01*
X1246996Y1076265D02*
X1265996D01*
X1246996Y1075365D02*
X1265996D01*
X1246996Y1074465D02*
X1265996D01*
X1246996Y1073565D02*
X1265996D01*
X1246996Y1072665D02*
X1265996D01*
X1246996Y1071765D02*
X1265996D01*
X1246996Y1070865D02*
X1265996D01*
X1246996Y1069965D02*
X1265996D01*
X1250618Y1090665D02*
X1265478D01*
X1247272Y1069065D02*
X1265129D01*
X1250618Y1091565D02*
X1264578D01*
X1248172Y1068165D02*
X1264229D01*
X1250618Y1092465D02*
X1263678D01*
X1249072Y1067265D02*
X1263329D01*
X1250618Y1093365D02*
X1260023D01*
X1250618Y1094265D02*
X1259123D01*
X1250618Y1095165D02*
X1258223D01*
X1252740Y1105065D02*
X1258004D01*
X1251840Y1104165D02*
X1258004D01*
X1250940Y1103265D02*
X1258004D01*
X1250618Y1102365D02*
X1258004D01*
X1250618Y1101465D02*
X1258004D01*
X1250618Y1100565D02*
X1258004D01*
X1250618Y1099665D02*
X1258004D01*
X1250618Y1098765D02*
X1258004D01*
X1250618Y1097865D02*
X1258004D01*
X1250618Y1096965D02*
X1258004D01*
X1250618Y1096065D02*
X1258004D01*
X1253640Y1105965D02*
X1257974D01*
X1261996Y1100680D02*
X1288437D01*
X1261996Y1099780D02*
X1288437D01*
X1261996Y1098880D02*
X1288437D01*
X1261996Y1097980D02*
X1288437D01*
X1262840Y1097080D02*
X1288437D01*
X1267677Y1096180D02*
X1288437D01*
X1268577Y1095280D02*
X1288437D01*
X1268886Y1094380D02*
X1288437D01*
X1268886Y1093480D02*
X1288437D01*
X1268886Y1092580D02*
X1287660D01*
X1261996Y1101580D02*
X1287595D01*
X1261996Y1102480D02*
X1286695D01*
X1261996Y1103380D02*
X1285795D01*
X1261996Y1104280D02*
X1284895D01*
X1261996Y1105180D02*
X1283995D01*
X1261996Y1106080D02*
X1283095D01*
X1261996Y1106980D02*
X1282195D01*
X1261996Y1107880D02*
X1265389D01*
X1262114Y1108780D02*
X1264489D01*
X1266140Y1088149D02*
X1290248D01*
X1265240Y1087249D02*
X1290248D01*
X1264340Y1086349D02*
X1290248D01*
X1263886Y1085449D02*
X1290248D01*
X1263886Y1084549D02*
X1290248D01*
X1263886Y1083649D02*
X1290248D01*
X1263886Y1082749D02*
X1290248D01*
X1263886Y1081849D02*
X1290158D01*
X1263886Y1080949D02*
X1289258D01*
X1263965Y1080049D02*
X1288358D01*
X1264865Y1079149D02*
X1287458D01*
X1265765Y1078249D02*
X1286558D01*
X1231917Y1104808D02*
X1247492D01*
X1231917Y1103908D02*
X1247492D01*
X1231917Y1103008D02*
X1247492D01*
X1231917Y1102108D02*
X1247492D01*
X1231917Y1101208D02*
X1247492D01*
X1231917Y1100308D02*
X1247492D01*
X1231917Y1099408D02*
X1247492D01*
X1231917Y1098508D02*
X1247492D01*
X1231917Y1097608D02*
X1247492D01*
X1231917Y1096708D02*
X1247492D01*
X1232497Y1095808D02*
X1247424D01*
X1245939Y1384051D02*
X1253004D01*
X1245039Y1383151D02*
X1253004D01*
X1244139Y1382251D02*
X1253004D01*
X1243239Y1381351D02*
X1253004D01*
X1242339Y1380451D02*
X1253004D01*
X1241917Y1379551D02*
X1253004D01*
X1241917Y1378651D02*
X1253004D01*
X1241917Y1377751D02*
X1253004D01*
X1241917Y1376851D02*
X1253004D01*
X1241917Y1375951D02*
X1253004D01*
X1241917Y1375051D02*
X1253004D01*
X1241917Y1374151D02*
X1253004D01*
X1241917Y1373251D02*
X1252701D01*
X1241917Y1372351D02*
X1251801D01*
X1241917Y1371451D02*
X1250901D01*
X1241917Y1370551D02*
X1250001D01*
X1241917Y1369651D02*
X1249101D01*
X1241917Y1368751D02*
X1248201D01*
X1241917Y1367851D02*
X1247689D01*
X1241917Y1366951D02*
X1247689D01*
X1241917Y1366051D02*
X1247689D01*
X1241917Y1365151D02*
X1247689D01*
X1241917Y1364251D02*
X1247689D01*
X1241917Y1363351D02*
X1247689D01*
X1241917Y1362451D02*
X1247689D01*
X1241917Y1361551D02*
X1247689D01*
X1241917Y1360651D02*
X1247689D01*
X1232272Y1354652D02*
X1243673D01*
X1232272Y1353752D02*
X1243673D01*
X1232272Y1352852D02*
X1243673D01*
X1232272Y1351952D02*
X1243673D01*
X1232272Y1351052D02*
X1243673D01*
X1232272Y1350152D02*
X1243673D01*
X1232272Y1349252D02*
X1243673D01*
X1232272Y1348352D02*
X1243673D01*
X1232272Y1347452D02*
X1243673D01*
X1232272Y1346552D02*
X1243673D01*
X1232272Y1345652D02*
X1243673D01*
X1232272Y1344752D02*
X1243673D01*
X1232272Y1343852D02*
X1243673D01*
X1232272Y1342952D02*
X1243673D01*
X1232272Y1342052D02*
X1243673D01*
X1232272Y1341152D02*
X1243673D01*
X1232272Y1340252D02*
X1243673D01*
X1232272Y1339352D02*
X1243673D01*
X1232272Y1338452D02*
X1243673D01*
X1232272Y1337552D02*
X1243673D01*
X1232272Y1336652D02*
X1243673D01*
X1232272Y1335752D02*
X1243673D01*
X1232272Y1334852D02*
X1243673D01*
X1232272Y1333952D02*
X1243673D01*
X1232891Y1333052D02*
X1243673D01*
X1232272Y1355552D02*
X1243032D01*
X1232272Y1356452D02*
X1239376D01*
X1233585Y1358252D02*
X1238594D01*
X1232562Y1357352D02*
X1238594D01*
X1247487Y1343616D02*
X1277610D01*
X1247482Y1342716D02*
X1277610D01*
X1247477Y1341816D02*
X1277610D01*
X1247491Y1344516D02*
X1277178D01*
X1247473Y1340916D02*
X1263949D01*
X1247468Y1340016D02*
X1263049D01*
X1247464Y1339116D02*
X1262149D01*
X1247459Y1338216D02*
X1261249D01*
X1247454Y1337316D02*
X1260349D01*
X1247450Y1336416D02*
X1259449D01*
X1247445Y1335516D02*
X1258549D01*
X1247440Y1334616D02*
X1258004D01*
X1247436Y1333716D02*
X1258004D01*
X1247431Y1332816D02*
X1258004D01*
X1250894Y1358916D02*
X1257059D01*
X1250337Y1358016D02*
X1257059D01*
X1249437Y1357116D02*
X1257059D01*
X1248537Y1356216D02*
X1257059D01*
X1247637Y1355316D02*
X1257059D01*
X1247542Y1354416D02*
X1257059D01*
X1247537Y1353516D02*
X1257059D01*
X1247533Y1352616D02*
X1257059D01*
X1247528Y1351716D02*
X1257059D01*
X1247524Y1350816D02*
X1257059D01*
X1247519Y1349916D02*
X1257059D01*
X1247514Y1349016D02*
X1257059D01*
X1247510Y1348116D02*
X1257059D01*
X1247505Y1347216D02*
X1257059D01*
X1247500Y1346316D02*
X1257059D01*
X1247496Y1345416D02*
X1257059D01*
X1243622Y1171749D02*
G75*
G03X1243130Y1172338I-492J89D01*
G01X1238735*
G03X1238382Y1172192I0J-500*
G01X1237433Y1171243*
G03X1237809Y1170390I353J-354*
G01X1237886Y1170391D02*
G03X1237809Y1170390I-0J-1700D01*
G01X1237886Y1170391D02*
X1238886D01*
X1239260Y1170350D02*
G03X1238886Y1170391I-374J-1659D01*
G01X1239260Y1170350D02*
G03X1239480I110J487D01*
G01X1239854Y1170391D02*
G03X1239480Y1170350I0J-1700D01*
G01X1239854Y1170391D02*
X1240854D01*
X1241229Y1170350D02*
G03X1240854Y1170391I-375J-1659D01*
G01X1241229Y1170350D02*
G03X1241449I110J487D01*
G01X1241823Y1170391D02*
G03X1241449Y1170350I-0J-1700D01*
G01X1241823Y1170391D02*
X1242823D01*
X1243025Y1170379D02*
G03X1242823Y1170391I-202J-1688D01*
G01X1243025Y1170379D02*
G03X1243583Y1170917I59J497D01*
G01X1243622Y1171749D02*
G03X1243583Y1170917I3150J-568D01*
G01X1246107Y1191236D02*
Y1194630D01*
G03X1245607Y1195130I-500J-0*
G01X1239763*
G03X1239409Y1194983I0J-500*
G01X1235544Y1191118*
X1234023Y1190488D02*
G03X1235544Y1191118I0J2150D01*
G01X1234023Y1190488D02*
X1226440D01*
G03X1226091Y1190346I0J-500*
G01X1223736Y1189440D02*
G03X1226091Y1190346I122J3198D01*
G01X1223736Y1189440D02*
G03X1223217Y1188940I-19J-500D01*
G01Y1173044*
G03X1223717Y1172544I500J-0*
G01X1232446*
G03X1232799Y1172690I-0J500*
G01X1236118Y1176008*
X1237638Y1176638D02*
G03X1236118Y1176008I-0J-2150D01*
G01X1237638Y1176638D02*
X1241536D01*
G03X1242031Y1177211I0J500*
G01X1242862Y1179865D02*
G03X1242031Y1177211I2335J-2188D01*
G01X1242862Y1179865D02*
G03X1242997Y1180207I-365J342D01*
G01Y1187008*
X1243641Y1188564D02*
G03X1242997Y1187008I1556J-1556D01*
G01X1243641Y1188564D02*
X1245961Y1190883D01*
G03X1246107Y1191236I-354J353*
G01X1238555Y1194129D02*
X1246107D01*
X1237655Y1193229D02*
X1246107D01*
X1236755Y1192329D02*
X1246107D01*
X1235855Y1191429D02*
X1246107D01*
X1239462Y1195029D02*
X1245908D01*
X1234444Y1190529D02*
X1245607D01*
X1224949Y1189629D02*
X1244707D01*
X1223217Y1188729D02*
X1243807D01*
X1223217Y1187829D02*
X1243156D01*
X1223217Y1186929D02*
X1242997D01*
X1223217Y1186029D02*
X1242997D01*
X1223217Y1185129D02*
X1242997D01*
X1223217Y1184229D02*
X1242997D01*
X1223217Y1183329D02*
X1242997D01*
X1223217Y1182429D02*
X1242997D01*
X1223217Y1181529D02*
X1242997D01*
X1223217Y1180629D02*
X1242997D01*
X1223217Y1179729D02*
X1242742D01*
X1223217Y1178829D02*
X1242211D01*
X1223217Y1177029D02*
X1242024D01*
X1223217Y1177929D02*
X1242007D01*
X1223217Y1176129D02*
X1236249D01*
X1223217Y1175229D02*
X1235338D01*
X1223217Y1174329D02*
X1234438D01*
X1223217Y1173429D02*
X1233538D01*
X1237820Y1171629D02*
X1243603D01*
X1237313Y1170729D02*
X1243562D01*
X1000000Y1000000D02*
X1393701D01*
Y1393701*
X1000000*
Y1000000*
G54D88*
X1166929Y1013780D02*
X1175197Y1022047D01*
X1183622*
X1187953Y1026378*
Y1050000*
X1214899Y1076946*
X1216220*
X1216558Y1077283*
X1216720*
X1216799Y1077362*
X1216904*
X1216943Y1077402*
X1217019*
X1217098Y1077480*
X1217389*
X1217822Y1077913*
X1235866*
X1245079Y1087126*
Y1100195*
X1245724*
X1094016Y1038307D02*
X1097787D01*
Y1038583*
X1115992Y1047244D02*
Y1042764D01*
X1116024Y1043228*
X1168748Y1051181D02*
Y1051142D01*
X1172953*
X1168748Y1051181D02*
Y1058705D01*
X1170472*
X1145933Y1065492D02*
Y1065551D01*
X1151890*
Y1065472*
X1145933Y1055492D02*
X1146024D01*
Y1051654*
X1301063Y1069685D02*
X1306055D01*
X1284496Y1059055D02*
Y1059016D01*
X1288465*
X1365598Y1072835D02*
Y1072935D01*
X1374635Y1081971*
Y1098515*
X1144094Y1077677D02*
Y1082039D01*
X1129134Y1081539D02*
X1137402D01*
Y1082039*
X1144094*
X1190795Y1076772D02*
Y1076732D01*
X1195197*
X1211024Y1084008D02*
Y1083258D01*
X1215748*
Y1084008*
X1215787*
Y1080354*
X1224921Y1094134D02*
Y1098299D01*
X1225165Y1098543*
X1224921Y1094134D02*
X1224961Y1094252D01*
X1273228Y1093264D02*
X1281496D01*
X1288189*
Y1093157*
X1301181Y1081142D02*
X1306055D01*
Y1081102*
X1365598Y1085827D02*
Y1085906D01*
X1369685*
X1095394Y1111063D02*
X1100150D01*
Y1111024*
X1099543Y1103776D02*
X1100150D01*
Y1111024*
Y1116142*
X1198031Y1102362D02*
X1203701D01*
X1205626Y1104287*
X1209843*
X1222520Y1104181D02*
X1224803D01*
X1209843Y1097287D02*
X1218110D01*
X1209843Y1104287D02*
X1218110D01*
Y1097287D02*
X1224803D01*
Y1098181*
X1218110Y1104287D02*
Y1104181D01*
X1222520*
X1224803D02*
X1225216D01*
Y1104444*
X1230315Y1099344*
Y1097094*
X1224803Y1104181D02*
X1233294D01*
X1237280Y1100195*
X1245724*
X1224803Y1098181D02*
X1225165Y1098543D01*
X1263724Y1100195D02*
X1266474D01*
X1270198Y1096472*
Y1096044*
X1272978Y1093264*
X1273228*
X1302087Y1101772D02*
X1306055D01*
Y1101575*
X1336515Y1113286D02*
X1342538Y1107264D01*
X1343858*
X1336515Y1113286D02*
X1336858D01*
Y1113780*
X1337835Y1102244D02*
X1343858D01*
Y1102264*
Y1107264D02*
X1350571D01*
X1354961Y1102874*
Y1101811*
X1371339*
X1374635Y1098515*
X1354961Y1101811D02*
Y1096021D01*
X1357244Y1093737*
X1357300*
X1359598Y1091439*
Y1091339*
X1330827Y1118110D02*
Y1113780D01*
X1330858*
X1343622Y1117874D02*
X1359370D01*
X1359409Y1117913*
X1375157*
X1219488Y1149528D02*
X1223772D01*
Y1149606*
X1256811Y1147008D02*
Y1150787D01*
X1256937*
X1245520Y1149606D02*
X1245551D01*
Y1145709*
X1186299Y1160000D02*
Y1163780D01*
X1186370*
Y1170866*
X1187445*
X1215898Y1156299D02*
X1215906D01*
Y1160000*
X1260315Y1162087D02*
Y1162126D01*
X1264173*
Y1162055*
X1277439Y1171888D02*
X1281613D01*
X1281614Y1171890*
X1277813Y1164480D02*
X1280543D01*
X1282067Y1166004*
X1282283Y1165787*
X1191189Y1178346D02*
Y1178465D01*
X1194921*
X1191189Y1178346D02*
Y1183465D01*
X1277016Y1194488D02*
Y1194528D01*
X1280945*
X1277150Y1186717D02*
X1280890D01*
X1280906Y1186732*
X1333081Y1189434D02*
X1333110D01*
Y1193543*
X1333150*
X1191457Y1230787D02*
Y1234875D01*
X1191471*
X1220354Y1232559D02*
X1220394D01*
Y1228591*
X1220472*
X1234646D02*
Y1232520D01*
X1296220Y1218346D02*
X1300543D01*
Y1218110*
X1291893Y1232283D02*
X1297283D01*
X1315193D02*
X1318943D01*
X1320551Y1233891*
Y1237126*
X1324159Y1240734*
X1331506*
X1327992Y1228819D02*
Y1228780D01*
X1331646*
Y1228740*
X1275592Y1245641D02*
X1275669D01*
Y1249921*
X1275592Y1245641D02*
Y1240261D01*
X1275658*
X1307013Y1246141D02*
X1330355D01*
X1332126Y1244370*
X1335079Y1247323*
X1356423*
X1372126Y1231620*
Y1179671*
X1383071Y1168726*
Y1117913*
X1331506Y1240734D02*
Y1243750D01*
X1332126Y1244370*
X1337506Y1240734D02*
Y1240709D01*
X1341417*
X1063512Y1306417D02*
Y1314776D01*
X1064685Y1315950*
Y1325709*
G54D90*
X1095276Y1013780D02*
X1095512Y1019252D01*
X1183268Y1086614D02*
X1187992D01*
X1187638Y1086693D02*
X1187992D01*
Y1086614*
X1222520Y1104181D02*
Y1106181D01*
X1230079Y1113740*
X1282205*
X1336858Y1113780D02*
Y1117669D01*
X1289134Y1120433D02*
X1292441Y1123740D01*
X1331024*
X1336858Y1117906*
Y1117669*
X1336654Y1117874D02*
X1336858Y1117669D01*
X1162635Y1172497D02*
X1182022Y1153110D01*
X1193110*
X1264173Y1156055D02*
X1282241D01*
X1292677Y1166491*
Y1178801*
X1271016Y1194488D02*
X1271166D01*
X1273498Y1196821*
Y1197008*
X1274479Y1197988*
X1285915*
X1288150Y1195753*
X1292539Y1191363*
Y1178938*
X1292677Y1178801*
X1095039Y1220630D02*
X1096929Y1218740D01*
X1123937*
X1154921Y1187756*
Y1180211*
X1162635Y1172497*
X1095039Y1220630D02*
X1092756Y1218346D01*
Y1187576*
X1101806Y1178526*
X1199567Y1285512D02*
X1203920D01*
X1206716Y1282717*
X1215970*
X1216969Y1283715*
Y1283902*
X1219317Y1286250*
X1219467*
X1191660Y1275505D02*
X1196654Y1270512D01*
X1191110Y1282808D02*
Y1276055D01*
X1191660Y1275505*
X1191110Y1282808D02*
X1193783Y1285480D01*
X1057512Y1306417D02*
Y1301500D01*
X1060744Y1298268*
X1087835*
X1092087Y1294016*
Y1223583*
X1095039Y1220630*
X1191110Y1302808D02*
Y1288152D01*
X1193783Y1285480*
X1191110Y1302808D02*
X1194602Y1306299D01*
X1213535*
X1305075Y1306693D02*
Y1307362D01*
X1310630*
X1054685Y1325709D02*
Y1316776D01*
X1057512Y1313950*
Y1306417*
X1206929Y1325866D02*
Y1313006D01*
X1213535Y1306399*
Y1306299*
X1206929Y1325866D02*
X1207795Y1326732D01*
X1222008*
X1234567Y1314173*
X1282087*
X1283898Y1315984*
X1290591*
X1297165Y1322559*
X1305472*
X1310630Y1317402*
X1236909Y1342126D02*
Y1357185D01*
X1252067Y1342126D02*
X1259555D01*
X1259992Y1342563*
X1265748*
X1252067Y1342126D02*
Y1356909D01*
X1274016Y1349563D02*
Y1349567D01*
X1278701*
X1265748Y1349563D02*
X1274016D01*
X1265748Y1342563D02*
X1274016D01*
X1310630Y1337402D02*
X1327559Y1320472D01*
Y1316102*
X1333346Y1310315*
X1353937*
X1359728Y1316106*
Y1321634*
X1361417*
X1057067Y1361417D02*
X1064154Y1354331D01*
X1080118*
X1085000Y1359213*
Y1380433*
X1089606Y1385039*
X1206693*
X1072067Y1361417D02*
Y1371601D01*
X1090033Y1389567*
X1222801*
X1227328Y1385039*
X1235039*
X1099422Y1372949D02*
Y1372556D01*
X1111335*
X1111339Y1372559*
X1115846*
Y1372953*
X1132579D02*
Y1372559D01*
X1148839*
Y1372953*
X1166083D02*
Y1372559D01*
X1183169*
Y1372953*
X1218110Y1358705D02*
X1229732D01*
X1231669Y1360642*
X1115846Y1378858D02*
Y1379252D01*
X1132579*
Y1378858*
X1148839D02*
Y1379252D01*
X1166083*
Y1378858*
X1183169D02*
Y1378661D01*
X1190906*
X1210862Y1358705*
X1218110*
X1206693Y1385039D02*
X1219016D01*
X1229449Y1374606*
Y1368349*
X1231301Y1366496*
X1235039Y1385039D02*
Y1377205D01*
X1236173Y1376071*
Y1369961*
G54D96*
X1231669Y1360642D02*
X1232051Y1361024D01*
X1236173*
Y1366929D02*
Y1369961D01*
G54D115*
G54D123*
X1278622Y1048898D03*
X1267717D03*
X1256811D03*
X1245906D03*
X1284075Y1037717D03*
X1273169D03*
X1262264D03*
X1251358D03*
G54D141*
X1190551Y1013780D02*
Y1048307D01*
X1217639Y1075395*
X1254724*
X1103543Y1032205D02*
Y1027990D01*
X1113738Y1017795*
X1115626*
X1129524Y1003898*
X1304216*
X1380002Y1079684*
Y1147788*
X1125905Y1026280D02*
Y1055492D01*
X1052402Y1052756D02*
Y1043144D01*
X1071654Y1023892*
Y1013780*
X1103787Y1052756D02*
Y1048031D01*
X1104009*
Y1048153*
X1106772Y1045390*
Y1027307*
X1114473Y1019606*
X1117681*
X1131579Y1005709*
X1303482*
X1378202Y1080429*
Y1147043*
X1097787Y1052756D02*
Y1066882D01*
X1097835Y1066929*
X1103787Y1038583D02*
Y1043307D01*
X1097787D02*
Y1048031D01*
X1109992Y1047244D02*
Y1043157D01*
X1110354Y1042795*
Y1032205*
X1109992Y1047244D02*
Y1051969D01*
X1267717Y1048898D02*
X1273504Y1043110D01*
X1294134*
X1299291Y1048268*
Y1058097*
X1306055Y1064861*
Y1064961*
X1113630Y1060236D02*
X1118110D01*
X1118366Y1060492*
X1124933*
X1113630Y1060236D02*
Y1060136D01*
X1115992Y1057774*
Y1051969*
X1106736Y1066929D02*
X1107630D01*
Y1060236*
X1145933Y1060492D02*
X1149941D01*
X1153661Y1056772*
Y1052402*
X1154882Y1051181*
X1162748*
X1278496Y1063780D02*
Y1059055D01*
Y1054716*
X1278622Y1054590*
Y1048898*
X1284496Y1063780D02*
Y1071228D01*
X1299528Y1086260*
X1312612*
X1321608Y1077264*
X1323858*
X1312055Y1069685D02*
X1315792D01*
X1318371Y1072264*
X1323858*
X1306055Y1074409D02*
X1306373D01*
Y1074627*
X1311610Y1069390*
X1312055*
Y1069685*
Y1074409D02*
Y1081102D01*
Y1064961D02*
Y1069685D01*
X1343858Y1072264D02*
X1352443D01*
X1353014Y1072835*
X1359598*
X1093740Y1081024D02*
X1095087Y1079677D01*
X1097638*
X1093740Y1081024D02*
Y1089843D01*
X1099173Y1095276*
X1103543*
X1097638Y1085677D02*
X1102756D01*
X1097638Y1079677D02*
X1102756D01*
Y1085677D02*
X1107559D01*
X1102756Y1079677D02*
X1104806D01*
X1105433Y1080304*
Y1080945*
X1105752Y1081264*
X1108992*
X1107559Y1085677D02*
Y1097362D01*
X1113661Y1103465*
X1115709*
X1116339Y1102835*
X1119837*
X1123685Y1098987*
Y1098587*
X1161417Y1086516D02*
X1172843D01*
X1176366Y1087638*
X1178583*
X1183268Y1082874D02*
Y1080894D01*
X1184795Y1079367*
Y1076772*
X1188661Y1093819D02*
X1192874Y1090354D01*
X1184795Y1076772D02*
Y1074142D01*
X1185748Y1073189*
X1202795*
X1206299Y1076693*
Y1084008*
X1192323Y1090354D02*
X1196665D01*
X1197011Y1090008*
X1200787*
X1192323Y1090354D02*
X1192874D01*
X1192323Y1082874D02*
X1196260D01*
X1197394Y1084008*
X1200787*
X1220472D02*
X1225197D01*
X1211024Y1090008D02*
X1215748D01*
X1220472*
X1206299D02*
X1211024D01*
X1225197D02*
Y1090551D01*
X1230315*
Y1091094*
X1254724Y1075395D02*
X1257224D01*
X1268093Y1086264*
X1273228*
X1281496*
Y1087157*
X1288189*
X1323858Y1082264D02*
Y1082244D01*
X1330000*
X1312055Y1081102D02*
Y1079952D01*
X1313355*
X1316260Y1077835*
X1312055Y1090945D02*
X1312205D01*
X1315886Y1087264*
X1323858*
X1306055Y1090945D02*
Y1094559D01*
X1307362Y1095866*
X1315355*
X1318957Y1092264*
X1323858*
X1343858Y1077264D02*
X1355860D01*
X1359598Y1081002*
Y1081102*
Y1085827*
X1365598Y1091339D02*
X1369331D01*
X1372535Y1088134*
X1365598Y1081102D02*
X1369213D01*
X1372535Y1084425*
Y1088134*
X1119685Y1107087D02*
Y1113780D01*
X1119882*
X1123685Y1098587D02*
Y1106953D01*
X1128583Y1111850*
X1131850*
X1133583Y1110118*
Y1104162*
X1136267Y1101477*
Y1101575*
X1136465*
X1112402Y1113780D02*
Y1114205D01*
X1115913Y1117717*
X1136339*
X1167756Y1149134*
X1188386*
X1106150Y1116142D02*
Y1111024D01*
Y1108496*
X1107543Y1107102*
Y1103776*
X1136465Y1096850D02*
Y1101575D01*
X1130465Y1096850D02*
Y1101575D01*
X1136465Y1106299D02*
Y1106399D01*
X1144357Y1114291*
X1225748*
X1130465Y1101575D02*
Y1106299D01*
X1161417Y1101673D02*
X1174951D01*
X1175640Y1102362*
X1182283*
Y1095374*
X1183268Y1094390*
Y1090354*
X1232638Y1109646D02*
X1247838D01*
X1249413Y1111220*
X1272892*
X1273522Y1110591*
X1285866*
X1298583Y1100472D02*
X1300906Y1098150D01*
X1317320*
X1318206Y1097264*
X1323858*
X1298583Y1100472D02*
Y1105000D01*
X1301457Y1107874*
X1306055*
X1312055Y1101575D02*
X1316737D01*
X1317426Y1102264*
X1323858*
X1312055Y1107874D02*
X1316777D01*
X1317387Y1107264*
X1323858*
X1359252Y1097638D02*
Y1097213D01*
X1362173Y1094291*
X1362746*
X1365598Y1091439*
Y1091339*
X1100150Y1120866D02*
Y1122916D01*
X1102037Y1124803*
X1114409*
X1115017Y1123204*
Y1121654*
X1116142*
X1106150Y1116142D02*
Y1120866D01*
X1286284Y1121614D02*
X1292347Y1127677D01*
X1316969*
X1318386Y1129094*
Y1130157*
X1320512Y1132283*
X1286284Y1121614D02*
Y1119253D01*
X1288286Y1117251*
X1289126*
X1289526Y1116850*
X1291850*
X1324173Y1119646D02*
Y1114407D01*
X1333898Y1104682*
Y1079974*
X1341608Y1072264*
X1343858*
X1330787Y1132244D02*
X1335682D01*
X1338877Y1129049*
X1345814*
X1371414*
X1193110Y1153110D02*
X1218559D01*
X1221748Y1156299*
X1221898*
X1239520Y1149606D02*
X1239449D01*
Y1140787*
X1244803Y1135433*
X1234646Y1149756D02*
Y1149606D01*
X1239520*
X1225591Y1135433D02*
X1230866Y1140709D01*
Y1149606*
X1229772*
X1230669*
Y1156789*
X1232222Y1158341*
X1232243*
X1232480Y1158579*
Y1165542*
X1101806Y1158526D02*
X1108599Y1165319D01*
Y1184923*
X1101806Y1168526D02*
X1106799Y1173519D01*
X1197087Y1156732D02*
X1201375Y1161021D01*
Y1162478*
X1209291Y1170394*
X1233543*
X1237638Y1174488*
X1247045*
X1248463Y1175906*
Y1187092*
X1249363Y1187992*
X1252962*
X1192370Y1163780D02*
X1193240D01*
Y1170866*
X1194445*
X1205039*
X1206417Y1172244*
X1217904*
X1194445Y1170866D02*
Y1171116D01*
X1221898Y1156299D02*
Y1163783D01*
X1223656Y1165542*
X1224606*
X1240354D02*
Y1161233D01*
X1243516Y1158071*
X1243801*
X1245894Y1155978*
X1245894D02*
Y1155878D01*
X1236417Y1165542D02*
Y1159455D01*
X1239894Y1155978*
X1239894D02*
Y1155878D01*
X1234449Y1165542D02*
Y1155756D01*
X1234646*
X1239894Y1155878D02*
Y1155778D01*
X1239894D02*
X1243113Y1152559D01*
X1248071*
X1248661Y1151969*
Y1150945*
X1250937*
Y1150787*
X1252962Y1174213D02*
X1261739D01*
X1264063Y1171888*
X1271439*
X1245894Y1155878D02*
X1254895D01*
X1254895D02*
X1255073Y1156055D01*
X1264173*
X1271439Y1171888D02*
X1271589D01*
X1274544Y1174843*
X1287874*
X1288661Y1174055*
X1302913Y1167913D02*
X1357332D01*
X1378202Y1147043*
X1102947Y1186761D02*
X1106799Y1182909D01*
Y1173519*
X1102947Y1186761D02*
Y1193217D01*
X1105598Y1195868*
Y1195769*
X1105797*
X1099797Y1191044D02*
Y1186761D01*
X1101806Y1184752*
Y1178526*
X1099797Y1191044D02*
Y1195769D01*
X1105797Y1191044D02*
Y1187726D01*
X1108599Y1184923*
X1105797Y1191044D02*
X1108052D01*
X1162635Y1182497D02*
X1167087Y1183465D01*
X1185189*
X1184843Y1186417D02*
Y1183465D01*
X1185189*
X1184843Y1186417D02*
X1185787Y1187362D01*
X1193858*
X1201102Y1180118*
X1217904*
X1185189Y1178346D02*
Y1183465D01*
X1223858Y1192638D02*
X1234023D01*
X1238386Y1197000*
Y1200600*
X1209685Y1190472D02*
X1214134Y1186024D01*
X1217904*
X1252962Y1193898D02*
X1255612D01*
X1256911Y1195197*
X1266772*
X1267480Y1194488*
X1271016*
X1252962Y1191929D02*
X1259255D01*
X1259648Y1192323*
X1264291*
X1252962Y1189961D02*
X1259606D01*
X1260118Y1189449*
X1267160*
X1267672Y1189961*
X1289134*
X1252962Y1186024D02*
X1258346D01*
X1259409Y1187087*
X1271150*
Y1186717*
X1252962Y1182087D02*
X1257756D01*
X1259409Y1183740*
X1284328*
X1284682Y1184094*
X1289016*
X1252962Y1180118D02*
X1259547D01*
X1260453Y1181024*
X1278743*
X1278900Y1180866*
X1285906*
X1252962Y1178150D02*
X1261339D01*
X1262402Y1179213*
X1270669*
X1271890Y1177992*
X1289094*
Y1178386*
X1301126Y1184903D02*
X1301142Y1184918D01*
Y1189961*
X1301126Y1184903D02*
Y1172535D01*
X1302874Y1170787*
X1358425*
X1380002Y1149210*
Y1147788*
X1152480Y1200787D02*
X1157402D01*
X1162126Y1196063*
X1227606*
X1228543Y1197000*
Y1200600*
X1155866Y1197441D02*
X1159252Y1194055D01*
X1213449*
X1213606Y1193898*
X1217904*
X1226575Y1200600D02*
Y1205984D01*
X1227795Y1207205*
X1227835*
X1234449Y1200600D02*
Y1218780D01*
X1234685Y1219016*
X1236417Y1200600D02*
Y1206969D01*
X1239685Y1210236*
X1259409*
X1266417Y1203228*
X1273071Y1209843D02*
X1276296Y1206617D01*
X1276336*
X1278819Y1204134*
X1291339*
X1298189Y1197283*
Y1167205*
X1300827Y1164567*
X1308071*
X1327165Y1145472*
Y1130591*
X1329764Y1127992*
X1331614*
X1340709Y1118898*
Y1113937*
X1343819Y1110827*
X1358102*
X1362992Y1105937*
Y1105512*
X1196968Y1223970D02*
X1202211D01*
X1209685Y1216496*
Y1199685*
X1190968Y1223970D02*
Y1218458D01*
X1191756*
X1197471Y1234875D02*
X1201560D01*
X1201607Y1234921*
X1207087*
X1212756Y1229252*
Y1223780*
X1221417Y1215118*
Y1198976*
X1220472Y1222591D02*
Y1222441D01*
X1224606Y1218307*
Y1200600*
X1220472Y1222591D02*
Y1222638D01*
X1224961*
X1226575Y1224252*
Y1234803*
X1230591Y1238819*
X1246654*
X1249173Y1236299*
Y1225039*
X1271016Y1203197*
Y1194488*
X1234646Y1222591D02*
Y1219724D01*
X1234685Y1219685*
Y1219016*
X1234646Y1222591D02*
X1239370D01*
Y1228591D02*
X1242731D01*
X1242881Y1228740*
X1246142*
X1252205Y1227008D02*
Y1226102D01*
X1273701Y1204606*
Y1202126*
X1274567Y1201260*
X1289143*
X1295496Y1194906*
Y1179670*
X1295575Y1179591*
Y1166615*
X1299434Y1162756*
X1306024*
X1324016Y1144764*
Y1136240*
X1324173Y1136083*
Y1127559*
X1252205Y1227008D02*
X1252283Y1228661D01*
X1291893Y1229724D02*
X1293745D01*
X1295354Y1229264*
X1300359Y1224259*
Y1224144*
X1306393Y1218110*
X1306543*
X1291893Y1234843D02*
X1293745D01*
X1295354Y1235303*
X1301013Y1240963*
X1315193Y1227165D02*
X1320709D01*
X1327008Y1233465*
X1331646*
X1315193Y1224606D02*
X1325250D01*
X1331646Y1218210*
Y1218110*
X1306543D02*
X1306693D01*
X1310591Y1214213*
X1333848*
X1337646Y1218010*
Y1218110*
X1331646D02*
Y1218210D01*
X1334302Y1220866*
X1334990*
X1337646Y1223522*
Y1223622*
X1331646Y1233465D02*
X1331843D01*
Y1233562*
X1334496Y1230910*
X1337646Y1228740D02*
Y1233465D01*
X1331646Y1223622D02*
Y1223722D01*
X1334496Y1226572*
Y1230910*
X1186102Y1246969D02*
X1190157Y1251024D01*
X1195118*
X1197471Y1248670*
Y1245111*
X1186102Y1246969D02*
Y1219103D01*
X1189733Y1215472*
X1194870*
X1197756Y1218358*
Y1218458*
X1196684Y1239993D02*
Y1234875D01*
X1197471*
X1190684Y1239993D02*
Y1245111D01*
X1191471*
X1197471D02*
X1208629D01*
X1215630Y1238110*
Y1227583*
X1220472Y1222741*
Y1222591*
X1301013Y1246141D02*
Y1240963D01*
X1307133Y1234843*
X1315193*
X1291893Y1237402D02*
X1294443D01*
Y1239961*
X1291893D02*
X1294443D01*
X1315193D02*
X1317743D01*
X1315193Y1237402D02*
X1317743D01*
Y1239961*
X1140866Y1268150D02*
X1144638D01*
Y1268110*
Y1272835D02*
Y1277559D01*
X1150638Y1268110D02*
Y1272835D01*
X1212992D02*
Y1273260D01*
X1219260Y1279528*
X1235354*
X1242391Y1286564*
Y1301857*
X1255118Y1264323D02*
X1259843D01*
X1249803Y1264961D02*
Y1264323D01*
X1255118*
X1299045Y1272617D02*
Y1272835D01*
X1299362*
X1311142Y1260787D02*
Y1263559D01*
X1316579Y1268996*
X1320079*
X1311142Y1260787D02*
X1313031Y1258898D01*
X1324803*
X1328307Y1262402*
Y1301722*
X1305362Y1257874D02*
Y1262598D01*
Y1268110D02*
Y1272835D01*
Y1262598D02*
Y1262698D01*
X1310984Y1268320*
Y1268402*
X1316579Y1273996*
X1320079*
X1305362Y1272835D02*
X1310417D01*
X1316579Y1278996*
X1320079*
Y1263996D02*
X1323579D01*
X1326457Y1266874*
X1140433Y1282283D02*
X1144638D01*
X1150638Y1277559D02*
X1153780D01*
X1155039Y1276299*
Y1258031*
X1159094Y1253976*
X1206654*
X1217165Y1243465*
X1247362*
X1255157Y1235669*
Y1228543*
X1270669Y1213031*
X1274449*
X1280394Y1207087*
X1290931*
X1306457Y1191561*
Y1183780*
X1145738Y1286614D02*
Y1290551D01*
X1149538Y1286614D02*
X1150956Y1285196D01*
X1150638Y1282283D02*
X1150956D01*
Y1285196*
X1191660Y1275505D02*
Y1282580D01*
X1194592Y1285512*
X1199567*
X1196654Y1280512D02*
X1201654D01*
X1201811Y1280354*
X1217259*
X1219227Y1282323*
X1232852*
X1240276Y1289746*
Y1298854*
X1208268Y1292756D02*
X1212642D01*
Y1292913*
Y1286250*
X1213467*
X1219642Y1292913D02*
X1224528D01*
X1225807Y1291634*
X1231346*
X1219467Y1286250D02*
X1219642D01*
Y1292913*
X1231346Y1294193D02*
Y1294213D01*
X1237402*
X1250227Y1285071D02*
X1253526Y1281772D01*
X1299362*
Y1282283*
X1250227Y1285071D02*
Y1290734D01*
X1251127Y1291634*
X1254480*
X1248427Y1284325D02*
Y1294052D01*
X1251127Y1296752*
X1254480*
X1248427Y1284325D02*
X1252831Y1279921D01*
X1288386*
X1295472Y1272835*
X1299362*
X1246614Y1283592D02*
Y1294798D01*
X1251127Y1299311*
X1254480*
X1246614Y1283592D02*
X1252726Y1277480D01*
X1285984*
X1295354Y1268110*
Y1264370*
X1297126Y1262598*
X1299362*
X1254480Y1294193D02*
X1264990D01*
Y1293886*
X1254480Y1289075D02*
X1257834D01*
X1259567Y1287342*
Y1286378*
X1262362Y1283583*
X1289354*
X1292441Y1286669*
Y1291142*
X1294606Y1293307*
X1299362*
X1270990Y1293886D02*
Y1293986D01*
X1287556Y1310551*
X1316933*
X1326457Y1301027*
Y1266874*
X1264990Y1288768D02*
Y1293886D01*
X1305362Y1288583D02*
Y1288996D01*
X1320079*
X1305362Y1288583D02*
Y1293307D01*
Y1277559D02*
Y1282283D01*
X1310118*
X1311831Y1283996*
X1320079*
X1057512Y1306417D02*
X1057866D01*
X1059505Y1304424*
X1060465Y1303465*
X1068071*
X1071024Y1306417*
X1075228*
Y1306317*
X1079341Y1302205*
X1087559*
X1091521Y1306167*
Y1306417*
X1081228D02*
Y1319165D01*
X1091370Y1306417D02*
X1091521D01*
X1097370D02*
X1097402D01*
Y1284372*
X1098819Y1282955*
Y1225157*
X1102756Y1221220*
X1124803*
X1155591Y1190433*
X1199362*
X1207708Y1182087*
X1217904*
X1196654Y1300512D02*
X1203307D01*
X1205945Y1297874*
X1215685*
X1219385Y1301575*
X1219535*
X1209016Y1301457D02*
X1213535D01*
Y1301575*
X1219535D02*
X1222835D01*
X1223130Y1301870*
X1231346*
X1219535Y1301575D02*
Y1306299D01*
X1213535D02*
Y1312404D01*
X1219142Y1318010*
Y1318110*
X1231346Y1304429D02*
X1234700D01*
X1240276Y1298854*
X1231346Y1309547D02*
X1234700D01*
X1242391Y1301857*
X1254480Y1301870D02*
X1259035D01*
X1261496Y1304331*
X1265110*
X1271102Y1308307D02*
Y1304331D01*
X1271110*
Y1299606D02*
X1273543D01*
X1286299Y1312362*
X1317667*
X1328307Y1301722*
X1265110Y1299606D02*
Y1304331D01*
X1293110Y1306614D02*
X1298075D01*
Y1306693*
Y1300000*
X1298969*
X1304969D02*
X1310397D01*
X1311401Y1298996*
X1320079*
X1304969Y1300000D02*
Y1306693D01*
X1305075*
X1074685Y1325709D02*
Y1330827D01*
X1076496Y1332638*
X1089961*
X1101142Y1321457*
Y1227598*
X1105276Y1223465*
X1125118*
X1156339Y1192244*
X1200096*
X1208285Y1184055*
X1212913*
X1214274Y1184094*
X1217904*
Y1184055*
X1084685Y1325709D02*
Y1321181D01*
Y1320236*
X1085787Y1319134*
X1091260*
X1097370Y1313024*
Y1306417*
X1218748Y1323228D02*
X1220948D01*
X1223505Y1320671*
Y1320628*
X1224213Y1319921*
Y1310769*
X1227993Y1306988*
X1231346*
X1212748Y1323228D02*
Y1318110D01*
X1213142*
X1284331Y1338740D02*
X1285039Y1339449D01*
X1288701*
X1295236Y1345984*
Y1369344*
X1287677Y1335157D02*
X1288386Y1335827D01*
X1297244Y1344685*
Y1369882*
X1231102Y1363622D02*
X1231732Y1362992D01*
X1236173*
X1231301Y1366496D02*
X1232837Y1364961D01*
X1236173*
Y1359055D02*
X1236909D01*
Y1357185*
X1252067Y1356909D02*
Y1359055D01*
X1253591*
Y1366929D02*
X1257441D01*
X1257992Y1367480*
X1253591Y1364961D02*
X1258089D01*
X1261732Y1368604*
Y1373840*
X1262901Y1375009*
X1263189*
X1263849Y1375670*
X1263858*
Y1375669*
X1291457*
X1297244Y1369882*
X1253591Y1362992D02*
X1258666D01*
X1263532Y1367859*
Y1372509*
X1264843Y1373819*
X1290762*
X1290762D02*
X1295236Y1369344D01*
X1253591Y1361024D02*
X1265686D01*
X1266270Y1360440*
X1276302*
G54D151*
X1182586Y1348589D03*
Y1338589D03*
Y1328589D03*
X1172586D03*
Y1348589D03*
X1161720D03*
Y1338589D03*
Y1328589D03*
X1151720D03*
Y1348589D03*
X1167583Y1249061D03*
Y1259061D03*
Y1269061D03*
X1177583D03*
Y1249061D03*
X1310630Y1337402D03*
Y1327402D03*
Y1317402D03*
X1300630D03*
Y1337402D03*
G54D183*
X1341775Y1329990D03*
X1335775D03*
X1341775Y1339832D03*
X1335775D03*
Y1335108D03*
X1341775D03*
X1281658Y1240261D03*
X1275658D03*
X1281658Y1235536D03*
X1275658D03*
Y1230025D03*
X1281658D03*
X1275592Y1245641D03*
X1281592D03*
X1271813Y1159756D03*
X1277813D03*
X1332878Y1356876D03*
X1326878D03*
X1264990Y1293886D03*
X1270990D03*
X1105797Y1195769D03*
X1099797D03*
X1105797Y1191044D03*
X1099797D03*
X1197471Y1234875D03*
X1191471D03*
X1197471Y1245111D03*
X1191471D03*
X1197756Y1218458D03*
X1191756D03*
X1271150Y1186717D03*
X1277150D03*
X1301013Y1246141D03*
X1307013D03*
X1331646Y1223622D03*
X1337646D03*
Y1228740D03*
X1331646D03*
Y1233465D03*
X1337646D03*
X1239894Y1155878D03*
X1245894D03*
X1168748Y1051181D03*
X1162748D03*
X1113630Y1060236D03*
X1107630D03*
X1284496Y1063780D03*
X1278496D03*
X1312055Y1064961D03*
X1306055D03*
X1365598Y1081102D03*
X1359598D03*
X1136465Y1101575D03*
X1130465D03*
X1100150Y1116142D03*
X1106150D03*
X1191189Y1178346D03*
X1185189D03*
X1219142Y1318110D03*
X1213142D03*
X1130465Y1106299D03*
X1136465D03*
X1115992Y1051969D03*
X1109992D03*
X1106150Y1120866D03*
X1100150D03*
X1365598Y1091339D03*
X1359598D03*
X1265110Y1299606D03*
X1271110D03*
X1081228Y1306417D03*
X1075228D03*
X1305362Y1293307D03*
X1299362D03*
X1305362Y1282283D03*
X1299362D03*
X1305362Y1272835D03*
X1299362D03*
X1337646Y1218110D03*
X1331646D03*
X1305362Y1262598D03*
X1299362D03*
X1219535Y1306299D03*
X1213535D03*
X1097370Y1306417D03*
X1091370D03*
X1103787Y1043307D03*
X1097787D03*
X1312055Y1074409D03*
X1306055D03*
X1359598Y1072835D03*
X1365598D03*
X1144638Y1268110D03*
X1150638D03*
X1097787Y1038583D03*
X1103787D03*
Y1052756D03*
X1097787D03*
Y1048031D03*
X1103787D03*
X1144638Y1277559D03*
X1150638D03*
Y1272835D03*
X1144638D03*
G54D184*
X1327871Y1183434D03*
Y1189434D03*
X1322497D03*
Y1183434D03*
X1338171Y1321560D03*
Y1315560D03*
X1206299Y1084008D03*
Y1090008D03*
X1239370Y1222591D03*
Y1228591D03*
X1215748Y1090008D03*
Y1084008D03*
X1211024Y1090008D03*
Y1084008D03*
X1220472D03*
Y1090008D03*
X1102756Y1079677D03*
Y1085677D03*
X1225197Y1084008D03*
Y1090008D03*
X1200787Y1084008D03*
Y1090008D03*
X1230315Y1097094D03*
Y1091094D03*
X1255118Y1264323D03*
Y1270323D03*
X1234646Y1155756D03*
Y1149756D03*
G54D185*
X1145738Y1290551D03*
X1149538D03*
Y1286614D03*
X1145738D03*
G54D186*
X1271813Y1164480D03*
X1277813D03*
X1332875Y1362216D03*
X1326875D03*
X1264990Y1288768D03*
X1270990D03*
X1219467Y1286250D03*
X1213467D03*
X1190684Y1239993D03*
X1196684D03*
X1190968Y1223970D03*
X1196968D03*
X1271439Y1171888D03*
X1277439D03*
X1337506Y1240734D03*
X1331506D03*
X1359598Y1085827D03*
X1365598D03*
X1298969Y1300000D03*
X1304969D03*
X1312055Y1107874D03*
X1306055D03*
Y1090945D03*
X1312055D03*
Y1101575D03*
X1306055D03*
X1312055Y1081102D03*
X1306055D03*
X1336858Y1113780D03*
X1330858D03*
X1239520Y1149606D03*
X1245520D03*
X1229772D03*
X1223772D03*
X1192370Y1163780D03*
X1186370D03*
X1271016Y1194488D03*
X1277016D03*
X1191189Y1183465D03*
X1185189D03*
X1256937Y1150787D03*
X1250937D03*
X1221898Y1156299D03*
X1215898D03*
X1100150Y1111024D03*
X1106150D03*
X1109992Y1047244D03*
X1115992D03*
X1130465Y1096850D03*
X1136465D03*
X1057512Y1306417D03*
X1063512D03*
X1212748Y1323228D03*
X1218748D03*
X1306543Y1218110D03*
X1300543D03*
X1150638Y1282283D03*
X1144638D03*
X1265110Y1304331D03*
X1271110D03*
X1305362Y1277559D03*
X1299362D03*
X1305362Y1268110D03*
X1299362D03*
X1305362Y1257874D03*
X1299362D03*
X1305362Y1288583D03*
X1299362D03*
X1219535Y1301575D03*
X1213535D03*
X1278496Y1059055D03*
X1284496D03*
X1312055Y1069685D03*
X1306055D03*
X1184795Y1076772D03*
X1190795D03*
G54D187*
X1145933Y1055492D03*
Y1060492D03*
Y1065492D03*
Y1070492D03*
X1124933D03*
Y1065492D03*
Y1060492D03*
Y1055492D03*
X1323858Y1107264D03*
Y1102264D03*
Y1097264D03*
Y1092264D03*
Y1087264D03*
Y1082264D03*
Y1077264D03*
Y1072264D03*
X1343858D03*
Y1077264D03*
Y1082264D03*
Y1087264D03*
Y1092264D03*
Y1097264D03*
Y1102264D03*
Y1107264D03*
G54D216*
X1347205Y1336110D03*
Y1330110D03*
X1333081Y1183434D03*
Y1189434D03*
X1234646Y1222591D03*
Y1228591D03*
X1264173Y1156055D03*
Y1162055D03*
X1288189Y1087157D03*
Y1093157D03*
X1097638Y1079677D03*
Y1085677D03*
X1220472Y1222591D03*
Y1228591D03*
X1224803Y1098181D03*
Y1104181D03*
X1144094Y1088039D03*
Y1082039D03*
X1259843Y1264323D03*
Y1270323D03*
G54D224*
X1276302Y1360440D03*
Y1367440D03*
X1162205Y1065705D03*
Y1058705D03*
X1137402Y1088539D03*
Y1081539D03*
X1129134Y1088539D03*
Y1081539D03*
X1281496Y1086264D03*
Y1093264D03*
X1170472Y1065705D03*
Y1058705D03*
X1273228Y1086264D03*
Y1093264D03*
X1218110Y1104287D03*
Y1097287D03*
X1209843Y1104287D03*
Y1097287D03*
X1265748Y1342563D03*
Y1349563D03*
X1274016Y1342563D03*
Y1349563D03*
X1218110Y1358705D03*
Y1365705D03*
G54D225*
X1106736Y1066929D03*
X1113736D03*
X1194445Y1170866D03*
X1187445D03*
X1219642Y1292913D03*
X1212642D03*
X1298075Y1306693D03*
X1305075D03*
G54D227*
X1236173Y1366929D03*
Y1364961D03*
Y1362992D03*
Y1361024D03*
Y1359055D03*
X1253591D03*
Y1361024D03*
Y1362992D03*
Y1364961D03*
Y1366929D03*
G54D228*
X1244882Y1362992D03*
G54D229*
X1183169Y1372559D03*
Y1379252D03*
X1166083Y1372559D03*
Y1379252D03*
X1148839Y1372559D03*
Y1379252D03*
X1132579Y1372559D03*
Y1379252D03*
X1115846Y1372559D03*
Y1379252D03*
X1099422Y1372556D03*
Y1379249D03*
G54D230*
X1231346Y1309547D03*
Y1306988D03*
Y1304429D03*
Y1301870D03*
Y1299311D03*
Y1296752D03*
Y1294193D03*
Y1291634D03*
Y1289075D03*
Y1286516D03*
X1254480D03*
Y1289075D03*
Y1291634D03*
Y1294193D03*
Y1296752D03*
Y1299311D03*
Y1301870D03*
Y1304429D03*
Y1306988D03*
Y1309547D03*
G54D231*
X1101806Y1178526D03*
X1196654Y1270512D03*
G54D232*
X1101806Y1168526D03*
Y1158526D03*
Y1148526D03*
X1345814Y1146769D03*
X1371414D03*
X1345814Y1129049D03*
X1371414D03*
X1196654Y1280512D03*
Y1290512D03*
Y1300512D03*
G54D233*
X1183268Y1090354D03*
Y1086614D03*
Y1082874D03*
X1192323D03*
Y1090354D03*
G54D234*
X1135433Y1062992D03*
G54D235*
X1242323Y1264961D03*
X1249803D03*
X1246063Y1272835D03*
X1112402Y1113780D03*
X1119882D03*
X1116142Y1121654D03*
X1359252Y1097638D03*
X1366732D03*
X1362992Y1105512D03*
X1209252Y1264961D03*
X1216732D03*
X1212992Y1272835D03*
G54D236*
X1182283Y1102362D03*
X1198031D03*
G54D237*
X1115685Y1098587D03*
X1123685D03*
X1119685Y1107087D03*
X1107543Y1103776D03*
X1099543D03*
X1103543Y1095276D03*
X1108992Y1081264D03*
X1116992D03*
X1112992Y1089764D03*
G54D238*
X1224606Y1165542D03*
X1226575D03*
X1228543D03*
X1230512D03*
X1232480D03*
X1234449D03*
X1236417D03*
X1238386D03*
X1240354D03*
X1242323D03*
X1244291D03*
X1246260D03*
Y1200600D03*
X1244291D03*
X1242323D03*
X1240354D03*
X1238386D03*
X1236417D03*
X1234449D03*
X1232480D03*
X1230512D03*
X1228543D03*
X1226575D03*
X1224606D03*
G54D239*
X1252962Y1172244D03*
Y1174213D03*
Y1176181D03*
Y1178150D03*
Y1180118D03*
Y1182087D03*
Y1184055D03*
Y1186024D03*
Y1187992D03*
Y1189961D03*
Y1191929D03*
Y1193898D03*
X1217904D03*
Y1191929D03*
Y1189961D03*
Y1187992D03*
Y1186024D03*
Y1184055D03*
Y1182087D03*
Y1180118D03*
Y1178150D03*
Y1176181D03*
Y1174213D03*
Y1172244D03*
G54D240*
X1263724Y1100195D03*
X1254724D03*
X1245724D03*
G54D241*
X1254724Y1075395D03*
G54D242*
X1161417Y1086516D03*
Y1101673D03*
G54D243*
X1289528Y1048898D03*
G54D244*
X1218524Y1043307D03*
X1316909D03*
G54D245*
X1225591Y1135433D03*
X1244803D03*
G54D246*
X1320079Y1298996D03*
Y1293996D03*
Y1288996D03*
Y1283996D03*
Y1278996D03*
Y1273996D03*
Y1268996D03*
Y1263996D03*
G54D247*
X1121065Y1026280D03*
X1142715D03*
G54D248*
X1125905D03*
X1137875D03*
G54D249*
X1129920D03*
X1133860D03*
G54D250*
X1114882Y1025688D03*
Y1010728D03*
X1148898Y1010729D03*
Y1025688D03*
G54D251*
X1072067Y1361417D03*
X1361417Y1321634D03*
G54D252*
X1057067Y1361417D03*
X1361417Y1336634D03*
G54D253*
X1315193Y1224606D03*
Y1227165D03*
Y1229724D03*
Y1232283D03*
Y1234843D03*
Y1237402D03*
Y1239961D03*
X1291893D03*
Y1237402D03*
Y1234843D03*
Y1232283D03*
Y1229724D03*
Y1227165D03*
Y1224606D03*
G54D254*
X1236909Y1342126D03*
X1252067D03*
G54D255*
X1041929Y1053346D03*
X1041969Y1340433D03*
G54D256*
X1041929Y1087421D03*
Y1306378D03*
G74*
X0Y0D02*
M02*
